<svg viewBox="200 160 1180.0000000000002 879.9999999999997" fill="none" xmlns="http://www.w3.org/2000/svg" xmlns:xlink="http://www.w3.org/1999/xlink" overflow="visible" width="1180.0000000000002px" height="879.9999999999997px"><g id="Master/Close Ups/Working"><g id="Food" transform="translate(707 418) scale(1 1)"><g id="Food/Fruit"><g id="Group"><path id="Stroke 6" fill-rule="evenodd" clip-rule="evenodd" d="M181.282 12.0648C184.752 10.7249 188.654 12.4506 189.996 15.9192C191.288 19.2594 189.735 22.9978 186.519 24.4666L185.434 24.9189C185.191 25.0237 184.899 25.1522 184.561 25.3048L184.208 25.4656C182.505 26.2464 180.572 27.2169 178.456 28.3848C172.358 31.7495 166.073 35.9997 159.97 41.1917C147.366 51.9153 137.255 65.1736 130.842 81.2057C129.461 84.6582 125.54 86.3374 122.085 84.9564C118.63 83.5754 116.948 79.6571 118.329 76.2046C125.608 58.0067 137.049 43.0057 151.233 30.9378C158.06 25.1294 165.087 20.3775 171.94 16.5963C176.106 14.2976 179.343 12.8134 181.282 12.0648Z" fill="#6A6434"/><path id="Fill 1" fill-rule="evenodd" clip-rule="evenodd" d="M213.089 180.177C227.488 81.4488 168.876 72.4933 136.218 66.1453C103.561 59.7973 23.4931 54.7655 23.6763 153.519C23.899 273.601 199.74 271.705 213.089 180.177Z" fill="#B164E7"/><path id="Fill 4" fill-rule="evenodd" clip-rule="evenodd" d="M133.417 84.851C133.417 84.851 161.383 42.7651 92.707 13.7773C92.707 13.7773 75.5481 73.6023 133.417 84.851" fill="#B5E581"/></g></g></g><g id="Computer"><path id="Monitor" fill-rule="evenodd" clip-rule="evenodd" d="M255.556 475.339L709.308 254.513C731.655 243.638 758.587 252.937 769.463 275.284C772.448 281.419 774 288.153 774 294.976V636.214C774 661.086 759.807 683.777 737.444 694.661L283.692 915.487C261.345 926.362 234.413 917.063 223.537 894.716C220.552 888.581 219 881.847 219 875.024V533.786C219 508.914 233.192 486.223 255.556 475.339ZM724 636.214V302.969L277.436 520.298C272.275 522.81 269 528.046 269 533.786V867.03L715.564 649.702C720.622 647.241 723.868 642.162 723.996 636.558L724 636.214Z" fill="#E4EDF1"/><path id="Path" d="M746.983 286.224C748.31 288.951 749 291.944 749 294.976V636.214C749 651.52 740.266 665.484 726.504 672.181L272.752 893.007C262.82 897.841 250.85 893.708 246.017 883.776C244.69 881.049 244 878.056 244 875.024V533.785C244 518.48 252.734 504.516 266.496 497.819L720.248 276.993C730.18 272.159 742.15 276.292 746.983 286.224Z" fill="#6E8B9A"/><path id="Path_2" d="M709 636.214V326.951L284 533.785L284 843.047L709 636.214Z" fill="#001D2D"/><path id="Keyboard" fill-rule="evenodd" clip-rule="evenodd" d="M424 897.21C424 889.529 428.398 882.527 435.318 879.193L708.45 747.57C713.195 745.283 718.651 744.96 723.633 746.673L827.994 782.541C844.893 788.349 846.273 811.715 830.176 819.472L587.241 936.543C583.908 938.15 580.194 938.8 576.514 938.422L441.956 924.595C431.755 923.547 424 914.954 424 904.7V897.21Z" fill="#E4EDF1"/><g id="code"><path id="Path_3" fill-rule="evenodd" clip-rule="evenodd" d="M673.387 411.987L642.034 427.29C637.071 429.712 631.084 427.653 628.661 422.689C626.239 417.726 628.298 411.739 633.262 409.316L664.614 394.013C669.577 391.591 675.564 393.651 677.987 398.614C680.409 403.577 678.35 409.564 673.387 411.987ZM540.485 476.855L606.088 444.835C611.051 442.413 613.11 436.425 610.688 431.462C608.265 426.499 602.278 424.439 597.315 426.862L531.712 458.882C526.749 461.305 524.69 467.292 527.112 472.255C529.535 477.218 535.522 479.278 540.485 476.855ZM504.538 494.401L438.936 526.421C433.973 528.844 427.985 526.784 425.563 521.821C423.14 516.858 425.2 510.87 430.163 508.448L495.766 476.427C500.729 474.005 506.716 476.065 509.139 481.028C511.561 485.991 509.502 491.978 504.538 494.401ZM402.989 543.966L337.387 575.987C332.423 578.409 326.436 576.35 324.014 571.386C321.591 566.423 323.651 560.436 328.614 558.013L394.217 525.993C399.18 523.571 405.167 525.63 407.59 530.593C410.012 535.557 407.952 541.544 402.989 543.966Z" fill="white"/><path id="Path Copy" fill-rule="evenodd" clip-rule="evenodd" d="M469.655 566.103L421.999 589.295C417.033 591.712 411.048 589.645 408.632 584.68C406.215 579.714 408.281 573.729 413.247 571.312L460.903 548.119C465.869 545.702 471.854 547.769 474.271 552.735C476.688 557.701 474.621 563.686 469.655 566.103ZM386.032 606.799L338.376 629.992C333.41 632.409 327.425 630.342 325.009 625.376C322.592 620.41 324.658 614.425 329.624 612.008L377.28 588.816C382.246 586.399 388.231 588.465 390.648 593.431C393.065 598.397 390.998 604.382 386.032 606.799Z" fill="white"/><path id="Path Copy_2" d="M501.392 549.984L546.392 527.984C551.354 525.558 553.41 519.57 550.984 514.608C548.558 509.646 542.57 507.591 537.608 510.016L492.608 532.016C487.647 534.442 485.591 540.431 488.016 545.392C490.442 550.354 496.431 552.41 501.392 549.984Z" fill="#FF8282"/><path id="Path Copy_3" fill-rule="evenodd" clip-rule="evenodd" d="M673.361 465.999L660.054 472.447C655.084 474.855 649.102 472.778 646.694 467.808C644.286 462.838 646.363 456.857 651.333 454.449L664.64 448.001C669.61 445.593 675.591 447.669 678 452.64C680.408 457.61 678.331 463.591 673.361 465.999ZM624.057 489.889L576.361 512.999C571.391 515.408 565.409 513.331 563.001 508.361C560.593 503.39 562.67 497.409 567.64 495.001L615.336 471.89C620.306 469.482 626.287 471.559 628.696 476.529C631.104 481.499 629.027 487.481 624.057 489.889Z" fill="#A37BFF"/><path id="Path Copy 2" fill-rule="evenodd" clip-rule="evenodd" d="M441.367 633.996L422.031 643.383C417.062 645.795 411.079 643.722 408.668 638.754C406.256 633.785 408.328 627.803 413.297 625.391L432.633 616.004C437.602 613.592 443.585 615.665 445.996 620.633C448.408 625.601 446.336 631.584 441.367 633.996ZM386.046 660.851L338.367 683.996C333.399 686.408 327.416 684.335 325.004 679.367C322.592 674.399 324.665 668.416 329.633 666.004L377.312 642.859C382.281 640.447 388.264 642.519 390.676 647.488C393.087 652.456 391.015 658.439 386.046 660.851Z" fill="#26A9FF"/><path id="Path Copy 2_2" d="M480.409 615.976L527.98 592.608C532.937 590.173 534.981 584.18 532.546 579.223C530.111 574.266 524.119 572.222 519.162 574.657L471.591 598.024C466.634 600.46 464.59 606.452 467.025 611.409C469.46 616.366 475.452 618.411 480.409 615.976Z" fill="#FF8282"/><path id="Path Copy 3" fill-rule="evenodd" clip-rule="evenodd" d="M660.008 580.517L576.432 621.31C571.469 623.733 565.481 621.673 563.059 616.71C560.636 611.746 562.696 605.759 567.659 603.337L651.235 562.544C656.198 560.121 662.185 562.181 664.608 567.144C667.03 572.107 664.971 578.094 660.008 580.517ZM456.909 679.648L540.485 638.855C545.448 636.433 547.508 630.446 545.085 625.482C542.663 620.519 536.676 618.46 531.712 620.882L448.136 661.675C443.173 664.098 441.114 670.085 443.536 675.048C445.959 680.011 451.946 682.071 456.909 679.648ZM337.387 737.987L420.963 697.194C425.926 694.771 427.985 688.784 425.563 683.821C423.14 678.858 417.153 676.798 412.19 679.22L328.614 720.013C323.651 722.436 321.591 728.423 324.014 733.386C326.436 738.35 332.423 740.409 337.387 737.987Z" fill="white"/><path id="Path Copy 4" fill-rule="evenodd" clip-rule="evenodd" d="M552.274 687.396L504.619 710.591C499.653 713.008 493.668 710.941 491.251 705.975C488.834 701.01 490.9 695.025 495.866 692.608L543.521 669.413C548.487 666.996 554.472 669.062 556.889 674.028C559.306 678.994 557.24 684.979 552.274 687.396ZM420.998 751.291L468.653 728.096C473.619 725.679 475.685 719.694 473.268 714.728C470.851 709.762 464.866 707.696 459.9 710.113L412.245 733.308C407.279 735.725 405.213 741.71 407.63 746.676C410.047 751.642 416.032 753.708 420.998 751.291ZM337.377 791.992L385.032 768.797C389.998 766.38 392.064 760.395 389.647 755.429C387.23 750.463 381.245 748.397 376.279 750.814L328.624 774.008C323.658 776.426 321.592 782.411 324.009 787.376C326.426 792.342 332.411 794.409 337.377 791.992Z" fill="#26A9FF"/></g></g><g id="Plants" transform="translate(327 870) scale(0.4666666666666667 0.4666666666666667)"><g id="Plants/Sansi"><path id="Path 159 Copy" d="M106.237 278C106.237 278 101.002 153 123.002 29C178.002 167 170.237 278 170.237 278H106.237Z" fill="#59BCAB"/><path id="Path 159 Copy 2" d="M136.81 270C136.81 270 118.575 167 157.575 0C199.575 140 200.81 270 200.81 270H136.81Z" fill="#42AB99"/><path id="Path 159" d="M106 288C106 288 78 187 30 72C114 135 187 288 187 288H106Z" fill="#59BCAB"/><path id="Path 159 Copy_2" d="M120 288C120 288 176 159 272 72C219 258 210 288 210 288H120Z" fill="#59BCAB"/><path id="Path 159 Copy_3" d="M139 288C139 288 156 182 213 46C225 199 203 288 203 288H139Z" fill="#82D1C4"/><path id="Path 159 Copy 3" d="M114.001 288C114.001 288 90.0008 214 96.0008 93C150.001 205 178.001 288 178.001 288H114.001Z" fill="#82D1C4"/><path id="Rectangle" fill-rule="evenodd" clip-rule="evenodd" d="M87 240H227V254.894C227 269.307 221.037 283.077 210.526 292.939V292.939C205.691 297.475 199.31 300 192.68 300H121.32C114.69 300 108.309 297.475 103.474 292.939V292.939C92.9627 283.077 87 269.307 87 254.894V240Z" fill="#E4EDF1"/><path id="Combined Shape" fill-rule="evenodd" clip-rule="evenodd" d="M209 254C209 251.791 207.209 250 205 250H186L185.8 250.005C183.684 250.109 182 251.858 182 254C182 256.209 183.791 258 186 258H205L205.2 257.995C207.316 257.891 209 256.142 209 254ZM213 268C213 265.791 211.209 264 209 264H200L199.8 264.005C197.684 264.109 196 265.858 196 268C196 270.209 197.791 272 200 272H209L209.2 271.995C211.316 271.891 213 270.142 213 268ZM186 270C188.209 270 190 271.791 190 274C190 276.142 188.316 277.891 186.2 277.995L186 278H173C170.791 278 169 276.209 169 274C169 271.858 170.684 270.109 172.8 270.005L173 270H186ZM197 288C197 285.791 195.209 284 193 284H180L179.8 284.005C177.684 284.109 176 285.858 176 288C176 290.209 177.791 292 180 292H193L193.2 291.995C195.316 291.891 197 290.142 197 288Z" fill="#B9CCD4"/></g></g><g id="Master/Character/Bust" transform="matrix(-1 0 0 1 1664 0) scale(1 1)"><g id="Master/Character/Bust"><g id="Bodies" transform="translate(290 534) scale(1 1)"><g id="Bodies/Green B"><g id="Group"><path id="Mask" fill-rule="evenodd" clip-rule="evenodd" d="M87.3758 98.6254C55.2838 135.268 40.9068 187.81 65.1858 229.117C83.7298 260.665 119.85 280.63 156.81 292.928C212.938 311.603 276.392 315.647 332.303 296.443C388.213 277.238 434.854 232.727 445.139 179.222C453.22 137.183 446.599 85.9854 387.998 55.3514C342.94 31.7974 163.736 11.4374 87.3758 98.6254" fill="#21BFCA"/><mask id="mask006e25dba-2dbc-4171-afd9-0233672f6f02" mask-type="alpha" maskUnits="userSpaceOnUse" x="53" y="35" width="395" height="275" fill="#ffffff"><path id="Mask_2" fill-rule="evenodd" clip-rule="evenodd" d="M87.3758 98.6254C55.2838 135.268 40.9068 187.81 65.1858 229.117C83.7298 260.665 119.85 280.63 156.81 292.928C212.938 311.603 276.392 315.647 332.303 296.443C388.213 277.238 434.854 232.727 445.139 179.222C453.22 137.183 446.599 85.9854 387.998 55.3514C342.94 31.7974 163.736 11.4374 87.3758 98.6254" fill="#ffffff"/></mask><g mask="url(#mask006e25dba-2dbc-4171-afd9-0233672f6f02)"><g id="Patterns"><g id="Group_2"><path id="Path 49" d="M47.5118 43.2402L452.512 52.9602L452.488 53.9599L47.4878 44.2399L47.5118 43.2402Z" fill="white"/><path id="Path 50" d="M452.476 88.6006L452.524 89.5994L47.524 109.039L47.4761 108.041L452.476 88.6006Z" fill="white"/><path id="Path 51" d="M452.449 116.953L452.551 117.947L47.5507 159.257L47.4492 158.263L452.449 116.953Z" fill="white"/><path id="Path 52" d="M47.5596 184.994L452.56 233.594L452.44 234.587L47.4404 185.987L47.5596 184.994Z" fill="white"/><path id="Path 53" d="M47.5477 209.292L452.548 248.172L452.452 249.168L47.4521 210.288L47.5477 209.292Z" fill="white"/><path id="Path 54" d="M47.5138 256.27L452.514 267.61L452.486 268.61L47.4858 257.27L47.5138 256.27Z" fill="white"/><path id="Path 55" d="M452.454 295.962L452.546 296.958L47.5457 334.218L47.4541 333.222L452.454 295.962Z" fill="white"/><path id="Path 59" d="M47.5199 175.271L452.52 191.471L452.48 192.47L47.48 176.27L47.5199 175.271Z" fill="white"/></g></g></g></g><path id="Mask_3" fill-rule="evenodd" clip-rule="evenodd" d="M143.677 352.329C131.006 377.229 137.22 409.212 155.202 430.594C173.185 451.975 201.107 463.401 228.965 465.525C256.823 467.649 284.722 461.251 311.016 451.807C331.365 444.498 351.537 435.01 366.613 419.51C381.688 404.009 390.929 381.483 385.993 360.432C374.273 310.445 312.926 307.16 271.858 309.058C226.927 311.135 168.228 304.085 143.677 352.329" fill="#2088A8"/><mask id="mask106e25dba-2dbc-4171-afd9-0233672f6f02" mask-type="alpha" maskUnits="userSpaceOnUse" x="137" y="308" width="251" height="158" fill="#ffffff"><path id="Mask_4" fill-rule="evenodd" clip-rule="evenodd" d="M143.677 352.329C131.006 377.229 137.22 409.212 155.202 430.594C173.185 451.975 201.107 463.401 228.965 465.525C256.823 467.649 284.722 461.251 311.016 451.807C331.365 444.498 351.537 435.01 366.613 419.51C381.688 404.009 390.929 381.483 385.993 360.432C374.273 310.445 312.926 307.16 271.858 309.058C226.927 311.135 168.228 304.085 143.677 352.329" fill="#ffffff"/></mask><g mask="url(#mask106e25dba-2dbc-4171-afd9-0233672f6f02)"><g id="Patterns_2"><g id="Group_3"><path id="Path 7" d="M184.584 472.023C181.212 472.707 166.841 475.617 162.722 476.398L161.104 476.702C153.936 478.033 148.281 478.888 143.218 479.359C130.405 480.551 121.499 479.176 115.21 474.467L114.893 474.225L115.506 473.435C121.568 478.149 130.325 479.554 143.126 478.364C148.34 477.879 154.2 476.981 161.724 475.569L163.793 475.173C169.685 474.026 184.599 471 185.088 470.9L187.553 470.412C213.207 465.378 231.672 463.011 251.754 463.011C277.901 463.011 298.337 465.58 329.114 471.63L345.893 474.977C346.905 475.176 347.86 475.363 348.793 475.544L351.681 476.098C357.465 477.194 362.423 478.054 367.196 478.77C378.227 480.426 388.062 481.268 397.835 481.268C427.509 481.268 465.055 454.112 510.398 399.759L511.774 398.104L512.544 398.742C466.409 454.411 428.198 482.268 397.835 482.268C388.009 482.268 378.124 481.422 367.047 479.759L365.444 479.514C360.609 478.763 355.519 477.858 349.532 476.705L344.666 475.754L331.544 473.13L327.631 472.358C297.629 466.502 277.457 464.011 251.754 464.011C231.749 464.011 213.34 466.371 187.751 471.393L184.584 472.023Z" fill="white"/><path id="Path 10" d="M512.541 386.839C487.077 417.072 457.094 437.763 422.599 448.906C410.579 452.788 395.915 453.803 377.331 452.494L375.081 452.327C363.065 451.4 353.786 450.152 330.338 446.442L312.583 443.62C300.863 441.78 292.858 440.627 284.321 439.583C253.636 435.831 229.594 435.639 208.228 440.015L207.397 440.188C160.068 450.177 129.328 446.103 115.22 427.854L114.798 427.296L115.6 426.7C129.075 444.836 159.118 449.142 205.772 439.505L207.19 439.209C228.614 434.687 252.635 434.774 283.246 438.446L287.158 438.929C294.92 439.913 302.611 441.038 313.489 442.75L332.886 445.832C355.343 449.369 364.23 450.521 376.423 451.426C395.356 452.832 410.205 451.858 422.292 447.954C456.261 436.982 485.833 416.698 511.014 387.094L511.776 386.194L512.541 386.839Z" fill="white"/><path id="Path 11" d="M512.187 370.936L512.131 371.934C493.105 370.878 478.099 375.997 456.574 388.662L454.658 389.799C453.747 390.342 452.798 390.913 451.748 391.548L443.815 396.376L441.448 397.805C426.985 406.493 417.427 411.329 405.972 415.172C390.677 420.304 374.728 422.202 356.708 420.453L355.705 420.352C311.107 415.707 266.951 418.498 214.901 426.643L211.908 427.117C201.691 428.762 176.107 433.148 171.644 433.843C147.879 437.539 129.041 429.718 115.208 410.412L114.79 409.823L115.608 409.248C129.123 428.477 147.489 436.371 170.783 432.961L171.815 432.803C177.297 431.933 204.01 427.352 213.007 425.929C265.311 417.653 309.629 414.715 354.319 419.205L355.809 419.357C374.097 421.262 390.21 419.406 405.654 414.224C417.229 410.34 426.869 405.428 441.714 396.478L450.775 390.969C452.473 389.94 453.904 389.081 455.302 388.252C477.138 375.316 492.346 369.977 511.516 370.901L512.187 370.936Z" fill="white"/><path id="Path 12" fill-rule="evenodd" clip-rule="evenodd" d="M186.121 378.083C198.39 379.669 208.328 383.223 213.108 388.076C218.685 393.735 217.1 400.745 207.606 408.338C188.967 423.247 170.613 428.467 156.146 424.304C142.848 420.476 134.547 408.981 134.547 394.454C134.547 381.047 159.37 374.624 186.121 378.083ZM156.423 423.343C170.545 427.407 188.577 422.278 206.982 407.558C216.06 400.296 217.495 393.952 212.396 388.777C207.967 384.282 198.727 380.877 187.233 379.243L185.993 379.075C159.798 375.688 135.547 381.963 135.547 394.454C135.547 408.544 143.561 419.641 156.423 423.343Z" fill="white"/><path id="Path 12_2" fill-rule="evenodd" clip-rule="evenodd" d="M182.18 386.416C189.937 387.429 196.224 389.701 199.268 392.821C202.862 396.506 201.838 401.08 195.79 405.966C184.02 415.477 172.412 418.812 163.245 416.147C154.797 413.691 149.524 406.313 149.524 397.001C149.524 388.314 165.248 384.204 182.18 386.416ZM163.524 415.187C172.343 417.751 183.627 414.509 195.162 405.188C200.798 400.634 201.674 396.721 198.552 393.519C195.702 390.597 189.605 388.394 182.05 387.407C165.672 385.268 150.524 389.228 150.524 397.001C150.524 405.877 155.513 412.857 163.524 415.187Z" fill="white"/><path id="Path 12_3" fill-rule="evenodd" clip-rule="evenodd" d="M178 395.594C180.971 395.975 183.388 396.833 184.589 398.043C186.09 399.555 185.657 401.453 183.258 403.358C174.391 410.397 165.402 407.829 165.402 399.807C165.402 396.316 171.476 394.757 178 395.594ZM166.402 399.807C166.402 406.876 174.355 409.148 182.636 402.575C184.618 401.002 184.898 399.773 183.88 398.748C182.871 397.732 180.643 396.941 177.873 396.586C171.906 395.82 166.402 397.233 166.402 399.807Z" fill="white"/><path id="Path 13" d="M512.182 358.235L512.135 359.234L509.346 359.109C474.186 357.604 445.679 359.128 421.845 363.29C402.688 366.635 387.54 371.377 371.473 378.345L370.424 378.803C366.191 380.659 349.901 388.301 345.778 390.073C329.111 397.232 315.551 400.027 296.977 398.922C270.642 397.355 252.214 391.988 230.849 381.655L229.562 381.026C226.968 379.736 214.874 373.639 211.281 371.967C198.372 365.958 188.09 363.204 175.537 363.204C148.444 363.204 128.615 372.209 115.992 390.219L115.612 390.768L114.787 390.202C127.589 371.536 147.859 362.204 175.537 362.204C187.988 362.204 198.237 364.879 210.892 370.685L212.084 371.239C216.367 373.264 229.084 379.682 230.384 380.317C252.024 390.884 270.474 396.343 297.036 397.924C315.137 399.001 328.403 396.347 344.559 389.505L345.383 389.154C349.488 387.391 365.773 379.75 370.022 377.887C386.551 370.638 402.015 365.737 421.673 362.304L423.57 361.98C447.408 357.998 475.844 356.605 510.781 358.171L512.182 358.235Z" fill="white"/><path id="Path 14" fill-rule="evenodd" clip-rule="evenodd" d="M400.381 377.022C423.111 371.105 444.288 369.543 446.711 374.386C448.197 377.358 446.187 380.742 441.345 384.519L440.738 384.984C437.075 387.735 432.032 390.636 425.716 393.761L425.235 393.997C421.123 396.004 412.969 399.685 408.711 401.607C407.855 401.993 407.156 402.309 406.68 402.525L405.997 402.839C399.452 406.111 390.072 409.511 382.036 410.823C370.217 412.752 362.243 410.18 360.036 401.724C357.78 393.075 374.322 383.896 399.692 377.202L400.381 377.022ZM425.939 392.533C431.893 389.56 436.662 386.794 440.138 384.184C445.064 380.485 447.063 377.326 445.816 374.834C443.721 370.645 422.28 372.277 399.947 378.169L399.207 378.366C374.887 384.876 358.997 393.781 361.004 401.472C363.043 409.287 370.501 411.692 381.875 409.836C389.797 408.543 399.088 405.175 405.55 401.944C405.706 401.866 406.776 401.383 408.365 400.666C412.586 398.76 420.465 395.203 424.592 393.198L425.939 392.533Z" fill="white"/><path id="Path 14_2" fill-rule="evenodd" clip-rule="evenodd" d="M393.911 385.94C406.157 382.778 417.443 381.957 418.813 384.682C419.71 386.465 418.458 388.432 415.559 390.596C413.592 392.065 410.892 393.61 407.513 395.272L407.16 395.444C404.929 396.523 400.652 398.442 398.422 399.443C397.738 399.75 397.246 399.97 397.065 400.054L396.532 400.313C393.054 401.985 388.279 403.671 384.155 404.34C377.749 405.38 373.377 403.977 372.161 399.344C370.903 394.549 379.796 389.642 393.474 386.054L393.911 385.94ZM407.071 394.375C410.4 392.737 413.053 391.219 414.961 389.795C417.504 387.895 418.513 386.311 417.92 385.132C416.91 383.124 406.027 383.898 394.576 386.802L393.274 387.141C380.488 390.553 372.114 395.225 373.128 399.09C374.176 403.084 378.033 404.32 383.995 403.353C388.193 402.671 393.126 400.893 396.553 399.19C396.639 399.147 397.219 398.887 398.078 398.501C400.077 397.604 403.587 396.028 405.885 394.944L407.071 394.375Z" fill="white"/><path id="Path 15" d="M512.308 347.145L512.01 348.099C483.786 339.293 459.686 335.9 436.975 336.858L435.406 336.93C418.754 337.761 404.543 340.554 382.619 346.542L370.138 350.005C346.516 356.531 333.298 359.383 316.176 360.924L315.507 360.983C292.089 363.031 267.361 361.248 238.697 354.767L237.351 354.459C151.157 334.613 107.574 351.654 106.201 405.516L106.172 407.159L105.172 407.149C105.7 351.74 149.096 333.676 234.96 352.891L237.575 353.485C266.264 360.091 290.971 361.999 314.326 360.08L315.42 359.987C333.24 358.428 346.674 355.49 371.733 348.525L380.274 346.149L382.359 345.577C405.033 339.383 419.503 336.594 436.932 335.859C459.426 334.91 483.265 338.205 511.06 346.758L512.308 347.145Z" fill="white"/><path id="Path 16" d="M529.222 321.909L528.441 322.534C508.095 297.107 486.711 287.394 461.469 289.718C451.03 290.679 439.928 293.647 426.848 298.69L425.91 299.054C420.57 301.139 414.942 303.54 408.234 306.564L405.469 307.818C403.873 308.545 402.191 309.318 400.275 310.203L388.196 315.802L385.318 317.126C354.665 331.171 335.584 337.941 313.748 340.974C257.063 348.845 191.57 338.018 117.268 308.505L115.013 307.604L115.386 306.676C190.468 336.809 256.543 347.908 313.61 339.983L314.95 339.792C336.338 336.654 355.361 329.791 385.856 315.779L402.575 308.042C404.124 307.331 405.543 306.683 406.941 306.051L409.554 304.876C415.525 302.206 420.655 300.032 425.547 298.123C439.115 292.827 450.584 289.716 461.377 288.722C486.708 286.39 508.237 296.031 528.605 321.144L529.222 321.909Z" fill="white"/><path id="Path 17" d="M521.946 289.25L521.426 290.105C514.666 285.991 508.654 282.949 500.538 279.99C489.426 275.938 476.436 272.997 461 271.422C421.561 267.399 369.826 272.605 303.127 289.642L301.101 290.162C201.407 315.867 131.013 312.746 89.9227 280.727L88.6865 279.748L89.3136 278.969C129.509 311.328 199.019 315.016 297.848 289.961L300.852 289.193C368.637 271.715 421.136 266.35 461.101 270.428C476.618 272.011 489.69 274.97 500.88 279.05C508.773 281.928 514.698 284.886 521.219 288.81L521.946 289.25Z" fill="white"/></g></g></g></g></g><g id="Heads" transform="translate(508 359) scale(1 1)"><g id="Heads/Round"><g id="Group"><path id="Mask" fill-rule="evenodd" clip-rule="evenodd" d="M47.8853 158.865C25.3601 142.804 11.3334 114.08 16.5839 86.9978C20.9135 64.6678 37.5081 45.918 57.6551 35.1981C78.0299 24.3572 102.496 20.9762 124.83 26.8607C147.164 32.7452 167.018 48.0703 177.433 68.5993C187.849 89.1282 188.336 114.596 177.845 135.087C160.227 169.498 116.452 181.839 80.8188 173.474C69.0478 170.71 57.7361 165.888 47.8853 158.865" fill="#A98AFF"/><mask id="mask0ca4e46b0-472b-4ff8-b707-c887e5d23714" mask-type="alpha" maskUnits="userSpaceOnUse" x="15" y="23" width="171" height="153" fill="#ffffff"><path id="Mask_2" fill-rule="evenodd" clip-rule="evenodd" d="M47.8853 158.865C25.3601 142.804 11.3334 114.08 16.5839 86.9978C20.9135 64.6678 37.5081 45.918 57.6551 35.1981C78.0299 24.3572 102.496 20.9762 124.83 26.8607C147.164 32.7452 167.018 48.0703 177.433 68.5993C187.849 89.1282 188.336 114.596 177.845 135.087C160.227 169.498 116.452 181.839 80.8188 173.474C69.0478 170.71 57.7361 165.888 47.8853 158.865" fill="#ffffff"/></mask><g mask="url(#mask0ca4e46b0-472b-4ff8-b707-c887e5d23714)"><g id="Group_2"><path id="Path 7" d="M163.489 218.998L149.606 216.214C122.358 210.754 104.766 208.448 82.0838 208.448C65.2124 208.448 49.6803 210.445 28.1349 214.693L9.27087 218.502C8.22566 218.71 7.34979 218.882 6.73962 218.998L4.55298 219.409C-1.13258 220.457 -5.68271 221.139 -9.77664 221.522C-20.6233 222.537 -28.1731 221.368 -33.5139 217.358L-33.8084 217.132L-33.1921 216.344C-28.0805 220.345 -20.6871 221.539 -9.86984 220.526L-8.8446 220.425C-4.87455 220.013 -0.427605 219.322 5.08853 218.292L8.43106 217.649C13.9969 216.549 25.8625 214.125 25.6479 214.168L26.8018 213.937C49.0004 209.523 64.8376 207.448 82.0838 207.448C104.495 207.448 121.951 209.691 148.548 214.983L160.303 217.348C162.042 217.696 163.546 217.992 165.022 218.278L167.757 218.801C172.196 219.639 176.071 220.308 179.81 220.873C189.143 222.284 197.464 223 205.732 223C230.819 223 262.583 199.878 300.949 153.592L302.114 152.182L302.886 152.818C263.822 200.258 231.463 224 205.732 224C197.41 224 189.04 223.28 179.66 221.862L178.151 221.63C174.609 221.074 170.901 220.419 166.675 219.614L163.489 218.998Z" fill="white"/><path id="Path 10" d="M303.383 143.322C281.82 168.978 256.429 186.538 227.218 195.994C217.238 199.225 205.111 200.116 189.819 199.106L188.04 198.981C177.568 198.202 169.979 197.21 150.455 194.123L134.847 191.637C124.966 190.078 118.194 189.091 111.149 188.214L110.141 188.089C84.2256 184.913 63.9113 184.745 45.8622 188.433L45.0555 188.601C4.96859 197.08 -21.0787 193.621 -33.0433 178.11L-33.4016 177.637L-32.5983 177.041C-21.2154 192.394 4.18584 196.042 43.6484 187.874L44.8486 187.622C62.6867 183.849 82.6487 183.857 107.948 186.819L110.262 187.097C117.353 187.966 124.007 188.923 133.608 190.43L153.848 193.645C170.981 196.33 178.277 197.252 188.115 197.984C204.131 199.176 216.69 198.351 226.91 195.042C255.623 185.748 280.623 168.572 301.917 143.507L302.617 142.678L303.383 143.322Z" fill="white"/><path id="Path 11" d="M302.527 129.104L302.472 130.103C286.631 129.227 274.083 133.391 256.316 143.701L254.145 144.975C253.441 145.392 252.713 145.827 251.923 146.302L244.69 150.68C231.303 158.766 222.866 163.107 212.644 166.52C199.717 170.836 186.238 172.439 171.018 170.981L170.064 170.886C132.375 166.98 95.0559 169.319 51.0834 176.157L47.924 176.656C39.0019 178.093 18.0032 181.675 14.2882 182.249C-5.85525 185.367 -21.8285 178.768 -33.5546 162.482L-33.9087 161.985L-33.0918 161.408C-21.6691 177.582 -6.15168 184.219 13.5374 181.351L15.711 181.008C22.2926 179.932 42.2194 176.539 49.2758 175.428C93.4929 168.465 130.969 165.987 168.75 169.748L170.167 169.892C185.636 171.495 199.264 169.932 212.327 165.571C222.274 162.25 230.533 158.034 243.438 150.267L251.007 145.686C252.228 144.951 253.293 144.316 254.336 143.701L255.82 142.832C273.494 132.578 286.105 128.332 301.869 129.071L302.527 129.104Z" fill="white"/><path id="Path 12" fill-rule="evenodd" clip-rule="evenodd" d="M27.0121 135.233C37.3586 136.572 45.7403 139.573 49.7809 143.678C54.5133 148.486 53.1673 154.447 45.1414 160.873C29.4294 173.453 13.95 177.86 1.74272 174.343C-9.48892 171.107 -16.4998 161.388 -16.4998 149.109C-16.4998 137.738 4.44489 132.313 27.0121 135.233ZM2.01957 173.382C13.8821 176.8 29.0389 172.484 44.5164 160.092C52.1277 153.998 53.3234 148.703 49.0682 144.38C45.221 140.471 37.0284 137.538 26.8838 136.225L26.2239 136.142C4.46704 133.482 -15.4998 138.758 -15.4998 149.109C-15.4998 160.95 -8.77568 170.272 2.01957 173.382Z" fill="white"/><path id="Path 12_2" fill-rule="evenodd" clip-rule="evenodd" d="M23.2213 142.96C29.8004 143.801 35.1346 145.689 37.7252 148.29C40.8093 151.387 39.9289 155.24 34.7752 159.319C24.797 167.215 14.9507 169.986 7.16982 167.77C-0.0126837 165.725 -4.50034 159.576 -4.50034 151.818C-4.50034 144.684 8.31887 141.259 22.3602 142.856L23.2213 142.96ZM7.4437 166.808C14.8834 168.927 24.41 166.246 34.1546 158.534C38.8891 154.788 39.616 151.606 37.0167 148.996C34.6195 146.589 29.4729 144.768 23.0944 143.952C9.27882 142.184 -3.50034 145.456 -3.50034 151.818C-3.50034 159.135 0.697426 164.887 7.4437 166.808Z" fill="white"/><path id="Path 12_3" fill-rule="evenodd" clip-rule="evenodd" d="M20.1736 149.687C22.6884 150.033 24.7368 150.812 25.7609 151.917C27.0382 153.296 26.6718 155.02 24.6368 156.751C17.141 163.128 9.50016 160.789 9.50016 153.527C9.50016 150.347 14.6565 148.928 20.1736 149.687ZM10.5002 153.527C10.5002 159.846 17.0861 161.862 23.9888 155.99C25.6331 154.591 25.8648 153.501 25.0273 152.597C24.1955 151.699 22.3441 150.995 20.0374 150.678C15.0654 149.994 10.5002 151.25 10.5002 153.527Z" fill="white"/><path id="Path 13" d="M302.523 118.595L302.476 119.594C271.633 118.122 246.768 119.408 226.069 123.089C209.894 125.966 197.098 130.041 183.535 136.026L182.125 136.654C178.056 138.501 165.558 144.466 161.907 146.083L161.703 146.173C147.584 152.35 136.094 154.762 120.357 153.808C98.4359 152.48 82.9822 147.985 65.2803 139.368L63.2183 138.349C60.9308 137.189 50.8102 131.995 47.7905 130.563C36.8746 125.387 28.1829 123.016 17.5716 123.016C-5.33515 123.016 -22.0944 130.768 -32.7642 146.273L-33.0857 146.746L-33.9151 146.187C-23.0644 130.074 -5.88228 122.016 17.5716 122.016C28.104 122.016 36.7771 124.317 47.4696 129.307L48.5776 129.831C52.2382 131.595 62.9369 137.095 64.0326 137.64C82.3406 146.745 97.9466 151.448 120.418 152.81C135.701 153.736 146.907 151.459 160.542 145.586L161.729 145.067C165.781 143.256 178.692 137.091 182.157 135.543C196.153 129.292 209.249 125.065 225.894 122.104C246.366 118.463 270.877 117.158 301.163 118.532L302.523 118.595Z" fill="white"/><path id="Path 14" fill-rule="evenodd" clip-rule="evenodd" d="M208.344 134.542C227.61 129.665 245.515 128.381 247.591 132.418C248.929 135.021 247.012 137.967 242.517 141.25C239.415 143.515 235.148 145.903 229.806 148.474L229.373 148.68C225.887 150.334 219.012 153.352 215.424 154.927C214.36 155.394 213.585 155.734 213.273 155.875L212.574 156.207C207.07 158.814 199.435 161.464 192.861 162.507C182.837 164.099 176.059 161.973 174.179 154.964C172.248 147.768 186.254 140.209 207.76 134.691L208.344 134.542ZM230.002 147.268C235 144.837 239.006 142.576 241.927 140.443C246.058 137.426 247.725 134.865 246.702 132.875C244.959 129.487 226.836 130.829 208.008 135.66L207.385 135.821C186.883 141.158 173.471 148.467 175.145 154.705C176.854 161.075 183.122 163.041 192.705 161.519C199.394 160.458 207.242 157.691 212.699 155.038C212.832 154.973 213.739 154.575 215.086 153.983C218.706 152.394 225.498 149.412 228.942 147.778L230.002 147.268Z" fill="white"/><path id="Path 14_2" fill-rule="evenodd" clip-rule="evenodd" d="M202.165 142.146C212.991 139.295 223.025 138.532 224.253 140.984C225.051 142.576 223.948 144.316 221.408 146.22C219.897 147.353 217.89 148.537 215.42 149.797L214.407 150.305C212.579 151.208 208.547 153.025 206.504 153.945C205.925 154.206 205.505 154.395 205.342 154.471L204.85 154.711C201.824 156.169 197.68 157.636 194.099 158.22C188.504 159.131 184.672 157.897 183.605 153.815C182.525 149.682 189.866 145.499 201.29 142.381L202.165 142.146ZM214.959 148.909C217.385 147.672 219.349 146.514 220.808 145.42C222.995 143.78 223.856 142.422 223.359 141.431C222.483 139.683 212.589 140.435 202.42 143.113L201.976 143.231C190.938 146.195 183.707 150.251 184.572 153.562C185.472 157.004 188.788 158.072 193.938 157.233C197.577 156.64 201.856 155.091 204.827 153.608C204.902 153.571 205.409 153.342 206.158 153.004C208.236 152.068 212.179 150.29 213.964 149.408L214.959 148.909Z" fill="white"/><path id="Path 15" d="M302.148 109.181L301.851 110.135C277.974 102.691 257.587 99.8228 238.376 100.633C223.76 101.249 211.607 103.582 192.592 108.765L180.574 112.094C161.106 117.439 150.049 119.769 135.584 121.033C115.79 122.763 94.8907 121.263 70.6743 115.801L69.4187 115.515C-3.48474 98.7416 -40.316 113.131 -41.4762 158.617L-41.5004 160.005L-42.5004 159.995C-42.0531 113.077 -5.27631 97.7808 67.4288 114.038L69.643 114.541C94.2935 120.212 115.468 121.788 135.497 120.037L136.797 119.92C151.209 118.576 162.506 116.075 183.016 110.382L190.369 108.338L192.333 107.799C211.412 102.599 223.628 100.253 238.334 99.6335C257.352 98.8319 277.504 101.611 300.991 108.823L302.148 109.181Z" fill="white"/><path id="Path 16" d="M317.392 88.0484L316.609 88.6712C299.409 67.0612 281.34 58.8096 260.008 60.7842C250.973 61.6206 241.349 64.2453 229.941 68.7212L228.587 69.2579C224.951 70.7118 221.12 72.3528 216.756 74.3107L212.901 76.0585C211.542 76.6804 210.117 77.338 208.495 78.0908L198.033 82.9661L196.224 83.804C169.912 95.9502 153.651 101.784 135.016 104.385C87.0364 111.083 31.605 101.871 -31.2788 76.7601L-33.1867 75.9943L-32.8125 75.0669C30.7077 100.695 86.6045 110.134 134.878 103.395C153.6 100.781 169.946 94.8704 196.706 82.4792L209.637 76.4596C210.977 75.8403 212.195 75.2806 213.384 74.7386L213.829 74.5361C219.562 71.928 224.366 69.8533 228.898 68.0576L229.576 67.7903C241.064 63.2829 250.774 60.6347 259.916 59.7885C281.376 57.8019 299.619 66.0148 316.869 87.3965L317.392 88.0484Z" fill="white"/><path id="Path 16 Copy" d="M311.633 7.34754L310.997 8.11936C289.68 -9.44228 270.29 -13.7568 249.835 -7.3902C241.171 -4.69367 232.302 -0.125228 222.075 6.62459L220.862 7.43122C217.608 9.60916 214.201 12.0109 210.34 14.8333L206.933 17.3444C205.733 18.2353 204.475 19.1749 203.046 20.2483L193.826 27.1922L192.23 28.3881C169.019 45.7393 154.326 54.8263 136.639 61.2453C91.1004 77.7723 34.965 80.2863 -31.7655 68.7985L-33.7909 68.4461L-33.6177 67.4612C33.8428 79.3226 90.4805 76.9335 136.298 60.3053C154.068 53.856 168.828 44.676 192.427 26.992L203.824 18.4153C205.005 17.5312 206.08 16.7303 207.131 15.9529L207.524 15.6624C212.589 11.9192 216.856 8.89122 220.917 6.19238L221.524 5.78997C231.824 -1.00737 240.772 -5.61661 249.538 -8.34502C270.116 -14.7501 289.667 -10.5095 310.986 6.81844L311.633 7.34754Z" fill="white"/><path id="Path 18" fill-rule="evenodd" clip-rule="evenodd" d="M54.6341 5.5C72.6751 5.5 90.1009 11.6346 100.852 20.7407C111.26 29.5561 112.649 39.0459 103.002 43.6747C92.8631 48.5396 68.8468 53.755 46.8197 55.6868L46.032 55.7546C20.1099 57.946 1.2281 55.4635 -4.62082 47.5083C-10.9033 38.9635 -6.63821 28.4241 5.60749 19.7176C17.8601 11.0062 36.105 5.5 54.6341 5.5ZM47.4477 54.6268C69.1682 52.6556 92.6679 47.5241 102.569 42.7731C111.226 38.6193 110.188 30.2626 100.791 22.0089L100.206 21.5037C89.6388 12.5537 72.4428 6.5 54.6341 6.5C36.3074 6.5 18.2656 11.9449 6.18694 20.5326C-5.66111 28.9564 -9.69349 38.9208 -3.81515 46.916C1.79353 54.5444 20.7726 56.9673 46.7323 54.6906L47.4477 54.6268Z" fill="white"/><path id="Path 18_2" fill-rule="evenodd" clip-rule="evenodd" d="M53.9436 22C66.0869 22 77.8193 25.0713 85.0702 29.638C92.2055 34.132 93.2009 39.1882 86.4894 41.5829C79.8666 43.9458 64.4651 46.4715 50.0224 47.5024L48.0821 47.6322C30.6492 48.7221 17.9909 47.4786 14.0151 43.4576C9.61152 39.004 12.5877 33.5355 20.9385 29.1205C29.1945 24.7557 41.4744 22 53.9436 22ZM85.5267 40.8563L86.1534 40.641C91.8683 38.602 91.0816 34.6059 84.5372 30.4842C77.4538 26.0229 65.9061 23 53.9436 23C41.6304 23 29.5105 25.7198 21.4059 30.0046C13.5558 34.1548 10.9526 38.9381 14.7261 42.7545C18.3197 46.389 30.3465 47.6442 46.8427 46.7045L48.6271 46.5954C62.9197 45.6634 78.473 43.1929 85.5267 40.8563Z" fill="white"/><path id="Path 18_3" fill-rule="evenodd" clip-rule="evenodd" d="M67.0327 35.0829C68.692 35.9641 69.7308 36.923 69.9549 37.8827C70.2211 39.0229 69.3714 39.9093 67.6622 40.4236C59.1212 42.9932 36.7019 44.2261 33.0631 41.1229C30.7249 39.1287 32.2886 36.7059 36.4104 34.8684C40.3587 33.1082 46.2148 32 52.1594 32C57.9545 32 63.5562 33.2365 67.0327 35.0829ZM33.712 40.362C36.9905 43.158 59.1536 41.9392 67.3741 39.466C68.6421 39.0845 69.0976 38.6093 68.981 38.11C68.8407 37.5088 67.9899 36.7235 66.5636 35.966C63.2405 34.2011 57.7991 33 52.1594 33C46.3483 33 40.6301 34.0821 36.8176 35.7817C33.2543 37.3702 32.1714 39.0481 33.712 40.362Z" fill="white"/><path id="Path 19" d="M316.92 47.229L316.079 47.7709C310.567 39.2227 299.868 34.4233 283.661 32.3797L282.234 32.2078C270.375 30.8357 259.178 30.8457 234.149 31.78L223.348 32.1881C214.254 32.5153 207.809 32.6666 201.44 32.6666C185.527 32.6666 173.948 29.9899 161.091 23.9666L160.376 23.6285C154.804 20.9746 133.906 9.38183 131.054 7.8856C116.975 0.498523 103.057 -5.59697 85.8477 -11.4702C83.9857 -12.1057 82.094 -12.7348 80.1709 -13.3577C34.1916 -28.251 -7.17063 -13.6633 -43.9993 30.4709L-45.1139 31.8173L-45.8867 31.1826C-8.53138 -14.3012 33.6192 -29.4875 80.4791 -14.309C82.4071 -13.6845 84.3038 -13.0538 86.1707 -12.4166C102.977 -6.68098 116.658 -0.731692 130.404 6.41775L131.884 7.19394C135.784 9.28048 154.99 19.919 160.606 22.6301L160.806 22.7257C173.582 28.8118 184.964 31.5658 200.569 31.6639L201.44 31.6666C207.608 31.6666 213.851 31.5243 222.519 31.2171L236.477 30.6937C260.43 29.8264 271.277 29.8804 283.111 31.3044L284.447 31.4728C300.331 33.5683 310.995 38.3641 316.686 46.8723L316.92 47.229Z" fill="white"/></g></g></g></g></g><g id="Face" transform="translate(589 429) scale(1 1)"><g id="Face/Face"><g id="MOUTH"><g id="Group"><path id="Clip 11" fill-rule="evenodd" clip-rule="evenodd" d="M24.9999 38.5633C10.9824 34.7403 13.9999 54.5633 24.9999 57.5633C35.9999 60.5633 42.9999 60.5633 52.9999 57.5633C66.6922 53.4556 65.482 34.4026 52.9999 38.5633C43.9999 41.5633 35.9999 41.5633 24.9999 38.5633Z" fill="white"/><mask id="mask0cfdd10ce-4683-432b-bb37-66c02dcb8190" mask-type="alpha" maskUnits="userSpaceOnUse" x="15" y="37" width="48" height="23" fill="#ffffff"><path id="Clip 11_2" fill-rule="evenodd" clip-rule="evenodd" d="M24.9999 38.5633C10.9824 34.7403 13.9999 54.5633 24.9999 57.5633C35.9999 60.5633 42.9999 60.5633 52.9999 57.5633C66.6922 53.4556 65.482 34.4026 52.9999 38.5633C43.9999 41.5633 35.9999 41.5633 24.9999 38.5633Z" fill="#ffffff"/></mask><g mask="url(#mask0cfdd10ce-4683-432b-bb37-66c02dcb8190)"><path id="Fill 7" fill-rule="evenodd" clip-rule="evenodd" d="M27.5685 66.605L25.0205 33.197L27.6045 33L30.1535 66.407L27.5685 66.605Z" fill="#BEDBEA"/><path id="Fill 4" fill-rule="evenodd" clip-rule="evenodd" d="M40.9148 69.0913L38.3218 69.0583L38.7258 37.2753L41.3178 37.3073L40.9148 69.0913Z" fill="#BEDBEA"/><path id="Fill 10" fill-rule="evenodd" clip-rule="evenodd" d="M52.4081 74.4683L49.8311 74.1903L54.2211 33.5633L56.8001 33.8413L52.4081 74.4683Z" fill="#BEDBEA"/></g></g></g><g id="EYES"><path id="Fill 1" d="M65.5302 21.9005C68.7192 22.4315 72.2132 20.8015 73.6692 17.9155C76.8882 11.5345 69.4722 6.0005 63.5982 8.7005C57.4312 11.5365 58.9212 20.7995 65.5302 21.9005" fill="#001D2D"/><path id="Fill 4_2" d="M14.9191 21.9005C11.7301 22.4315 8.23606 20.8015 6.78006 17.9155C3.56006 11.5345 10.9761 6.0005 16.8501 8.7005C23.0181 11.5365 21.5291 20.7995 14.9191 21.9005" fill="#001D2D"/></g></g></g><g id="Head Accesory" transform="matrix(-1 0 0 1 708 166) scale(1 1)"><g id="Head Accesory/Crown"><path id="Fill 1" fill-rule="evenodd" clip-rule="evenodd" d="M115.347 130.009L100 94L84.6526 130.009L60 94L62.7917 176H137.208L140 94L115.347 130.009Z" fill="#FFCE00"/></g></g></g></g><g id="Arms"><path id="Combined Shape" fill-rule="evenodd" clip-rule="evenodd" d="M1162.02 601.643C1162.21 599.442 1164.16 597.819 1166.36 598.016C1168.56 598.213 1170.18 600.157 1169.98 602.357C1149.61 829.46 985.818 927.06 680.731 894.894C660.608 892.772 643.862 904.468 630.172 930.843C629.154 932.804 626.74 933.568 624.779 932.55C622.818 931.532 622.054 929.118 623.071 927.157C638.144 898.12 657.751 884.426 681.57 886.938C982.654 918.682 1142.1 823.673 1162.02 601.643ZM984.916 670.674C983.539 668.946 981.023 668.661 979.295 670.038C960.146 685.293 933.861 695.434 901.999 701.248C872.172 706.69 843.227 707.87 808.453 706.882L805.124 706.781L794.029 706.421C792.687 706.387 791.649 706.371 790.769 706.371L789.954 706.377C763.091 706.771 738.977 726.698 717.501 765.472C716.43 767.404 717.129 769.839 719.061 770.909C720.994 771.979 723.428 771.281 724.499 769.348C744.93 732.462 767.058 714.371 790.769 714.371C791.783 714.371 793.071 714.395 794.888 714.448L806.561 714.83C842.589 715.919 872.46 714.769 903.435 709.118C936.485 703.088 963.95 692.491 984.28 676.295C986.007 674.919 986.292 672.402 984.916 670.674ZM751.883 740.842C753.52 739.36 756.05 739.485 757.533 741.123C759.016 742.76 758.89 745.29 757.253 746.772C747.919 755.225 739.396 766.049 731.696 779.259C730.583 781.167 728.134 781.813 726.225 780.7C724.317 779.588 723.672 777.138 724.784 775.23C732.88 761.341 741.91 749.874 751.883 740.842ZM768.779 750.365C767.331 748.696 764.805 748.517 763.136 749.965C749.15 762.098 739.158 774.314 733.195 786.649C732.234 788.638 733.067 791.03 735.056 791.991C737.045 792.953 739.436 792.12 740.398 790.131C745.844 778.864 755.159 767.476 768.378 756.008C770.047 754.56 770.226 752.034 768.779 750.365ZM806.325 754.909C782.469 752.402 762.829 766.073 747.729 795.065C746.709 797.025 747.47 799.44 749.429 800.461C751.388 801.481 753.804 800.72 754.824 798.761C768.54 772.426 785.321 760.746 805.489 762.865L805.694 762.887C808.177 763.171 811.635 763.964 817.687 765.583L828.237 768.429C830.77 769.102 833.08 769.701 835.368 770.274L836.892 770.652C855.189 775.16 871.918 777.882 889.679 778.586C906.377 779.247 922.908 778.001 939.343 774.55C917.367 787.565 892.12 798.381 864.074 807.154C826.14 819.02 784.878 826.625 742.433 830.793C715.447 833.444 693.564 834.324 672.89 834.382L670.639 834.386C643.608 834.386 619.259 852.522 597.582 888.181C596.434 890.069 597.034 892.529 598.922 893.677C600.809 894.825 603.27 894.225 604.418 892.337C624.786 858.831 646.865 842.386 670.639 842.386C692.219 842.386 714.952 841.531 743.215 838.755L745.362 838.541C787.559 834.279 828.594 826.635 866.463 814.789C914.81 799.665 955.178 778.521 985.267 750.45C1020.55 717.538 1040.67 675.994 1043.2 625.181C1043.31 622.974 1041.61 621.097 1039.4 620.987L1039.2 620.982C1037.08 620.981 1035.31 622.644 1035.21 624.783C1032.79 673.471 1013.6 713.077 979.81 744.6C973.021 750.934 965.676 756.911 957.804 762.541C956.905 762.079 955.831 761.955 954.79 762.279C933.395 768.926 911.864 771.459 889.996 770.592C872.838 769.912 856.619 767.274 838.805 762.884C836.31 762.27 833.836 761.635 831.112 760.915L828.587 760.242L819.223 757.713C813.27 756.128 809.712 755.315 806.828 754.966L806.325 754.909ZM646.063 881.723C644.613 880.057 642.086 879.882 640.42 881.332C626.46 893.484 616.486 905.718 610.535 918.071C609.577 920.061 610.413 922.452 612.403 923.411C614.393 924.37 616.784 923.533 617.743 921.543C623.179 910.258 632.477 898.853 645.672 887.366C647.339 885.916 647.514 883.389 646.063 881.723ZM630.502 868.913C632.137 867.427 634.666 867.549 636.152 869.184C637.638 870.819 637.516 873.348 635.881 874.834C626.565 883.299 618.058 894.14 610.371 907.371C609.261 909.281 606.813 909.93 604.903 908.82C602.993 907.71 602.344 905.262 603.454 903.352C611.535 889.442 620.547 877.958 630.502 868.913Z" fill="#001D2D"/></g></g></svg>