<svg viewBox="249.39999999999998 411.1156716417911 189.20000000000016 51.60447761194032" fill="none" xmlns="http://www.w3.org/2000/svg" xmlns:xlink="http://www.w3.org/1999/xlink" overflow="visible" width="189.20000000000016px" height="51.60447761194032px"><g id="Master/Stickers/Bad Review"><g id="Bad Review"><path id="Fill 1" fill-rule="evenodd" clip-rule="evenodd" d="M411.874 460.173H275.836C264.053 460.173 254.5 450.62 254.5 438.837C254.5 427.053 264.053 417.5 275.836 417.5H411.874C423.657 417.5 433.21 427.053 433.21 438.837C433.21 450.62 423.657 460.173 411.874 460.173" fill="#EEF2F8"/><path id="Fill 3" fill-rule="evenodd" clip-rule="evenodd" d="M275.836 418C264.347 418 255 427.347 255 438.836C255 450.326 264.347 459.673 275.836 459.673H411.874C423.363 459.673 432.71 450.326 432.71 438.836C432.71 427.347 423.363 418 411.874 418H275.836ZM411.874 460.673H275.836C263.796 460.673 254 450.877 254 438.836C254 426.796 263.796 417 275.836 417H411.874C423.914 417 433.71 426.796 433.71 438.836C433.71 450.877 423.914 460.673 411.874 460.673V460.673Z" fill="black"/><path id="Fill 6" fill-rule="evenodd" clip-rule="evenodd" d="M284.363 429.352L287.445 435.597L294.337 436.598L289.349 441.458L290.527 448.322L284.363 445.081L278.2 448.322L279.377 441.458L274.39 436.598L281.281 435.597L284.363 429.352Z" fill="#FFBA00"/><path id="Fill 8" fill-rule="evenodd" clip-rule="evenodd" d="M284.362 444.581C284.442 444.581 284.522 444.6 284.594 444.639L289.862 447.407L288.855 441.542C288.828 441.38 288.882 441.215 289 441.1L293.261 436.946L287.372 436.091C287.21 436.067 287.068 435.965 286.996 435.817L284.362 430.481L281.728 435.817C281.656 435.965 281.514 436.067 281.352 436.091L275.464 436.946L279.724 441.1C279.842 441.215 279.896 441.38 279.869 441.542L278.863 447.407L284.13 444.639C284.202 444.6 284.282 444.581 284.362 444.581M290.526 448.821C290.446 448.821 290.367 448.802 290.294 448.764L284.362 445.646L278.431 448.764C278.263 448.852 278.059 448.838 277.905 448.726C277.751 448.614 277.674 448.424 277.706 448.237L278.839 441.632L274.041 436.955C273.904 436.822 273.855 436.623 273.914 436.443C273.972 436.262 274.13 436.13 274.317 436.102L280.948 435.139L283.914 429.13C284.082 428.789 284.642 428.789 284.81 429.13L287.776 435.139L294.408 436.102C294.595 436.13 294.753 436.262 294.811 436.443C294.87 436.623 294.821 436.822 294.684 436.955L289.885 441.633L291.019 448.237C291.051 448.424 290.974 448.614 290.82 448.726C290.733 448.789 290.63 448.821 290.526 448.821" fill="black"/><path id="Fill 10" fill-rule="evenodd" clip-rule="evenodd" d="M314.109 429.352L317.191 435.597L324.083 436.598L319.096 441.458L320.273 448.322L314.109 445.081L307.946 448.322L309.123 441.458L304.136 436.598L311.028 435.597L314.109 429.352Z" fill="#EEF2F8"/><path id="Fill 12" fill-rule="evenodd" clip-rule="evenodd" d="M314.108 444.581C314.188 444.581 314.268 444.6 314.34 444.639L319.608 447.407L318.602 441.542C318.575 441.38 318.629 441.215 318.747 441.1L323.007 436.946L317.118 436.091C316.956 436.067 316.814 435.965 316.742 435.817L314.108 430.481L311.475 435.817C311.403 435.965 311.261 436.067 311.099 436.091L305.21 436.946L309.47 441.1C309.588 441.215 309.642 441.38 309.615 441.542L308.609 447.407L313.876 444.639C313.948 444.6 314.028 444.581 314.108 444.581M307.945 448.821C307.841 448.821 307.738 448.789 307.651 448.726C307.497 448.614 307.42 448.424 307.452 448.237L308.585 441.632L303.787 436.955C303.65 436.822 303.601 436.623 303.66 436.443C303.718 436.262 303.876 436.13 304.063 436.102L310.695 435.139L313.66 429.13C313.828 428.789 314.388 428.789 314.556 429.13L317.522 435.139L324.154 436.102C324.341 436.13 324.499 436.262 324.557 436.443C324.616 436.623 324.567 436.822 324.43 436.955L319.632 441.632L320.765 448.237C320.797 448.424 320.72 448.614 320.566 448.726C320.412 448.838 320.208 448.852 320.04 448.764L314.108 445.646L308.177 448.764C308.104 448.802 308.025 448.821 307.945 448.821" fill="black"/><path id="Fill 14" fill-rule="evenodd" clip-rule="evenodd" d="M343.856 429.352L346.937 435.597L353.829 436.598L348.842 441.458L350.019 448.322L343.856 445.081L337.692 448.322L338.869 441.458L333.882 436.598L340.774 435.597L343.856 429.352Z" fill="#EEF2F8"/><path id="Fill 16" fill-rule="evenodd" clip-rule="evenodd" d="M334.956 436.946L339.217 441.1C339.335 441.215 339.389 441.38 339.361 441.542L338.355 447.407L343.623 444.638C343.768 444.561 343.943 444.561 344.088 444.638L349.354 447.407L348.349 441.542C348.321 441.38 348.375 441.215 348.493 441.1L352.754 436.946L346.864 436.091C346.702 436.067 346.56 435.965 346.488 435.817L343.855 430.481L341.222 435.817C341.149 435.965 341.008 436.067 340.846 436.091L334.956 436.946ZM350.019 448.821C349.938 448.821 349.859 448.802 349.786 448.763L343.855 445.646L337.924 448.763C337.756 448.852 337.552 448.838 337.397 448.725C337.243 448.613 337.166 448.424 337.198 448.237L338.331 441.632L333.533 436.955C333.396 436.822 333.348 436.623 333.406 436.443C333.465 436.261 333.622 436.13 333.81 436.102L340.441 435.139L343.407 429.13C343.491 428.959 343.665 428.851 343.855 428.851C344.046 428.851 344.22 428.959 344.304 429.13L347.269 435.139L353.9 436.102C354.088 436.13 354.245 436.261 354.304 436.443C354.362 436.623 354.313 436.822 354.177 436.955L349.379 441.632L350.512 448.237C350.544 448.424 350.467 448.613 350.312 448.725C350.226 448.789 350.122 448.821 350.019 448.821V448.821Z" fill="black"/><path id="Fill 18" fill-rule="evenodd" clip-rule="evenodd" d="M373.602 429.352L376.683 435.597L383.575 436.598L378.588 441.458L379.765 448.322L373.602 445.081L367.438 448.322L368.615 441.458L363.628 436.598L370.52 435.597L373.602 429.352Z" fill="#EEF2F8"/><path id="Fill 20" fill-rule="evenodd" clip-rule="evenodd" d="M364.702 436.946L368.963 441.1C369.081 441.215 369.135 441.38 369.107 441.542L368.101 447.407L373.369 444.638C373.514 444.561 373.689 444.561 373.834 444.638L379.1 447.407L378.095 441.542C378.067 441.38 378.121 441.215 378.239 441.1L382.5 436.946L376.61 436.091C376.448 436.067 376.306 435.965 376.234 435.817L373.601 430.481L370.968 435.817C370.895 435.965 370.754 436.067 370.592 436.091L364.702 436.946ZM379.765 448.821C379.684 448.821 379.605 448.802 379.532 448.763L373.601 445.646L367.67 448.763C367.502 448.852 367.297 448.838 367.143 448.725C366.989 448.613 366.912 448.424 366.944 448.237L368.077 441.632L363.279 436.955C363.142 436.822 363.094 436.623 363.152 436.443C363.211 436.261 363.368 436.13 363.556 436.102L370.187 435.139L373.153 429.13C373.237 428.959 373.411 428.851 373.601 428.851C373.792 428.851 373.966 428.959 374.05 429.13L377.015 435.139L383.646 436.102C383.834 436.13 383.991 436.261 384.05 436.443C384.108 436.623 384.059 436.822 383.923 436.955L379.125 441.632L380.258 448.237C380.29 448.424 380.213 448.613 380.058 448.725C379.972 448.789 379.868 448.821 379.765 448.821V448.821Z" fill="black"/><path id="Fill 22" fill-rule="evenodd" clip-rule="evenodd" d="M403.348 429.352L406.43 435.597L413.321 436.598L408.334 441.458L409.511 448.322L403.348 445.081L397.184 448.322L398.362 441.458L393.374 436.598L400.266 435.597L403.348 429.352Z" fill="#EEF2F8"/><path id="Fill 24" fill-rule="evenodd" clip-rule="evenodd" d="M394.448 436.946L398.71 441.1C398.828 441.215 398.882 441.38 398.854 441.542L397.847 447.407L403.115 444.638C403.26 444.561 403.435 444.561 403.58 444.638L408.846 447.407L407.841 441.542C407.813 441.38 407.867 441.215 407.985 441.1L412.246 436.946L406.357 436.091C406.195 436.067 406.053 435.965 405.981 435.817L403.347 430.481L400.714 435.817C400.641 435.965 400.5 436.067 400.338 436.091L394.448 436.946ZM397.183 448.821C397.08 448.821 396.976 448.789 396.889 448.725C396.735 448.613 396.658 448.424 396.69 448.237L397.824 441.632L393.025 436.955C392.888 436.822 392.84 436.623 392.898 436.443C392.957 436.261 393.114 436.13 393.302 436.102L399.933 435.139L402.899 429.13C403.067 428.788 403.628 428.788 403.796 429.13L406.761 435.139L413.392 436.102C413.58 436.13 413.737 436.261 413.796 436.443C413.854 436.623 413.805 436.822 413.669 436.955L408.871 441.632L410.004 448.237C410.036 448.424 409.959 448.613 409.804 448.725C409.65 448.838 409.446 448.852 409.278 448.763L403.347 445.646L397.416 448.763C397.343 448.802 397.263 448.821 397.183 448.821V448.821Z" fill="black"/></g></g></svg>