<svg width="21" height="21" viewBox="0 0 21 21" fill="none" xmlns="http://www.w3.org/2000/svg">
<path d="M7.14187 3.05593C8.21574 -0.159775 12.7843 -0.159775 13.8581 3.05593C14.3318 4.47421 15.6618 5.43769 17.1571 5.43769H17.3209C20.6599 5.43769 22.0236 9.72926 19.297 11.6567C18.0641 12.5282 17.5492 14.1089 18.0274 15.5409C19.0849 18.7075 15.4881 21.4015 12.762 19.4744L12.5447 19.3208C11.3192 18.4545 9.6808 18.4545 8.45533 19.3208L8.238 19.4744C5.51194 21.4015 1.91512 18.7075 2.97256 15.5409C3.4508 14.1089 2.93586 12.5282 1.70297 11.6567C-1.02364 9.72926 0.34006 5.43769 3.67914 5.43769H3.84293C5.33819 5.43769 6.66824 4.47421 7.14187 3.05593Z" fill="#CED9DD"/>
</svg>
