<svg width="406" height="496" viewBox="0 0 406 496" fill="none" xmlns="http://www.w3.org/2000/svg">
<g filter="url(#filter0_d_0_1)">
<rect width="398" height="488" rx="10" fill="#FAFAFA"/>
</g>
<g filter="url(#filter1_d_0_1)">
<circle cx="203" cy="169" r="59" fill="white"/>
</g>
<path d="M230.765 200.235V193.294C230.765 189.612 229.302 186.081 226.699 183.478C224.095 180.874 220.564 179.412 216.882 179.412H189.118C185.436 179.412 181.905 180.874 179.301 183.478C176.698 186.081 175.235 189.612 175.235 193.294V200.235" stroke="#323E4D" stroke-width="2" stroke-linecap="round" stroke-linejoin="round"/>
<path d="M203 165.529C210.667 165.529 216.882 159.314 216.882 151.647C216.882 143.98 210.667 137.765 203 137.765C195.333 137.765 189.117 143.98 189.117 151.647C189.117 159.314 195.333 165.529 203 165.529Z" stroke="#323E4D" stroke-width="2" stroke-linecap="round" stroke-linejoin="round"/>
<path d="M47.8836 318.921L51.4719 326.69L55.0085 318.897L58.8405 318.884L53.2633 329.754L53.284 335.965L49.7215 335.977L49.7008 329.766L44.0398 318.933L47.8836 318.921ZM58.9117 329.736L58.9109 329.49C58.9078 328.56 59.0378 327.704 59.3008 326.922C59.5638 326.132 59.9483 325.447 60.4542 324.867C60.9601 324.287 61.5836 323.836 62.3247 323.513C63.0658 323.183 63.9168 323.016 64.8777 323.013C65.8386 323.01 66.6947 323.171 67.4457 323.496C68.1968 323.814 68.8272 324.261 69.3369 324.838C69.8545 325.414 70.2474 326.096 70.5156 326.885C70.7838 327.665 70.9195 328.52 70.9226 329.45L70.9234 329.696C70.9264 330.618 70.7965 331.474 70.5335 332.264C70.2704 333.046 69.8821 333.731 69.3684 334.318C68.8625 334.898 68.239 335.349 67.4979 335.672C66.7568 335.995 65.9058 336.158 64.9448 336.161C63.9839 336.164 63.1279 336.007 62.3768 335.689C61.6336 335.371 61.0032 334.924 60.4857 334.348C59.9759 333.763 59.5869 333.081 59.3187 332.301C59.0504 331.513 58.9148 330.658 58.9117 329.736ZM62.2859 329.478L62.2867 329.725C62.2885 330.256 62.337 330.752 62.4323 331.212C62.5276 331.673 62.6773 332.079 62.8816 332.43C63.0937 332.773 63.368 333.041 63.7046 333.235C64.0412 333.43 64.4517 333.526 64.9361 333.524C65.4048 333.523 65.8068 333.424 66.1421 333.227C66.4774 333.031 66.746 332.76 66.948 332.416C67.15 332.064 67.2971 331.657 67.3893 331.196C67.4893 330.735 67.5384 330.238 67.5367 329.707L67.5359 329.461C67.5342 328.945 67.4818 328.461 67.3787 328.008C67.2834 327.548 67.1297 327.142 66.9176 326.791C66.7133 326.432 66.4428 326.152 66.1062 325.95C65.7696 325.748 65.363 325.648 64.8865 325.649C64.4099 325.651 64.004 325.754 63.6687 325.958C63.3413 326.162 63.0727 326.445 62.863 326.805C62.661 327.157 62.5139 327.564 62.4217 328.025C62.3294 328.478 62.2842 328.963 62.2859 329.478ZM80.5081 332.84L80.4761 323.195L83.851 323.184L83.8932 335.864L80.7174 335.874L80.5081 332.84ZM80.8745 330.237L81.8705 330.21C81.8733 331.054 81.7782 331.839 81.5853 332.567C81.3924 333.286 81.1015 333.912 80.7126 334.445C80.3238 334.969 79.8329 335.381 79.2402 335.68C78.6474 335.971 77.9487 336.118 77.144 336.121C76.5268 336.123 75.9562 336.039 75.4322 335.868C74.916 335.69 74.4697 335.415 74.0935 335.041C73.725 334.659 73.4344 334.172 73.2214 333.579C73.0163 332.978 72.9124 332.256 72.9096 331.412L72.8824 323.221L76.2573 323.209L76.2846 331.424C76.2859 331.799 76.3299 332.115 76.4167 332.373C76.5113 332.63 76.6409 332.841 76.8055 333.004C76.9701 333.168 77.1619 333.285 77.3809 333.354C77.6077 333.424 77.8578 333.458 78.1312 333.457C78.8265 333.455 79.3729 333.312 79.7704 333.03C80.1758 332.747 80.4596 332.363 80.6221 331.878C80.7923 331.386 80.8765 330.839 80.8745 330.237ZM89.8133 325.93L89.8462 335.844L86.4713 335.855L86.4292 323.176L89.6049 323.165L89.8133 325.93ZM93.6242 323.07L93.576 326.199C93.4118 326.176 93.2125 326.157 92.9781 326.142C92.7515 326.119 92.5444 326.108 92.3569 326.109C91.8803 326.111 91.4665 326.174 91.1153 326.301C90.772 326.419 90.4835 326.596 90.2499 326.831C90.0241 327.066 89.8532 327.352 89.7371 327.688C89.6289 328.024 89.5676 328.407 89.5534 328.837L88.8731 328.628C88.8703 327.808 88.9499 327.054 89.1116 326.366C89.2734 325.67 89.5097 325.064 89.8204 324.547C90.139 324.03 90.5283 323.631 90.9883 323.348C91.4483 323.065 91.9752 322.923 92.569 322.921C92.7565 322.92 92.9479 322.935 93.1433 322.966C93.3387 322.989 93.499 323.023 93.6242 323.07ZM108.338 321.638L103.745 335.798L100.006 335.81L106.289 318.727L108.668 318.719L108.338 321.638ZM112.241 335.77L107.541 321.641L107.157 318.724L109.559 318.716L115.991 335.757L112.241 335.77ZM112.009 329.419L112.018 332.173L103.006 332.203L102.997 329.449L112.009 329.419ZM122.592 333.333C123.006 333.331 123.373 333.252 123.693 333.095C124.013 332.93 124.262 332.702 124.441 332.413C124.627 332.115 124.724 331.767 124.73 331.369L127.906 331.358C127.901 332.249 127.665 333.043 127.199 333.739C126.732 334.428 126.105 334.974 125.318 335.375C124.53 335.768 123.648 335.966 122.671 335.969C121.687 335.973 120.827 335.811 120.091 335.486C119.364 335.16 118.757 334.709 118.27 334.132C117.784 333.548 117.419 332.87 117.174 332.097C116.929 331.316 116.805 330.481 116.802 329.59L116.801 329.25C116.798 328.352 116.916 327.516 117.156 326.741C117.396 325.959 117.757 325.279 118.239 324.699C118.722 324.111 119.325 323.652 120.051 323.322C120.776 322.991 121.627 322.824 122.604 322.821C123.643 322.818 124.554 323.014 125.336 323.41C126.127 323.805 126.746 324.374 127.194 325.114C127.649 325.847 127.883 326.718 127.894 327.725L124.718 327.736C124.709 327.314 124.618 326.932 124.445 326.588C124.279 326.245 124.036 325.973 123.715 325.77C123.402 325.561 123.015 325.456 122.554 325.458C122.062 325.46 121.66 325.566 121.348 325.778C121.036 325.982 120.795 326.265 120.624 326.624C120.454 326.977 120.334 327.379 120.265 327.833C120.204 328.278 120.174 328.747 120.176 329.239L120.177 329.579C120.179 330.071 120.212 330.544 120.276 330.997C120.34 331.45 120.458 331.852 120.631 332.203C120.812 332.554 121.059 332.83 121.372 333.032C121.685 333.234 122.092 333.334 122.592 333.333ZM135.108 333.291C135.522 333.29 135.889 333.211 136.208 333.053C136.528 332.888 136.777 332.661 136.956 332.371C137.143 332.074 137.239 331.726 137.246 331.327L140.421 331.317C140.416 332.207 140.181 333.001 139.714 333.698C139.248 334.387 138.621 334.932 137.833 335.333C137.045 335.726 136.163 335.924 135.187 335.928C134.202 335.931 133.342 335.77 132.607 335.444C131.879 335.118 131.272 334.667 130.786 334.091C130.3 333.506 129.934 332.828 129.689 332.055C129.445 331.275 129.321 330.439 129.318 329.549L129.317 329.209C129.314 328.31 129.432 327.474 129.672 326.7C129.911 325.918 130.272 325.237 130.755 324.657C131.237 324.07 131.841 323.611 132.566 323.28C133.292 322.95 134.143 322.783 135.12 322.779C136.159 322.776 137.069 322.972 137.852 323.368C138.642 323.764 139.261 324.332 139.709 325.073C140.165 325.806 140.398 326.676 140.409 327.684L137.234 327.694C137.224 327.272 137.133 326.89 136.96 326.547C136.795 326.204 136.552 325.931 136.231 325.729C135.918 325.519 135.531 325.415 135.07 325.416C134.577 325.418 134.176 325.525 133.864 325.737C133.552 325.941 133.311 326.223 133.14 326.583C132.969 326.935 132.849 327.338 132.781 327.791C132.72 328.237 132.69 328.706 132.692 329.198L132.693 329.538C132.694 330.03 132.727 330.502 132.791 330.955C132.855 331.408 132.974 331.81 133.147 332.161C133.328 332.512 133.575 332.789 133.888 332.991C134.201 333.193 134.608 333.293 135.108 333.291ZM141.833 329.46L141.832 329.214C141.829 328.285 141.959 327.429 142.222 326.647C142.485 325.857 142.87 325.172 143.376 324.592C143.881 324.012 144.505 323.561 145.246 323.238C145.987 322.907 146.838 322.741 147.799 322.737C148.76 322.734 149.616 322.895 150.367 323.221C151.118 323.539 151.749 323.986 152.258 324.562C152.776 325.139 153.169 325.821 153.437 326.609C153.705 327.39 153.841 328.245 153.844 329.174L153.845 329.42C153.848 330.342 153.718 331.198 153.455 331.988C153.192 332.77 152.804 333.455 152.29 334.043C151.784 334.623 151.16 335.074 150.419 335.397C149.678 335.719 148.827 335.882 147.866 335.886C146.905 335.889 146.049 335.732 145.298 335.414C144.555 335.096 143.925 334.649 143.407 334.072C142.897 333.488 142.508 332.806 142.24 332.025C141.972 331.237 141.836 330.382 141.833 329.46ZM145.207 329.203L145.208 329.449C145.21 329.98 145.258 330.476 145.354 330.937C145.449 331.398 145.599 331.803 145.803 332.154C146.015 332.497 146.289 332.766 146.626 332.96C146.963 333.154 147.373 333.251 147.857 333.249C148.326 333.247 148.728 333.148 149.064 332.952C149.399 332.756 149.667 332.485 149.869 332.141C150.071 331.788 150.218 331.382 150.311 330.92C150.411 330.459 150.46 329.963 150.458 329.432L150.457 329.186C150.456 328.67 150.403 328.186 150.3 327.733C150.205 327.272 150.051 326.867 149.839 326.516C149.635 326.157 149.364 325.877 149.028 325.675C148.691 325.473 148.284 325.372 147.808 325.374C147.331 325.376 146.925 325.479 146.59 325.683C146.263 325.887 145.994 326.169 145.784 326.529C145.582 326.881 145.435 327.288 145.343 327.749C145.251 328.203 145.206 328.687 145.207 329.203ZM163.43 332.564L163.397 322.92L166.772 322.909L166.815 335.588L163.639 335.599L163.43 332.564ZM163.796 329.962L164.792 329.935C164.795 330.779 164.7 331.564 164.507 332.291C164.314 333.011 164.023 333.637 163.634 334.169C163.245 334.694 162.754 335.106 162.162 335.405C161.569 335.696 160.87 335.842 160.065 335.845C159.448 335.847 158.878 335.763 158.354 335.593C157.837 335.415 157.391 335.139 157.015 334.765C156.646 334.384 156.356 333.896 156.143 333.303C155.938 332.703 155.834 331.98 155.831 331.136L155.804 322.945L159.179 322.934L159.206 331.149C159.207 331.524 159.251 331.84 159.338 332.098C159.433 332.355 159.562 332.566 159.727 332.729C159.892 332.893 160.083 333.009 160.302 333.079C160.529 333.148 160.779 333.183 161.053 333.182C161.748 333.179 162.294 333.037 162.692 332.754C163.097 332.472 163.381 332.088 163.544 331.603C163.714 331.11 163.798 330.563 163.796 329.962ZM172.664 325.596L172.697 335.569L169.322 335.58L169.28 322.9L172.444 322.89L172.664 325.596ZM172.183 328.785L171.269 328.788C171.265 327.851 171.384 327.007 171.623 326.256C171.863 325.497 172.201 324.852 172.637 324.319C173.072 323.778 173.59 323.367 174.191 323.083C174.799 322.792 175.479 322.645 176.229 322.643C176.822 322.641 177.366 322.725 177.858 322.895C178.351 323.066 178.774 323.338 179.127 323.711C179.487 324.085 179.762 324.58 179.952 325.197C180.149 325.814 180.25 326.567 180.252 327.458L180.279 335.544L176.881 335.555L176.854 327.457C176.852 326.895 176.773 326.458 176.615 326.146C176.458 325.834 176.227 325.616 175.922 325.492C175.624 325.36 175.257 325.295 174.819 325.296C174.366 325.298 173.972 325.389 173.637 325.57C173.309 325.75 173.037 326.001 172.819 326.322C172.609 326.635 172.45 327.003 172.342 327.425C172.234 327.848 172.181 328.301 172.183 328.785ZM189.015 322.835L189.022 325.225L181.64 325.25L181.632 322.859L189.015 322.835ZM183.449 319.724L186.824 319.713L186.864 331.701C186.865 332.069 186.913 332.35 187.008 332.545C187.11 332.74 187.259 332.876 187.454 332.953C187.65 333.023 187.896 333.057 188.193 333.056C188.404 333.056 188.591 333.047 188.755 333.031C188.927 333.007 189.072 332.983 189.189 332.959L189.209 335.444C188.92 335.538 188.608 335.614 188.272 335.669C187.936 335.725 187.565 335.754 187.159 335.755C186.417 335.758 185.768 335.639 185.212 335.398C184.665 335.15 184.242 334.753 183.943 334.207C183.644 333.661 183.493 332.943 183.49 332.052L183.449 319.724Z" fill="black"/>
<path d="M51.423 378.66C51.4222 378.394 51.3797 378.16 51.2957 377.957C51.2169 377.749 51.0756 377.562 50.872 377.396C50.6735 377.23 50.3969 377.072 50.0423 376.922C49.6928 376.772 49.2496 376.62 48.7126 376.466C48.1496 376.301 47.6411 376.118 47.1873 375.916C46.7335 375.709 46.3447 375.474 46.0209 375.209C45.6971 374.945 45.4487 374.641 45.2757 374.298C45.1027 373.954 45.0154 373.561 45.014 373.119C45.0125 372.676 45.1023 372.267 45.2833 371.891C45.4644 371.516 45.7237 371.189 46.0613 370.912C46.4042 370.63 46.8123 370.41 47.2857 370.252C47.7592 370.094 48.2875 370.014 48.8709 370.012C49.725 370.009 50.4495 370.171 51.0444 370.497C51.6444 370.818 52.1015 371.241 52.4158 371.766C52.73 372.286 52.8881 372.843 52.8901 373.436L51.3901 373.441C51.3887 373.014 51.2963 372.637 51.1129 372.309C50.9295 371.977 50.6526 371.717 50.2822 371.531C49.9117 371.339 49.4427 371.245 48.875 371.247C48.3385 371.248 47.8961 371.331 47.5477 371.493C47.1992 371.656 46.9395 371.875 46.7686 372.152C46.6028 372.429 46.5206 372.744 46.5217 373.098C46.5225 373.338 46.5727 373.556 46.6723 373.754C46.7772 373.946 46.9366 374.125 47.1507 374.291C47.37 374.457 47.6465 374.61 47.9803 374.75C48.3194 374.889 48.7234 375.023 49.1926 375.152C49.8391 375.332 50.397 375.533 50.8665 375.756C51.336 375.978 51.7223 376.229 52.0253 376.51C52.3335 376.785 52.5611 377.099 52.7081 377.453C52.8603 377.801 52.9371 378.197 52.9386 378.639C52.9401 379.103 52.8478 379.522 52.6615 379.898C52.4753 380.274 52.2081 380.595 51.86 380.862C51.512 381.128 51.0934 381.336 50.6043 381.483C50.1204 381.625 49.579 381.697 48.98 381.699C48.454 381.701 47.9355 381.63 47.4246 381.486C46.9189 381.342 46.4572 381.124 46.0396 380.834C45.6272 380.544 45.2953 380.186 45.0438 379.759C44.7976 379.328 44.6736 378.828 44.6717 378.261L46.1717 378.256C46.173 378.646 46.2496 378.982 46.4016 379.263C46.5535 379.538 46.76 379.767 47.021 379.948C47.2873 380.129 47.5872 380.264 47.9208 380.351C48.2596 380.434 48.6113 380.474 48.9759 380.473C49.502 380.471 49.947 380.397 50.3111 380.25C50.6752 380.103 50.9506 379.893 51.1372 379.622C51.329 379.35 51.4243 379.03 51.423 378.66ZM59.6309 380.062L59.6164 375.711C59.6153 375.378 59.5466 375.089 59.4104 374.844C59.2794 374.595 59.0808 374.403 58.8147 374.268C58.5487 374.134 58.2203 374.067 57.8297 374.068C57.4651 374.07 57.145 374.133 56.8694 374.259C56.599 374.385 56.386 374.55 56.2304 374.753C56.08 374.957 56.0052 375.176 56.006 375.41L54.5607 375.415C54.5597 375.113 54.6368 374.813 54.7921 374.516C54.9474 374.219 55.1704 373.95 55.4613 373.709C55.7574 373.463 56.1109 373.269 56.5219 373.127C56.9381 372.98 57.4014 372.906 57.9118 372.904C58.5264 372.902 59.0684 373.004 59.5378 373.211C60.0124 373.418 60.3833 373.732 60.6503 374.153C60.9225 374.569 61.0597 375.092 61.0618 375.722L61.0748 379.659C61.0758 379.94 61.1002 380.24 61.1481 380.557C61.2013 380.875 61.2777 381.148 61.3774 381.377L61.3778 381.502L59.87 381.507C59.7966 381.341 59.7385 381.119 59.696 380.843C59.6534 380.562 59.6317 380.302 59.6309 380.062ZM59.8686 376.382L59.8876 377.397L58.4267 377.402C58.0153 377.404 57.6482 377.439 57.3255 377.508C57.0028 377.571 56.7323 377.668 56.514 377.799C56.2956 377.93 56.1295 378.095 56.0156 378.293C55.9017 378.486 55.8451 378.713 55.846 378.973C55.8469 379.239 55.9076 379.481 56.0281 379.699C56.1486 379.918 56.3289 380.092 56.5689 380.221C56.8141 380.345 57.1138 380.407 57.4679 380.406C57.9106 380.404 58.301 380.309 58.6389 380.12C58.9768 379.932 59.2443 379.702 59.4413 379.43C59.6435 379.159 59.752 378.895 59.7668 378.64L60.3863 379.333C60.3505 379.552 60.2524 379.795 60.0918 380.061C59.9312 380.327 59.7159 380.583 59.4459 380.829C59.1811 381.069 58.864 381.271 58.4948 381.433C58.1307 381.591 57.7195 381.67 57.2612 381.672C56.6883 381.674 56.1853 381.563 55.7523 381.341C55.3245 381.118 54.9901 380.82 54.7493 380.446C54.5137 380.066 54.3951 379.642 54.3935 379.174C54.392 378.72 54.4792 378.322 54.6552 377.977C54.8311 377.628 55.0853 377.338 55.4179 377.108C55.7505 376.872 56.1509 376.694 56.6193 376.572C57.0876 376.451 57.6108 376.389 58.189 376.388L59.8686 376.382ZM65.7954 380.183L68.0841 373.026L69.5607 373.022L66.5497 381.485L65.5809 381.488L65.7954 380.183ZM63.8419 373.041L66.2486 380.22L66.4169 381.485L65.4481 381.488L62.3576 373.046L63.8419 373.041ZM74.3783 381.615C73.7898 381.617 73.2556 381.52 72.7758 381.323C72.3011 381.122 71.8913 380.839 71.5464 380.476C71.2066 380.113 70.9448 379.681 70.7608 379.182C70.5769 378.682 70.4839 378.136 70.4819 377.542L70.4808 377.214C70.4786 376.526 70.5781 375.914 70.7794 375.377C70.9808 374.835 71.2553 374.375 71.603 373.999C71.9507 373.623 72.3456 373.338 72.7876 373.144C73.2297 372.95 73.6877 372.852 74.1617 372.85C74.7658 372.848 75.287 372.95 75.7252 373.157C76.1686 373.364 76.5316 373.655 76.814 374.029C77.0965 374.398 77.3063 374.834 77.4434 375.339C77.5805 375.839 77.65 376.385 77.652 376.979L77.6541 377.628L71.3417 377.649L71.3377 376.469L76.2049 376.453L76.2045 376.343C76.1825 375.968 76.1031 375.604 75.9665 375.25C75.8352 374.897 75.6259 374.606 75.3386 374.377C75.0514 374.149 74.6604 374.036 74.1656 374.038C73.8375 374.039 73.5357 374.11 73.2601 374.251C72.9845 374.388 72.7482 374.592 72.5512 374.863C72.3542 375.135 72.2016 375.466 72.0935 375.857C71.9855 376.248 71.9323 376.699 71.934 377.209L71.935 377.537C71.9364 377.938 71.9923 378.316 72.1029 378.669C72.2186 379.018 72.3837 379.325 72.5981 379.59C72.8178 379.855 73.0815 380.062 73.3893 380.212C73.7023 380.362 74.0567 380.436 74.4525 380.435C74.9629 380.433 75.3949 380.328 75.7483 380.118C76.1018 379.909 76.4108 379.629 76.6752 379.279L77.5525 379.972C77.3712 380.248 77.1403 380.512 76.8599 380.763C76.5794 381.014 76.2338 381.218 75.8228 381.376C75.4171 381.533 74.9356 381.613 74.3783 381.615ZM85.4793 381.422L84.034 381.427L84.0029 372.083C84.0009 371.474 84.1086 370.96 84.326 370.543C84.5485 370.12 84.8678 369.801 85.2837 369.587C85.6997 369.366 86.1941 369.255 86.767 369.253C86.9337 369.253 87.1004 369.263 87.2671 369.283C87.439 369.303 87.6058 369.334 87.7674 369.375L87.6932 370.555C87.5837 370.529 87.4587 370.512 87.318 370.502C87.1826 370.492 87.0471 370.487 86.9117 370.487C86.6044 370.488 86.339 370.552 86.1155 370.678C85.8971 370.798 85.731 370.976 85.6172 371.21C85.5034 371.445 85.4471 371.734 85.4482 372.078L85.4793 381.422ZM87.2481 372.963L87.2518 374.072L82.6737 374.087L82.67 372.978L87.2481 372.963ZM93.8651 379.949L93.8506 375.597C93.8495 375.264 93.7808 374.975 93.6446 374.731C93.5136 374.481 93.315 374.289 93.0489 374.155C92.7829 374.02 92.4545 373.953 92.0639 373.955C91.6993 373.956 91.3792 374.019 91.1036 374.145C90.8332 374.271 90.6202 374.436 90.4646 374.64C90.3142 374.843 90.2394 375.062 90.2402 375.297L88.7949 375.301C88.7939 374.999 88.871 374.7 89.0263 374.402C89.1816 374.105 89.4046 373.836 89.6955 373.595C89.9916 373.35 90.3451 373.156 90.7561 373.014C91.1722 372.866 91.6355 372.792 92.146 372.79C92.7605 372.788 93.3025 372.891 93.772 373.097C94.2466 373.304 94.6175 373.618 94.8845 374.039C95.1567 374.455 95.2939 374.978 95.296 375.608L95.309 379.545C95.31 379.827 95.3344 380.126 95.3823 380.444C95.4355 380.761 95.5119 381.034 95.6116 381.263L95.612 381.388L94.1042 381.393C94.0308 381.227 93.9727 381.006 93.9301 380.73C93.8875 380.449 93.8658 380.188 93.8651 379.949ZM94.1028 376.268L94.1218 377.284L92.6609 377.289C92.2494 377.29 91.8824 377.325 91.5597 377.394C91.237 377.457 90.9665 377.555 90.7481 377.686C90.5298 377.817 90.3637 377.981 90.2498 378.179C90.1358 378.373 90.0793 378.599 90.0802 378.86C90.081 379.125 90.1417 379.367 90.2623 379.586C90.3828 379.804 90.563 379.978 90.8031 380.107C91.0483 380.232 91.348 380.293 91.7021 380.292C92.1448 380.29 92.5351 380.195 92.8731 380.007C93.211 379.818 93.4784 379.588 93.6755 379.317C93.8777 379.045 93.9862 378.782 94.001 378.526L94.6204 379.22C94.5847 379.439 94.4866 379.681 94.326 379.947C94.1654 380.213 93.9501 380.469 93.6801 380.715C93.4153 380.955 93.0982 381.157 92.729 381.32C92.3649 381.477 91.9537 381.557 91.4954 381.558C90.9225 381.56 90.4195 381.45 89.9865 381.227C89.5586 381.005 89.2243 380.706 88.9835 380.332C88.7479 379.953 88.6293 379.529 88.6277 379.06C88.6262 378.607 88.7134 378.208 88.8894 377.864C89.0653 377.514 89.3195 377.224 89.6521 376.994C89.9846 376.758 90.3851 376.58 90.8534 376.459C91.3218 376.337 91.845 376.276 92.4232 376.274L94.1028 376.268ZM100.03 380.069L102.318 372.913L103.795 372.908L100.784 381.371L99.8151 381.374L100.03 380.069ZM98.0761 372.927L100.483 380.106L100.651 381.372L99.6823 381.375L96.5918 372.932L98.0761 372.927ZM104.692 377.225L104.691 377.046C104.689 376.436 104.776 375.871 104.951 375.349C105.127 374.823 105.38 374.366 105.712 373.98C106.045 373.588 106.447 373.285 106.92 373.069C107.394 372.849 107.925 372.738 108.513 372.736C109.107 372.734 109.641 372.842 110.116 373.059C110.596 373.271 111.003 373.571 111.337 373.961C111.677 374.345 111.937 374.8 112.115 375.326C112.294 375.846 112.385 376.411 112.387 377.02L112.387 377.2C112.389 377.809 112.303 378.374 112.127 378.896C111.952 379.417 111.696 379.874 111.358 380.266C111.026 380.652 110.624 380.956 110.15 381.176C109.682 381.391 109.152 381.5 108.558 381.501C107.964 381.503 107.43 381.398 106.955 381.187C106.48 380.969 106.073 380.669 105.733 380.284C105.399 379.895 105.142 379.44 104.963 378.92C104.784 378.399 104.694 377.835 104.692 377.225ZM106.137 377.041L106.137 377.22C106.139 377.642 106.19 378.041 106.29 378.415C106.39 378.785 106.539 379.112 106.738 379.398C106.942 379.684 107.196 379.91 107.498 380.075C107.801 380.236 108.153 380.315 108.554 380.314C108.95 380.313 109.296 380.231 109.592 380.068C109.894 379.901 110.143 379.673 110.34 379.386C110.537 379.099 110.684 378.77 110.782 378.4C110.885 378.025 110.936 377.626 110.934 377.205L110.934 377.025C110.932 376.608 110.879 376.215 110.773 375.846C110.673 375.471 110.521 375.141 110.317 374.855C110.118 374.564 109.867 374.336 109.565 374.17C109.267 374.004 108.918 373.922 108.517 373.923C108.121 373.925 107.772 374.009 107.471 374.177C107.175 374.345 106.925 374.575 106.723 374.867C106.526 375.154 106.379 375.485 106.281 375.861C106.184 376.231 106.135 376.624 106.137 377.041ZM119.379 379.356L119.357 372.856L120.81 372.851L120.838 381.304L119.456 381.309L119.379 379.356ZM119.646 377.574L120.248 377.556C120.25 378.119 120.192 378.64 120.073 379.119C119.96 379.594 119.774 380.006 119.515 380.356C119.256 380.706 118.915 380.98 118.494 381.179C118.073 381.374 117.56 381.472 116.956 381.474C116.545 381.475 116.167 381.416 115.823 381.298C115.484 381.179 115.192 380.995 114.946 380.746C114.7 380.497 114.509 380.172 114.372 379.771C114.241 379.371 114.174 378.889 114.172 378.327L114.154 372.873L115.599 372.869L115.618 378.337C115.619 378.718 115.662 379.033 115.746 379.282C115.835 379.527 115.953 379.722 116.099 379.867C116.251 380.007 116.418 380.106 116.6 380.162C116.788 380.219 116.981 380.247 117.179 380.246C117.793 380.244 118.28 380.125 118.638 379.89C118.997 379.649 119.254 379.328 119.409 378.926C119.569 378.52 119.648 378.069 119.646 377.574ZM124.463 374.167L124.487 381.292L123.042 381.297L123.013 372.844L124.42 372.839L124.463 374.167ZM127.099 372.784L127.096 374.127C126.976 374.102 126.861 374.086 126.752 374.082C126.648 374.072 126.528 374.067 126.393 374.067C126.059 374.068 125.765 374.121 125.51 374.226C125.255 374.331 125.04 374.478 124.863 374.666C124.687 374.854 124.547 375.079 124.444 375.339C124.346 375.595 124.281 375.876 124.251 376.184L123.846 376.419C123.844 375.909 123.892 375.43 123.989 374.981C124.092 374.533 124.25 374.137 124.462 373.792C124.674 373.443 124.944 373.171 125.272 372.977C125.604 372.778 126 372.678 126.458 372.676C126.562 372.676 126.682 372.689 126.818 372.714C126.953 372.735 127.047 372.758 127.099 372.784ZM130.006 372.821L130.034 381.274L128.581 381.279L128.553 372.826L130.006 372.821ZM128.436 370.584C128.435 370.349 128.505 370.151 128.645 369.989C128.79 369.827 129.003 369.746 129.284 369.745C129.561 369.744 129.772 369.824 129.918 369.985C130.07 370.146 130.146 370.344 130.147 370.578C130.147 370.802 130.072 370.995 129.922 371.157C129.777 371.314 129.566 371.393 129.29 371.394C129.009 371.394 128.795 371.317 128.649 371.161C128.507 371 128.436 370.808 128.436 370.584ZM135.865 372.801L135.869 373.911L131.298 373.926L131.295 372.817L135.865 372.801ZM132.835 370.757L134.28 370.752L134.308 379.166C134.309 379.452 134.354 379.668 134.443 379.814C134.532 379.959 134.647 380.055 134.788 380.102C134.928 380.148 135.08 380.171 135.241 380.171C135.361 380.17 135.486 380.159 135.616 380.138C135.751 380.112 135.853 380.091 135.92 380.075L135.932 381.254C135.818 381.291 135.667 381.326 135.479 381.357C135.297 381.394 135.076 381.413 134.815 381.414C134.461 381.415 134.136 381.346 133.838 381.207C133.541 381.067 133.303 380.833 133.125 380.506C132.952 380.173 132.865 379.725 132.863 379.163L132.835 370.757ZM141.097 381.393C140.508 381.395 139.974 381.298 139.494 381.102C139.02 380.9 138.61 380.618 138.265 380.254C137.925 379.891 137.663 379.46 137.479 378.96C137.295 378.461 137.202 377.914 137.2 377.32L137.199 376.992C137.197 376.305 137.296 375.692 137.498 375.155C137.699 374.613 137.974 374.154 138.321 373.778C138.669 373.401 139.064 373.116 139.506 372.922C139.948 372.728 140.406 372.63 140.88 372.628C141.484 372.626 142.005 372.729 142.444 372.936C142.887 373.143 143.25 373.433 143.532 373.807C143.815 374.176 144.025 374.613 144.162 375.118C144.299 375.617 144.368 376.164 144.37 376.758L144.373 377.406L138.06 377.427L138.056 376.247L142.923 376.231L142.923 376.122C142.901 375.747 142.822 375.382 142.685 375.029C142.554 374.675 142.344 374.384 142.057 374.156C141.77 373.928 141.379 373.814 140.884 373.816C140.556 373.817 140.254 373.888 139.978 374.03C139.703 374.166 139.467 374.37 139.27 374.642C139.073 374.913 138.92 375.244 138.812 375.635C138.704 376.026 138.651 376.477 138.652 376.987L138.653 377.316C138.655 377.717 138.711 378.094 138.821 378.448C138.937 378.796 139.102 379.103 139.316 379.368C139.536 379.633 139.8 379.84 140.108 379.99C140.421 380.14 140.775 380.215 141.171 380.213C141.681 380.212 142.113 380.106 142.467 379.897C142.82 379.687 143.129 379.407 143.394 379.058L144.271 379.75C144.09 380.027 143.859 380.29 143.578 380.541C143.298 380.792 142.952 380.997 142.541 381.154C142.135 381.312 141.654 381.392 141.097 381.393ZM153.421 380.165C153.765 380.164 154.082 380.092 154.373 379.951C154.664 379.809 154.903 379.616 155.09 379.37C155.277 379.12 155.383 378.836 155.408 378.518L156.783 378.513C156.758 379.013 156.59 379.48 156.279 379.913C155.973 380.341 155.571 380.689 155.072 380.956C154.573 381.218 154.024 381.35 153.425 381.352C152.789 381.355 152.234 381.244 151.76 381.022C151.29 380.8 150.898 380.494 150.585 380.104C150.276 379.714 150.043 379.267 149.885 378.763C149.732 378.253 149.655 377.714 149.653 377.146L149.652 376.818C149.65 376.25 149.724 375.714 149.873 375.208C150.028 374.697 150.258 374.246 150.564 373.854C150.875 373.462 151.265 373.154 151.733 372.928C152.206 372.703 152.76 372.589 153.396 372.587C154.057 372.585 154.636 372.718 155.131 372.987C155.627 373.251 156.016 373.615 156.299 374.077C156.587 374.535 156.745 375.055 156.773 375.638L155.398 375.643C155.371 375.294 155.271 374.979 155.098 374.698C154.93 374.418 154.7 374.195 154.408 374.029C154.121 373.858 153.785 373.773 153.4 373.774C152.957 373.776 152.585 373.866 152.283 374.044C151.987 374.217 151.751 374.452 151.575 374.749C151.404 375.041 151.28 375.367 151.203 375.727C151.131 376.081 151.096 376.444 151.097 376.813L151.098 377.141C151.099 377.511 151.137 377.876 151.211 378.235C151.285 378.594 151.409 378.919 151.582 379.21C151.76 379.501 151.997 379.735 152.295 379.911C152.598 380.082 152.973 380.166 153.421 380.165ZM158.02 377.048L158.019 376.868C158.017 376.259 158.104 375.694 158.279 375.172C158.455 374.646 158.708 374.189 159.04 373.803C159.372 373.411 159.775 373.107 160.248 372.892C160.721 372.672 161.252 372.561 161.841 372.559C162.435 372.557 162.969 372.664 163.444 372.882C163.923 373.094 164.331 373.394 164.665 373.784C165.005 374.168 165.264 374.623 165.443 375.148C165.622 375.669 165.712 376.234 165.715 376.843L165.715 377.023C165.717 377.632 165.63 378.197 165.455 378.719C165.28 379.24 165.023 379.697 164.686 380.089C164.354 380.475 163.952 380.778 163.478 380.999C163.01 381.214 162.479 381.322 161.886 381.324C161.292 381.326 160.758 381.221 160.283 381.009C159.808 380.792 159.401 380.491 159.061 380.107C158.727 379.718 158.47 379.263 158.291 378.743C158.112 378.222 158.022 377.658 158.02 377.048ZM159.465 376.864L159.465 377.043C159.467 377.465 159.517 377.863 159.618 378.238C159.718 378.608 159.867 378.935 160.066 379.221C160.27 379.507 160.524 379.733 160.826 379.898C161.129 380.059 161.481 380.138 161.882 380.137C162.278 380.136 162.624 380.054 162.92 379.891C163.221 379.724 163.471 379.496 163.668 379.209C163.865 378.922 164.012 378.593 164.11 378.223C164.213 377.848 164.263 377.449 164.262 377.027L164.261 376.848C164.26 376.431 164.207 376.038 164.101 375.669C164.001 375.294 163.849 374.964 163.645 374.678C163.446 374.387 163.195 374.159 162.893 373.993C162.595 373.827 162.246 373.745 161.845 373.746C161.449 373.748 161.1 373.832 160.799 374C160.502 374.167 160.253 374.397 160.051 374.69C159.854 374.977 159.707 375.308 159.609 375.683C159.511 376.054 159.463 376.447 159.465 376.864ZM172.707 379.179L172.685 372.679L174.138 372.674L174.166 381.127L172.783 381.132L172.707 379.179ZM172.974 377.397L173.576 377.379C173.578 377.942 173.519 378.463 173.401 378.942C173.288 379.417 173.102 379.829 172.843 380.179C172.584 380.528 172.243 380.803 171.822 381.002C171.401 381.196 170.888 381.294 170.284 381.296C169.873 381.298 169.495 381.239 169.151 381.121C168.812 381.002 168.519 380.818 168.274 380.569C168.028 380.32 167.837 379.995 167.7 379.594C167.569 379.194 167.502 378.712 167.5 378.149L167.482 372.696L168.927 372.692L168.945 378.16C168.947 378.54 168.989 378.855 169.074 379.105C169.163 379.35 169.281 379.545 169.427 379.69C169.579 379.83 169.746 379.928 169.928 379.985C170.116 380.042 170.309 380.07 170.506 380.069C171.121 380.067 171.608 379.948 171.966 379.713C172.325 379.472 172.582 379.151 172.737 378.749C172.897 378.342 172.976 377.892 172.974 377.397ZM177.791 373.99L177.815 381.115L176.369 381.12L176.341 372.667L177.748 372.662L177.791 373.99ZM180.427 372.607L180.424 373.95C180.304 373.925 180.189 373.909 180.08 373.905C179.976 373.894 179.856 373.89 179.72 373.89C179.387 373.891 179.093 373.944 178.838 374.049C178.583 374.154 178.368 374.301 178.191 374.489C178.015 374.677 177.875 374.901 177.771 375.162C177.673 375.418 177.609 375.699 177.579 376.007L177.174 376.242C177.172 375.732 177.22 375.253 177.317 374.804C177.42 374.356 177.577 373.96 177.79 373.615C178.002 373.266 178.272 372.994 178.6 372.8C178.932 372.601 179.328 372.501 179.786 372.499C179.89 372.499 180.01 372.512 180.146 372.537C180.281 372.558 180.375 372.581 180.427 372.607ZM186.706 378.843C186.705 378.635 186.657 378.443 186.563 378.266C186.474 378.084 186.289 377.92 186.007 377.776C185.73 377.625 185.313 377.497 184.755 377.389C184.286 377.292 183.862 377.176 183.481 377.042C183.105 376.908 182.785 376.745 182.518 376.553C182.257 376.361 182.056 376.135 181.915 375.875C181.773 375.615 181.702 375.311 181.701 374.962C181.699 374.628 181.771 374.313 181.916 374.016C182.066 373.718 182.276 373.455 182.546 373.224C182.822 372.994 183.152 372.814 183.537 372.682C183.922 372.551 184.351 372.484 184.825 372.483C185.502 372.48 186.081 372.598 186.561 372.836C187.041 373.074 187.409 373.393 187.665 373.793C187.922 374.188 188.051 374.628 188.053 375.112L186.607 375.117C186.607 374.883 186.535 374.657 186.394 374.438C186.258 374.215 186.057 374.031 185.791 373.886C185.53 373.741 185.209 373.669 184.829 373.67C184.428 373.671 184.103 373.735 183.853 373.861C183.609 373.981 183.43 374.136 183.316 374.323C183.207 374.511 183.153 374.709 183.154 374.918C183.154 375.074 183.181 375.215 183.233 375.339C183.291 375.459 183.39 375.571 183.531 375.674C183.672 375.773 183.87 375.866 184.126 375.954C184.381 376.041 184.707 376.129 185.103 376.216C185.796 376.37 186.367 376.556 186.816 376.773C187.265 376.99 187.599 377.257 187.819 377.574C188.038 377.891 188.149 378.276 188.151 378.729C188.152 379.099 188.075 379.438 187.92 379.746C187.77 380.054 187.549 380.32 187.258 380.545C186.972 380.764 186.629 380.938 186.229 381.064C185.833 381.185 185.388 381.246 184.893 381.248C184.149 381.25 183.518 381.12 183.001 380.856C182.485 380.592 182.093 380.249 181.826 379.828C181.559 379.407 181.425 378.963 181.423 378.494L182.876 378.489C182.898 378.885 183.014 379.2 183.223 379.433C183.432 379.662 183.688 379.825 183.99 379.923C184.293 380.016 184.592 380.061 184.889 380.06C185.285 380.059 185.616 380.006 185.881 379.901C186.152 379.796 186.357 379.652 186.497 379.469C186.637 379.286 186.706 379.078 186.706 378.843ZM193.565 381.219C192.977 381.221 192.442 381.124 191.963 380.928C191.488 380.726 191.078 380.444 190.733 380.08C190.393 379.717 190.132 379.285 189.948 378.786C189.764 378.286 189.671 377.74 189.669 377.146L189.668 376.818C189.665 376.131 189.765 375.518 189.966 374.981C190.168 374.439 190.442 373.98 190.79 373.603C191.138 373.227 191.532 372.942 191.974 372.748C192.417 372.554 192.875 372.456 193.349 372.454C193.953 372.452 194.474 372.555 194.912 372.762C195.355 372.968 195.718 373.259 196.001 373.633C196.283 374.002 196.493 374.439 196.63 374.943C196.767 375.443 196.837 375.99 196.839 376.583L196.841 377.232L190.529 377.253L190.525 376.073L195.392 376.057L195.391 375.947C195.369 375.573 195.29 375.208 195.153 374.854C195.022 374.501 194.813 374.21 194.525 373.982C194.238 373.753 193.847 373.64 193.352 373.642C193.024 373.643 192.722 373.714 192.447 373.856C192.171 373.992 191.935 374.196 191.738 374.467C191.541 374.739 191.388 375.07 191.28 375.461C191.172 375.852 191.119 376.303 191.121 376.813L191.122 377.141C191.123 377.542 191.179 377.92 191.29 378.274C191.405 378.622 191.571 378.929 191.785 379.194C192.005 379.459 192.268 379.666 192.576 379.816C192.889 379.966 193.244 380.041 193.639 380.039C194.15 380.038 194.582 379.932 194.935 379.722C195.289 379.513 195.598 379.233 195.862 378.883L196.739 379.576C196.558 379.852 196.327 380.116 196.047 380.367C195.766 380.618 195.421 380.822 195.01 380.98C194.604 381.138 194.122 381.217 193.565 381.219ZM203.456 378.788C203.455 378.58 203.407 378.387 203.313 378.21C203.224 378.028 203.038 377.865 202.757 377.72C202.48 377.57 202.063 377.441 201.505 377.333C201.036 377.236 200.611 377.12 200.231 376.986C199.855 376.852 199.534 376.689 199.268 376.497C199.007 376.305 198.806 376.079 198.664 375.819C198.523 375.559 198.452 375.255 198.45 374.906C198.449 374.573 198.521 374.257 198.666 373.96C198.816 373.663 199.026 373.399 199.296 373.169C199.572 372.939 199.902 372.758 200.287 372.626C200.672 372.495 201.101 372.428 201.575 372.427C202.252 372.425 202.831 372.543 203.311 372.781C203.791 373.018 204.159 373.338 204.415 373.738C204.672 374.133 204.801 374.572 204.803 375.057L203.357 375.062C203.356 374.827 203.285 374.601 203.144 374.383C203.008 374.159 202.807 373.975 202.541 373.83C202.28 373.685 201.959 373.613 201.579 373.614C201.178 373.616 200.853 373.679 200.603 373.805C200.359 373.926 200.179 374.08 200.066 374.268C199.957 374.456 199.903 374.654 199.903 374.862C199.904 375.018 199.93 375.159 199.983 375.284C200.041 375.403 200.14 375.515 200.281 375.619C200.422 375.717 200.62 375.81 200.876 375.898C201.131 375.986 201.457 376.073 201.853 376.16C202.546 376.314 203.117 376.5 203.566 376.717C204.015 376.934 204.349 377.202 204.569 377.519C204.788 377.836 204.899 378.221 204.9 378.674C204.902 379.043 204.825 379.382 204.669 379.69C204.519 379.998 204.299 380.264 204.008 380.489C203.722 380.709 203.379 380.882 202.979 381.008C202.583 381.129 202.138 381.191 201.643 381.192C200.898 381.195 200.268 381.064 199.751 380.8C199.235 380.536 198.843 380.194 198.576 379.773C198.309 379.352 198.175 378.907 198.173 378.438L199.626 378.433C199.648 378.829 199.764 379.144 199.973 379.378C200.182 379.606 200.438 379.769 200.74 379.867C201.043 379.96 201.342 380.006 201.639 380.005C202.035 380.004 202.366 379.95 202.631 379.845C202.901 379.74 203.107 379.596 203.247 379.414C203.387 379.231 203.456 379.022 203.456 378.788ZM208.114 379.296L208.117 380.46C208.119 380.934 208.001 381.434 207.763 381.961C207.525 382.493 207.191 382.937 206.76 383.293L205.937 382.725C206.103 382.495 206.243 382.26 206.357 382.02C206.471 381.786 206.556 381.541 206.612 381.285C206.674 381.035 206.704 380.769 206.703 380.488L206.699 379.301L208.114 379.296ZM218.846 378.737C218.845 378.528 218.798 378.336 218.704 378.159C218.614 377.977 218.429 377.814 218.147 377.669C217.871 377.519 217.454 377.39 216.896 377.282C216.427 377.185 216.002 377.069 215.621 376.935C215.246 376.801 214.925 376.638 214.659 376.446C214.398 376.254 214.196 376.028 214.055 375.768C213.913 375.508 213.842 375.204 213.841 374.855C213.84 374.522 213.912 374.206 214.057 373.909C214.207 373.612 214.417 373.348 214.687 373.118C214.962 372.888 215.292 372.707 215.677 372.575C216.062 372.444 216.492 372.377 216.966 372.376C217.643 372.374 218.221 372.491 218.701 372.729C219.181 372.967 219.549 373.286 219.806 373.687C220.062 374.082 220.191 374.521 220.193 375.006L218.748 375.01C218.747 374.776 218.676 374.55 218.535 374.332C218.398 374.108 218.197 373.924 217.931 373.779C217.67 373.634 217.35 373.562 216.97 373.563C216.568 373.565 216.243 373.628 215.994 373.754C215.749 373.875 215.57 374.029 215.456 374.217C215.347 374.405 215.293 374.603 215.294 374.811C215.294 374.967 215.321 375.108 215.373 375.233C215.431 375.352 215.531 375.464 215.671 375.568C215.812 375.666 216.011 375.759 216.266 375.847C216.522 375.935 216.847 376.022 217.244 376.109C217.937 376.263 218.508 376.449 218.956 376.666C219.405 376.883 219.739 377.15 219.959 377.467C220.179 377.784 220.29 378.169 220.291 378.623C220.292 378.992 220.215 379.331 220.06 379.639C219.91 379.947 219.69 380.213 219.399 380.438C219.113 380.658 218.77 380.831 218.369 380.957C217.974 381.078 217.529 381.14 217.034 381.141C216.289 381.144 215.658 381.013 215.142 380.749C214.625 380.485 214.234 380.143 213.967 379.722C213.699 379.301 213.565 378.856 213.564 378.387L215.017 378.382C215.039 378.778 215.155 379.093 215.364 379.326C215.573 379.555 215.828 379.718 216.131 379.816C216.433 379.909 216.733 379.955 217.03 379.954C217.426 379.952 217.756 379.899 218.021 379.794C218.292 379.689 218.497 379.545 218.637 379.362C218.777 379.18 218.847 378.971 218.846 378.737ZM227.363 378.998L227.341 372.498L228.794 372.493L228.822 380.946L227.439 380.95L227.363 378.998ZM227.63 377.215L228.232 377.198C228.234 377.76 228.175 378.281 228.057 378.761C227.944 379.235 227.758 379.647 227.499 379.997C227.24 380.347 226.899 380.621 226.478 380.821C226.057 381.015 225.544 381.113 224.94 381.115C224.529 381.116 224.151 381.058 223.807 380.939C223.468 380.82 223.175 380.636 222.93 380.387C222.684 380.138 222.493 379.813 222.356 379.413C222.225 379.012 222.158 378.53 222.156 377.968L222.138 372.515L223.583 372.51L223.601 377.979C223.603 378.359 223.645 378.674 223.73 378.924C223.819 379.168 223.937 379.363 224.083 379.508C224.235 379.649 224.402 379.747 224.584 379.804C224.772 379.86 224.965 379.888 225.162 379.888C225.777 379.886 226.264 379.767 226.622 379.531C226.981 379.29 227.238 378.969 227.392 378.568C227.553 378.161 227.632 377.71 227.63 377.215ZM230.978 368.939L232.431 368.934L232.465 379.293L232.346 380.934L231.018 380.939L230.978 368.939ZM238.167 376.618L238.168 376.782C238.17 377.397 238.099 377.967 237.955 378.494C237.811 379.015 237.599 379.469 237.319 379.855C237.039 380.241 236.696 380.542 236.29 380.757C235.885 380.972 235.419 381.08 234.893 381.082C234.357 381.084 233.885 380.994 233.478 380.813C233.076 380.627 232.737 380.36 232.46 380.012C232.183 379.664 231.96 379.243 231.792 378.748C231.628 378.254 231.515 377.697 231.45 377.078L231.448 376.359C231.508 375.734 231.618 375.173 231.778 374.678C231.943 374.183 232.163 373.76 232.438 373.41C232.713 373.055 233.05 372.786 233.451 372.602C233.851 372.413 234.317 372.318 234.848 372.316C235.38 372.315 235.851 372.417 236.263 372.624C236.676 372.826 237.02 373.116 237.298 373.496C237.58 373.875 237.795 374.33 237.943 374.861C238.09 375.386 238.165 375.972 238.167 376.618ZM236.715 376.787L236.714 376.623C236.713 376.201 236.672 375.805 236.593 375.436C236.514 375.061 236.388 374.733 236.215 374.452C236.042 374.167 235.815 373.943 235.533 373.783C235.251 373.617 234.904 373.535 234.493 373.536C234.128 373.538 233.811 373.601 233.54 373.727C233.275 373.853 233.049 374.023 232.862 374.237C232.676 374.446 232.523 374.686 232.404 374.957C232.29 375.223 232.205 375.5 232.149 375.786L232.155 377.669C232.24 378.033 232.376 378.385 232.565 378.722C232.759 379.055 233.015 379.328 233.333 379.54C233.657 379.753 234.056 379.858 234.53 379.857C234.92 379.855 235.253 379.776 235.529 379.619C235.81 379.456 236.035 379.234 236.206 378.953C236.382 378.671 236.512 378.345 236.594 377.975C236.676 377.605 236.716 377.209 236.715 376.787ZM241.425 374.13L241.447 380.904L239.994 380.909L239.966 372.456L241.341 372.451L241.425 374.13ZM241.135 376.358L240.463 376.337C240.467 375.759 240.54 375.225 240.684 374.735C240.829 374.239 241.043 373.809 241.329 373.443C241.614 373.078 241.97 372.795 242.396 372.596C242.823 372.391 243.317 372.288 243.879 372.286C244.275 372.285 244.64 372.341 244.974 372.455C245.308 372.563 245.597 372.736 245.843 372.975C246.088 373.214 246.279 373.521 246.416 373.895C246.553 374.27 246.622 374.723 246.624 375.254L246.642 380.887L245.197 380.891L245.179 375.329C245.177 374.886 245.1 374.532 244.949 374.267C244.802 374.002 244.593 373.81 244.322 373.691C244.05 373.567 243.732 373.506 243.368 373.507C242.941 373.508 242.584 373.585 242.298 373.737C242.012 373.889 241.784 374.098 241.613 374.364C241.442 374.63 241.318 374.936 241.241 375.28C241.169 375.618 241.134 375.978 241.135 376.358ZM246.609 375.543L245.641 375.843C245.645 375.38 245.719 374.934 245.863 374.506C246.013 374.079 246.228 373.698 246.508 373.364C246.793 373.029 247.144 372.765 247.56 372.571C247.976 372.372 248.452 372.271 248.989 372.269C249.442 372.268 249.843 372.326 250.193 372.445C250.547 372.564 250.845 372.748 251.085 372.997C251.331 373.241 251.517 373.555 251.643 373.94C251.769 374.325 251.833 374.783 251.835 375.315L251.853 380.869L250.4 380.874L250.382 375.304C250.38 374.83 250.303 374.463 250.152 374.203C250.005 373.938 249.796 373.754 249.525 373.65C249.259 373.542 248.941 373.488 248.571 373.49C248.253 373.491 247.972 373.546 247.728 373.656C247.483 373.767 247.278 373.918 247.112 374.112C246.946 374.3 246.819 374.516 246.731 374.761C246.649 375.006 246.608 375.267 246.609 375.543ZM255.583 372.404L255.611 380.857L254.158 380.862L254.13 372.409L255.583 372.404ZM254.013 370.167C254.012 369.932 254.082 369.734 254.222 369.572C254.367 369.41 254.581 369.329 254.862 369.328C255.138 369.327 255.349 369.407 255.496 369.568C255.647 369.729 255.723 369.927 255.724 370.161C255.725 370.385 255.65 370.578 255.499 370.74C255.354 370.897 255.143 370.976 254.867 370.976C254.586 370.977 254.372 370.9 254.226 370.744C254.085 370.583 254.014 370.391 254.013 370.167ZM261.442 372.384L261.446 373.494L256.876 373.509L256.872 372.399L261.442 372.384ZM258.412 370.34L259.857 370.335L259.885 378.749C259.886 379.035 259.931 379.251 260.02 379.397C260.109 379.542 260.224 379.638 260.365 379.685C260.506 379.731 260.657 379.754 260.818 379.754C260.938 379.753 261.063 379.742 261.193 379.721C261.329 379.695 261.43 379.673 261.498 379.658L261.51 380.837C261.395 380.874 261.244 380.908 261.057 380.94C260.875 380.977 260.653 380.996 260.393 380.997C260.039 380.998 259.713 380.929 259.416 380.79C259.118 380.65 258.881 380.416 258.702 380.089C258.529 379.756 258.442 379.308 258.44 378.746L258.412 370.34ZM268.556 373.689L268.58 380.814L267.135 380.819L267.106 372.366L268.513 372.361L268.556 373.689ZM271.192 372.305L271.189 373.649C271.069 373.623 270.954 373.608 270.845 373.603C270.741 373.593 270.621 373.588 270.486 373.589C270.152 373.59 269.858 373.643 269.603 373.748C269.348 373.853 269.133 373.999 268.956 374.187C268.78 374.376 268.64 374.6 268.537 374.861C268.439 375.116 268.374 375.398 268.344 375.705L267.939 375.941C267.937 375.43 267.985 374.951 268.082 374.503C268.185 374.055 268.343 373.658 268.555 373.314C268.767 372.964 269.037 372.692 269.365 372.499C269.697 372.3 270.093 372.199 270.551 372.198C270.655 372.197 270.775 372.21 270.911 372.236C271.046 372.256 271.14 372.279 271.192 372.305ZM275.908 380.946C275.32 380.948 274.786 380.85 274.306 380.654C273.831 380.453 273.421 380.17 273.077 379.807C272.737 379.443 272.475 379.012 272.291 378.512C272.107 378.013 272.014 377.466 272.012 376.873L272.011 376.545C272.009 375.857 272.108 375.245 272.31 374.708C272.511 374.165 272.785 373.706 273.133 373.33C273.481 372.954 273.876 372.669 274.318 372.474C274.76 372.28 275.218 372.182 275.692 372.181C276.296 372.179 276.817 372.281 277.255 372.488C277.699 372.695 278.062 372.985 278.344 373.359C278.627 373.728 278.836 374.165 278.974 374.67C279.111 375.169 279.18 375.716 279.182 376.31L279.184 376.958L272.872 376.979L272.868 375.8L277.735 375.783L277.735 375.674C277.713 375.299 277.633 374.935 277.497 374.581C277.365 374.227 277.156 373.936 276.869 373.708C276.582 373.48 276.191 373.367 275.696 373.368C275.368 373.369 275.066 373.441 274.79 373.582C274.515 373.719 274.278 373.922 274.081 374.194C273.884 374.465 273.732 374.797 273.624 375.188C273.516 375.579 273.462 376.029 273.464 376.54L273.465 376.868C273.467 377.269 273.522 377.646 273.633 378C273.749 378.349 273.914 378.655 274.128 378.92C274.348 379.185 274.612 379.393 274.919 379.543C275.232 379.693 275.587 379.767 275.983 379.766C276.493 379.764 276.925 379.658 277.278 379.449C277.632 379.239 277.941 378.96 278.205 378.61L279.083 379.302C278.901 379.579 278.67 379.843 278.39 380.094C278.11 380.345 277.764 380.549 277.353 380.707C276.947 380.864 276.466 380.944 275.908 380.946ZM283.341 379.46L285.63 372.304L287.106 372.299L284.095 380.762L283.127 380.765L283.341 379.46ZM281.388 372.318L283.794 379.498L283.963 380.763L282.994 380.766L279.903 372.323L281.388 372.318ZM290.067 372.289L290.095 380.742L288.642 380.747L288.614 372.294L290.067 372.289ZM288.497 370.052C288.497 369.818 288.566 369.62 288.706 369.458C288.852 369.296 289.065 369.214 289.346 369.213C289.622 369.213 289.833 369.293 289.98 369.454C290.131 369.615 290.207 369.812 290.208 370.047C290.209 370.271 290.134 370.463 289.984 370.625C289.838 370.782 289.628 370.861 289.352 370.862C289.07 370.863 288.857 370.785 288.71 370.63C288.569 370.469 288.498 370.276 288.497 370.052ZM295.924 380.879C295.335 380.881 294.801 380.784 294.321 380.588C293.847 380.386 293.437 380.104 293.092 379.74C292.752 379.377 292.49 378.945 292.306 378.446C292.123 377.947 292.03 377.4 292.028 376.806L292.026 376.478C292.024 375.791 292.124 375.178 292.325 374.641C292.526 374.099 292.801 373.64 293.149 373.263C293.496 372.887 293.891 372.602 294.333 372.408C294.775 372.214 295.233 372.116 295.707 372.114C296.311 372.112 296.833 372.215 297.271 372.422C297.714 372.628 298.077 372.919 298.36 373.293C298.642 373.662 298.852 374.099 298.989 374.603C299.126 375.103 299.196 375.65 299.198 376.243L299.2 376.892L292.887 376.913L292.883 375.733L297.751 375.717L297.75 375.607C297.728 375.233 297.649 374.868 297.512 374.515C297.381 374.161 297.172 373.87 296.884 373.642C296.597 373.413 296.206 373.3 295.711 373.302C295.383 373.303 295.081 373.374 294.806 373.516C294.53 373.652 294.294 373.856 294.097 374.127C293.9 374.399 293.747 374.73 293.639 375.121C293.531 375.512 293.478 375.963 293.48 376.473L293.481 376.801C293.482 377.202 293.538 377.58 293.649 377.934C293.764 378.282 293.929 378.589 294.144 378.854C294.363 379.119 294.627 379.326 294.935 379.476C295.248 379.626 295.602 379.701 295.998 379.699C296.509 379.698 296.941 379.592 297.294 379.382C297.647 379.173 297.956 378.893 298.221 378.543L299.098 379.236C298.917 379.512 298.686 379.776 298.405 380.027C298.125 380.278 297.779 380.482 297.368 380.64C296.963 380.798 296.481 380.877 295.924 380.879ZM303.036 379.199L305.184 372.239L306.137 372.236L305.955 373.619L303.767 380.697L302.837 380.7L303.036 379.199ZM301.552 372.251L303.426 379.276L303.564 380.698L302.587 380.701L300.106 372.256L301.552 372.251ZM308.239 379.205L309.981 372.223L311.419 372.218L308.994 380.68L308.025 380.683L308.239 379.205ZM306.348 372.235L308.496 379.064L308.744 380.68L307.822 380.683L305.525 373.605L305.333 372.239L306.348 372.235ZM317.846 378.408C317.845 378.2 317.797 378.007 317.703 377.83C317.614 377.648 317.428 377.485 317.147 377.34C316.87 377.19 316.453 377.061 315.895 376.953C315.426 376.856 315.001 376.74 314.621 376.606C314.245 376.472 313.924 376.309 313.658 376.117C313.397 375.925 313.196 375.699 313.054 375.439C312.913 375.18 312.842 374.875 312.84 374.526C312.839 374.193 312.911 373.877 313.056 373.58C313.206 373.283 313.416 373.019 313.686 372.789C313.962 372.559 314.292 372.378 314.677 372.247C315.062 372.115 315.491 372.049 315.965 372.047C316.642 372.045 317.221 372.163 317.701 372.401C318.181 372.639 318.549 372.958 318.805 373.358C319.062 373.753 319.191 374.193 319.193 374.677L317.747 374.682C317.746 374.447 317.675 374.221 317.534 374.003C317.398 373.779 317.197 373.595 316.931 373.45C316.67 373.305 316.349 373.233 315.969 373.234C315.568 373.236 315.243 373.299 314.993 373.425C314.749 373.546 314.569 373.7 314.456 373.888C314.347 374.076 314.293 374.274 314.293 374.482C314.294 374.638 314.32 374.779 314.373 374.904C314.431 375.023 314.53 375.135 314.671 375.239C314.812 375.337 315.01 375.43 315.266 375.518C315.521 375.606 315.847 375.693 316.243 375.78C316.936 375.934 317.507 376.12 317.956 376.337C318.404 376.555 318.739 376.822 318.959 377.139C319.178 377.456 319.289 377.841 319.29 378.294C319.292 378.664 319.215 379.002 319.059 379.31C318.909 379.618 318.689 379.884 318.398 380.109C318.112 380.329 317.769 380.502 317.369 380.628C316.973 380.749 316.528 380.811 316.033 380.812C315.288 380.815 314.658 380.684 314.141 380.42C313.625 380.156 313.233 379.814 312.966 379.393C312.699 378.972 312.565 378.527 312.563 378.058L314.016 378.053C314.038 378.449 314.154 378.764 314.363 378.998C314.572 379.226 314.828 379.389 315.13 379.487C315.433 379.58 315.732 379.626 316.029 379.625C316.425 379.624 316.756 379.57 317.021 379.465C317.291 379.36 317.497 379.216 317.637 379.034C317.777 378.851 317.846 378.642 317.846 378.408ZM322.504 378.916L322.507 380.08C322.509 380.554 322.391 381.054 322.153 381.581C321.915 382.113 321.581 382.557 321.15 382.913L320.327 382.345C320.493 382.115 320.633 381.88 320.747 381.641C320.861 381.406 320.946 381.161 321.002 380.905C321.064 380.655 321.094 380.389 321.093 380.108L321.089 378.921L322.504 378.916ZM333.301 379.154L333.287 374.802C333.286 374.469 333.217 374.18 333.081 373.935C332.95 373.686 332.751 373.494 332.485 373.359C332.219 373.225 331.891 373.158 331.5 373.159C331.135 373.161 330.815 373.224 330.54 373.35C330.269 373.476 330.056 373.641 329.901 373.844C329.75 374.048 329.676 374.267 329.676 374.501L328.231 374.506C328.23 374.204 328.307 373.904 328.462 373.607C328.618 373.31 328.841 373.041 329.132 372.8C329.428 372.554 329.781 372.36 330.192 372.218C330.608 372.071 331.072 371.997 331.582 371.995C332.197 371.993 332.739 372.095 333.208 372.302C333.683 372.509 334.054 372.823 334.321 373.244C334.593 373.66 334.73 374.183 334.732 374.813L334.745 378.75C334.746 379.032 334.771 379.331 334.819 379.648C334.872 379.966 334.948 380.239 335.048 380.468L335.048 380.593L333.54 380.598C333.467 380.432 333.409 380.21 333.366 379.935C333.324 379.653 333.302 379.393 333.301 379.154ZM333.539 375.473L333.558 376.489L332.097 376.493C331.686 376.495 331.319 376.53 330.996 376.599C330.673 376.662 330.403 376.759 330.184 376.89C329.966 377.021 329.8 377.186 329.686 377.384C329.572 377.577 329.515 377.804 329.516 378.065C329.517 378.33 329.578 378.572 329.698 378.79C329.819 379.009 329.999 379.183 330.239 379.312C330.484 379.436 330.784 379.498 331.138 379.497C331.581 379.495 331.971 379.4 332.309 379.211C332.647 379.023 332.915 378.793 333.112 378.521C333.314 378.25 333.422 377.986 333.437 377.731L334.057 378.424C334.021 378.643 333.923 378.886 333.762 379.152C333.602 379.418 333.386 379.674 333.116 379.92C332.851 380.16 332.534 380.362 332.165 380.524C331.801 380.682 331.39 380.761 330.932 380.763C330.359 380.765 329.856 380.655 329.423 380.432C328.995 380.209 328.66 379.911 328.42 379.537C328.184 379.157 328.065 378.733 328.064 378.265C328.062 377.812 328.15 377.413 328.326 377.068C328.501 376.719 328.756 376.429 329.088 376.199C329.421 375.963 329.821 375.785 330.29 375.663C330.758 375.542 331.281 375.481 331.859 375.479L333.539 375.473ZM338.448 373.933L338.47 380.582L337.025 380.586L336.997 372.133L338.364 372.129L338.448 373.933ZM338.111 376.036L337.51 376.015C337.513 375.436 337.597 374.902 337.762 374.412C337.927 373.917 338.16 373.486 338.461 373.121C338.762 372.755 339.12 372.473 339.536 372.273C339.957 372.069 340.423 371.966 340.934 371.964C341.35 371.963 341.725 372.019 342.059 372.132C342.393 372.24 342.677 372.417 342.913 372.661C343.153 372.905 343.336 373.222 343.463 373.612C343.589 373.997 343.653 374.468 343.655 375.025L343.673 380.564L342.22 380.569L342.202 375.015C342.2 374.572 342.134 374.218 342.003 373.953C341.872 373.682 341.681 373.488 341.43 373.369C341.18 373.244 340.873 373.183 340.508 373.184C340.149 373.185 339.821 373.262 339.524 373.414C339.233 373.566 338.981 373.775 338.769 374.042C338.561 374.308 338.398 374.613 338.28 374.957C338.166 375.296 338.11 375.656 338.111 376.036ZM351.191 378.899L351.157 368.539L352.61 368.535L352.65 380.535L351.322 380.539L351.191 378.899ZM345.495 376.425L345.495 376.261C345.493 375.616 345.569 375.029 345.723 374.503C345.883 373.971 346.108 373.515 346.398 373.133C346.694 372.752 347.045 372.459 347.45 372.255C347.861 372.045 348.319 371.94 348.824 371.938C349.355 371.936 349.819 372.028 350.216 372.214C350.617 372.395 350.957 372.663 351.234 373.016C351.516 373.364 351.739 373.785 351.902 374.279C352.065 374.773 352.179 375.333 352.244 375.958L352.246 376.677C352.191 377.296 352.081 377.854 351.916 378.349C351.756 378.845 351.536 379.267 351.256 379.617C350.981 379.967 350.643 380.237 350.243 380.425C349.843 380.609 349.374 380.702 348.838 380.703C348.343 380.705 347.889 380.6 347.477 380.388C347.07 380.175 346.718 379.877 346.42 379.493C346.127 379.108 345.899 378.656 345.735 378.136C345.577 377.61 345.497 377.04 345.495 376.425ZM346.948 376.257L346.948 376.421C346.95 376.843 346.993 377.238 347.077 377.608C347.167 377.977 347.304 378.302 347.487 378.583C347.67 378.864 347.903 379.084 348.184 379.245C348.466 379.4 348.802 379.477 349.193 379.476C349.672 379.474 350.065 379.371 350.372 379.167C350.684 378.963 350.933 378.694 351.119 378.36C351.305 378.026 351.45 377.664 351.553 377.273L351.547 375.39C351.483 375.104 351.391 374.828 351.27 374.563C351.155 374.292 351.003 374.053 350.815 373.845C350.632 373.632 350.405 373.464 350.134 373.34C349.868 373.216 349.552 373.154 349.188 373.155C348.792 373.157 348.451 373.241 348.165 373.409C347.884 373.571 347.653 373.796 347.472 374.083C347.291 374.365 347.156 374.693 347.069 375.069C346.987 375.439 346.947 375.835 346.948 376.257ZM46.6371 393.723L46.6706 403.801L45.2175 403.806L45.1786 392.103L46.5067 392.098L46.6371 393.723ZM52.3408 396.235L52.3413 396.399C52.3434 397.014 52.2724 397.584 52.1283 398.111C51.9842 398.632 51.7721 399.086 51.4922 399.472C51.2174 399.859 50.8773 400.159 50.4717 400.374C50.0662 400.589 49.6004 400.697 49.0743 400.699C48.5379 400.701 48.0636 400.614 47.6516 400.438C47.2396 400.263 46.8897 400.006 46.6022 399.668C46.3146 399.331 46.0841 398.925 45.9106 398.452C45.7424 397.978 45.626 397.445 45.5616 396.851L45.5586 395.976C45.6191 395.351 45.7344 394.791 45.9046 394.296C46.0749 393.8 46.3 393.378 46.5801 393.028C46.8654 392.673 47.2108 392.403 47.6165 392.22C48.0221 392.031 48.4906 391.935 49.0218 391.934C49.553 391.932 50.0247 392.034 50.4369 392.241C50.849 392.443 51.1963 392.734 51.4789 393.113C51.7614 393.492 51.9738 393.947 52.1162 394.478C52.2638 395.004 52.3386 395.589 52.3408 396.235ZM50.8882 396.404L50.8877 396.24C50.8863 395.818 50.8407 395.422 50.7509 395.053C50.6611 394.678 50.522 394.351 50.3336 394.07C50.1503 393.784 49.9152 393.561 49.6282 393.4C49.3412 393.235 48.9998 393.152 48.604 393.154C48.2394 393.155 47.9219 393.219 47.6515 393.344C47.3863 393.47 47.1603 393.64 46.9735 393.855C46.7867 394.063 46.6338 394.304 46.5149 394.575C46.4012 394.841 46.3162 395.117 46.2599 395.404L46.2666 397.427C46.372 397.791 46.5189 398.135 46.7075 398.457C46.8961 398.774 47.1469 399.031 47.4601 399.228C47.7732 399.42 48.1668 399.515 48.6407 399.513C49.0313 399.512 49.367 399.43 49.6477 399.268C49.9336 399.1 50.1672 398.873 50.3486 398.586C50.5351 398.298 50.6721 397.97 50.7594 397.6C50.8467 397.224 50.8896 396.826 50.8882 396.404ZM57.7071 400.67C57.1186 400.672 56.5844 400.575 56.1046 400.379C55.6299 400.177 55.2201 399.895 54.8752 399.531C54.5354 399.168 54.2736 398.737 54.0896 398.237C53.9057 397.738 53.8127 397.191 53.8108 396.597L53.8097 396.269C53.8074 395.582 53.9069 394.97 54.1083 394.432C54.3096 393.89 54.5841 393.431 54.9318 393.055C55.2795 392.679 55.6744 392.393 56.1165 392.199C56.5585 392.005 57.0165 391.907 57.4905 391.906C58.0947 391.904 58.6158 392.006 59.054 392.213C59.4974 392.42 59.8604 392.71 60.1429 393.084C60.4253 393.453 60.6351 393.89 60.7722 394.395C60.9093 394.894 60.9788 395.441 60.9808 396.035L60.983 396.683L54.6705 396.704L54.6666 395.524L59.5337 395.508L59.5334 395.399C59.5113 395.024 59.432 394.66 59.2954 394.306C59.164 393.952 58.9547 393.661 58.6675 393.433C58.3802 393.205 57.9892 393.091 57.4944 393.093C57.1663 393.094 56.8645 393.165 56.5889 393.307C56.3133 393.443 56.077 393.647 55.88 393.919C55.683 394.19 55.5304 394.521 55.4224 394.912C55.3143 395.303 55.2611 395.754 55.2628 396.265L55.2639 396.593C55.2652 396.994 55.3211 397.371 55.4317 397.725C55.5474 398.073 55.7125 398.38 55.9269 398.645C56.1466 398.91 56.4103 399.117 56.7181 399.268C57.0311 399.418 57.3855 399.492 57.7813 399.491C58.2917 399.489 58.7237 399.383 59.0772 399.174C59.4306 398.964 59.7396 398.685 60.0041 398.335L60.8814 399.027C60.7 399.304 60.4691 399.568 60.1887 399.818C59.9083 400.069 59.5626 400.274 59.1516 400.431C58.7459 400.589 58.2644 400.669 57.7071 400.67ZM64.1048 393.368L64.1284 400.493L62.6831 400.498L62.6551 392.045L64.0613 392.04L64.1048 393.368ZM66.7408 391.984L66.7375 393.328C66.6176 393.302 66.503 393.287 66.3936 393.282C66.2894 393.272 66.1696 393.267 66.0341 393.268C65.7008 393.269 65.4067 393.322 65.1518 393.427C64.897 393.532 64.6813 393.679 64.5049 393.867C64.3284 394.055 64.1885 394.279 64.0852 394.54C63.9871 394.795 63.9229 395.077 63.8927 395.384L63.4872 395.62C63.4856 395.11 63.5334 394.63 63.6309 394.182C63.7336 393.734 63.8911 393.337 64.1035 392.993C64.3159 392.643 64.5858 392.372 64.9133 392.178C65.246 391.979 65.6415 391.878 66.0998 391.877C66.204 391.877 66.3238 391.889 66.4593 391.915C66.5948 391.935 66.6886 391.958 66.7408 391.984ZM73.0194 398.221C73.0187 398.013 72.9712 397.82 72.8768 397.644C72.7877 397.462 72.6022 397.298 72.3205 397.153C72.044 397.003 71.6269 396.874 71.0692 396.767C70.6001 396.669 70.1753 396.554 69.7946 396.419C69.4192 396.285 69.0983 396.122 68.8321 395.93C68.571 395.739 68.3697 395.513 68.2282 395.253C68.0868 394.993 68.0154 394.688 68.0143 394.339C68.0132 394.006 68.085 393.691 68.2299 393.393C68.3799 393.096 68.59 392.832 68.8601 392.602C69.1353 392.372 69.4655 392.191 69.8505 392.06C70.2354 391.928 70.6649 391.862 71.1389 391.86C71.8159 391.858 72.3945 391.976 72.8744 392.214C73.3544 392.452 73.7226 392.771 73.9792 393.171C74.2357 393.566 74.3648 394.006 74.3664 394.49L72.9211 394.495C72.9203 394.261 72.8492 394.034 72.7079 393.816C72.5717 393.592 72.3706 393.408 72.1045 393.263C71.8436 393.118 71.523 393.046 71.1428 393.048C70.7418 393.049 70.4165 393.113 70.1669 393.238C69.9225 393.359 69.7433 393.513 69.6293 393.701C69.5206 393.889 69.4666 394.087 69.4673 394.295C69.4678 394.452 69.4943 394.592 69.5468 394.717C69.6045 394.837 69.7038 394.948 69.8448 395.052C69.9857 395.151 70.184 395.244 70.4395 395.331C70.695 395.419 71.0208 395.506 71.4169 395.594C72.1101 395.748 72.681 395.933 73.1297 396.15C73.5783 396.368 73.9125 396.635 74.1324 396.952C74.3522 397.269 74.4628 397.654 74.4643 398.107C74.4655 398.477 74.3885 398.816 74.2333 399.123C74.0833 399.431 73.8628 399.698 73.5719 399.922C73.2862 400.142 72.943 400.315 72.5424 400.442C72.1469 400.563 71.7018 400.624 71.207 400.626C70.4623 400.628 69.8316 400.497 69.3151 400.233C68.7986 399.97 68.4068 399.627 68.1398 399.206C67.8728 398.785 67.7385 398.34 67.7369 397.872L69.1901 397.867C69.2122 398.262 69.3278 398.577 69.5369 398.811C69.746 399.039 70.0018 399.203 70.3042 399.301C70.6066 399.393 70.9062 399.439 71.2031 399.438C71.5989 399.437 71.9295 399.384 72.1948 399.279C72.4652 399.174 72.6705 399.03 72.8105 398.847C72.9505 398.664 73.0202 398.456 73.0194 398.221ZM75.974 396.321L75.9734 396.141C75.9714 395.532 76.0581 394.966 76.2334 394.445C76.4087 393.918 76.6624 393.462 76.9945 393.075C77.3265 392.683 77.7292 392.38 78.2024 392.165C78.6756 391.945 79.2065 391.833 79.7951 391.831C80.3888 391.829 80.923 391.937 81.3977 392.154C81.8776 392.366 82.2848 392.667 82.6195 393.056C82.9593 393.441 83.2186 393.896 83.3974 394.421C83.5762 394.941 83.6667 395.506 83.6687 396.115L83.6693 396.295C83.6713 396.905 83.5846 397.47 83.4093 397.991C83.2339 398.513 82.9776 398.969 82.6404 399.361C82.3084 399.748 81.9057 400.051 81.4325 400.271C80.9644 400.486 80.4336 400.595 79.8398 400.597C79.2461 400.599 78.7119 400.494 78.2372 400.282C77.7625 400.065 77.3553 399.764 77.0154 399.38C76.6808 398.99 76.4241 398.535 76.2453 398.015C76.0665 397.495 75.976 396.93 75.974 396.321ZM77.4187 396.136L77.4193 396.316C77.4207 396.738 77.4715 397.136 77.5717 397.511C77.6719 397.88 77.8214 398.208 78.0203 398.494C78.2244 398.779 78.4777 399.005 78.7804 399.171C79.083 399.331 79.4348 399.411 79.8359 399.409C80.2317 399.408 80.5778 399.326 80.8741 399.164C81.1756 398.996 81.4249 398.769 81.6219 398.482C81.8188 398.195 81.9662 397.866 82.0639 397.496C82.1668 397.12 82.2176 396.722 82.2162 396.3L82.2156 396.12C82.2142 395.704 82.1608 395.311 82.0554 394.941C81.9552 394.566 81.8031 394.236 81.599 393.95C81.4001 393.659 81.1493 393.431 80.8467 393.265C80.5493 393.1 80.2 393.018 79.799 393.019C79.4032 393.02 79.0545 393.105 78.753 393.272C78.4567 393.44 78.2074 393.67 78.0053 393.962C77.8083 394.25 77.661 394.581 77.5632 394.956C77.4655 395.326 77.4173 395.72 77.4187 396.136ZM86.9187 393.769L86.9408 400.417L85.4955 400.422L85.4674 391.969L86.8346 391.964L86.9187 393.769ZM86.582 395.871L85.9803 395.85C85.9836 395.272 86.0678 394.738 86.2328 394.248C86.3978 393.752 86.6308 393.322 86.9317 392.956C87.2325 392.591 87.591 392.308 88.007 392.109C88.4282 391.904 88.894 391.801 89.4044 391.8C89.8211 391.798 90.1962 391.854 90.53 391.968C90.8636 392.076 91.1481 392.252 91.3833 392.496C91.6237 392.74 91.807 393.057 91.9333 393.447C92.0596 393.832 92.1237 394.304 92.1255 394.861L92.1439 400.4L90.6908 400.405L90.6723 394.85C90.6709 394.407 90.6046 394.053 90.4735 393.788C90.3424 393.518 90.1516 393.323 89.9012 393.204C89.6508 393.08 89.3433 393.018 88.9788 393.02C88.6194 393.021 88.2915 393.098 87.9951 393.25C87.704 393.402 87.4521 393.611 87.2394 393.877C87.032 394.143 86.8689 394.449 86.7503 394.793C86.6368 395.132 86.5807 395.491 86.582 395.871ZM99.3188 398.931L99.3043 394.579C99.3032 394.246 99.2345 393.957 99.0983 393.713C98.9673 393.463 98.7687 393.271 98.5026 393.137C98.2366 393.002 97.9082 392.935 97.5176 392.937C97.153 392.938 96.8329 393.001 96.5573 393.127C96.2869 393.253 96.0739 393.418 95.9183 393.622C95.7679 393.825 95.6931 394.044 95.6939 394.279L94.2486 394.283C94.2476 393.981 94.3247 393.682 94.48 393.384C94.6353 393.087 94.8583 392.818 95.1492 392.577C95.4453 392.332 95.7988 392.138 96.2098 391.996C96.6259 391.848 97.0892 391.774 97.5997 391.772C98.2142 391.77 98.7562 391.873 99.2257 392.079C99.7003 392.286 100.071 392.6 100.338 393.021C100.61 393.437 100.748 393.96 100.75 394.59L100.763 398.527C100.764 398.809 100.788 399.108 100.836 399.426C100.889 399.743 100.966 400.016 101.065 400.245L101.066 400.37L99.5579 400.375C99.4845 400.209 99.4264 399.988 99.3838 399.712C99.3412 399.431 99.3195 399.17 99.3188 398.931ZM99.5565 395.25L99.5755 396.266L98.1146 396.271C97.7031 396.272 97.3361 396.307 97.0134 396.376C96.6907 396.439 96.4202 396.537 96.2018 396.668C95.9835 396.799 95.8174 396.963 95.7035 397.161C95.5895 397.355 95.533 397.581 95.5339 397.842C95.5347 398.107 95.5954 398.349 95.716 398.568C95.8365 398.786 96.0167 398.96 96.2568 399.089C96.502 399.214 96.8017 399.275 97.1558 399.274C97.5985 399.272 97.9888 399.177 98.3268 398.989C98.6647 398.8 98.9321 398.57 99.1292 398.299C99.3314 398.027 99.4399 397.764 99.4547 397.508L100.074 398.202C100.038 398.421 99.9403 398.663 99.7797 398.929C99.6191 399.195 99.4038 399.451 99.1338 399.697C98.869 399.937 98.5519 400.139 98.1827 400.302C97.8186 400.459 97.4074 400.539 96.9491 400.54C96.3762 400.542 95.8732 400.432 95.4402 400.209C95.0123 399.987 94.678 399.688 94.4372 399.314C94.2015 398.935 94.083 398.511 94.0814 398.042C94.0799 397.589 94.1671 397.19 94.343 396.846C94.519 396.496 94.7732 396.206 95.1058 395.976C95.4383 395.74 95.8388 395.562 96.3071 395.441C96.7755 395.319 97.2987 395.258 97.8769 395.256L99.5565 395.25ZM104.573 388.359L104.613 400.358L103.159 400.363L103.12 388.363L104.573 388.359ZM108.475 391.892L108.503 400.346L107.05 400.35L107.022 391.897L108.475 391.892ZM106.905 389.655C106.904 389.421 106.974 389.223 107.114 389.061C107.259 388.899 107.473 388.818 107.754 388.817C108.03 388.816 108.241 388.896 108.388 389.057C108.539 389.218 108.615 389.415 108.616 389.65C108.617 389.874 108.542 390.067 108.391 390.229C108.246 390.385 108.035 390.464 107.759 390.465C107.478 390.466 107.264 390.389 107.118 390.233C106.977 390.072 106.906 389.879 106.905 389.655ZM115.738 398.079C115.737 397.871 115.69 397.678 115.595 397.502C115.506 397.32 115.321 397.156 115.039 397.011C114.762 396.861 114.345 396.732 113.788 396.625C113.319 396.527 112.894 396.412 112.513 396.278C112.138 396.143 111.817 395.98 111.551 395.789C111.29 395.597 111.088 395.371 110.947 395.111C110.805 394.851 110.734 394.546 110.733 394.197C110.732 393.864 110.804 393.549 110.948 393.251C111.098 392.954 111.309 392.69 111.579 392.46C111.854 392.23 112.184 392.049 112.569 391.918C112.954 391.786 113.383 391.72 113.857 391.718C114.534 391.716 115.113 391.834 115.593 392.072C116.073 392.31 116.441 392.629 116.698 393.029C116.954 393.424 117.083 393.864 117.085 394.348L115.64 394.353C115.639 394.119 115.568 393.892 115.426 393.674C115.29 393.451 115.089 393.266 114.823 393.121C114.562 392.976 114.242 392.905 113.861 392.906C113.46 392.907 113.135 392.971 112.885 393.097C112.641 393.217 112.462 393.371 112.348 393.559C112.239 393.747 112.185 393.945 112.186 394.154C112.186 394.31 112.213 394.45 112.265 394.575C112.323 394.695 112.422 394.806 112.563 394.91C112.704 395.009 112.902 395.102 113.158 395.189C113.413 395.277 113.739 395.365 114.135 395.452C114.829 395.606 115.4 395.791 115.848 396.009C116.297 396.226 116.631 396.493 116.851 396.81C117.071 397.127 117.181 397.512 117.183 397.965C117.184 398.335 117.107 398.674 116.952 398.982C116.802 399.289 116.581 399.556 116.29 399.781C116.005 400 115.662 400.173 115.261 400.3C114.865 400.421 114.42 400.482 113.926 400.484C113.181 400.486 112.55 400.356 112.034 400.092C111.517 399.828 111.125 399.485 110.858 399.064C110.591 398.643 110.457 398.198 110.455 397.73L111.909 397.725C111.931 398.121 112.046 398.435 112.255 398.669C112.465 398.897 112.72 399.061 113.023 399.159C113.325 399.251 113.625 399.297 113.922 399.296C114.317 399.295 114.648 399.242 114.913 399.137C115.184 399.032 115.389 398.888 115.529 398.705C115.669 398.522 115.739 398.314 115.738 398.079ZM122.597 400.455C122.009 400.457 121.475 400.36 120.995 400.163C120.52 399.962 120.11 399.679 119.765 399.316C119.426 398.952 119.164 398.521 118.98 398.022C118.796 397.522 118.703 396.976 118.701 396.382L118.7 396.054C118.698 395.366 118.797 394.754 118.999 394.217C119.2 393.675 119.474 393.215 119.822 392.839C120.17 392.463 120.565 392.178 121.007 391.984C121.449 391.789 121.907 391.692 122.381 391.69C122.985 391.688 123.506 391.79 123.944 391.997C124.388 392.204 124.751 392.495 125.033 392.869C125.316 393.238 125.525 393.674 125.662 394.179C125.8 394.679 125.869 395.225 125.871 395.819L125.873 396.468L119.561 396.488L119.557 395.309L124.424 395.293L124.424 395.183C124.402 394.808 124.322 394.444 124.186 394.09C124.054 393.737 123.845 393.446 123.558 393.217C123.271 392.989 122.88 392.876 122.385 392.878C122.057 392.879 121.755 392.95 121.479 393.091C121.204 393.228 120.967 393.432 120.77 393.703C120.573 393.975 120.421 394.306 120.313 394.697C120.205 395.088 120.151 395.539 120.153 396.049L120.154 396.377C120.155 396.778 120.211 397.156 120.322 397.509C120.438 397.858 120.603 398.165 120.817 398.43C121.037 398.695 121.301 398.902 121.608 399.052C121.921 399.202 122.276 399.276 122.672 399.275C123.182 399.273 123.614 399.168 123.967 398.958C124.321 398.749 124.63 398.469 124.894 398.119L125.772 398.812C125.59 399.088 125.359 399.352 125.079 399.603C124.799 399.854 124.453 400.058 124.042 400.216C123.636 400.373 123.155 400.453 122.597 400.455ZM133.914 399.386L136.241 391.8L137.787 391.795L134.429 401.564C134.352 401.773 134.248 401.997 134.119 402.237C133.995 402.482 133.834 402.715 133.637 402.934C133.44 403.153 133.201 403.331 132.92 403.468C132.644 403.609 132.314 403.681 131.928 403.682C131.814 403.682 131.668 403.667 131.491 403.636C131.314 403.606 131.189 403.58 131.116 403.56L131.104 402.388C131.146 402.393 131.211 402.398 131.299 402.403C131.393 402.413 131.458 402.418 131.495 402.418C131.823 402.417 132.101 402.371 132.33 402.282C132.559 402.198 132.751 402.054 132.907 401.85C133.068 401.652 133.205 401.378 133.318 401.029L133.914 399.386ZM132.162 391.814L134.38 398.369L134.76 399.891L133.722 400.426L130.584 391.819L132.162 391.814ZM138.599 396.113L138.598 395.933C138.596 395.324 138.683 394.758 138.858 394.237C139.033 393.71 139.287 393.254 139.619 392.867C139.951 392.475 140.354 392.172 140.827 391.957C141.3 391.737 141.831 391.625 142.42 391.623C143.013 391.621 143.548 391.729 144.022 391.946C144.502 392.158 144.909 392.459 145.244 392.848C145.584 393.233 145.843 393.688 146.022 394.213C146.201 394.733 146.291 395.298 146.293 395.907L146.294 396.087C146.296 396.697 146.209 397.262 146.034 397.783C145.859 398.305 145.602 398.761 145.265 399.153C144.933 399.54 144.53 399.843 144.057 400.063C143.589 400.278 143.058 400.387 142.464 400.389C141.871 400.391 141.337 400.286 140.862 400.074C140.387 399.857 139.98 399.556 139.64 399.172C139.305 398.782 139.049 398.327 138.87 397.807C138.691 397.287 138.601 396.722 138.599 396.113ZM140.043 395.928L140.044 396.108C140.045 396.53 140.096 396.928 140.196 397.303C140.297 397.672 140.446 398 140.645 398.286C140.849 398.571 141.102 398.797 141.405 398.963C141.708 399.123 142.059 399.203 142.461 399.201C142.856 399.2 143.202 399.118 143.499 398.956C143.8 398.788 144.05 398.561 144.247 398.274C144.443 397.987 144.591 397.658 144.689 397.288C144.791 396.912 144.842 396.514 144.841 396.092L144.84 395.912C144.839 395.496 144.785 395.103 144.68 394.733C144.58 394.358 144.428 394.028 144.224 393.742C144.025 393.451 143.774 393.223 143.471 393.057C143.174 392.892 142.825 392.81 142.424 392.811C142.028 392.812 141.679 392.897 141.378 393.064C141.081 393.232 140.832 393.462 140.63 393.754C140.433 394.042 140.286 394.373 140.188 394.748C140.09 395.118 140.042 395.512 140.043 395.928ZM153.286 398.244L153.264 391.744L154.717 391.739L154.745 400.192L153.362 400.197L153.286 398.244ZM153.553 396.462L154.155 396.444C154.156 397.006 154.098 397.527 153.98 398.007C153.867 398.481 153.681 398.893 153.422 399.243C153.162 399.593 152.822 399.868 152.401 400.067C151.98 400.261 151.467 400.359 150.863 400.361C150.451 400.362 150.074 400.304 149.729 400.185C149.391 400.067 149.098 399.883 148.853 399.633C148.607 399.384 148.416 399.059 148.279 398.659C148.148 398.258 148.081 397.777 148.079 397.214L148.061 391.761L149.506 391.756L149.524 397.225C149.526 397.605 149.568 397.92 149.652 398.17C149.742 398.414 149.86 398.609 150.006 398.755C150.157 398.895 150.324 398.993 150.507 399.05C150.695 399.106 150.887 399.134 151.085 399.134C151.7 399.132 152.187 399.013 152.545 398.777C152.904 398.537 153.16 398.215 153.315 397.814C153.475 397.407 153.555 396.956 153.553 396.462ZM158.37 393.055L158.394 400.18L156.948 400.185L156.92 391.732L158.326 391.727L158.37 393.055ZM161.006 391.671L161.003 393.015C160.883 392.989 160.768 392.974 160.659 392.969C160.554 392.959 160.435 392.954 160.299 392.955C159.966 392.956 159.672 393.009 159.417 393.114C159.162 393.219 158.946 393.365 158.77 393.554C158.594 393.742 158.454 393.966 158.35 394.227C158.252 394.482 158.188 394.764 158.158 395.071L157.752 395.307C157.751 394.797 157.799 394.317 157.896 393.869C157.999 393.421 158.156 393.024 158.369 392.68C158.581 392.33 158.851 392.058 159.178 391.865C159.511 391.666 159.907 391.565 160.365 391.564C160.469 391.564 160.589 391.576 160.724 391.602C160.86 391.622 160.954 391.645 161.006 391.671ZM169.847 400.298C169.259 400.3 168.724 400.203 168.245 400.006C167.77 399.805 167.36 399.522 167.015 399.159C166.675 398.796 166.414 398.364 166.23 397.865C166.046 397.365 165.953 396.819 165.951 396.225L165.95 395.897C165.947 395.209 166.047 394.597 166.248 394.06C166.45 393.518 166.724 393.058 167.072 392.682C167.42 392.306 167.814 392.021 168.256 391.827C168.699 391.633 169.157 391.535 169.631 391.533C170.235 391.531 170.756 391.634 171.194 391.84C171.637 392.047 172 392.338 172.283 392.712C172.565 393.081 172.775 393.517 172.912 394.022C173.049 394.522 173.119 395.068 173.121 395.662L173.123 396.311L166.81 396.332L166.807 395.152L171.674 395.136L171.673 395.026C171.651 394.651 171.572 394.287 171.435 393.933C171.304 393.58 171.095 393.289 170.807 393.06C170.52 392.832 170.129 392.719 169.634 392.721C169.306 392.722 169.004 392.793 168.729 392.935C168.453 393.071 168.217 393.275 168.02 393.546C167.823 393.818 167.67 394.149 167.562 394.54C167.454 394.931 167.401 395.382 167.403 395.892L167.404 396.22C167.405 396.621 167.461 396.999 167.572 397.352C167.687 397.701 167.853 398.008 168.067 398.273C168.287 398.538 168.55 398.745 168.858 398.895C169.171 399.045 169.525 399.119 169.921 399.118C170.432 399.116 170.864 399.011 171.217 398.801C171.571 398.592 171.88 398.312 172.144 397.962L173.021 398.655C172.84 398.931 172.609 399.195 172.329 399.446C172.048 399.697 171.703 399.901 171.292 400.059C170.886 400.216 170.404 400.296 169.847 400.298ZM175.772 391.669L177.633 394.741L179.498 391.657L181.193 391.651L178.442 395.832L181.307 400.104L179.636 400.109L177.672 396.944L175.729 400.122L174.05 400.128L176.879 395.837L174.108 391.674L175.772 391.669ZM184.183 393.266L184.217 403.344L182.764 403.349L182.725 391.646L184.053 391.641L184.183 393.266ZM189.887 395.778L189.887 395.942C189.889 396.557 189.818 397.128 189.674 397.654C189.53 398.175 189.318 398.629 189.038 399.016C188.764 399.402 188.423 399.702 188.018 399.917C187.612 400.132 187.147 400.241 186.62 400.242C186.084 400.244 185.61 400.157 185.198 399.981C184.786 399.806 184.436 399.549 184.148 399.211C183.861 398.874 183.63 398.468 183.457 397.995C183.288 397.522 183.172 396.988 183.108 396.395L183.105 395.52C183.165 394.894 183.281 394.334 183.451 393.839C183.621 393.343 183.846 392.921 184.126 392.571C184.412 392.216 184.757 391.946 185.163 391.763C185.568 391.574 186.037 391.479 186.568 391.477C187.099 391.475 187.571 391.578 187.983 391.785C188.395 391.986 188.742 392.277 189.025 392.656C189.307 393.035 189.52 393.49 189.662 394.021C189.81 394.547 189.885 395.133 189.887 395.778ZM188.434 395.947L188.434 395.783C188.432 395.361 188.387 394.966 188.297 394.596C188.207 394.221 188.068 393.894 187.88 393.613C187.696 393.327 187.461 393.104 187.174 392.944C186.887 392.778 186.546 392.696 186.15 392.697C185.786 392.698 185.468 392.762 185.198 392.888C184.932 393.014 184.706 393.184 184.52 393.398C184.333 393.607 184.18 393.847 184.061 394.118C183.947 394.384 183.862 394.66 183.806 394.947L183.813 396.97C183.918 397.335 184.065 397.678 184.254 398C184.442 398.317 184.693 398.574 185.006 398.771C185.319 398.963 185.713 399.058 186.187 399.056C186.577 399.055 186.913 398.973 187.194 398.811C187.48 398.643 187.713 398.416 187.895 398.129C188.081 397.842 188.218 397.513 188.305 397.143C188.393 396.768 188.436 396.369 188.434 395.947ZM195.253 400.214C194.665 400.216 194.131 400.118 193.651 399.922C193.176 399.721 192.766 399.438 192.421 399.075C192.082 398.711 191.82 398.28 191.636 397.78C191.452 397.281 191.359 396.734 191.357 396.141L191.356 395.813C191.353 395.125 191.453 394.513 191.654 393.976C191.856 393.433 192.13 392.974 192.478 392.598C192.826 392.222 193.221 391.937 193.663 391.742C194.105 391.548 194.563 391.45 195.037 391.449C195.641 391.447 196.162 391.549 196.6 391.756C197.044 391.963 197.406 392.253 197.689 392.627C197.971 392.996 198.181 393.433 198.318 393.938C198.455 394.437 198.525 394.984 198.527 395.578L198.529 396.226L192.217 396.247L192.213 395.067L197.08 395.051L197.079 394.942C197.057 394.567 196.978 394.203 196.841 393.849C196.71 393.495 196.501 393.204 196.214 392.976C195.926 392.748 195.535 392.635 195.041 392.636C194.712 392.637 194.411 392.709 194.135 392.85C193.859 392.986 193.623 393.19 193.426 393.462C193.229 393.733 193.077 394.065 192.968 394.456C192.86 394.847 192.807 395.297 192.809 395.808L192.81 396.136C192.811 396.537 192.867 396.914 192.978 397.268C193.094 397.617 193.259 397.923 193.473 398.188C193.693 398.453 193.956 398.661 194.264 398.811C194.577 398.961 194.932 399.035 195.327 399.034C195.838 399.032 196.27 398.926 196.623 398.717C196.977 398.507 197.286 398.228 197.55 397.878L198.427 398.57C198.246 398.847 198.015 399.111 197.735 399.362C197.454 399.613 197.109 399.817 196.698 399.974C196.292 400.132 195.811 400.212 195.253 400.214ZM201.651 392.911L201.675 400.036L200.229 400.041L200.201 391.588L201.607 391.583L201.651 392.911ZM204.287 391.527L204.284 392.871C204.164 392.845 204.049 392.83 203.94 392.825C203.835 392.815 203.716 392.811 203.58 392.811C203.247 392.812 202.953 392.865 202.698 392.97C202.443 393.075 202.227 393.222 202.051 393.41C201.875 393.598 201.735 393.822 201.631 394.083C201.533 394.339 201.469 394.62 201.439 394.927L201.033 395.163C201.032 394.653 201.08 394.173 201.177 393.725C201.28 393.277 201.437 392.881 201.65 392.536C201.862 392.186 202.132 391.915 202.459 391.721C202.792 391.522 203.188 391.422 203.646 391.42C203.75 391.42 203.87 391.432 204.005 391.458C204.141 391.478 204.235 391.501 204.287 391.527ZM207.193 391.565L207.221 400.018L205.768 400.022L205.74 391.569L207.193 391.565ZM205.623 389.328C205.623 389.093 205.692 388.895 205.832 388.733C205.978 388.571 206.191 388.49 206.472 388.489C206.748 388.488 206.959 388.568 207.106 388.729C207.257 388.89 207.334 389.088 207.334 389.322C207.335 389.546 207.26 389.739 207.11 389.901C206.964 390.058 206.754 390.136 206.478 390.137C206.196 390.138 205.983 390.061 205.836 389.905C205.695 389.744 205.624 389.552 205.623 389.328ZM213.05 400.155C212.461 400.157 211.927 400.059 211.447 399.863C210.973 399.661 210.563 399.379 210.218 399.016C209.878 398.652 209.616 398.221 209.433 397.721C209.249 397.222 209.156 396.675 209.154 396.082L209.153 395.753C209.15 395.066 209.25 394.454 209.451 393.916C209.652 393.374 209.927 392.915 210.275 392.539C210.622 392.163 211.017 391.877 211.459 391.683C211.901 391.489 212.359 391.391 212.833 391.39C213.438 391.388 213.959 391.49 214.397 391.697C214.84 391.904 215.203 392.194 215.486 392.568C215.768 392.937 215.978 393.374 216.115 393.879C216.252 394.378 216.322 394.925 216.324 395.519L216.326 396.167L210.013 396.188L210.009 395.008L214.877 394.992L214.876 394.883C214.854 394.508 214.775 394.144 214.638 393.79C214.507 393.436 214.298 393.145 214.01 392.917C213.723 392.689 213.332 392.575 212.837 392.577C212.509 392.578 212.207 392.65 211.932 392.791C211.656 392.927 211.42 393.131 211.223 393.403C211.026 393.674 210.873 394.006 210.765 394.396C210.657 394.787 210.604 395.238 210.606 395.749L210.607 396.077C210.608 396.478 210.664 396.855 210.775 397.209C210.89 397.558 211.055 397.864 211.27 398.129C211.489 398.394 211.753 398.602 212.061 398.752C212.374 398.902 212.728 398.976 213.124 398.975C213.635 398.973 214.067 398.867 214.42 398.658C214.774 398.448 215.082 398.169 215.347 397.819L216.224 398.511C216.043 398.788 215.812 399.052 215.532 399.303C215.251 399.553 214.905 399.758 214.495 399.915C214.089 400.073 213.607 400.153 213.05 400.155ZM219.449 393.329L219.471 399.977L218.026 399.982L217.998 391.529L219.365 391.524L219.449 393.329ZM219.112 395.431L218.511 395.41C218.514 394.832 218.598 394.298 218.763 393.807C218.928 393.312 219.161 392.882 219.462 392.516C219.763 392.15 220.121 391.868 220.537 391.669C220.959 391.464 221.424 391.361 221.935 391.359C222.352 391.358 222.727 391.414 223.06 391.528C223.394 391.636 223.679 391.812 223.914 392.056C224.154 392.3 224.338 392.617 224.464 393.007C224.59 393.392 224.654 393.863 224.656 394.421L224.674 399.96L223.221 399.965L223.203 394.41C223.201 393.967 223.135 393.613 223.004 393.348C222.873 393.078 222.682 392.883 222.432 392.764C222.181 392.64 221.874 392.578 221.509 392.58C221.15 392.581 220.822 392.657 220.526 392.809C220.234 392.961 219.983 393.171 219.77 393.437C219.562 393.703 219.399 394.008 219.281 394.353C219.167 394.692 219.111 395.051 219.112 395.431ZM230.249 398.91C230.593 398.909 230.91 398.837 231.202 398.696C231.493 398.554 231.732 398.361 231.918 398.115C232.105 397.865 232.211 397.58 232.236 397.263L233.611 397.258C233.586 397.758 233.419 398.225 233.108 398.658C232.802 399.086 232.399 399.434 231.9 399.701C231.401 399.963 230.852 400.095 230.253 400.097C229.618 400.1 229.063 399.989 228.588 399.767C228.118 399.545 227.727 399.239 227.413 398.849C227.104 398.459 226.871 398.012 226.713 397.508C226.56 396.998 226.483 396.459 226.481 395.891L226.48 395.563C226.478 394.995 226.552 394.459 226.701 393.953C226.856 393.442 227.086 392.991 227.392 392.599C227.703 392.207 228.093 391.899 228.561 391.673C229.034 391.448 229.589 391.334 230.224 391.332C230.885 391.33 231.464 391.463 231.96 391.732C232.455 391.996 232.845 392.36 233.127 392.822C233.415 393.28 233.573 393.8 233.601 394.383L232.226 394.388C232.199 394.039 232.099 393.724 231.926 393.443C231.759 393.163 231.529 392.94 231.237 392.774C230.949 392.603 230.613 392.518 230.228 392.519C229.785 392.521 229.413 392.611 229.112 392.789C228.815 392.962 228.579 393.197 228.403 393.494C228.232 393.786 228.108 394.112 228.031 394.472C227.959 394.826 227.924 395.188 227.925 395.558L227.927 395.886C227.928 396.256 227.965 396.621 228.04 396.98C228.114 397.339 228.237 397.664 228.41 397.955C228.588 398.246 228.826 398.48 229.123 398.656C229.426 398.827 229.801 398.911 230.249 398.91ZM238.753 400.069C238.164 400.071 237.63 399.974 237.15 399.778C236.676 399.576 236.266 399.294 235.921 398.93C235.581 398.567 235.319 398.135 235.136 397.636C234.952 397.136 234.859 396.59 234.857 395.996L234.856 395.668C234.853 394.981 234.953 394.368 235.154 393.831C235.355 393.289 235.63 392.83 235.978 392.453C236.325 392.077 236.72 391.792 237.162 391.598C237.604 391.404 238.062 391.306 238.536 391.304C239.141 391.302 239.662 391.405 240.1 391.612C240.543 391.818 240.906 392.109 241.189 392.483C241.471 392.852 241.681 393.289 241.818 393.793C241.955 394.293 242.025 394.84 242.027 395.433L242.029 396.082L235.716 396.103L235.712 394.923L240.58 394.907L240.579 394.797C240.557 394.423 240.478 394.058 240.341 393.705C240.21 393.351 240.001 393.06 239.713 392.832C239.426 392.603 239.035 392.49 238.54 392.492C238.212 392.493 237.91 392.564 237.635 392.706C237.359 392.842 237.123 393.046 236.926 393.317C236.729 393.589 236.576 393.92 236.468 394.311C236.36 394.702 236.307 395.153 236.309 395.663L236.31 395.991C236.311 396.392 236.367 396.77 236.478 397.124C236.593 397.472 236.758 397.779 236.973 398.044C237.192 398.309 237.456 398.516 237.764 398.666C238.077 398.816 238.431 398.891 238.827 398.889C239.338 398.888 239.77 398.782 240.123 398.572C240.476 398.363 240.785 398.083 241.05 397.733L241.927 398.426C241.746 398.702 241.515 398.966 241.235 399.217C240.954 399.468 240.608 399.672 240.198 399.83C239.792 399.988 239.31 400.067 238.753 400.069ZM243.75 399.131C243.749 398.886 243.824 398.68 243.974 398.513C244.13 398.34 244.354 398.254 244.645 398.253C244.937 398.252 245.159 398.337 245.31 398.508C245.467 398.674 245.546 398.88 245.547 399.125C245.548 399.364 245.47 399.568 245.314 399.735C245.164 399.902 244.943 399.986 244.651 399.987C244.36 399.988 244.135 399.905 243.978 399.739C243.827 399.573 243.751 399.37 243.75 399.131Z" fill="black"/>
<defs>
<filter id="filter0_d_0_1" x="0" y="0" width="406" height="496" filterUnits="userSpaceOnUse" color-interpolation-filters="sRGB">
<feFlood flood-opacity="0" result="BackgroundImageFix"/>
<feColorMatrix in="SourceAlpha" type="matrix" values="0 0 0 0 0 0 0 0 0 0 0 0 0 0 0 0 0 0 127 0" result="hardAlpha"/>
<feOffset dx="4" dy="4"/>
<feGaussianBlur stdDeviation="2"/>
<feComposite in2="hardAlpha" operator="out"/>
<feColorMatrix type="matrix" values="0 0 0 0 0.804167 0 0 0 0 0.804167 0 0 0 0 0.804167 0 0 0 0.25 0"/>
<feBlend mode="normal" in2="BackgroundImageFix" result="effect1_dropShadow_0_1"/>
<feBlend mode="normal" in="SourceGraphic" in2="effect1_dropShadow_0_1" result="shape"/>
</filter>
<filter id="filter1_d_0_1" x="110" y="76" width="186" height="186" filterUnits="userSpaceOnUse" color-interpolation-filters="sRGB">
<feFlood flood-opacity="0" result="BackgroundImageFix"/>
<feColorMatrix in="SourceAlpha" type="matrix" values="0 0 0 0 0 0 0 0 0 0 0 0 0 0 0 0 0 0 127 0" result="hardAlpha"/>
<feMorphology radius="30" operator="dilate" in="SourceAlpha" result="effect1_dropShadow_0_1"/>
<feOffset/>
<feGaussianBlur stdDeviation="2"/>
<feComposite in2="hardAlpha" operator="out"/>
<feColorMatrix type="matrix" values="0 0 0 0 0.2 0 0 0 0 0.670588 0 0 0 0 0.819608 0 0 0 0.25 0"/>
<feBlend mode="normal" in2="BackgroundImageFix" result="effect1_dropShadow_0_1"/>
<feBlend mode="normal" in="SourceGraphic" in2="effect1_dropShadow_0_1" result="shape"/>
</filter>
</defs>
</svg>
