<svg width="406" height="496" viewBox="0 0 406 496" fill="none" xmlns="http://www.w3.org/2000/svg">
<g filter="url(#filter0_d_0_1)">
<rect width="398" height="488" rx="10" fill="#FAFAFA"/>
</g>
<rect x="52" y="63" width="139.364" height="43" rx="4" fill="#33ABD1"/>
<path d="M84.9959 89H83.0439L82.1319 86.488H77.6039L76.6919 89H74.8039L79.0119 77.8H80.8039L84.9959 89ZM81.5239 84.776L79.8759 80.184L78.2119 84.776H81.5239ZM89.2489 89.192C88.5876 89.192 87.9689 89.0107 87.3929 88.648C86.8276 88.2747 86.3743 87.768 86.0329 87.128C85.6916 86.4773 85.5209 85.752 85.5209 84.952C85.5209 84.152 85.6916 83.432 86.0329 82.792C86.3743 82.1413 86.8276 81.6347 87.3929 81.272C87.9689 80.8987 88.5876 80.712 89.2489 80.712C89.6223 80.712 89.9689 80.776 90.2889 80.904C90.6196 81.0213 90.8916 81.1653 91.1049 81.336C91.3183 81.496 91.4623 81.6347 91.5369 81.752H91.6169V77.8H93.3769V89H92.0649L91.7449 88.088H91.6649C91.4943 88.3227 91.1903 88.568 90.7529 88.824C90.3156 89.0693 89.8143 89.192 89.2489 89.192ZM89.4409 87.56C89.8356 87.56 90.1983 87.4533 90.5289 87.24C90.8596 87.016 91.1209 86.7067 91.3129 86.312C91.5156 85.9067 91.6169 85.4533 91.6169 84.952C91.6169 84.4507 91.5156 84.0027 91.3129 83.608C91.1209 83.2027 90.8596 82.8933 90.5289 82.68C90.1983 82.456 89.8356 82.344 89.4409 82.344C89.0463 82.344 88.6836 82.456 88.3529 82.68C88.0223 82.8933 87.7556 83.2027 87.5529 83.608C87.3609 84.0027 87.2649 84.4507 87.2649 84.952C87.2649 85.4533 87.3609 85.9067 87.5529 86.312C87.7556 86.7067 88.0223 87.016 88.3529 87.24C88.6836 87.4533 89.0463 87.56 89.4409 87.56ZM98.7646 89.192C98.1032 89.192 97.4846 89.0107 96.9086 88.648C96.3432 88.2747 95.8899 87.768 95.5486 87.128C95.2072 86.4773 95.0366 85.752 95.0366 84.952C95.0366 84.152 95.2072 83.432 95.5486 82.792C95.8899 82.1413 96.3432 81.6347 96.9086 81.272C97.4846 80.8987 98.1032 80.712 98.7646 80.712C99.1379 80.712 99.4846 80.776 99.8046 80.904C100.135 81.0213 100.407 81.1653 100.621 81.336C100.834 81.496 100.978 81.6347 101.053 81.752H101.133V77.8H102.893V89H101.581L101.261 88.088H101.181C101.01 88.3227 100.706 88.568 100.269 88.824C99.8312 89.0693 99.3299 89.192 98.7646 89.192ZM98.9566 87.56C99.3512 87.56 99.7139 87.4533 100.045 87.24C100.375 87.016 100.637 86.7067 100.829 86.312C101.031 85.9067 101.133 85.4533 101.133 84.952C101.133 84.4507 101.031 84.0027 100.829 83.608C100.637 83.2027 100.375 82.8933 100.045 82.68C99.7139 82.456 99.3512 82.344 98.9566 82.344C98.5619 82.344 98.1992 82.456 97.8686 82.68C97.5379 82.8933 97.2712 83.2027 97.0686 83.608C96.8766 84.0027 96.7806 84.4507 96.7806 84.952C96.7806 85.4533 96.8766 85.9067 97.0686 86.312C97.2712 86.7067 97.5379 87.016 97.8686 87.24C98.1992 87.4533 98.5619 87.56 98.9566 87.56ZM112.009 80.712C112.991 80.712 113.775 81.016 114.361 81.624C114.948 82.2213 115.241 83.016 115.241 84.008V89H113.929L113.609 88.088H113.529C113.305 88.376 112.996 88.632 112.601 88.856C112.217 89.08 111.737 89.192 111.161 89.192C110.649 89.192 110.185 89.0853 109.769 88.872C109.353 88.648 109.028 88.3547 108.793 87.992C108.559 87.6187 108.441 87.2133 108.441 86.776C108.441 86.2427 108.596 85.7787 108.905 85.384C109.225 84.9787 109.668 84.6693 110.233 84.456C110.809 84.2427 111.465 84.136 112.201 84.136H113.497V83.864C113.497 83.384 113.359 83.0053 113.081 82.728C112.815 82.44 112.452 82.296 111.993 82.296C111.588 82.296 111.263 82.4027 111.017 82.616C110.772 82.8187 110.623 83.0693 110.569 83.368H108.809C108.863 82.8987 109.017 82.4613 109.273 82.056C109.54 81.6507 109.908 81.3253 110.377 81.08C110.847 80.8347 111.391 80.712 112.009 80.712ZM111.529 87.704C112.116 87.704 112.591 87.528 112.953 87.176C113.316 86.824 113.497 86.4027 113.497 85.912V85.4H112.217C111.545 85.4 111.039 85.512 110.697 85.736C110.367 85.9493 110.201 86.248 110.201 86.632C110.201 86.952 110.313 87.2133 110.537 87.416C110.772 87.608 111.103 87.704 111.529 87.704ZM127.477 89L125.077 84.712H123.221V89H121.365V77.8H125.669C126.373 77.8 127.002 77.9547 127.557 78.264C128.122 78.5627 128.559 78.9787 128.869 79.512C129.189 80.0347 129.349 80.6267 129.349 81.288C129.349 82.0133 129.13 82.664 128.693 83.24C128.255 83.8053 127.669 84.2107 126.933 84.456L129.621 89H127.477ZM123.221 79.56V83.016H125.637C126.181 83.016 126.623 82.856 126.965 82.536C127.317 82.2053 127.493 81.7947 127.493 81.304C127.493 80.8027 127.317 80.3867 126.965 80.056C126.623 79.7253 126.181 79.56 125.637 79.56H123.221ZM138.393 84.776C138.393 85.1173 138.361 85.4053 138.297 85.64H132.297C132.403 86.248 132.659 86.728 133.065 87.08C133.47 87.432 133.961 87.608 134.537 87.608C134.953 87.608 135.305 87.528 135.593 87.368C135.881 87.208 136.11 87.0053 136.281 86.76H138.105C137.945 87.1653 137.694 87.5547 137.353 87.928C137.022 88.3013 136.611 88.6053 136.121 88.84C135.641 89.0747 135.118 89.192 134.553 89.192C133.817 89.192 133.139 89.0053 132.521 88.632C131.913 88.2587 131.427 87.752 131.065 87.112C130.713 86.4613 130.537 85.7413 130.537 84.952C130.537 84.1733 130.718 83.464 131.081 82.824C131.443 82.1733 131.929 81.6613 132.537 81.288C133.155 80.904 133.822 80.712 134.537 80.712C135.251 80.712 135.902 80.8933 136.489 81.256C137.075 81.608 137.539 82.0933 137.881 82.712C138.222 83.3307 138.393 84.0187 138.393 84.776ZM134.537 82.296C133.982 82.296 133.497 82.4827 133.081 82.856C132.665 83.2187 132.403 83.704 132.297 84.312H136.681C136.585 83.7147 136.339 83.2293 135.945 82.856C135.55 82.4827 135.081 82.296 134.537 82.296ZM142.837 86.872L144.997 80.904H146.789L143.653 89H141.957L138.821 80.904H140.677L142.837 86.872ZM149.604 89H147.844V80.904H149.604V89ZM148.724 79.768C148.436 79.768 148.191 79.672 147.988 79.48C147.786 79.2773 147.684 79.032 147.684 78.744C147.684 78.4453 147.786 78.2 147.988 78.008C148.191 77.8053 148.436 77.704 148.724 77.704C149.012 77.704 149.252 77.8053 149.444 78.008C149.647 78.2 149.748 78.4453 149.748 78.744C149.748 79.032 149.647 79.2773 149.444 79.48C149.252 79.672 149.012 79.768 148.724 79.768ZM159.033 84.776C159.033 85.1173 159.001 85.4053 158.937 85.64H152.937C153.044 86.248 153.3 86.728 153.705 87.08C154.111 87.432 154.601 87.608 155.177 87.608C155.593 87.608 155.945 87.528 156.233 87.368C156.521 87.208 156.751 87.0053 156.921 86.76H158.745C158.585 87.1653 158.335 87.5547 157.993 87.928C157.663 88.3013 157.252 88.6053 156.761 88.84C156.281 89.0747 155.759 89.192 155.193 89.192C154.457 89.192 153.78 89.0053 153.161 88.632C152.553 88.2587 152.068 87.752 151.705 87.112C151.353 86.4613 151.177 85.7413 151.177 84.952C151.177 84.1733 151.359 83.464 151.721 82.824C152.084 82.1733 152.569 81.6613 153.177 81.288C153.796 80.904 154.463 80.712 155.177 80.712C155.892 80.712 156.543 80.8933 157.129 81.256C157.716 81.608 158.18 82.0933 158.521 82.712C158.863 83.3307 159.033 84.0187 159.033 84.776ZM155.177 82.296C154.623 82.296 154.137 82.4827 153.721 82.856C153.305 83.2187 153.044 83.704 152.937 84.312H157.321C157.225 83.7147 156.98 83.2293 156.585 82.856C156.191 82.4827 155.721 82.296 155.177 82.296ZM167.698 86.408L169.394 80.904H171.138L168.466 89H167.01L165.362 83.864L163.746 89H162.29L159.618 80.904H161.426L163.106 86.376L164.85 80.904H165.954L167.698 86.408Z" fill="#FDFDFD"/>
<circle cx="225.5" cy="114.5" r="4.5" fill="#33ABD1"/>
<g filter="url(#filter1_d_0_1)">
<line x1="142" y1="114.5" x2="226.013" y2="114.5" stroke="#33ABD1"/>
</g>
<g filter="url(#filter2_d_0_1)">
<rect x="189" y="134" width="145" height="121" rx="10" fill="white"/>
</g>
<rect x="204" y="148" width="54" height="14" rx="7" fill="#EFEFEF"/>
<rect x="204" y="168" width="82" height="14" rx="7" fill="#EFEFEF"/>
<rect x="204" y="208" width="54" height="14" rx="7" fill="#EFEFEF"/>
<rect x="204" y="228" width="54" height="14" rx="7" fill="#EFEFEF"/>
<path d="M38.5398 318.929L44.9031 318.907C46.2078 318.903 47.3295 319.095 48.2683 319.482C49.2149 319.87 49.9434 320.445 50.4537 321.209C50.9641 321.973 51.2211 322.914 51.2248 324.031C51.2278 324.945 51.0742 325.731 50.7639 326.388C50.4614 327.037 50.0296 327.582 49.4685 328.021C48.9153 328.453 48.2641 328.799 47.5149 329.059L46.4036 329.649L40.8724 329.667L40.8398 326.925L44.9531 326.911C45.5703 326.909 46.0816 326.798 46.4872 326.578C46.8927 326.358 47.1963 326.052 47.3982 325.661C47.6078 325.27 47.7118 324.816 47.7101 324.3C47.7082 323.754 47.6051 323.281 47.4007 322.883C47.1962 322.486 46.8866 322.182 46.4719 321.972C46.0571 321.763 45.5372 321.659 44.9122 321.661L42.0646 321.671L42.1121 335.979L38.5965 335.991L38.5398 318.929ZM48.1355 335.959L44.2196 328.367L47.9344 328.331L51.8967 335.783L51.8972 335.947L48.1355 335.959ZM59.5972 336.156C58.6128 336.159 57.7295 336.005 56.9472 335.696C56.1649 335.378 55.4993 334.939 54.9506 334.378C54.4097 333.817 53.9934 333.166 53.7019 332.425C53.4104 331.676 53.2632 330.88 53.2604 330.036L53.2588 329.567C53.2556 328.606 53.3894 327.727 53.6602 326.929C53.931 326.131 54.3193 325.439 54.8252 324.851C55.3389 324.263 55.9624 323.812 56.6957 323.497C57.429 323.174 58.2566 323.011 59.1785 323.008C60.0769 323.005 60.8743 323.151 61.5706 323.446C62.2669 323.74 62.8503 324.16 63.3209 324.706C63.7992 325.251 64.1608 325.906 64.4055 326.671C64.6502 327.428 64.7741 328.271 64.7772 329.201L64.7819 330.607L54.7038 330.641L54.6963 328.391L61.458 328.368L61.4572 328.11C61.4556 327.642 61.3683 327.224 61.1952 326.857C61.0299 326.483 60.7789 326.187 60.4422 325.969C60.1056 325.751 59.6755 325.644 59.1521 325.645C58.7068 325.647 58.3243 325.746 58.0046 325.942C57.685 326.138 57.4242 326.413 57.2222 326.765C57.0281 327.117 56.881 327.532 56.781 328.009C56.6888 328.478 56.6437 328.993 56.6455 329.556L56.6471 330.025C56.6488 330.532 56.7206 331.001 56.8627 331.43C57.0126 331.859 57.2208 332.23 57.4875 332.541C57.762 332.853 58.0909 333.094 58.4743 333.265C58.8655 333.435 59.3072 333.52 59.7993 333.518C60.4087 333.516 60.9747 333.397 61.4974 333.161C62.0278 332.917 62.4836 332.552 62.8648 332.067L64.5114 333.842C64.247 334.226 63.885 334.594 63.4252 334.948C62.9732 335.301 62.4273 335.591 61.7875 335.82C61.1476 336.041 60.4175 336.153 59.5972 336.156ZM70.8616 333.423L73.6401 323.195L77.1675 323.183L72.9322 335.877L70.7994 335.884L70.8616 333.423ZM68.8941 323.211L71.7522 333.432L71.819 335.881L69.6744 335.888L65.355 323.222L68.8941 323.211ZM82.2416 323.166L82.2838 335.846L78.8971 335.857L78.8549 323.177L82.2416 323.166ZM78.633 319.873C78.6314 319.381 78.8019 318.974 79.1446 318.653C79.4873 318.332 79.9477 318.17 80.5258 318.168C81.0961 318.166 81.5537 318.325 81.8985 318.644C82.2511 318.963 82.4282 319.369 82.4299 319.861C82.4315 320.353 82.2571 320.76 81.9066 321.081C81.5639 321.403 81.1074 321.564 80.5371 321.566C79.959 321.568 79.4975 321.41 79.1527 321.091C78.8079 320.771 78.6347 320.366 78.633 319.873ZM90.9095 336.052C89.9251 336.055 89.0418 335.901 88.2595 335.592C87.4772 335.274 86.8117 334.835 86.2629 334.274C85.722 333.713 85.3058 333.062 85.0142 332.321C84.7227 331.572 84.5755 330.776 84.5727 329.932L84.5712 329.463C84.568 328.502 84.7018 327.623 84.9726 326.825C85.2433 326.027 85.6317 325.335 86.1375 324.747C86.6512 324.159 87.2747 323.708 88.0081 323.393C88.7414 323.07 89.5689 322.907 90.4908 322.904C91.3892 322.901 92.1866 323.047 92.8829 323.342C93.5792 323.636 94.1626 324.056 94.6332 324.602C95.1116 325.147 95.4731 325.802 95.7179 326.567C95.9626 327.324 96.0865 328.167 96.0895 329.097L96.0942 330.503L86.0161 330.537L86.0087 328.287L92.7703 328.264L92.7695 328.006C92.7679 327.538 92.6806 327.12 92.5075 326.753C92.3422 326.379 92.0912 326.083 91.7546 325.865C91.4179 325.647 90.9879 325.54 90.4644 325.541C90.0191 325.543 89.6366 325.642 89.317 325.838C88.9973 326.034 88.7365 326.309 88.5345 326.661C88.3404 327.013 88.1933 327.428 88.0933 327.905C88.0012 328.374 87.956 328.889 87.9579 329.452L87.9594 329.921C87.9611 330.428 88.033 330.897 88.175 331.326C88.3249 331.755 88.5332 332.126 88.7998 332.437C89.0743 332.749 89.4032 332.99 89.7866 333.161C90.1778 333.331 90.6195 333.416 91.1117 333.414C91.721 333.412 92.287 333.293 92.8097 333.057C93.3401 332.813 93.796 332.448 94.1772 331.963L95.8237 333.738C95.5594 334.122 95.1973 334.49 94.7375 334.844C94.2856 335.197 93.7397 335.487 93.0998 335.716C92.4599 335.937 91.7298 336.049 90.9095 336.052ZM101.644 332.5L104.249 323.093L106.394 323.086L105.715 326.78L103.108 335.777L101.315 335.783L101.644 332.5ZM100.277 323.106L102.195 332.487L102.381 335.779L100.272 335.786L97.0189 323.117L100.277 323.106ZM108.839 332.312L110.648 323.072L113.917 323.061L110.748 335.751L108.651 335.758L108.839 332.312ZM106.687 323.085L109.343 332.404L109.717 335.755L107.913 335.761L105.246 326.793L104.566 323.092L106.687 323.085ZM131.718 330.021L135.222 330.01C135.155 331.158 134.842 332.179 134.283 333.072C133.731 333.964 132.956 334.662 131.958 335.165C130.967 335.669 129.773 335.922 128.374 335.927C127.28 335.931 126.299 335.747 125.431 335.374C124.562 334.994 123.818 334.45 123.199 333.741C122.587 333.032 122.119 332.174 121.796 331.168C121.472 330.161 121.308 329.033 121.304 327.783L121.3 326.599C121.296 325.349 121.456 324.22 121.781 323.211C122.114 322.194 122.587 321.329 123.202 320.616C123.825 319.903 124.569 319.354 125.435 318.968C126.301 318.582 127.269 318.388 128.339 318.384C129.761 318.379 130.961 318.633 131.939 319.146C132.926 319.658 133.69 320.366 134.232 321.271C134.782 322.175 135.113 323.205 135.226 324.361L131.711 324.373C131.669 323.686 131.531 323.104 131.295 322.628C131.059 322.145 130.702 321.783 130.225 321.542C129.755 321.294 129.13 321.171 128.349 321.173C127.763 321.175 127.251 321.286 126.814 321.506C126.378 321.727 126.012 322.06 125.716 322.506C125.421 322.952 125.2 323.516 125.054 324.196C124.915 324.868 124.848 325.658 124.851 326.564L124.855 327.771C124.858 328.654 124.927 329.431 125.062 330.102C125.197 330.766 125.402 331.328 125.677 331.788C125.96 332.24 126.32 332.582 126.758 332.815C127.204 333.04 127.74 333.152 128.365 333.15C129.099 333.147 129.704 333.028 130.18 332.792C130.656 332.556 131.018 332.207 131.266 331.746C131.523 331.284 131.673 330.709 131.718 330.021ZM136.778 329.454L136.778 329.208C136.775 328.278 136.905 327.422 137.168 326.64C137.431 325.85 137.815 325.165 138.321 324.585C138.827 324.006 139.45 323.554 140.191 323.232C140.932 322.901 141.784 322.734 142.744 322.731C143.705 322.728 144.561 322.889 145.312 323.215C146.064 323.532 146.694 323.979 147.204 324.556C147.721 325.132 148.114 325.815 148.382 326.603C148.651 327.383 148.786 328.238 148.789 329.168L148.79 329.414C148.793 330.336 148.663 331.192 148.4 331.982C148.137 332.764 147.749 333.449 147.235 334.036C146.729 334.616 146.106 335.067 145.365 335.39C144.623 335.713 143.772 335.876 142.812 335.879C141.851 335.882 140.995 335.725 140.244 335.407C139.5 335.089 138.87 334.642 138.352 334.066C137.843 333.482 137.454 332.799 137.185 332.019C136.917 331.231 136.782 330.376 136.778 329.454ZM140.153 329.197L140.153 329.443C140.155 329.974 140.204 330.47 140.299 330.93C140.394 331.391 140.544 331.797 140.748 332.148C140.96 332.491 141.235 332.759 141.571 332.954C141.908 333.148 142.318 333.244 142.803 333.242C143.272 333.241 143.674 333.142 144.009 332.945C144.344 332.749 144.613 332.479 144.815 332.134C145.017 331.782 145.164 331.375 145.256 330.914C145.356 330.453 145.405 329.956 145.403 329.425L145.403 329.179C145.401 328.663 145.348 328.179 145.245 327.727C145.15 327.266 144.996 326.86 144.784 326.509C144.58 326.151 144.31 325.87 143.973 325.668C143.636 325.466 143.23 325.366 142.753 325.368C142.277 325.369 141.871 325.472 141.535 325.676C141.208 325.881 140.939 326.163 140.73 326.523C140.528 326.875 140.381 327.282 140.288 327.743C140.196 328.196 140.151 328.681 140.153 329.197ZM158.375 332.558L158.343 322.913L161.718 322.902L161.76 335.582L158.584 335.592L158.375 332.558ZM158.741 329.955L159.737 329.928C159.74 330.772 159.645 331.558 159.452 332.285C159.259 333.004 158.968 333.63 158.579 334.163C158.19 334.687 157.7 335.099 157.107 335.398C156.514 335.689 155.815 335.836 155.011 335.839C154.394 335.841 153.823 335.757 153.299 335.587C152.783 335.409 152.336 335.133 151.96 334.759C151.592 334.377 151.301 333.89 151.088 333.297C150.883 332.696 150.779 331.974 150.776 331.13L150.749 322.939L154.124 322.927L154.151 331.142C154.153 331.517 154.197 331.834 154.283 332.091C154.378 332.349 154.508 332.559 154.672 332.723C154.837 332.886 155.029 333.003 155.248 333.072C155.474 333.142 155.725 333.176 155.998 333.175C156.693 333.173 157.24 333.03 157.637 332.748C158.042 332.465 158.326 332.082 158.489 331.597C158.659 331.104 158.743 330.557 158.741 329.955ZM167.68 325.648L167.713 335.562L164.338 335.573L164.296 322.894L167.472 322.883L167.68 325.648ZM171.491 322.788L171.443 325.917C171.279 325.894 171.079 325.875 170.845 325.86C170.618 325.838 170.411 325.827 170.224 325.827C169.747 325.829 169.333 325.893 168.982 326.019C168.639 326.137 168.35 326.314 168.117 326.549C167.891 326.784 167.72 327.07 167.604 327.406C167.496 327.742 167.434 328.125 167.42 328.555L166.74 328.347C166.737 327.526 166.817 326.772 166.978 326.084C167.14 325.388 167.376 324.782 167.687 324.265C168.006 323.749 168.395 323.349 168.855 323.066C169.315 322.783 169.842 322.641 170.436 322.639C170.623 322.638 170.815 322.653 171.01 322.684C171.205 322.707 171.366 322.741 171.491 322.788ZM179.971 332.017C179.97 331.775 179.899 331.557 179.758 331.362C179.616 331.167 179.354 330.988 178.971 330.825C178.595 330.655 178.052 330.5 177.34 330.362C176.699 330.224 176.101 330.05 175.546 329.841C174.998 329.624 174.521 329.364 174.113 329.06C173.714 328.757 173.4 328.399 173.172 327.985C172.944 327.564 172.829 327.084 172.828 326.545C172.826 326.014 172.937 325.513 173.162 325.044C173.395 324.574 173.726 324.159 174.154 323.798C174.591 323.43 175.121 323.143 175.745 322.938C176.377 322.725 177.088 322.617 177.877 322.614C178.979 322.611 179.924 322.783 180.715 323.132C181.513 323.481 182.124 323.963 182.548 324.579C182.979 325.187 183.197 325.882 183.199 326.663L179.824 326.674C179.823 326.346 179.752 326.053 179.61 325.796C179.477 325.531 179.265 325.324 178.975 325.177C178.694 325.022 178.326 324.945 177.873 324.946C177.498 324.948 177.174 325.015 176.901 325.149C176.628 325.275 176.418 325.447 176.27 325.666C176.13 325.878 176.061 326.112 176.061 326.37C176.062 326.566 176.102 326.741 176.18 326.897C176.267 327.045 176.404 327.182 176.592 327.306C176.78 327.43 177.022 327.547 177.32 327.655C177.625 327.756 178 327.848 178.445 327.933C179.36 328.117 180.177 328.36 180.897 328.663C181.617 328.957 182.189 329.362 182.612 329.876C183.036 330.382 183.249 331.05 183.252 331.878C183.253 332.44 183.13 332.956 182.882 333.426C182.633 333.895 182.275 334.307 181.808 334.66C181.34 335.005 180.778 335.277 180.123 335.474C179.475 335.664 178.745 335.76 177.932 335.763C176.753 335.766 175.752 335.559 174.93 335.14C174.116 334.721 173.497 334.187 173.073 333.54C172.657 332.885 172.448 332.214 172.446 331.527L175.645 331.516C175.662 331.977 175.78 332.348 176 332.628C176.228 332.909 176.513 333.111 176.858 333.235C177.21 333.359 177.589 333.42 177.995 333.419C178.432 333.417 178.796 333.357 179.084 333.239C179.373 333.113 179.591 332.948 179.739 332.745C179.894 332.533 179.972 332.291 179.971 332.017ZM191.292 335.718C190.307 335.721 189.424 335.568 188.642 335.258C187.859 334.94 187.194 334.501 186.645 333.941C186.104 333.38 185.688 332.729 185.397 331.988C185.105 331.239 184.958 330.442 184.955 329.599L184.953 329.13C184.95 328.169 185.084 327.29 185.355 326.492C185.626 325.694 186.014 325.001 186.52 324.414C187.033 323.826 187.657 323.375 188.39 323.06C189.124 322.737 189.951 322.574 190.873 322.571C191.772 322.568 192.569 322.714 193.265 323.008C193.961 323.303 194.545 323.723 195.015 324.268C195.494 324.814 195.855 325.469 196.1 326.233C196.345 326.99 196.469 327.834 196.472 328.763L196.476 330.17L186.398 330.203L186.391 327.953L193.153 327.931L193.152 327.673C193.15 327.204 193.063 326.786 192.89 326.42C192.724 326.045 192.473 325.749 192.137 325.532C191.8 325.314 191.37 325.206 190.847 325.208C190.401 325.209 190.019 325.308 189.699 325.505C189.38 325.701 189.119 325.975 188.917 326.328C188.723 326.68 188.576 327.094 188.476 327.571C188.383 328.04 188.338 328.556 188.34 329.119L188.342 329.587C188.343 330.095 188.415 330.564 188.557 330.993C188.707 331.422 188.915 331.792 189.182 332.104C189.457 332.416 189.785 332.657 190.169 332.827C190.56 332.998 191.002 333.082 191.494 333.081C192.103 333.079 192.669 332.96 193.192 332.724C193.722 332.48 194.178 332.115 194.559 331.629L196.206 333.405C195.942 333.789 195.58 334.157 195.12 334.51C194.668 334.863 194.122 335.154 193.482 335.383C192.842 335.604 192.112 335.715 191.292 335.718ZM205.26 331.933C205.259 331.691 205.188 331.473 205.047 331.278C204.905 331.083 204.643 330.904 204.26 330.741C203.884 330.571 203.341 330.416 202.629 330.278C201.988 330.14 201.39 329.966 200.834 329.757C200.287 329.54 199.809 329.28 199.402 328.976C199.003 328.673 198.689 328.315 198.461 327.901C198.233 327.48 198.118 327 198.117 326.461C198.115 325.93 198.226 325.429 198.451 324.96C198.684 324.49 199.015 324.075 199.443 323.714C199.88 323.346 200.41 323.059 201.034 322.854C201.666 322.641 202.377 322.533 203.166 322.53C204.268 322.527 205.213 322.699 206.004 323.048C206.802 323.397 207.413 323.879 207.837 324.495C208.268 325.103 208.485 325.798 208.488 326.579L205.113 326.59C205.112 326.262 205.041 325.969 204.899 325.712C204.766 325.447 204.554 325.24 204.264 325.093C203.983 324.938 203.615 324.861 203.162 324.862C202.787 324.864 202.463 324.931 202.19 325.065C201.917 325.191 201.707 325.363 201.559 325.582C201.419 325.794 201.349 326.028 201.35 326.286C201.351 326.482 201.391 326.657 201.469 326.813C201.556 326.961 201.693 327.098 201.881 327.222C202.069 327.346 202.311 327.463 202.608 327.571C202.914 327.672 203.289 327.764 203.734 327.849C204.649 328.033 205.466 328.277 206.186 328.579C206.906 328.873 207.477 329.278 207.901 329.792C208.325 330.298 208.538 330.966 208.541 331.794C208.542 332.356 208.419 332.872 208.171 333.342C207.922 333.811 207.564 334.223 207.097 334.576C206.629 334.921 206.067 335.193 205.412 335.39C204.764 335.58 204.034 335.676 203.221 335.679C202.042 335.682 201.041 335.475 200.219 335.056C199.405 334.637 198.786 334.103 198.362 333.456C197.946 332.802 197.737 332.13 197.735 331.443L200.934 331.432C200.951 331.893 201.069 332.264 201.289 332.544C201.517 332.825 201.802 333.027 202.147 333.151C202.499 333.275 202.878 333.336 203.284 333.335C203.721 333.333 204.084 333.273 204.373 333.155C204.662 333.029 204.88 332.864 205.028 332.661C205.183 332.449 205.261 332.207 205.26 331.933Z" fill="black"/>
<path d="M44.423 378.66C44.4222 378.394 44.3797 378.16 44.2957 377.957C44.2169 377.749 44.0756 377.562 43.872 377.396C43.6735 377.23 43.3969 377.072 43.0423 376.922C42.6928 376.772 42.2496 376.62 41.7126 376.466C41.1496 376.301 40.6411 376.118 40.1873 375.916C39.7335 375.709 39.3447 375.474 39.0209 375.209C38.6971 374.945 38.4487 374.641 38.2757 374.298C38.1027 373.954 38.0154 373.561 38.014 373.119C38.0125 372.676 38.1023 372.267 38.2833 371.891C38.4644 371.516 38.7237 371.189 39.0613 370.912C39.4042 370.63 39.8123 370.41 40.2857 370.252C40.7592 370.094 41.2875 370.014 41.8709 370.012C42.725 370.009 43.4495 370.171 44.0444 370.497C44.6444 370.818 45.1015 371.241 45.4158 371.766C45.73 372.286 45.8881 372.843 45.8901 373.436L44.3901 373.441C44.3887 373.014 44.2963 372.637 44.1129 372.309C43.9295 371.977 43.6526 371.717 43.2822 371.531C42.9117 371.339 42.4427 371.245 41.875 371.247C41.3385 371.248 40.8961 371.331 40.5477 371.493C40.1992 371.656 39.9395 371.875 39.7686 372.152C39.6028 372.429 39.5206 372.744 39.5217 373.098C39.5225 373.338 39.5727 373.556 39.6723 373.754C39.7772 373.946 39.9366 374.125 40.1507 374.291C40.37 374.457 40.6465 374.61 40.9803 374.75C41.3194 374.889 41.7234 375.023 42.1926 375.152C42.8391 375.332 43.397 375.533 43.8665 375.756C44.336 375.978 44.7223 376.229 45.0253 376.51C45.3335 376.785 45.5611 377.099 45.7081 377.453C45.8603 377.801 45.9371 378.197 45.9386 378.639C45.9401 379.103 45.8478 379.522 45.6615 379.898C45.4753 380.274 45.2081 380.595 44.86 380.862C44.512 381.128 44.0934 381.336 43.6043 381.483C43.1204 381.625 42.579 381.697 41.98 381.699C41.454 381.701 40.9355 381.63 40.4246 381.486C39.9189 381.342 39.4572 381.124 39.0396 380.834C38.6272 380.544 38.2953 380.186 38.0438 379.759C37.7976 379.328 37.6736 378.828 37.6717 378.261L39.1717 378.256C39.173 378.646 39.2496 378.982 39.4016 379.263C39.5535 379.538 39.76 379.767 40.021 379.948C40.2873 380.129 40.5872 380.264 40.9208 380.351C41.2596 380.434 41.6113 380.474 41.9759 380.473C42.502 380.471 42.947 380.397 43.3111 380.25C43.6752 380.103 43.9506 379.893 44.1372 379.622C44.329 379.35 44.4243 379.03 44.423 378.66ZM49.0568 369.52L49.0966 381.519L47.6513 381.524L47.6115 369.524L49.0568 369.52ZM48.7378 376.974L48.1361 376.952C48.1394 376.374 48.2236 375.84 48.3886 375.35C48.5537 374.855 48.7866 374.424 49.0875 374.059C49.3883 373.693 49.7468 373.411 50.1628 373.211C50.584 373.007 51.0498 372.904 51.5602 372.902C51.9769 372.9 52.3521 372.957 52.6858 373.07C53.0195 373.178 53.3039 373.354 53.5391 373.598C53.7795 373.842 53.9628 374.16 54.0891 374.55C54.2154 374.935 54.2795 375.406 54.2813 375.963L54.2997 381.502L52.8466 381.507L52.8282 375.952C52.8267 375.51 52.7604 375.156 52.6293 374.891C52.4982 374.62 52.3075 374.425 52.0571 374.306C51.8066 374.182 51.4992 374.121 51.1346 374.122C50.7752 374.123 50.4473 374.2 50.151 374.352C49.8598 374.504 49.6079 374.713 49.3952 374.979C49.1878 375.246 49.0247 375.551 48.9061 375.895C48.7926 376.234 48.7365 376.594 48.7378 376.974ZM61.4433 380.033L61.4289 375.682C61.4278 375.348 61.3591 375.059 61.2229 374.815C61.0918 374.566 60.8933 374.373 60.6272 374.239C60.3611 374.104 60.0328 374.038 59.6422 374.039C59.2776 374.04 58.9575 374.104 58.6818 374.23C58.4114 374.356 58.1984 374.52 58.0429 374.724C57.8925 374.928 57.8177 375.147 57.8185 375.381L56.3732 375.386C56.3722 375.084 56.4493 374.784 56.6046 374.487C56.7598 374.189 56.9829 373.92 57.2738 373.68C57.5698 373.434 57.9233 373.24 58.3343 373.098C58.7505 372.951 59.2138 372.876 59.7242 372.875C60.3388 372.873 60.8808 372.975 61.3503 373.182C61.8249 373.389 62.1957 373.702 62.4628 374.123C62.735 374.539 62.8721 375.062 62.8742 375.692L62.8873 379.63C62.8882 379.911 62.9127 380.211 62.9606 380.528C63.0137 380.846 63.0902 381.119 63.1899 381.348L63.1903 381.473L61.6825 381.478C61.609 381.311 61.551 381.09 61.5084 380.814C61.4658 380.533 61.4441 380.273 61.4433 380.033ZM61.6811 376.353L61.7001 377.368L60.2392 377.373C59.8277 377.374 59.4606 377.41 59.1379 377.478C58.8152 377.542 58.5447 377.639 58.3264 377.77C58.1081 377.901 57.942 378.066 57.828 378.264C57.7141 378.457 57.6576 378.684 57.6584 378.944C57.6593 379.21 57.72 379.452 57.8405 379.67C57.961 379.888 58.1413 380.062 58.3813 380.192C58.6265 380.316 58.9262 380.377 59.2804 380.376C59.7231 380.375 60.1134 380.28 60.4513 380.091C60.7892 379.903 61.0567 379.672 61.2537 379.401C61.4559 379.129 61.5644 378.866 61.5792 378.611L62.1987 379.304C62.163 379.523 62.0648 379.765 61.9043 380.032C61.7437 380.298 61.5284 380.554 61.2584 380.799C60.9935 381.04 60.6765 381.241 60.3072 381.404C59.9432 381.562 59.532 381.641 59.0737 381.643C58.5007 381.644 57.9978 381.534 57.5647 381.312C57.1369 381.089 56.8026 380.791 56.5618 380.417C56.3261 380.037 56.2075 379.613 56.206 379.144C56.2045 378.691 56.2917 378.292 56.4676 377.948C56.6435 377.599 56.8978 377.309 57.2304 377.078C57.5629 376.843 57.9634 376.664 58.4317 376.543C58.9001 376.422 59.4233 376.36 60.0014 376.358L61.6811 376.353ZM66.5885 374.336L66.6122 381.461L65.1668 381.466L65.1388 373.013L66.545 373.008L66.5885 374.336ZM69.2245 372.953L69.2212 374.296C69.1013 374.271 68.9867 374.255 68.8773 374.251C68.7731 374.241 68.6533 374.236 68.5179 374.236C68.1845 374.237 67.8904 374.29 67.6356 374.395C67.3807 374.5 67.165 374.647 66.9886 374.835C66.8121 375.023 66.6722 375.248 66.5689 375.508C66.4708 375.764 66.4067 376.045 66.3764 376.353L65.971 376.588C65.9693 376.078 66.0172 375.599 66.1146 375.15C66.2173 374.702 66.3748 374.306 66.5872 373.961C66.7996 373.612 67.0696 373.34 67.397 373.146C67.7297 372.947 68.1252 372.847 68.5835 372.845C68.6877 372.845 68.8075 372.858 68.9431 372.883C69.0785 372.904 69.1724 372.927 69.2245 372.953ZM73.9408 381.593C73.3522 381.595 72.818 381.498 72.3382 381.302C71.8636 381.1 71.4538 380.818 71.1088 380.454C70.7691 380.091 70.5072 379.659 70.3233 379.16C70.1393 378.661 70.0464 378.114 70.0444 377.52L70.0433 377.192C70.041 376.505 70.1406 375.892 70.3419 375.355C70.5432 374.813 70.8177 374.354 71.1654 373.977C71.5132 373.601 71.908 373.316 72.3501 373.122C72.7922 372.928 73.2502 372.83 73.7241 372.828C74.3283 372.826 74.8495 372.929 75.2877 373.136C75.7311 373.342 76.094 373.633 76.3765 374.007C76.659 374.376 76.8688 374.813 77.0059 375.317C77.1429 375.817 77.2125 376.364 77.2144 376.957L77.2166 377.606L70.9041 377.627L70.9002 376.447L75.7674 376.431L75.767 376.321C75.7449 375.947 75.6656 375.582 75.529 375.229C75.3976 374.875 75.1883 374.584 74.9011 374.356C74.6139 374.127 74.2229 374.014 73.7281 374.016C73.4 374.017 73.0981 374.088 72.8225 374.23C72.547 374.366 72.3107 374.57 72.1136 374.841C71.9166 375.113 71.7641 375.444 71.656 375.835C71.5479 376.226 71.4947 376.677 71.4964 377.187L71.4975 377.515C71.4988 377.916 71.5548 378.294 71.6653 378.648C71.7811 378.996 71.9462 379.303 72.1606 379.568C72.3802 379.833 72.6439 380.04 72.9517 380.19C73.2647 380.34 73.6191 380.415 74.015 380.413C74.5254 380.412 74.9573 380.306 75.3108 380.096C75.6643 379.887 75.9732 379.607 76.2377 379.257L77.115 379.95C76.9336 380.226 76.7027 380.49 76.4223 380.741C76.1419 380.992 75.7962 381.196 75.3853 381.354C74.9796 381.512 74.498 381.591 73.9408 381.593ZM85.2576 380.524L87.584 372.938L89.1308 372.933L85.7726 382.702C85.6952 382.911 85.5918 383.135 85.4624 383.375C85.3382 383.62 85.1775 383.853 84.9803 384.072C84.7831 384.292 84.5441 384.469 84.2633 384.606C83.9877 384.747 83.6573 384.819 83.2718 384.82C83.1573 384.82 83.0114 384.805 82.8342 384.775C82.657 384.744 82.5319 384.718 82.4589 384.698L82.4472 383.526C82.4889 383.531 82.554 383.536 82.6426 383.541C82.7364 383.551 82.8015 383.556 82.8379 383.556C83.1661 383.555 83.4446 383.51 83.6734 383.42C83.9023 383.336 84.0946 383.192 84.2501 382.989C84.4109 382.79 84.548 382.516 84.6615 382.167L85.2576 380.524ZM83.5059 372.952L85.723 379.507L86.103 381.029L85.0657 381.564L81.9277 372.957L83.5059 372.952ZM89.942 377.251L89.9415 377.071C89.9394 376.462 90.0261 375.897 90.2014 375.375C90.3768 374.848 90.6305 374.392 90.9625 374.005C91.2946 373.614 91.6972 373.31 92.1704 373.095C92.6437 372.875 93.1746 372.764 93.7631 372.762C94.3568 372.76 94.8911 372.867 95.3657 373.085C95.8456 373.296 96.2529 373.597 96.5875 373.987C96.9273 374.371 97.1866 374.826 97.3655 375.351C97.5443 375.872 97.6347 376.436 97.6367 377.046L97.6373 377.225C97.6393 377.835 97.5527 378.4 97.3773 378.922C97.202 379.443 96.9457 379.9 96.6084 380.291C96.2764 380.678 95.8737 380.981 95.4005 381.202C94.9325 381.417 94.4016 381.525 93.8078 381.527C93.2141 381.529 92.6799 381.424 92.2052 381.212C91.7305 380.995 91.3233 380.694 90.9835 380.31C90.6488 379.921 90.3921 379.466 90.2133 378.945C90.0345 378.425 89.9441 377.86 89.942 377.251ZM91.3868 377.066L91.3874 377.246C91.3888 377.668 91.4396 378.066 91.5398 378.441C91.6399 378.81 91.7895 379.138 91.9883 379.424C92.1924 379.71 92.4458 379.935 92.7484 380.101C93.051 380.262 93.4029 380.341 93.8039 380.34C94.1997 380.338 94.5458 380.257 94.8421 380.094C95.1437 379.926 95.3929 379.699 95.5899 379.412C95.7868 379.125 95.9342 378.796 96.0319 378.426C96.1348 378.051 96.1856 377.652 96.1842 377.23L96.1836 377.051C96.1822 376.634 96.1288 376.241 96.0234 375.871C95.9232 375.497 95.7711 375.167 95.567 374.881C95.3681 374.59 95.1174 374.361 94.8147 374.196C94.5173 374.03 94.1681 373.948 93.767 373.949C93.3712 373.951 93.0225 374.035 92.721 374.203C92.4247 374.37 92.1754 374.6 91.9733 374.893C91.7763 375.18 91.629 375.511 91.5313 375.886C91.4335 376.256 91.3854 376.65 91.3868 377.066ZM104.629 379.382L104.607 372.882L106.06 372.877L106.088 381.33L104.706 381.335L104.629 379.382ZM104.896 377.6L105.498 377.582C105.5 378.145 105.442 378.666 105.323 379.145C105.21 379.62 105.024 380.032 104.765 380.381C104.506 380.731 104.166 381.006 103.744 381.205C103.323 381.399 102.81 381.497 102.206 381.499C101.795 381.501 101.417 381.442 101.073 381.323C100.734 381.205 100.442 381.021 100.196 380.772C99.9504 380.522 99.7592 380.198 99.6224 379.797C99.4909 379.396 99.4242 378.915 99.4223 378.352L99.4042 372.899L100.85 372.894L100.868 378.363C100.869 378.743 100.912 379.058 100.996 379.308C101.085 379.553 101.203 379.747 101.349 379.893C101.501 380.033 101.668 380.131 101.85 380.188C102.038 380.245 102.231 380.273 102.429 380.272C103.043 380.27 103.53 380.151 103.888 379.916C104.247 379.675 104.504 379.354 104.659 378.952C104.819 378.545 104.898 378.095 104.896 377.6ZM109.713 374.193L109.737 381.318L108.292 381.323L108.264 372.87L109.67 372.865L109.713 374.193ZM112.349 372.809L112.346 374.153C112.226 374.127 112.111 374.112 112.002 374.107C111.898 374.097 111.778 374.093 111.643 374.093C111.309 374.094 111.015 374.147 110.76 374.252C110.505 374.357 110.29 374.504 110.113 374.692C109.937 374.88 109.797 375.104 109.694 375.365C109.596 375.621 109.531 375.902 109.501 376.209L109.096 376.445C109.094 375.935 109.142 375.455 109.239 375.007C109.342 374.559 109.5 374.163 109.712 373.818C109.924 373.468 110.194 373.197 110.522 373.003C110.854 372.804 111.25 372.704 111.708 372.702C111.812 372.702 111.932 372.714 112.068 372.74C112.203 372.76 112.297 372.783 112.349 372.809ZM121.19 381.436C120.602 381.438 120.068 381.341 119.588 381.145C119.113 380.943 118.704 380.661 118.359 380.297C118.019 379.934 117.757 379.502 117.573 379.003C117.389 378.504 117.296 377.957 117.294 377.363L117.293 377.035C117.291 376.348 117.39 375.735 117.592 375.198C117.793 374.656 118.067 374.197 118.415 373.82C118.763 373.444 119.158 373.159 119.6 372.965C120.042 372.771 120.5 372.673 120.974 372.671C121.578 372.669 122.099 372.772 122.537 372.979C122.981 373.186 123.344 373.476 123.626 373.85C123.909 374.219 124.119 374.656 124.256 375.16C124.393 375.66 124.462 376.207 124.464 376.8L124.466 377.449L118.154 377.47L118.15 376.29L123.017 376.274L123.017 376.165C122.995 375.79 122.915 375.425 122.779 375.072C122.647 374.718 122.438 374.427 122.151 374.199C121.864 373.97 121.473 373.857 120.978 373.859C120.65 373.86 120.348 373.931 120.072 374.073C119.797 374.209 119.56 374.413 119.363 374.685C119.166 374.956 119.014 375.287 118.906 375.678C118.798 376.069 118.744 376.52 118.746 377.03L118.747 377.358C118.749 377.759 118.805 378.137 118.915 378.491C119.031 378.839 119.196 379.146 119.41 379.411C119.63 379.676 119.894 379.883 120.201 380.033C120.514 380.183 120.869 380.258 121.265 380.256C121.775 380.255 122.207 380.149 122.561 379.94C122.914 379.73 123.223 379.45 123.487 379.101L124.365 379.793C124.183 380.07 123.952 380.333 123.672 380.584C123.392 380.835 123.046 381.04 122.635 381.197C122.229 381.355 121.748 381.434 121.19 381.436ZM127.115 372.807L128.977 375.879L130.842 372.795L132.537 372.789L129.785 376.97L132.651 381.242L130.979 381.248L129.015 378.082L127.073 381.261L125.393 381.266L128.223 376.975L125.451 372.813L127.115 372.807ZM135.527 374.404L135.56 384.482L134.107 384.487L134.068 372.784L135.396 372.78L135.527 374.404ZM141.23 376.917L141.231 377.081C141.233 377.695 141.162 378.266 141.018 378.792C140.874 379.314 140.662 379.767 140.382 380.154C140.107 380.54 139.767 380.841 139.361 381.056C138.956 381.271 138.49 381.379 137.964 381.381C137.427 381.382 136.953 381.295 136.541 381.12C136.129 380.944 135.779 380.687 135.492 380.35C135.204 380.012 134.974 379.607 134.8 379.133C134.632 378.66 134.516 378.126 134.451 377.533L134.448 376.658C134.509 376.033 134.624 375.472 134.794 374.977C134.964 374.482 135.19 374.059 135.47 373.709C135.755 373.354 136.1 373.085 136.506 372.901C136.912 372.712 137.38 372.617 137.911 372.615C138.443 372.613 138.914 372.716 139.326 372.923C139.739 373.125 140.086 373.415 140.368 373.794C140.651 374.174 140.863 374.629 141.006 375.16C141.153 375.685 141.228 376.271 141.23 376.917ZM139.778 377.085L139.777 376.921C139.776 376.5 139.73 376.104 139.64 375.734C139.551 375.36 139.412 375.032 139.223 374.751C139.04 374.466 138.805 374.242 138.518 374.082C138.231 373.916 137.889 373.834 137.493 373.835C137.129 373.836 136.811 373.9 136.541 374.026C136.276 374.152 136.05 374.322 135.863 374.536C135.676 374.745 135.523 374.985 135.404 375.256C135.291 375.522 135.206 375.799 135.149 376.085L135.156 378.109C135.261 378.473 135.408 378.816 135.597 379.138C135.786 379.456 136.036 379.712 136.35 379.909C136.663 380.101 137.056 380.196 137.53 380.195C137.921 380.193 138.257 380.111 138.537 379.949C138.823 379.781 139.057 379.554 139.238 379.267C139.425 378.98 139.562 378.651 139.649 378.281C139.736 377.906 139.779 377.507 139.778 377.085ZM146.597 381.352C146.008 381.354 145.474 381.257 144.994 381.06C144.519 380.859 144.11 380.576 143.765 380.213C143.425 379.849 143.163 379.418 142.979 378.919C142.795 378.419 142.702 377.873 142.7 377.279L142.699 376.951C142.697 376.263 142.796 375.651 142.998 375.114C143.199 374.571 143.474 374.112 143.821 373.736C144.169 373.36 144.564 373.075 145.006 372.881C145.448 372.686 145.906 372.589 146.38 372.587C146.984 372.585 147.505 372.687 147.944 372.894C148.387 373.101 148.75 373.392 149.032 373.766C149.315 374.135 149.525 374.571 149.662 375.076C149.799 375.576 149.868 376.122 149.87 376.716L149.872 377.364L143.56 377.385L143.556 376.206L148.423 376.19L148.423 376.08C148.401 375.705 148.321 375.341 148.185 374.987C148.053 374.633 147.844 374.343 147.557 374.114C147.27 373.886 146.879 373.773 146.384 373.774C146.056 373.776 145.754 373.847 145.478 373.988C145.203 374.125 144.966 374.329 144.769 374.6C144.572 374.872 144.42 375.203 144.312 375.594C144.204 375.985 144.151 376.436 144.152 376.946L144.153 377.274C144.155 377.675 144.211 378.053 144.321 378.406C144.437 378.755 144.602 379.062 144.816 379.327C145.036 379.591 145.3 379.799 145.608 379.949C145.921 380.099 146.275 380.173 146.671 380.172C147.181 380.17 147.613 380.065 147.967 379.855C148.32 379.646 148.629 379.366 148.894 379.016L149.771 379.709C149.589 379.985 149.359 380.249 149.078 380.5C148.798 380.751 148.452 380.955 148.041 381.113C147.635 381.27 147.154 381.35 146.597 381.352ZM152.994 374.049L153.018 381.174L151.573 381.179L151.545 372.726L152.951 372.721L152.994 374.049ZM155.63 372.666L155.627 374.009C155.507 373.984 155.392 373.968 155.283 373.964C155.179 373.954 155.059 373.949 154.924 373.949C154.59 373.95 154.296 374.003 154.041 374.108C153.786 374.213 153.571 374.36 153.394 374.548C153.218 374.736 153.078 374.961 152.975 375.221C152.877 375.477 152.812 375.758 152.782 376.066L152.377 376.301C152.375 375.791 152.423 375.312 152.52 374.863C152.623 374.415 152.781 374.019 152.993 373.674C153.205 373.325 153.475 373.053 153.803 372.859C154.135 372.66 154.531 372.56 154.989 372.558C155.093 372.558 155.213 372.571 155.349 372.596C155.484 372.617 155.578 372.64 155.63 372.666ZM158.537 372.703L158.565 381.156L157.112 381.161L157.084 372.708L158.537 372.703ZM156.967 370.466C156.966 370.231 157.036 370.033 157.176 369.871C157.321 369.709 157.534 369.628 157.816 369.627C158.092 369.626 158.303 369.706 158.449 369.867C158.601 370.028 158.677 370.226 158.678 370.46C158.678 370.684 158.604 370.877 158.453 371.039C158.308 371.196 158.097 371.275 157.821 371.276C157.54 371.276 157.326 371.199 157.18 371.043C157.038 370.882 156.968 370.69 156.967 370.466ZM164.393 381.293C163.805 381.295 163.271 381.198 162.791 381.001C162.316 380.8 161.906 380.517 161.561 380.154C161.222 379.79 160.96 379.359 160.776 378.859C160.592 378.36 160.499 377.814 160.497 377.22L160.496 376.892C160.494 376.204 160.593 375.592 160.795 375.055C160.996 374.512 161.27 374.053 161.618 373.677C161.966 373.301 162.361 373.016 162.803 372.821C163.245 372.627 163.703 372.529 164.177 372.528C164.781 372.526 165.302 372.628 165.74 372.835C166.184 373.042 166.547 373.332 166.829 373.707C167.112 374.075 167.321 374.512 167.458 375.017C167.596 375.517 167.665 376.063 167.667 376.657L167.669 377.305L161.357 377.326L161.353 376.147L166.22 376.13L166.22 376.021C166.198 375.646 166.118 375.282 165.982 374.928C165.85 374.574 165.641 374.283 165.354 374.055C165.067 373.827 164.676 373.714 164.181 373.715C163.853 373.716 163.551 373.788 163.275 373.929C163 374.066 162.763 374.27 162.566 374.541C162.369 374.813 162.217 375.144 162.109 375.535C162.001 375.926 161.947 376.376 161.949 376.887L161.95 377.215C161.951 377.616 162.007 377.993 162.118 378.347C162.234 378.696 162.399 379.003 162.613 379.267C162.833 379.532 163.097 379.74 163.404 379.89C163.717 380.04 164.072 380.114 164.468 380.113C164.978 380.111 165.41 380.006 165.763 379.796C166.117 379.587 166.426 379.307 166.69 378.957L167.568 379.649C167.386 379.926 167.155 380.19 166.875 380.441C166.595 380.692 166.249 380.896 165.838 381.054C165.432 381.211 164.951 381.291 164.393 381.293ZM170.793 374.467L170.815 381.115L169.369 381.12L169.341 372.667L170.709 372.662L170.793 374.467ZM170.456 376.57L169.854 376.548C169.858 375.97 169.942 375.436 170.107 374.946C170.272 374.45 170.505 374.02 170.806 373.654C171.106 373.289 171.465 373.006 171.881 372.807C172.302 372.602 172.768 372.499 173.278 372.498C173.695 372.496 174.07 372.552 174.404 372.666C174.738 372.774 175.022 372.95 175.257 373.194C175.498 373.438 175.681 373.755 175.807 374.145C175.933 374.53 175.998 375.002 175.999 375.559L176.018 381.098L174.565 381.103L174.546 375.548C174.545 375.105 174.478 374.751 174.347 374.486C174.216 374.216 174.026 374.021 173.775 373.902C173.525 373.778 173.217 373.717 172.853 373.718C172.493 373.719 172.165 373.796 171.869 373.948C171.578 374.1 171.326 374.309 171.113 374.575C170.906 374.841 170.743 375.147 170.624 375.491C170.511 375.83 170.455 376.189 170.456 376.57ZM181.592 380.048C181.936 380.047 182.254 379.976 182.545 379.834C182.836 379.692 183.075 379.499 183.262 379.254C183.448 379.003 183.554 378.719 183.579 378.401L184.954 378.396C184.93 378.896 184.762 379.363 184.451 379.796C184.145 380.225 183.743 380.572 183.244 380.84C182.744 381.102 182.195 381.234 181.596 381.236C180.961 381.238 180.406 381.128 179.931 380.905C179.462 380.683 179.07 380.377 178.756 379.987C178.448 379.598 178.214 379.151 178.057 378.646C177.904 378.136 177.826 377.597 177.825 377.029L177.824 376.701C177.822 376.134 177.895 375.597 178.045 375.091C178.199 374.58 178.43 374.129 178.736 373.737C179.047 373.346 179.436 373.037 179.904 372.812C180.378 372.586 180.932 372.472 181.567 372.47C182.229 372.468 182.807 372.601 183.303 372.871C183.799 373.135 184.188 373.498 184.471 373.96C184.759 374.418 184.917 374.938 184.945 375.521L183.57 375.526C183.542 375.177 183.442 374.862 183.27 374.582C183.102 374.301 182.872 374.078 182.58 373.912C182.293 373.741 181.957 373.656 181.571 373.658C181.129 373.659 180.756 373.749 180.455 373.927C180.159 374.1 179.922 374.335 179.746 374.632C179.575 374.925 179.452 375.251 179.375 375.61C179.303 375.965 179.268 376.327 179.269 376.697L179.27 377.025C179.271 377.394 179.309 377.759 179.383 378.118C179.457 378.477 179.581 378.802 179.753 379.093C179.931 379.384 180.169 379.618 180.467 379.794C180.769 379.965 181.145 380.05 181.592 380.048ZM190.096 381.207C189.508 381.209 188.974 381.112 188.494 380.916C188.019 380.714 187.609 380.432 187.264 380.068C186.925 379.705 186.663 379.274 186.479 378.774C186.295 378.275 186.202 377.728 186.2 377.134L186.199 376.806C186.197 376.119 186.296 375.506 186.498 374.969C186.699 374.427 186.973 373.968 187.321 373.592C187.669 373.215 188.064 372.93 188.506 372.736C188.948 372.542 189.406 372.444 189.88 372.442C190.484 372.44 191.005 372.543 191.443 372.75C191.887 372.957 192.25 373.247 192.532 373.621C192.815 373.99 193.024 374.427 193.161 374.932C193.299 375.431 193.368 375.978 193.37 376.572L193.372 377.22L187.06 377.241L187.056 376.061L191.923 376.045L191.923 375.936C191.901 375.561 191.821 375.196 191.685 374.843C191.553 374.489 191.344 374.198 191.057 373.97C190.769 373.742 190.378 373.628 189.884 373.63C189.556 373.631 189.254 373.702 188.978 373.844C188.703 373.98 188.466 374.184 188.269 374.456C188.072 374.727 187.92 375.058 187.812 375.449C187.704 375.84 187.65 376.291 187.652 376.801L187.653 377.13C187.654 377.531 187.71 377.908 187.821 378.262C187.937 378.61 188.102 378.917 188.316 379.182C188.536 379.447 188.8 379.654 189.107 379.804C189.42 379.954 189.775 380.029 190.171 380.027C190.681 380.026 191.113 379.92 191.466 379.711C191.82 379.501 192.129 379.222 192.393 378.872L193.271 379.564C193.089 379.841 192.858 380.105 192.578 380.355C192.298 380.606 191.952 380.811 191.541 380.968C191.135 381.126 190.654 381.206 190.096 381.207ZM202.552 372.557L202.556 373.666L197.985 373.681L197.982 372.572L202.552 372.557ZM199.522 370.512L200.967 370.507L200.995 378.921C200.996 379.208 201.041 379.424 201.13 379.569C201.219 379.715 201.334 379.811 201.475 379.857C201.616 379.904 201.767 379.926 201.928 379.926C202.048 379.926 202.173 379.915 202.303 379.893C202.438 379.867 202.54 379.846 202.607 379.83L202.619 381.01C202.505 381.046 202.354 381.081 202.166 381.113C201.984 381.15 201.763 381.169 201.503 381.17C201.148 381.171 200.823 381.102 200.525 380.962C200.228 380.822 199.99 380.589 199.812 380.261C199.639 379.928 199.552 379.481 199.55 378.918L199.522 370.512ZM203.723 376.873L203.722 376.693C203.72 376.084 203.807 375.519 203.982 374.997C204.157 374.471 204.411 374.014 204.743 373.628C205.075 373.236 205.478 372.932 205.951 372.717C206.424 372.497 206.955 372.386 207.544 372.384C208.137 372.382 208.672 372.489 209.146 372.707C209.626 372.919 210.033 373.219 210.368 373.609C210.708 373.993 210.967 374.448 211.146 374.973C211.325 375.494 211.415 376.058 211.417 376.668L211.418 376.848C211.42 377.457 211.333 378.022 211.158 378.544C210.983 379.065 210.726 379.522 210.389 379.913C210.057 380.3 209.654 380.603 209.181 380.824C208.713 381.039 208.182 381.147 207.588 381.149C206.995 381.151 206.461 381.046 205.986 380.834C205.511 380.617 205.104 380.316 204.764 379.932C204.429 379.543 204.173 379.088 203.994 378.568C203.815 378.047 203.725 377.482 203.723 376.873ZM205.167 376.689L205.168 376.868C205.169 377.29 205.22 377.688 205.32 378.063C205.421 378.433 205.57 378.76 205.769 379.046C205.973 379.332 206.226 379.558 206.529 379.723C206.832 379.884 207.183 379.963 207.585 379.962C207.98 379.961 208.326 379.879 208.623 379.716C208.924 379.549 209.174 379.321 209.371 379.034C209.567 378.747 209.715 378.418 209.813 378.048C209.915 377.673 209.966 377.274 209.965 376.852L209.964 376.673C209.963 376.256 209.909 375.863 209.804 375.494C209.704 375.119 209.552 374.789 209.348 374.503C209.149 374.212 208.898 373.983 208.595 373.818C208.298 373.652 207.949 373.57 207.548 373.571C207.152 373.573 206.803 373.657 206.502 373.825C206.205 373.992 205.956 374.222 205.754 374.515C205.557 374.802 205.41 375.133 205.312 375.508C205.214 375.879 205.166 376.272 205.167 376.689ZM218.618 368.956L218.658 380.956L217.213 380.961L217.173 368.961L218.618 368.956ZM218.299 376.411L217.698 376.389C217.701 375.811 217.785 375.277 217.95 374.787C218.115 374.291 218.348 373.861 218.649 373.495C218.95 373.13 219.308 372.847 219.724 372.648C220.146 372.444 220.611 372.34 221.122 372.339C221.538 372.337 221.914 372.393 222.247 372.507C222.581 372.615 222.865 372.791 223.101 373.035C223.341 373.279 223.524 373.596 223.651 373.987C223.777 374.372 223.841 374.843 223.843 375.4L223.861 380.939L222.408 380.944L222.39 375.389C222.388 374.947 222.322 374.593 222.191 374.327C222.06 374.057 221.869 373.862 221.619 373.743C221.368 373.619 221.061 373.558 220.696 373.559C220.337 373.56 220.009 373.637 219.713 373.789C219.421 373.941 219.169 374.15 218.957 374.416C218.749 374.683 218.586 374.988 218.468 375.332C218.354 375.671 218.298 376.03 218.299 376.411ZM229.534 381.076C228.945 381.078 228.411 380.981 227.931 380.785C227.456 380.583 227.047 380.301 226.702 379.937C226.362 379.574 226.1 379.143 225.916 378.643C225.732 378.144 225.639 377.597 225.637 377.003L225.636 376.675C225.634 375.988 225.733 375.376 225.935 374.838C226.136 374.296 226.411 373.837 226.758 373.461C227.106 373.084 227.501 372.799 227.943 372.605C228.385 372.411 228.843 372.313 229.317 372.312C229.921 372.31 230.442 372.412 230.881 372.619C231.324 372.826 231.687 373.116 231.969 373.49C232.252 373.859 232.462 374.296 232.599 374.801C232.736 375.3 232.805 375.847 232.807 376.441L232.809 377.089L226.497 377.11L226.493 375.93L231.36 375.914L231.36 375.805C231.338 375.43 231.258 375.065 231.122 374.712C230.991 374.358 230.781 374.067 230.494 373.839C230.207 373.611 229.816 373.497 229.321 373.499C228.993 373.5 228.691 373.571 228.415 373.713C228.14 373.849 227.904 374.053 227.707 374.325C227.51 374.596 227.357 374.927 227.249 375.318C227.141 375.709 227.088 376.16 227.089 376.67L227.09 376.999C227.092 377.4 227.148 377.777 227.258 378.131C227.374 378.479 227.539 378.786 227.753 379.051C227.973 379.316 228.237 379.523 228.545 379.673C228.858 379.823 229.212 379.898 229.608 379.897C230.118 379.895 230.55 379.789 230.904 379.58C231.257 379.37 231.566 379.091 231.831 378.741L232.708 379.433C232.527 379.71 232.296 379.974 232.015 380.224C231.735 380.475 231.389 380.68 230.978 380.837C230.572 380.995 230.091 381.075 229.534 381.076ZM236.04 368.899L236.08 380.898L234.627 380.903L234.587 368.903L236.04 368.899ZM239.823 374.058L239.856 384.136L238.403 384.141L238.364 372.438L239.692 372.433L239.823 374.058ZM245.527 376.57L245.527 376.734C245.529 377.349 245.458 377.919 245.314 378.446C245.17 378.967 244.958 379.421 244.678 379.807C244.403 380.194 244.063 380.494 243.658 380.709C243.252 380.924 242.786 381.032 242.26 381.034C241.724 381.036 241.249 380.949 240.837 380.773C240.425 380.598 240.076 380.341 239.788 380.003C239.5 379.666 239.27 379.26 239.096 378.787C238.928 378.313 238.812 377.78 238.747 377.186L238.744 376.311C238.805 375.686 238.92 375.126 239.09 374.631C239.261 374.135 239.486 373.713 239.766 373.363C240.051 373.008 240.397 372.738 240.802 372.555C241.208 372.366 241.676 372.27 242.208 372.269C242.739 372.267 243.211 372.37 243.623 372.576C244.035 372.778 244.382 373.069 244.665 373.448C244.947 373.827 245.16 374.282 245.302 374.813C245.45 375.339 245.524 375.924 245.527 376.57ZM244.074 376.739L244.073 376.575C244.072 376.153 244.026 375.757 243.937 375.388C243.847 375.013 243.708 374.686 243.519 374.405C243.336 374.119 243.101 373.896 242.814 373.735C242.527 373.57 242.186 373.488 241.79 373.489C241.425 373.49 241.108 373.554 240.837 373.68C240.572 373.805 240.346 373.975 240.159 374.19C239.972 374.399 239.82 374.639 239.701 374.91C239.587 375.176 239.502 375.452 239.446 375.739L239.452 377.762C239.558 378.126 239.705 378.47 239.893 378.792C240.082 379.109 240.333 379.366 240.646 379.563C240.959 379.755 241.353 379.85 241.827 379.848C242.217 379.847 242.553 379.765 242.834 379.603C243.119 379.435 243.353 379.208 243.534 378.921C243.721 378.633 243.858 378.305 243.945 377.935C244.032 377.56 244.075 377.161 244.074 376.739ZM253.51 380.841L252.064 380.845L252.033 371.502C252.031 370.892 252.139 370.379 252.356 369.962C252.579 369.539 252.898 369.22 253.314 369.005C253.73 368.785 254.224 368.674 254.797 368.672C254.964 368.672 255.131 368.681 255.297 368.702C255.469 368.722 255.636 368.753 255.798 368.794L255.723 369.974C255.614 369.948 255.489 369.93 255.348 369.92C255.213 369.91 255.077 369.906 254.942 369.906C254.635 369.907 254.369 369.97 254.146 370.096C253.927 370.217 253.761 370.394 253.648 370.629C253.534 370.864 253.477 371.153 253.479 371.497L253.51 380.841ZM255.278 372.382L255.282 373.491L250.704 373.506L250.7 372.397L255.278 372.382ZM260.237 380.974C259.648 380.976 259.114 380.879 258.634 380.683C258.159 380.481 257.75 380.199 257.405 379.835C257.065 379.472 256.803 379.041 256.619 378.541C256.435 378.042 256.342 377.495 256.34 376.901L256.339 376.573C256.337 375.886 256.436 375.274 256.638 374.736C256.839 374.194 257.114 373.735 257.461 373.359C257.809 372.983 258.204 372.697 258.646 372.503C259.088 372.309 259.546 372.211 260.02 372.21C260.624 372.208 261.145 372.31 261.584 372.517C262.027 372.724 262.39 373.014 262.672 373.388C262.955 373.757 263.165 374.194 263.302 374.699C263.439 375.198 263.508 375.745 263.51 376.339L263.512 376.987L257.2 377.008L257.196 375.828L262.063 375.812L262.063 375.703C262.041 375.328 261.961 374.964 261.825 374.61C261.693 374.256 261.484 373.965 261.197 373.737C260.91 373.509 260.519 373.395 260.024 373.397C259.696 373.398 259.394 373.469 259.118 373.611C258.843 373.747 258.606 373.951 258.409 374.223C258.212 374.494 258.06 374.825 257.952 375.216C257.844 375.607 257.791 376.058 257.792 376.569L257.793 376.897C257.795 377.298 257.851 377.675 257.961 378.029C258.077 378.377 258.242 378.684 258.456 378.949C258.676 379.214 258.94 379.421 259.248 379.572C259.561 379.722 259.915 379.796 260.311 379.795C260.821 379.793 261.253 379.687 261.607 379.478C261.96 379.268 262.269 378.989 262.534 378.639L263.411 379.331C263.229 379.608 262.999 379.872 262.718 380.122C262.438 380.373 262.092 380.578 261.681 380.735C261.275 380.893 260.794 380.973 260.237 380.974ZM266.743 368.797L266.783 380.796L265.33 380.801L265.29 368.801L266.743 368.797ZM270.634 368.784L270.674 380.784L269.22 380.788L269.181 368.788L270.634 368.784ZM272.597 376.644L272.597 376.465C272.595 375.855 272.681 375.29 272.857 374.768C273.032 374.242 273.286 373.785 273.618 373.399C273.95 373.007 274.352 372.704 274.826 372.488C275.299 372.268 275.83 372.157 276.418 372.155C277.012 372.153 277.546 372.261 278.021 372.478C278.501 372.69 278.908 372.991 279.243 373.38C279.583 373.764 279.842 374.219 280.021 374.745C280.2 375.265 280.29 375.83 280.292 376.439L280.293 376.619C280.295 377.228 280.208 377.794 280.033 378.315C279.857 378.836 279.601 379.293 279.264 379.685C278.932 380.071 278.529 380.375 278.056 380.595C277.588 380.81 277.057 380.919 276.463 380.921C275.869 380.923 275.335 380.818 274.86 380.606C274.386 380.388 273.979 380.088 273.639 379.703C273.304 379.314 273.047 378.859 272.869 378.339C272.69 377.819 272.599 377.254 272.597 376.644ZM274.042 376.46L274.043 376.64C274.044 377.061 274.095 377.46 274.195 377.834C274.295 378.204 274.445 378.531 274.644 378.817C274.848 379.103 275.101 379.329 275.404 379.494C275.706 379.655 276.058 379.734 276.459 379.733C276.855 379.732 277.201 379.65 277.497 379.487C277.799 379.32 278.048 379.092 278.245 378.805C278.442 378.518 278.589 378.19 278.687 377.819C278.79 377.444 278.841 377.045 278.839 376.624L278.839 376.444C278.837 376.027 278.784 375.634 278.679 375.265C278.578 374.89 278.426 374.56 278.222 374.274C278.023 373.983 277.773 373.755 277.47 373.589C277.173 373.423 276.823 373.341 276.422 373.343C276.026 373.344 275.678 373.428 275.376 373.596C275.08 373.764 274.831 373.994 274.629 374.286C274.432 374.573 274.284 374.904 274.187 375.28C274.089 375.65 274.041 376.043 274.042 376.46ZM284.254 379.238L286.403 372.278L287.356 372.275L287.173 373.658L284.986 380.736L284.056 380.739L284.254 379.238ZM282.77 372.29L284.645 379.315L284.783 380.737L283.806 380.74L281.325 372.295L282.77 372.29ZM289.458 379.245L291.2 372.262L292.638 372.257L290.212 380.719L289.244 380.722L289.458 379.245ZM287.567 372.274L289.715 379.103L289.962 380.72L289.041 380.723L286.744 373.644L286.552 372.278L287.567 372.274ZM303.033 378.434C303.032 378.226 302.985 378.033 302.891 377.856C302.801 377.674 302.616 377.511 302.334 377.366C302.058 377.216 301.641 377.087 301.083 376.979C300.614 376.882 300.189 376.766 299.808 376.632C299.433 376.498 299.112 376.335 298.846 376.143C298.585 375.951 298.383 375.725 298.242 375.465C298.1 375.205 298.029 374.901 298.028 374.552C298.027 374.219 298.099 373.903 298.244 373.606C298.394 373.309 298.604 373.045 298.874 372.815C299.149 372.585 299.479 372.404 299.864 372.273C300.249 372.141 300.679 372.075 301.153 372.073C301.83 372.071 302.408 372.189 302.888 372.427C303.368 372.665 303.736 372.984 303.993 373.384C304.249 373.779 304.378 374.218 304.38 374.703L302.935 374.708C302.934 374.473 302.863 374.247 302.722 374.029C302.585 373.805 302.384 373.621 302.118 373.476C301.857 373.331 301.537 373.259 301.157 373.26C300.755 373.262 300.43 373.325 300.181 373.451C299.936 373.572 299.757 373.726 299.643 373.914C299.534 374.102 299.48 374.3 299.481 374.508C299.481 374.664 299.508 374.805 299.56 374.93C299.618 375.049 299.718 375.161 299.858 375.265C299.999 375.363 300.198 375.456 300.453 375.544C300.709 375.632 301.034 375.719 301.431 375.806C302.124 375.96 302.695 376.146 303.143 376.363C303.592 376.58 303.926 376.848 304.146 377.165C304.366 377.482 304.477 377.867 304.478 378.32C304.479 378.69 304.402 379.028 304.247 379.336C304.097 379.644 303.877 379.91 303.586 380.135C303.3 380.355 302.957 380.528 302.556 380.654C302.161 380.775 301.716 380.837 301.221 380.838C300.476 380.841 299.845 380.71 299.329 380.446C298.812 380.182 298.421 379.84 298.154 379.419C297.886 378.998 297.752 378.553 297.751 378.084L299.204 378.079C299.226 378.475 299.342 378.79 299.551 379.024C299.76 379.252 300.015 379.415 300.318 379.513C300.62 379.606 300.92 379.652 301.217 379.651C301.613 379.65 301.943 379.596 302.208 379.491C302.479 379.386 302.684 379.242 302.824 379.06C302.964 378.877 303.034 378.668 303.033 378.434ZM309.895 372.2L309.899 373.31L305.329 373.325L305.325 372.215L309.895 372.2ZM306.865 370.156L308.31 370.151L308.338 378.565C308.339 378.851 308.384 379.067 308.473 379.213C308.562 379.358 308.677 379.454 308.818 379.501C308.959 379.547 309.11 379.57 309.271 379.569C309.391 379.569 309.516 379.558 309.646 379.537C309.781 379.51 309.883 379.489 309.951 379.473L309.962 380.653C309.848 380.69 309.697 380.724 309.51 380.756C309.327 380.793 309.106 380.812 308.846 380.813C308.492 380.814 308.166 380.745 307.868 380.605C307.571 380.466 307.333 380.232 307.155 379.905C306.982 379.572 306.895 379.124 306.893 378.562L306.865 370.156ZM316.784 378.677L316.762 372.177L318.215 372.173L318.244 380.626L316.861 380.63L316.784 378.677ZM317.051 376.895L317.653 376.878C317.655 377.44 317.597 377.961 317.478 378.441C317.365 378.915 317.179 379.327 316.92 379.677C316.661 380.027 316.321 380.301 315.899 380.501C315.478 380.695 314.965 380.793 314.361 380.795C313.95 380.796 313.572 380.737 313.228 380.619C312.889 380.5 312.597 380.316 312.351 380.067C312.105 379.818 311.914 379.493 311.778 379.092C311.646 378.692 311.579 378.21 311.577 377.648L311.559 372.195L313.005 372.19L313.023 377.659C313.024 378.039 313.067 378.354 313.151 378.603C313.24 378.848 313.358 379.043 313.504 379.188C313.656 379.328 313.823 379.427 314.005 379.483C314.193 379.54 314.386 379.568 314.584 379.567C315.198 379.565 315.685 379.447 316.044 379.211C316.402 378.97 316.659 378.649 316.814 378.248C316.974 377.841 317.053 377.39 317.051 376.895ZM325.769 378.96L325.735 368.601L327.188 368.596L327.228 380.596L325.9 380.6L325.769 378.96ZM320.074 376.487L320.073 376.323C320.071 375.677 320.147 375.091 320.302 374.564C320.461 374.032 320.686 373.576 320.977 373.195C321.272 372.813 321.623 372.521 322.028 372.316C322.439 372.106 322.897 372.001 323.402 371.999C323.934 371.997 324.398 372.089 324.794 372.276C325.196 372.457 325.535 372.724 325.812 373.077C326.095 373.425 326.317 373.846 326.481 374.34C326.644 374.835 326.757 375.394 326.822 376.019L326.824 376.738C326.769 377.358 326.659 377.915 326.494 378.411C326.334 378.906 326.114 379.329 325.834 379.678C325.559 380.028 325.222 380.298 324.821 380.487C324.421 380.67 323.952 380.763 323.416 380.765C322.921 380.766 322.468 380.661 322.056 380.449C321.649 380.237 321.296 379.938 320.998 379.554C320.705 379.169 320.477 378.717 320.314 378.197C320.156 377.671 320.076 377.101 320.074 376.487ZM321.526 376.318L321.527 376.482C321.528 376.904 321.571 377.299 321.656 377.669C321.745 378.038 321.882 378.363 322.065 378.644C322.248 378.925 322.481 379.145 322.763 379.306C323.044 379.461 323.381 379.538 323.771 379.537C324.25 379.535 324.643 379.432 324.95 379.228C325.262 379.024 325.511 378.755 325.697 378.421C325.884 378.087 326.028 377.725 326.131 377.334L326.125 375.451C326.061 375.165 325.969 374.889 325.849 374.624C325.733 374.353 325.581 374.114 325.393 373.906C325.21 373.694 324.983 373.525 324.712 373.401C324.446 373.277 324.13 373.215 323.766 373.217C323.37 373.218 323.029 373.302 322.743 373.47C322.463 373.632 322.232 373.857 322.05 374.144C321.869 374.426 321.735 374.755 321.647 375.13C321.565 375.5 321.525 375.896 321.526 376.318ZM332.986 380.733C332.398 380.735 331.863 380.638 331.384 380.441C330.909 380.24 330.499 379.957 330.154 379.594C329.815 379.23 329.553 378.799 329.369 378.3C329.185 377.8 329.092 377.254 329.09 376.66L329.089 376.332C329.086 375.644 329.186 375.032 329.387 374.495C329.589 373.952 329.863 373.493 330.211 373.117C330.559 372.741 330.953 372.456 331.396 372.262C331.838 372.067 332.296 371.969 332.77 371.968C333.374 371.966 333.895 372.068 334.333 372.275C334.777 372.482 335.139 372.773 335.422 373.147C335.704 373.515 335.914 373.952 336.051 374.457C336.188 374.957 336.258 375.503 336.26 376.097L336.262 376.745L329.95 376.766L329.946 375.587L334.813 375.571L334.812 375.461C334.79 375.086 334.711 374.722 334.574 374.368C334.443 374.014 334.234 373.723 333.947 373.495C333.659 373.267 333.268 373.154 332.774 373.155C332.445 373.157 332.144 373.228 331.868 373.369C331.592 373.506 331.356 373.71 331.159 373.981C330.962 374.253 330.81 374.584 330.701 374.975C330.593 375.366 330.54 375.816 330.542 376.327L330.543 376.655C330.544 377.056 330.6 377.433 330.711 377.787C330.827 378.136 330.992 378.443 331.206 378.708C331.426 378.972 331.689 379.18 331.997 379.33C332.31 379.48 332.665 379.554 333.06 379.553C333.571 379.551 334.003 379.446 334.356 379.236C334.71 379.027 335.019 378.747 335.283 378.397L336.16 379.09C335.979 379.366 335.748 379.63 335.468 379.881C335.187 380.132 334.842 380.336 334.431 380.494C334.025 380.651 333.543 380.731 332.986 380.733ZM339.385 373.907L339.408 380.555L337.962 380.56L337.934 372.107L339.301 372.102L339.385 373.907ZM339.049 376.01L338.447 375.988C338.45 375.41 338.534 374.876 338.7 374.386C338.865 373.89 339.097 373.46 339.398 373.094C339.699 372.729 340.058 372.446 340.474 372.247C340.895 372.042 341.361 371.939 341.871 371.938C342.288 371.936 342.663 371.992 342.997 372.106C343.33 372.214 343.615 372.39 343.85 372.634C344.09 372.878 344.274 373.195 344.4 373.586C344.526 373.971 344.59 374.442 344.592 374.999L344.611 380.538L343.157 380.543L343.139 374.988C343.138 374.545 343.071 374.192 342.94 373.926C342.809 373.656 342.618 373.461 342.368 373.342C342.118 373.218 341.81 373.157 341.445 373.158C341.086 373.159 340.758 373.236 340.462 373.388C340.171 373.54 339.919 373.749 339.706 374.015C339.499 374.282 339.336 374.587 339.217 374.931C339.104 375.27 339.047 375.629 339.049 376.01ZM350.317 372.066L350.321 373.175L345.75 373.19L345.747 372.081L350.317 372.066ZM347.287 370.021L348.732 370.016L348.76 378.43C348.761 378.717 348.806 378.933 348.895 379.078C348.984 379.224 349.099 379.32 349.24 379.366C349.38 379.413 349.531 379.436 349.693 379.435C349.813 379.435 349.938 379.424 350.068 379.403C350.203 379.376 350.305 379.355 350.372 379.339L350.384 380.519C350.27 380.556 350.119 380.59 349.931 380.622C349.749 380.659 349.528 380.678 349.267 380.679C348.913 380.68 348.587 380.611 348.29 380.471C347.993 380.331 347.755 380.098 347.577 379.77C347.404 379.438 347.316 378.99 347.315 378.427L347.287 370.021ZM356.955 378.255C356.954 378.046 356.906 377.854 356.812 377.677C356.723 377.495 356.538 377.332 356.256 377.187C355.979 377.037 355.562 376.908 355.005 376.8C354.535 376.703 354.111 376.587 353.73 376.453C353.354 376.319 353.034 376.156 352.767 375.964C352.506 375.772 352.305 375.546 352.164 375.286C352.022 375.026 351.951 374.722 351.95 374.373C351.948 374.04 352.02 373.724 352.165 373.427C352.315 373.13 352.525 372.866 352.795 372.636C353.071 372.406 353.401 372.225 353.786 372.093C354.171 371.962 354.6 371.895 355.074 371.894C355.751 371.892 356.33 372.009 356.81 372.247C357.29 372.485 357.658 372.805 357.914 373.205C358.171 373.6 358.3 374.039 358.302 374.524L356.856 374.529C356.856 374.294 356.785 374.068 356.643 373.85C356.507 373.626 356.306 373.442 356.04 373.297C355.779 373.152 355.458 373.08 355.078 373.081C354.677 373.083 354.352 373.146 354.102 373.272C353.858 373.393 353.679 373.547 353.565 373.735C353.456 373.923 353.402 374.121 353.403 374.329C353.403 374.485 353.43 374.626 353.482 374.751C353.54 374.87 353.639 374.982 353.78 375.086C353.921 375.184 354.119 375.277 354.375 375.365C354.63 375.453 354.956 375.54 355.352 375.627C356.045 375.781 356.616 375.967 357.065 376.184C357.514 376.401 357.848 376.669 358.068 376.985C358.287 377.302 358.398 377.688 358.4 378.141C358.401 378.51 358.324 378.849 358.169 379.157C358.019 379.465 357.798 379.731 357.507 379.956C357.221 380.176 356.878 380.349 356.478 380.475C356.082 380.596 355.637 380.658 355.142 380.659C354.398 380.662 353.767 380.531 353.25 380.267C352.734 380.003 352.342 379.661 352.075 379.24C351.808 378.819 351.674 378.374 351.672 377.905L353.125 377.9C353.147 378.296 353.263 378.611 353.472 378.845C353.681 379.073 353.937 379.236 354.239 379.334C354.542 379.427 354.842 379.473 355.138 379.472C355.534 379.47 355.865 379.417 356.13 379.312C356.401 379.207 356.606 379.063 356.746 378.881C356.886 378.698 356.955 378.489 356.955 378.255ZM39.6295 393.778L39.652 400.551L38.1989 400.556L38.1708 392.103L39.5458 392.098L39.6295 393.778ZM39.34 396.005L38.668 395.984C38.6713 395.406 38.7451 394.872 38.8893 394.382C39.0335 393.886 39.2482 393.456 39.5334 393.09C39.8187 392.725 40.1745 392.442 40.6009 392.243C41.0274 392.039 41.5218 391.935 42.0843 391.933C42.4801 391.932 42.8449 391.988 43.1786 392.102C43.5123 392.21 43.8019 392.383 44.0475 392.622C44.2931 392.861 44.4842 393.168 44.6209 393.542C44.7576 393.917 44.8268 394.37 44.8285 394.901L44.8473 400.534L43.4019 400.538L43.3835 394.976C43.382 394.533 43.3053 394.179 43.1534 393.914C43.0067 393.649 42.7977 393.457 42.5265 393.338C42.2552 393.214 41.9373 393.153 41.5727 393.154C41.1456 393.155 40.7891 393.232 40.5032 393.384C40.2172 393.536 39.9887 393.745 39.8178 394.011C39.6468 394.277 39.5228 394.583 39.4458 394.927C39.374 395.265 39.3387 395.625 39.34 396.005ZM44.8139 395.19L43.8461 395.49C43.8498 395.027 43.9238 394.581 44.0682 394.153C44.2179 393.726 44.4327 393.345 44.7129 393.011C44.9982 392.676 45.3489 392.412 45.765 392.218C46.181 392.019 46.6572 391.918 47.1936 391.916C47.6468 391.915 48.048 391.974 48.3974 392.092C48.7519 392.211 49.0494 392.395 49.2898 392.644C49.5354 392.888 49.7214 393.202 49.8476 393.587C49.9739 393.972 50.0379 394.43 50.0397 394.962L50.0582 400.516L48.605 400.521L48.5865 394.951C48.585 394.477 48.5082 394.11 48.3563 393.85C48.2096 393.585 48.0007 393.401 47.7295 393.298C47.4635 393.189 47.1456 393.135 46.7758 393.137C46.4581 393.138 46.177 393.193 45.9326 393.303C45.6882 393.414 45.483 393.565 45.3169 393.759C45.1509 393.947 45.024 394.163 44.9363 394.408C44.8538 394.653 44.813 394.914 44.8139 395.19ZM57.2252 399.047L57.2107 394.696C57.2096 394.362 57.141 394.074 57.0047 393.829C56.8737 393.58 56.6751 393.388 56.4091 393.253C56.143 393.119 55.8147 393.052 55.424 393.053C55.0594 393.054 54.7393 393.118 54.4637 393.244C54.1933 393.37 53.9803 393.535 53.8247 393.738C53.6744 393.942 53.5996 394.161 53.6004 394.395L52.155 394.4C52.154 394.098 52.2312 393.798 52.3864 393.501C52.5417 393.203 52.7648 392.934 53.0556 392.694C53.3517 392.448 53.7052 392.254 54.1162 392.112C54.5324 391.965 54.9957 391.891 55.5061 391.889C56.1207 391.887 56.6627 391.989 57.1321 392.196C57.6068 392.403 57.9776 392.717 58.2446 393.138C58.5169 393.553 58.654 394.076 58.6561 394.707L58.6692 398.644C58.6701 398.925 58.6945 399.225 58.7425 399.542C58.7956 399.86 58.872 400.133 58.9718 400.362L58.9722 400.487L57.4644 400.492C57.3909 400.325 57.3329 400.104 57.2903 399.828C57.2477 399.547 57.226 399.287 57.2252 399.047ZM57.463 395.367L57.482 396.382L56.021 396.387C55.6096 396.389 55.2425 396.424 54.9198 396.492C54.5971 396.556 54.3266 396.653 54.1083 396.784C53.89 396.915 53.7239 397.08 53.6099 397.278C53.496 397.471 53.4394 397.698 53.4403 397.958C53.4412 398.224 53.5019 398.466 53.6224 398.684C53.7429 398.903 53.9232 399.076 54.1632 399.206C54.4084 399.33 54.7081 399.392 55.0623 399.39C55.505 399.389 55.8953 399.294 56.2332 399.105C56.5711 398.917 56.8386 398.687 57.0356 398.415C57.2378 398.144 57.3463 397.88 57.3611 397.625L57.9806 398.318C57.9449 398.537 57.8467 398.78 57.6861 399.046C57.5256 399.312 57.3103 399.568 57.0402 399.814C56.7754 400.054 56.4584 400.256 56.0891 400.418C55.7251 400.576 55.3139 400.655 54.8555 400.657C54.2826 400.659 53.7796 400.548 53.3466 400.326C52.9188 400.103 52.5845 399.805 52.3436 399.431C52.108 399.051 51.9894 398.627 51.9878 398.158C51.9863 397.705 52.0736 397.307 52.2495 396.962C52.4254 396.613 52.6797 396.323 53.0122 396.092C53.3448 395.857 53.7452 395.679 54.2136 395.557C54.6819 395.436 55.2052 395.374 55.7833 395.372L57.463 395.367ZM62.362 388.475L62.4018 400.475L60.9487 400.48L60.9089 388.48L62.362 388.475ZM67.5378 392.005L63.8634 395.963L61.808 398.11L61.6857 396.571L63.1564 394.801L65.7722 392.011L67.5378 392.005ZM66.2456 400.463L63.2166 396.441L63.9623 395.15L67.9487 400.457L66.2456 400.463ZM72.4101 400.598C71.8216 400.6 71.2874 400.503 70.8076 400.307C70.3329 400.105 69.9232 399.823 69.5782 399.459C69.2384 399.096 68.9766 398.664 68.7926 398.165C68.6087 397.666 68.5157 397.119 68.5138 396.525L68.5127 396.197C68.5104 395.51 68.6099 394.897 68.8113 394.36C69.0126 393.818 69.2871 393.359 69.6348 392.983C69.9825 392.606 70.3774 392.321 70.8195 392.127C71.2615 391.933 71.7196 391.835 72.1935 391.833C72.7977 391.831 73.3188 391.934 73.757 392.141C74.2004 392.348 74.5634 392.638 74.8459 393.012C75.1284 393.381 75.3381 393.818 75.4752 394.323C75.6123 394.822 75.6818 395.369 75.6838 395.963L75.686 396.611L69.3735 396.632L69.3696 395.452L74.2367 395.436L74.2364 395.327C74.2143 394.952 74.135 394.587 73.9984 394.234C73.867 393.88 73.6577 393.589 73.3705 393.361C73.0832 393.133 72.6922 393.019 72.1975 393.021C71.8693 393.022 71.5675 393.093 71.2919 393.235C71.0163 393.371 70.78 393.575 70.583 393.847C70.386 394.118 70.2334 394.449 70.1254 394.84C70.0173 395.231 69.9641 395.682 69.9658 396.192L69.9669 396.521C69.9682 396.922 70.0241 397.299 70.1347 397.653C70.2504 398.001 70.4155 398.308 70.6299 398.573C70.8496 398.838 71.1133 399.045 71.4211 399.195C71.7341 399.345 72.0885 399.42 72.4843 399.418C72.9947 399.417 73.4267 399.311 73.7802 399.102C74.1336 398.892 74.4426 398.612 74.7071 398.263L75.5844 398.955C75.403 399.232 75.1721 399.495 74.8917 399.746C74.6113 399.997 74.2656 400.202 73.8546 400.359C73.4489 400.517 72.9674 400.597 72.4101 400.598ZM86.2693 398.154C86.2686 397.946 86.2211 397.753 86.1267 397.576C86.0376 397.394 85.8521 397.231 85.5704 397.086C85.2939 396.936 84.8768 396.807 84.3191 396.699C83.85 396.602 83.4252 396.486 83.0445 396.352C82.6691 396.218 82.3482 396.055 82.0819 395.863C81.8209 395.671 81.6196 395.445 81.4781 395.185C81.3366 394.925 81.2653 394.621 81.2642 394.272C81.263 393.939 81.3349 393.623 81.4798 393.326C81.6298 393.029 81.8399 392.765 82.11 392.535C82.3852 392.305 82.7154 392.124 83.1003 391.993C83.4853 391.861 83.9148 391.795 84.3888 391.793C85.0658 391.791 85.6444 391.909 86.1243 392.147C86.6043 392.385 86.9725 392.704 87.2291 393.104C87.4856 393.499 87.6146 393.938 87.6163 394.423L86.1709 394.428C86.1702 394.193 86.0991 393.967 85.9578 393.749C85.8216 393.525 85.6205 393.341 85.3544 393.196C85.0935 393.051 84.7729 392.979 84.3927 392.98C83.9917 392.982 83.6663 393.045 83.4168 393.171C83.1724 393.292 82.9932 393.446 82.8792 393.634C82.7705 393.822 82.7165 394.02 82.7171 394.228C82.7177 394.384 82.7442 394.525 82.7967 394.65C82.8544 394.769 82.9537 394.881 83.0947 394.985C83.2356 395.083 83.4338 395.176 83.6893 395.264C83.9448 395.352 84.2707 395.439 84.6668 395.526C85.36 395.68 85.9309 395.866 86.3796 396.083C86.8282 396.3 87.1624 396.568 87.3822 396.885C87.602 397.202 87.7127 397.587 87.7142 398.04C87.7154 398.41 87.6384 398.748 87.4832 399.056C87.3332 399.364 87.1127 399.63 86.8218 399.855C86.5361 400.075 86.1929 400.248 85.7923 400.374C85.3968 400.495 84.9517 400.557 84.4569 400.558C83.7121 400.561 83.0815 400.43 82.565 400.166C82.0485 399.902 81.6567 399.56 81.3897 399.139C81.1227 398.718 80.9884 398.273 80.9868 397.804L82.4399 397.799C82.4621 398.195 82.5777 398.51 82.7868 398.744C82.9959 398.972 83.2517 399.135 83.5541 399.233C83.8565 399.326 84.1561 399.372 84.453 399.371C84.8488 399.37 85.1794 399.316 85.4446 399.211C85.7151 399.106 85.9204 398.962 86.0604 398.78C86.2004 398.597 86.27 398.388 86.2693 398.154ZM91.0354 393.607L91.0579 400.38L89.6048 400.385L89.5767 391.932L90.9517 391.927L91.0354 393.607ZM90.746 395.834L90.074 395.813C90.0773 395.235 90.151 394.701 90.2953 394.211C90.4394 393.716 90.6542 393.285 90.9394 392.92C91.2247 392.554 91.5805 392.272 92.0069 392.072C92.4333 391.868 92.9278 391.765 93.4903 391.763C93.8861 391.761 94.2509 391.817 94.5846 391.931C94.9183 392.039 95.2079 392.213 95.4535 392.452C95.6991 392.69 95.8902 392.997 96.0269 393.371C96.1635 393.746 96.2327 394.199 96.2345 394.73L96.2532 400.363L94.8079 400.368L94.7894 394.805C94.788 394.363 94.7113 394.009 94.5593 393.744C94.4126 393.478 94.2037 393.286 93.9324 393.168C93.6612 393.043 93.3433 392.982 92.9787 392.983C92.5516 392.985 92.1951 393.061 91.9091 393.213C91.6232 393.365 91.3947 393.574 91.2237 393.841C91.0527 394.107 90.9287 394.412 90.8518 394.756C90.78 395.095 90.7447 395.454 90.746 395.834ZM96.2198 395.019L95.2521 395.319C95.2558 394.856 95.3298 394.41 95.4742 393.983C95.6238 393.555 95.8387 393.174 96.1189 392.84C96.4042 392.506 96.7549 392.241 97.1709 392.047C97.5869 391.848 98.0632 391.748 98.5996 391.746C99.0527 391.744 99.454 391.803 99.8033 391.921C100.158 392.04 100.455 392.224 100.696 392.473C100.941 392.717 101.127 393.032 101.254 393.417C101.38 393.802 101.444 394.26 101.446 394.791L101.464 400.346L100.011 400.35L99.9925 394.78C99.9909 394.306 99.9142 393.939 99.7623 393.679C99.6156 393.414 99.4066 393.23 99.1355 393.127C98.8695 393.018 98.5516 392.965 98.1818 392.966C97.8641 392.967 97.583 393.023 97.3386 393.133C97.0942 393.243 96.8889 393.395 96.7229 393.588C96.5569 393.776 96.43 393.993 96.3422 394.238C96.2597 394.483 96.2189 394.743 96.2198 395.019ZM108.631 398.877L108.617 394.525C108.616 394.192 108.547 393.903 108.411 393.658C108.28 393.409 108.081 393.217 107.815 393.082C107.549 392.948 107.221 392.881 106.83 392.882C106.465 392.884 106.145 392.947 105.87 393.073C105.599 393.199 105.386 393.364 105.231 393.567C105.08 393.771 105.006 393.99 105.006 394.224L103.561 394.229C103.56 393.927 103.637 393.627 103.792 393.33C103.948 393.033 104.171 392.764 104.462 392.523C104.758 392.277 105.111 392.084 105.522 391.942C105.938 391.794 106.402 391.72 106.912 391.718C107.527 391.716 108.069 391.818 108.538 392.025C109.013 392.232 109.384 392.546 109.651 392.967C109.923 393.383 110.06 393.906 110.062 394.536L110.075 398.473C110.076 398.755 110.101 399.054 110.148 399.371C110.202 399.689 110.278 399.962 110.378 400.191L110.378 400.316L108.87 400.321C108.797 400.155 108.739 399.933 108.696 399.658C108.654 399.376 108.632 399.116 108.631 398.877ZM108.869 395.196L108.888 396.212L107.427 396.216C107.016 396.218 106.648 396.253 106.326 396.322C106.003 396.385 105.733 396.483 105.514 396.613C105.296 396.744 105.13 396.909 105.016 397.107C104.902 397.3 104.845 397.527 104.846 397.788C104.847 398.053 104.908 398.295 105.028 398.513C105.149 398.732 105.329 398.906 105.569 399.035C105.814 399.159 106.114 399.221 106.468 399.22C106.911 399.218 107.301 399.123 107.639 398.935C107.977 398.746 108.245 398.516 108.442 398.244C108.644 397.973 108.752 397.709 108.767 397.454L109.387 398.147C109.351 398.366 109.253 398.609 109.092 398.875C108.932 399.141 108.716 399.397 108.446 399.643C108.181 399.883 107.864 400.085 107.495 400.248C107.131 400.405 106.72 400.484 106.261 400.486C105.689 400.488 105.186 400.378 104.753 400.155C104.325 399.933 103.99 399.634 103.75 399.26C103.514 398.881 103.395 398.456 103.394 397.988C103.392 397.535 103.48 397.136 103.655 396.791C103.831 396.442 104.086 396.152 104.418 395.922C104.751 395.686 105.151 395.508 105.62 395.387C106.088 395.265 106.611 395.204 107.189 395.202L108.869 395.196ZM113.776 393.18L113.8 400.305L112.355 400.309L112.327 391.856L113.733 391.852L113.776 393.18ZM116.412 391.796L116.409 393.14C116.289 393.114 116.175 393.099 116.065 393.094C115.961 393.084 115.841 393.079 115.706 393.08C115.372 393.081 115.078 393.134 114.823 393.239C114.569 393.344 114.353 393.49 114.176 393.678C114 393.866 113.86 394.091 113.757 394.352C113.659 394.607 113.595 394.889 113.564 395.196L113.159 395.432C113.157 394.921 113.205 394.442 113.302 393.994C113.405 393.546 113.563 393.149 113.775 392.805C113.987 392.455 114.257 392.183 114.585 391.99C114.918 391.791 115.313 391.69 115.771 391.689C115.876 391.688 115.995 391.701 116.131 391.727C116.266 391.747 116.36 391.77 116.412 391.796ZM121.678 391.825L121.682 392.935L117.112 392.95L117.108 391.841L121.678 391.825ZM118.648 389.781L120.093 389.776L120.121 398.19C120.122 398.476 120.167 398.692 120.256 398.838C120.345 398.983 120.46 399.079 120.601 399.126C120.742 399.172 120.893 399.195 121.054 399.195C121.174 399.194 121.299 399.183 121.429 399.162C121.564 399.136 121.666 399.114 121.734 399.099L121.745 400.278C121.631 400.315 121.48 400.349 121.292 400.381C121.11 400.418 120.889 400.437 120.629 400.438C120.274 400.439 119.949 400.37 119.651 400.231C119.354 400.091 119.116 399.857 118.938 399.53C118.765 399.197 118.678 398.749 118.676 398.187L118.648 389.781ZM126.91 400.417C126.321 400.419 125.787 400.322 125.307 400.126C124.833 399.924 124.423 399.642 124.078 399.278C123.738 398.915 123.476 398.483 123.292 397.984C123.108 397.485 123.015 396.938 123.013 396.344L123.012 396.016C123.01 395.329 123.11 394.716 123.311 394.179C123.512 393.637 123.787 393.178 124.135 392.802C124.482 392.425 124.877 392.14 125.319 391.946C125.761 391.752 126.219 391.654 126.693 391.652C127.297 391.65 127.819 391.753 128.257 391.96C128.7 392.167 129.063 392.457 129.346 392.831C129.628 393.2 129.838 393.637 129.975 394.142C130.112 394.641 130.182 395.188 130.184 395.782L130.186 396.43L123.873 396.451L123.869 395.271L128.736 395.255L128.736 395.146C128.714 394.771 128.635 394.406 128.498 394.053C128.367 393.699 128.157 393.408 127.87 393.18C127.583 392.952 127.192 392.838 126.697 392.84C126.369 392.841 126.067 392.912 125.792 393.054C125.516 393.19 125.28 393.394 125.083 393.666C124.886 393.937 124.733 394.268 124.625 394.659C124.517 395.05 124.464 395.501 124.465 396.011L124.467 396.34C124.468 396.741 124.524 397.118 124.634 397.472C124.75 397.82 124.915 398.127 125.13 398.392C125.349 398.657 125.613 398.864 125.921 399.014C126.234 399.164 126.588 399.239 126.984 399.237C127.494 399.236 127.926 399.13 128.28 398.921C128.633 398.711 128.942 398.431 129.207 398.082L130.084 398.774C129.903 399.051 129.672 399.314 129.391 399.565C129.111 399.816 128.765 400.021 128.354 400.178C127.949 400.336 127.467 400.416 126.91 400.417ZM133.307 393.115L133.331 400.24L131.886 400.245L131.858 391.792L133.264 391.787L133.307 393.115ZM135.944 391.731L135.94 393.075C135.82 393.049 135.706 393.034 135.596 393.029C135.492 393.019 135.372 393.014 135.237 393.015C134.904 393.016 134.609 393.069 134.355 393.174C134.1 393.279 133.884 393.425 133.708 393.614C133.531 393.802 133.391 394.026 133.288 394.287C133.19 394.542 133.126 394.824 133.095 395.131L132.69 395.367C132.688 394.857 132.736 394.377 132.834 393.929C132.936 393.481 133.094 393.084 133.306 392.74C133.519 392.39 133.789 392.118 134.116 391.925C134.449 391.726 134.844 391.625 135.303 391.624C135.407 391.624 135.527 391.636 135.662 391.662C135.798 391.682 135.891 391.705 135.944 391.731ZM146.191 397.955C146.19 397.747 146.143 397.554 146.048 397.377C145.959 397.195 145.774 397.032 145.492 396.887C145.215 396.737 144.798 396.608 144.241 396.5C143.772 396.403 143.347 396.287 142.966 396.153C142.591 396.019 142.27 395.856 142.003 395.664C141.742 395.472 141.541 395.246 141.4 394.986C141.258 394.726 141.187 394.422 141.186 394.073C141.185 393.74 141.256 393.424 141.401 393.127C141.551 392.83 141.761 392.566 142.031 392.336C142.307 392.106 142.637 391.925 143.022 391.794C143.407 391.662 143.836 391.596 144.31 391.594C144.987 391.592 145.566 391.71 146.046 391.948C146.526 392.186 146.894 392.505 147.151 392.905C147.407 393.3 147.536 393.739 147.538 394.224L146.092 394.229C146.092 393.994 146.021 393.768 145.879 393.55C145.743 393.326 145.542 393.142 145.276 392.997C145.015 392.852 144.694 392.78 144.314 392.781C143.913 392.783 143.588 392.846 143.338 392.972C143.094 393.093 142.915 393.247 142.801 393.435C142.692 393.623 142.638 393.821 142.639 394.029C142.639 394.185 142.666 394.326 142.718 394.451C142.776 394.57 142.875 394.682 143.016 394.786C143.157 394.884 143.355 394.977 143.611 395.065C143.866 395.153 144.192 395.24 144.588 395.327C145.282 395.481 145.852 395.667 146.301 395.884C146.75 396.101 147.084 396.369 147.304 396.686C147.524 397.003 147.634 397.388 147.636 397.841C147.637 398.211 147.56 398.549 147.405 398.857C147.255 399.165 147.034 399.431 146.743 399.656C146.458 399.876 146.114 400.049 145.714 400.175C145.318 400.296 144.873 400.358 144.378 400.359C143.634 400.362 143.003 400.231 142.487 399.967C141.97 399.703 141.578 399.361 141.311 398.94C141.044 398.519 140.91 398.074 140.908 397.605L142.361 397.6C142.384 397.996 142.499 398.311 142.708 398.545C142.917 398.773 143.173 398.936 143.476 399.034C143.778 399.127 144.078 399.173 144.375 399.172C144.77 399.171 145.101 399.117 145.366 399.012C145.637 398.907 145.842 398.763 145.982 398.581C146.122 398.398 146.192 398.189 146.191 397.955ZM153.053 391.721L153.057 392.831L148.486 392.846L148.483 391.736L153.053 391.721ZM150.023 389.677L151.468 389.672L151.496 398.086C151.497 398.372 151.542 398.588 151.631 398.734C151.72 398.879 151.835 398.975 151.976 399.022C152.116 399.068 152.268 399.091 152.429 399.09C152.549 399.09 152.674 399.079 152.804 399.058C152.939 399.031 153.041 399.01 153.108 398.994L153.12 400.174C153.006 400.211 152.855 400.245 152.667 400.277C152.485 400.314 152.264 400.333 152.003 400.334C151.649 400.335 151.324 400.266 151.026 400.126C150.729 399.987 150.491 399.753 150.313 399.426C150.14 399.093 150.052 398.645 150.051 398.083L150.023 389.677ZM159.942 398.198L159.92 391.698L161.373 391.694L161.401 400.147L160.018 400.151L159.942 398.198ZM160.209 396.416L160.811 396.399C160.813 396.961 160.754 397.482 160.636 397.962C160.523 398.436 160.337 398.848 160.078 399.198C159.819 399.548 159.478 399.822 159.057 400.022C158.636 400.216 158.123 400.314 157.519 400.316C157.108 400.317 156.73 400.258 156.386 400.14C156.047 400.021 155.754 399.837 155.509 399.588C155.263 399.339 155.072 399.014 154.935 398.613C154.804 398.213 154.737 397.731 154.735 397.169L154.717 391.716L156.162 391.711L156.18 397.18C156.182 397.56 156.224 397.875 156.309 398.124C156.398 398.369 156.516 398.564 156.662 398.709C156.814 398.849 156.981 398.948 157.163 399.004C157.351 399.061 157.544 399.089 157.742 399.088C158.356 399.086 158.843 398.968 159.201 398.732C159.56 398.491 159.817 398.17 159.972 397.769C160.132 397.362 160.211 396.911 160.209 396.416ZM168.927 398.481L168.893 388.122L170.346 388.117L170.386 400.117L169.058 400.121L168.927 398.481ZM163.231 396.008L163.231 395.844C163.229 395.198 163.305 394.612 163.459 394.085C163.619 393.553 163.844 393.097 164.134 392.716C164.43 392.334 164.781 392.042 165.186 391.837C165.597 391.627 166.055 391.522 166.56 391.52C167.091 391.518 167.555 391.61 167.952 391.797C168.353 391.978 168.693 392.245 168.97 392.598C169.252 392.946 169.475 393.367 169.638 393.861C169.801 394.356 169.915 394.915 169.98 395.54L169.982 396.259C169.927 396.879 169.817 397.436 169.652 397.932C169.492 398.427 169.272 398.85 168.992 399.2C168.717 399.549 168.379 399.819 167.979 400.008C167.579 400.191 167.11 400.284 166.574 400.286C166.079 400.287 165.625 400.182 165.213 399.97C164.806 399.758 164.454 399.459 164.156 399.075C163.863 398.69 163.635 398.238 163.471 397.718C163.313 397.192 163.233 396.622 163.231 396.008ZM164.684 395.839L164.684 396.003C164.686 396.425 164.729 396.82 164.813 397.19C164.903 397.559 165.04 397.884 165.223 398.165C165.406 398.446 165.639 398.666 165.92 398.827C166.202 398.982 166.538 399.059 166.929 399.058C167.408 399.056 167.801 398.953 168.108 398.749C168.419 398.545 168.669 398.276 168.855 397.942C169.041 397.608 169.186 397.246 169.289 396.855L169.283 394.972C169.219 394.686 169.127 394.41 169.006 394.145C168.891 393.874 168.739 393.635 168.551 393.428C168.368 393.215 168.141 393.046 167.87 392.922C167.603 392.798 167.288 392.736 166.924 392.738C166.528 392.739 166.187 392.823 165.901 392.991C165.62 393.153 165.389 393.378 165.208 393.665C165.027 393.947 164.892 394.276 164.805 394.651C164.723 395.021 164.682 395.417 164.684 395.839ZM175.008 399.226L177.334 391.641L178.881 391.635L175.523 401.404C175.445 401.613 175.342 401.837 175.212 402.077C175.088 402.323 174.928 402.555 174.73 402.774C174.533 402.994 174.294 403.172 174.013 403.308C173.738 403.449 173.407 403.521 173.022 403.522C172.907 403.522 172.761 403.507 172.584 403.477C172.407 403.446 172.282 403.42 172.209 403.4L172.197 402.228C172.239 402.233 172.304 402.238 172.393 402.243C172.486 402.253 172.552 402.258 172.588 402.258C172.916 402.257 173.195 402.212 173.424 402.122C173.652 402.038 173.845 401.894 174 401.691C174.161 401.492 174.298 401.218 174.412 400.869L175.008 399.226ZM173.256 391.654L175.473 398.209L175.853 399.731L174.816 400.266L171.678 391.659L173.256 391.654ZM187.562 399.028C187.906 399.027 188.223 398.956 188.514 398.814C188.805 398.673 189.044 398.479 189.231 398.234C189.418 397.983 189.524 397.699 189.549 397.381L190.924 397.377C190.899 397.877 190.731 398.343 190.42 398.777C190.114 399.205 189.712 399.553 189.213 399.82C188.714 400.082 188.165 400.214 187.566 400.216C186.93 400.218 186.375 400.108 185.901 399.886C185.431 399.663 185.039 399.357 184.726 398.968C184.417 398.578 184.184 398.131 184.026 397.626C183.873 397.116 183.796 396.577 183.794 396.01L183.793 395.682C183.791 395.114 183.865 394.577 184.014 394.071C184.169 393.561 184.399 393.109 184.705 392.718C185.016 392.326 185.406 392.017 185.874 391.792C186.347 391.566 186.901 391.452 187.537 391.45C188.198 391.448 188.777 391.582 189.272 391.851C189.768 392.115 190.157 392.478 190.44 392.941C190.728 393.398 190.886 393.918 190.914 394.502L189.539 394.506C189.512 394.157 189.412 393.843 189.239 393.562C189.071 393.281 188.841 393.058 188.549 392.892C188.262 392.721 187.926 392.637 187.541 392.638C187.098 392.639 186.726 392.729 186.424 392.907C186.128 393.08 185.892 393.315 185.716 393.613C185.545 393.905 185.421 394.231 185.344 394.59C185.272 394.945 185.237 395.307 185.238 395.677L185.239 396.005C185.24 396.375 185.278 396.739 185.352 397.098C185.426 397.457 185.55 397.783 185.723 398.074C185.901 398.365 186.138 398.598 186.436 398.774C186.739 398.945 187.114 399.03 187.562 399.028ZM193.963 388.038L194.003 400.038L192.557 400.043L192.518 388.043L193.963 388.038ZM193.644 395.493L193.042 395.471C193.045 394.893 193.13 394.359 193.295 393.869C193.46 393.373 193.693 392.943 193.994 392.577C194.294 392.212 194.653 391.929 195.069 391.73C195.49 391.526 195.956 391.422 196.466 391.421C196.883 391.419 197.258 391.475 197.592 391.589C197.926 391.697 198.21 391.873 198.445 392.117C198.686 392.361 198.869 392.678 198.995 393.069C199.121 393.454 199.186 393.925 199.187 394.482L199.206 400.021L197.753 400.026L197.734 394.471C197.733 394.029 197.666 393.675 197.535 393.409C197.404 393.139 197.214 392.944 196.963 392.825C196.713 392.701 196.405 392.64 196.041 392.641C195.681 392.642 195.353 392.719 195.057 392.871C194.766 393.023 194.514 393.232 194.301 393.498C194.094 393.765 193.931 394.07 193.812 394.414C193.699 394.753 193.643 395.112 193.644 395.493ZM200.973 395.882L200.973 395.703C200.971 395.093 201.057 394.528 201.233 394.006C201.408 393.48 201.662 393.023 201.994 392.637C202.326 392.245 202.728 391.942 203.202 391.726C203.675 391.506 204.206 391.395 204.794 391.393C205.388 391.391 205.922 391.499 206.397 391.716C206.877 391.928 207.284 392.229 207.619 392.618C207.959 393.002 208.218 393.457 208.397 393.983C208.576 394.503 208.666 395.068 208.668 395.677L208.669 395.857C208.671 396.466 208.584 397.032 208.409 397.553C208.233 398.074 207.977 398.531 207.64 398.923C207.308 399.309 206.905 399.613 206.432 399.833C205.964 400.048 205.433 400.157 204.839 400.159C204.245 400.161 203.711 400.056 203.236 399.844C202.762 399.626 202.355 399.326 202.015 398.941C201.68 398.552 201.423 398.097 201.245 397.577C201.066 397.057 200.975 396.492 200.973 395.882ZM202.418 395.698L202.419 395.878C202.42 396.299 202.471 396.698 202.571 397.072C202.671 397.442 202.821 397.769 203.02 398.055C203.224 398.341 203.477 398.567 203.78 398.732C204.082 398.893 204.434 398.972 204.835 398.971C205.231 398.97 205.577 398.888 205.873 398.725C206.175 398.558 206.424 398.33 206.621 398.043C206.818 397.756 206.965 397.428 207.063 397.057C207.166 396.682 207.217 396.283 207.215 395.862L207.215 395.682C207.213 395.265 207.16 394.872 207.055 394.503C206.954 394.128 206.802 393.798 206.598 393.512C206.399 393.221 206.149 392.993 205.846 392.827C205.549 392.661 205.199 392.579 204.798 392.581C204.402 392.582 204.054 392.666 203.752 392.834C203.456 393.002 203.207 393.232 203.005 393.524C202.808 393.811 202.66 394.142 202.563 394.518C202.465 394.888 202.417 395.281 202.418 395.698ZM212.037 391.525L212.065 399.978L210.612 399.983L210.584 391.53L212.037 391.525ZM210.467 389.288C210.466 389.054 210.536 388.856 210.676 388.694C210.821 388.532 211.035 388.45 211.316 388.45C211.592 388.449 211.803 388.529 211.949 388.69C212.101 388.851 212.177 389.048 212.178 389.283C212.179 389.507 212.104 389.7 211.953 389.861C211.808 390.018 211.597 390.097 211.321 390.098C211.04 390.099 210.826 390.021 210.68 389.866C210.539 389.705 210.468 389.512 210.467 389.288ZM217.765 398.928C218.108 398.927 218.426 398.856 218.717 398.714C219.008 398.572 219.247 398.379 219.434 398.134C219.621 397.883 219.726 397.599 219.751 397.281L221.126 397.276C221.102 397.776 220.934 398.243 220.623 398.676C220.317 399.105 219.915 399.452 219.416 399.72C218.917 399.982 218.368 400.114 217.769 400.116C217.133 400.118 216.578 400.008 216.104 399.785C215.634 399.563 215.242 399.257 214.929 398.867C214.62 398.478 214.387 398.031 214.229 397.526C214.076 397.016 213.999 396.477 213.997 395.909L213.996 395.581C213.994 395.014 214.068 394.477 214.217 393.971C214.372 393.46 214.602 393.009 214.908 392.617C215.219 392.226 215.609 391.917 216.077 391.692C216.55 391.466 217.104 391.352 217.74 391.35C218.401 391.348 218.98 391.481 219.475 391.751C219.971 392.015 220.36 392.378 220.643 392.84C220.931 393.298 221.089 393.818 221.117 394.401L219.742 394.406C219.715 394.057 219.615 393.742 219.442 393.462C219.274 393.181 219.044 392.958 218.752 392.792C218.465 392.621 218.129 392.536 217.744 392.538C217.301 392.539 216.929 392.629 216.627 392.807C216.331 392.98 216.095 393.215 215.919 393.512C215.748 393.805 215.624 394.131 215.547 394.49C215.475 394.845 215.44 395.207 215.441 395.576L215.442 395.905C215.443 396.274 215.481 396.639 215.555 396.998C215.629 397.357 215.753 397.682 215.926 397.973C216.104 398.264 216.341 398.498 216.639 398.674C216.942 398.845 217.317 398.93 217.765 398.928ZM226.269 400.087C225.68 400.089 225.146 399.992 224.666 399.796C224.191 399.594 223.782 399.312 223.437 398.948C223.097 398.585 222.835 398.153 222.651 397.654C222.467 397.155 222.374 396.608 222.372 396.014L222.371 395.686C222.369 394.999 222.468 394.386 222.67 393.849C222.871 393.307 223.146 392.848 223.493 392.472C223.841 392.095 224.236 391.81 224.678 391.616C225.12 391.422 225.578 391.324 226.052 391.322C226.656 391.32 227.177 391.423 227.616 391.63C228.059 391.837 228.422 392.127 228.704 392.501C228.987 392.87 229.197 393.307 229.334 393.812C229.471 394.311 229.54 394.858 229.542 395.452L229.544 396.1L223.232 396.121L223.228 394.941L228.095 394.925L228.095 394.816C228.073 394.441 227.993 394.076 227.857 393.723C227.726 393.369 227.516 393.078 227.229 392.85C226.942 392.622 226.551 392.508 226.056 392.51C225.728 392.511 225.426 392.582 225.15 392.724C224.875 392.86 224.639 393.064 224.442 393.336C224.245 393.607 224.092 393.938 223.984 394.329C223.876 394.72 223.823 395.171 223.824 395.681L223.825 396.01C223.827 396.411 223.883 396.788 223.993 397.142C224.109 397.49 224.274 397.797 224.488 398.062C224.708 398.327 224.972 398.534 225.28 398.684C225.593 398.834 225.947 398.909 226.343 398.907C226.853 398.906 227.285 398.8 227.639 398.591C227.992 398.381 228.301 398.101 228.566 397.752L229.443 398.444C229.262 398.721 229.031 398.984 228.75 399.235C228.47 399.486 228.124 399.691 227.713 399.848C227.307 400.006 226.826 400.086 226.269 400.087ZM236.159 397.656C236.158 397.448 236.111 397.255 236.017 397.078C235.927 396.896 235.742 396.733 235.46 396.588C235.184 396.438 234.767 396.309 234.209 396.202C233.74 396.104 233.315 395.988 232.934 395.854C232.559 395.72 232.238 395.557 231.972 395.365C231.711 395.173 231.509 394.948 231.368 394.688C231.226 394.428 231.155 394.123 231.154 393.774C231.153 393.441 231.225 393.126 231.37 392.828C231.52 392.531 231.73 392.267 232 392.037C232.275 391.807 232.605 391.626 232.99 391.495C233.375 391.363 233.805 391.297 234.279 391.295C234.956 391.293 235.534 391.411 236.014 391.649C236.494 391.887 236.862 392.206 237.119 392.606C237.375 393.001 237.504 393.441 237.506 393.925L236.061 393.93C236.06 393.695 235.989 393.469 235.848 393.251C235.711 393.027 235.51 392.843 235.244 392.698C234.983 392.553 234.663 392.481 234.282 392.483C233.881 392.484 233.556 392.548 233.307 392.673C233.062 392.794 232.883 392.948 232.769 393.136C232.66 393.324 232.606 393.522 232.607 393.73C232.607 393.887 232.634 394.027 232.686 394.152C232.744 394.272 232.843 394.383 232.984 394.487C233.125 394.585 233.324 394.679 233.579 394.766C233.835 394.854 234.16 394.941 234.557 395.029C235.25 395.183 235.821 395.368 236.269 395.585C236.718 395.803 237.052 396.07 237.272 396.387C237.492 396.704 237.602 397.089 237.604 397.542C237.605 397.912 237.528 398.251 237.373 398.558C237.223 398.866 237.003 399.132 236.712 399.357C236.426 399.577 236.083 399.75 235.682 399.876C235.287 399.998 234.842 400.059 234.347 400.061C233.602 400.063 232.971 399.932 232.455 399.668C231.938 399.405 231.547 399.062 231.279 398.641C231.012 398.22 230.878 397.775 230.877 397.306L232.33 397.302C232.352 397.697 232.468 398.012 232.677 398.246C232.886 398.474 233.141 398.637 233.444 398.735C233.746 398.828 234.046 398.874 234.343 398.873C234.739 398.872 235.069 398.819 235.334 398.714C235.605 398.608 235.81 398.465 235.95 398.282C236.09 398.099 236.16 397.89 236.159 397.656ZM239.531 399.121C239.53 398.877 239.605 398.671 239.756 398.504C239.911 398.331 240.135 398.244 240.427 398.244C240.718 398.243 240.94 398.328 241.092 398.499C241.248 398.665 241.327 398.871 241.328 399.116C241.329 399.355 241.251 399.558 241.096 399.726C240.945 399.893 240.724 399.977 240.432 399.978C240.141 399.979 239.917 399.896 239.76 399.73C239.608 399.564 239.532 399.361 239.531 399.121Z" fill="black"/>
<defs>
<filter id="filter0_d_0_1" x="0" y="0" width="406" height="496" filterUnits="userSpaceOnUse" color-interpolation-filters="sRGB">
<feFlood flood-opacity="0" result="BackgroundImageFix"/>
<feColorMatrix in="SourceAlpha" type="matrix" values="0 0 0 0 0 0 0 0 0 0 0 0 0 0 0 0 0 0 127 0" result="hardAlpha"/>
<feOffset dx="4" dy="4"/>
<feGaussianBlur stdDeviation="2"/>
<feComposite in2="hardAlpha" operator="out"/>
<feColorMatrix type="matrix" values="0 0 0 0 0.804167 0 0 0 0 0.804167 0 0 0 0 0.804167 0 0 0 0.25 0"/>
<feBlend mode="normal" in2="BackgroundImageFix" result="effect1_dropShadow_0_1"/>
<feBlend mode="normal" in="SourceGraphic" in2="effect1_dropShadow_0_1" result="shape"/>
</filter>
<filter id="filter1_d_0_1" x="138" y="114" width="92.0132" height="9" filterUnits="userSpaceOnUse" color-interpolation-filters="sRGB">
<feFlood flood-opacity="0" result="BackgroundImageFix"/>
<feColorMatrix in="SourceAlpha" type="matrix" values="0 0 0 0 0 0 0 0 0 0 0 0 0 0 0 0 0 0 127 0" result="hardAlpha"/>
<feOffset dy="4"/>
<feGaussianBlur stdDeviation="2"/>
<feComposite in2="hardAlpha" operator="out"/>
<feColorMatrix type="matrix" values="0 0 0 0 0 0 0 0 0 0 0 0 0 0 0 0 0 0 0.25 0"/>
<feBlend mode="normal" in2="BackgroundImageFix" result="effect1_dropShadow_0_1"/>
<feBlend mode="normal" in="SourceGraphic" in2="effect1_dropShadow_0_1" result="shape"/>
</filter>
<filter id="filter2_d_0_1" x="189" y="134" width="153" height="129" filterUnits="userSpaceOnUse" color-interpolation-filters="sRGB">
<feFlood flood-opacity="0" result="BackgroundImageFix"/>
<feColorMatrix in="SourceAlpha" type="matrix" values="0 0 0 0 0 0 0 0 0 0 0 0 0 0 0 0 0 0 127 0" result="hardAlpha"/>
<feOffset dx="4" dy="4"/>
<feGaussianBlur stdDeviation="2"/>
<feComposite in2="hardAlpha" operator="out"/>
<feColorMatrix type="matrix" values="0 0 0 0 0.804167 0 0 0 0 0.804167 0 0 0 0 0.804167 0 0 0 0.25 0"/>
<feBlend mode="normal" in2="BackgroundImageFix" result="effect1_dropShadow_0_1"/>
<feBlend mode="normal" in="SourceGraphic" in2="effect1_dropShadow_0_1" result="shape"/>
</filter>
</defs>
</svg>