<svg viewBox="-40 120 3279.9999999999995 1800.0000000000002" xmlns="http://www.w3.org/2000/svg" xmlns:xlink="http://www.w3.org/1999/xlink" overflow="visible" width="3279.9999999999995px" height="1800.0000000000002px"><defs><polygon id="masterscenesonline-searching-path-5" points="0.885 0.4042 225.003 0.4042 225.003 229 0.885 229"/><polygon id="masterscenesonline-searching-path-7" points="0.354636271 0.4782 167.3115 0.4782 167.3115 15 0.354636271 15"/><path d="M363.685,181.685 C363.685,81.345 282.34,0 182,0 C81.66,0 0.315,81.345 0.315,181.685 C0.315,282.02 81.66,363.365 182,363.365 C282.34,363.365 363.685,282.02 363.685,181.685" id="masterscenesonline-searching-path-1"/><path d="M363.685,181.685 C363.685,81.345 282.34,0 182,0 C81.66,0 0.315,81.345 0.315,181.685 C0.315,282.02 81.66,363.365 182,363.365 C282.34,363.365 363.685,282.02 363.685,181.685" id="masterscenesonline-searching-path-3"/></defs><g id="Master/Scenes/Online Searching" stroke="none" stroke-width="1" fill="none" fill-rule="evenodd"><g id="Background" transform="translate(-112.000000, -177.000000)"><g id="Outdoor Plants" transform="translate(2557.000000, 1085.000000) scale(1 1)"><g id="Outdoor Plants/Bush" stroke="none" stroke-width="1" fill="none" fill-rule="evenodd"><g id="Group-16-Copy" transform="translate(98.000000, 689.000000)"><path d="M2.39500229,275.969448 C4.95578,275.610539 7.81571397,276.244612 10.3764917,275.885703 L558,275.885703 C557.748709,255.057012 545.866222,224.872758 527.67752,214.67974 C509.500785,204.498686 485.903338,204.821704 468.013793,215.46934 C476.079046,172.735231 481.918576,128.086941 470.155752,86.2022508 C458.41686,44.3175605 424.971188,5.75876099 381.773022,0.590470148 C341.267263,-4.24283888 301.934196,21.2038153 278.611973,54.6661058 C255.28975,88.1283962 244.831246,128.637268 234.815494,168.165122 C235.952288,149.465959 226.678444,130.479668 211.253946,119.855959 C195.817483,109.23225 174.768847,107.365923 157.704973,115.094432 C138.654702,123.720214 125.982442,142.814177 120.107013,162.889159 C114.24355,182.976104 114.255516,204.223522 114.315347,225.135958 C102.109771,197.476031 66.8212974,182.581304 38.4971814,193.133231 C10.1610992,203.697122 -6.48395591,247.077267 2.39500229,275.969448" id="Fill-1" fill="#F67A49"/><path d="M118.397008,275.974803 C119.891241,275.760692 121.552828,276.153228 123.047061,275.927223 L442,275.927223 C441.856554,263.85377 434.923314,246.356186 424.344146,240.456253 C413.753025,234.556319 400.018038,234.734745 389.59427,240.920159 C394.292138,216.142818 397.687034,190.247344 390.849426,165.969594 C383.999863,141.691845 364.515068,119.341089 339.352189,116.343542 C315.76722,113.536316 292.863621,128.286149 279.27208,147.686938 C265.692493,167.087727 259.607977,190.556615 253.762539,213.478332 C254.420001,202.641962 249.02881,191.639062 240.039506,185.489334 C231.050202,179.32771 218.785539,178.233367 208.85188,182.717792 C197.758697,187.725599 190.37121,198.787974 186.952406,210.42131 C183.545555,222.066541 183.545555,234.389789 183.581417,246.498926 C176.480823,230.476325 155.92018,221.840536 139.423851,227.966474 C122.915568,234.080518 113.220986,259.226605 118.397008,275.974803" id="Fill-4" fill="#FFB201"/></g></g></g><g id="Screen" transform="translate(591.000000, 705.000000) scale(1 1)"><defs><path d="M363.685,181.685 C363.685,81.345 282.34,0 182,0 C81.66,0 0.315,81.345 0.315,181.685 C0.315,282.02 81.66,363.365 182,363.365 C282.34,363.365 363.685,282.02 363.685,181.685" id="screenlaptop-1-path-1"/><path d="M363.685,181.685 C363.685,81.345 282.34,0 182,0 C81.66,0 0.315,81.345 0.315,181.685 C0.315,282.02 81.66,363.365 182,363.365 C282.34,363.365 363.685,282.02 363.685,181.685" id="screenlaptop-1-path-3"/></defs><g id="Screen/Laptop 1" stroke="none" stroke-width="1" fill="none" fill-rule="evenodd"><g id="Group"><path d="M2021.3995,1329.31 L156.8995,1329.31 C116.6695,1329.31 84.0595,1296.705 84.0595,1256.475 L84.0595,72.835 C84.0595,32.61 116.6695,-2.27373675e-13 156.8995,-2.27373675e-13 L2021.3995,-2.27373675e-13 C2061.6295,-2.27373675e-13 2094.2345,32.61 2094.2345,72.835 L2094.2345,1256.475 C2094.2345,1296.705 2061.6295,1329.31 2021.3995,1329.31" id="Fill-1" fill="#008BF2"/><path d="M2088.885,1347.308 L88.985,1347.308 C39.84,1347.308 0,1307.463 0,1258.318 L0,1230.993 L2177.875,1230.993 L2177.875,1258.318 C2177.875,1307.463 2138.03,1347.308 2088.885,1347.308" id="Fill-4" fill="#276DFF"/><polygon id="Fill-7" fill="#FFF" points="138.0175 1175.397 2034.6575 1175.397 2034.6575 52.812 138.0175 52.812"/><polygon id="Fill-9" fill="#090E2B" points="890.987 1230.9945 918.012 1273.9845 1298.292 1273.9845 1323.392 1230.9945"/><g id="Group-3" transform="translate(287.478500, 665.002500)"><g id="Face"><mask id="screenlaptop-1-mask-2" fill="#ffffff"><use xlink:href="#screenlaptop-1-path-1" fill="#ffffff"/></mask><use id="Mask" fill="#FFDFEA" xlink:href="#screenlaptop-1-path-1"/><g id="Character-2" mask="url(#screenlaptop-1-mask-2)"><g transform="translate(-13.000000, 9.422000)"><path d="M213.972307,222.517402 C213.972307,222.517402 207.254058,264.694548 213.762956,277.264565 C218.945634,287.273819 249.523831,300.962858 249.523831,300.962858 L255,330.345184 L141.468913,342 C128.331918,339.085547 80.7772962,326.899195 95.9567113,307.851838 C111.135125,288.804481 143.290964,283.552071 148.517715,275.109448 C158.553518,258.900611 160.387589,225.951401 160.111126,213.505277 C160.111126,210.413978 213.972307,222.517402 213.972307,222.517402" id="neck" fill="#09B9C6"/><g id="t-shirt" stroke-width="1" fill="none" transform="translate(31.000000, 287.000000)"><path d="M89.4468,0.0136764189 C102.8688,2.67167642 149.2358,34.6536764 177.6858,31.5776764 C192.0658,30.0236764 203.8198,5.46367642 204.2708,4.91467642 C204.576334,4.54492662 218.843092,11.9835019 231.055751,19.7322048 L231.0582,19.7031764 L231.0582,19.7031764 C231.135221,19.7651796 231.222432,19.8308242 231.319419,19.9003197 C231.863961,20.2463015 232.403006,20.5926111 232.936312,20.9387644 C239.599781,25.0355541 258.899602,36.4407721 265.3982,68.0261764 C268.0352,80.8401764 285.0832,128.800176 300.1392,167.597176 C288.335776,185.699803 275.3929,186.242882 241.16511,186.259174 L237.927661,186.259678 L237.927661,186.259678 C229.857644,186.259678 155.328216,189.846496 72.662627,186.259678 C38.2055127,184.764601 8.73269423,183.264728 1.25005975,158 C-2.84486358,144.173704 13.2909823,83.3129264 12.1768,74.8846764 C8.8578,49.7816764 26.8658,32.3416764 33.1348,27.1536764 C54.0788,9.82167642 87.2148,-0.427323581 89.4468,0.0136764189 Z" id="T-Shirt" fill="#FF0057"/><path d="M255.6453,102.608676 C258.0363,112.136676 258.064419,120.171504 257.606419,129.951504 C256.453079,147.259988 253.873594,145.961005 249.782594,166.732005 C247.698594,177.309005 246.534594,183.736005 245.868594,185.399005 C244.964594,187.656005 245.234594,181.318005 247.753594,166.371005 C250.267594,149.368005 252.892902,151.271638 254.510902,134.292638 C256.128902,117.313638 255.5623,114.940676 252.8243,102.383676 C250.3413,91.3246764 246.4643,81.4866764 243.1413,70.6196764 C242.9503,69.1046764 239.1053,59.6106764 241.0533,61.0176764 C245.5873,74.8956764 251.9913,88.4526764 255.6453,102.608676 Z" id="Fill-15" fill="#090E2B"/><path d="M96.8404,74.2851764 C93.7574,101.612176 89.1684,128.761176 83.1614,155.596176 C82.2654,157.756176 75.4204,187.256176 75.1164,182.060176 C75.0774,181.382176 75.2134,180.032176 75.3544,179.363176 C80.6594,154.144176 86.1554,126.484176 90.7034,101.126176 C90.7044,101.126176 95.4114,74.0911764 95.4114,74.0911764 C95.5384,73.2221764 96.9564,73.3601764 96.8404,74.2851764" id="Fill-17" fill="#090E2B"/></g><g id="Head" stroke-width="1" fill="none" transform="translate(43.000000, 0.000000)"><path d="M172.750436,123.673215 C181.557667,108.745196 199.106925,88.6932061 230.141424,95.6440364 C273.229251,105.294464 235.7643,153.087 237.6813,176.044 C244.6903,259.99 223.691575,291.326 194.4633,291.326 C165.633543,291.326 152.716829,272.531922 167.8583,235.389 C181.469468,202 156.532456,151.162251 172.750436,123.673215 Z" id="Fill-1" fill="#090E2B"/><path d="M234.848949,163.885475 C232.942649,191.560432 241.123118,249.878015 201.29748,260.203135 C173.36764,267.444173 110.311063,248.579884 103.276658,201.477616 C102.046318,193.23928 88.8110684,143.437961 121.79356,114.65996 C150.3729,89.7238126 226.222248,92.3469712 232.718352,105.216043 C244.807119,129.164429 236.755249,136.210518 234.848949,163.885475 Z" id="Fill-4" fill="#09B9C6"/><path d="M237.603038,103.221619 C239.025848,118.481668 225.330156,127.182873 206.488422,130.336394 C177.59303,135.172586 147.011189,128.954083 127.124348,145.641593 C121.289634,150.537637 127.072681,170.703956 120.574681,176.920956 C116.314681,180.995956 114.36699,172.243021 114.14799,171.477021 C112.27999,164.953021 110.267031,170.610727 107.622031,169.289727 C106.838031,193.824727 106.838031,208.48543 118.7562,227.334768 C132.788009,249.526962 163.406531,304.845442 153.793292,347 C141.472103,401.029063 71.580246,413.225066 83.4284519,336.190768 C95.2766578,259.15647 57.6589481,273.146983 57.6559481,223.783983 C57.6529481,191.521983 77.3517084,164.160122 83.4284519,125.164426 C95.2766578,49.1320851 135.97534,40.854482 183.415368,53.3378562 C216.713053,62.0998128 236.04809,86.5443478 237.603038,103.221619 Z" id="Fill-6" fill="#090E2B"/><path d="M102.271722,163.023106 C97.3166078,162.654238 86.4745543,163.725043 90.9927759,185.83565 C93.9563575,200.338389 113.042311,203.391002 117.062687,202.616683 C124.257151,201.229616 117.611469,190.122232 117.062687,179.804078 C116.690803,172.831144 111.458282,163.708003 102.271722,163.023106 Z" id="Fill-9" fill="#09B9C6"/><path d="M162.122346,256.020918 C162.376346,256.116918 162.793001,257.295741 162.526001,257.346741 C157.131001,258.395741 143.458313,253.166394 135.058313,245.948394 C134.075313,245.103394 130.395313,241.885394 132.088313,242.314394 C139.611313,247.511394 159.614346,255.083918 162.122346,256.020918 Z" id="Fill-11" fill="#090E2B"/><path d="M98.7621,171.4166 C96.1761,171.5516 95.2181,174.2336 97.7951,174.0726 C101.1761,173.8616 105.4961,176.9886 107.5011,179.5376 C105.0641,179.8306 103.0591,180.4216 101.2001,182.4326 C100.0751,183.6496 100.1801,185.0626 101.4441,183.9976 C104.5421,181.3886 107.6001,181.2946 108.5041,181.3496 C108.6501,181.4696 110.4571,185.6546 110.7401,187.4306 C112.7531,187.9676 109.6011,170.8536 98.7621,171.4166" id="Fill-13" fill="#090E2B"/></g><g id="Face" stroke-width="1" fill="none" transform="translate(164.000000, 133.000000)"><g id="eye1" transform="translate(24.000079, 12.999886)"><path d="M4.87822092,23.1366138 C4.87822092,23.1366138 13.0082209,15.1016138 26.8302209,17.6006138 C38.0772209,19.6346138 42.2992209,28.8076138 42.2693796,30.3186138 C41.5022209,33.3806138 35.9152209,36.1726138 32.0652209,37.4256138 C28.2142209,38.6796138 8.96622092,40.2646138 4.87822092,23.1366138" id="white" fill="#FFF"/><path d="M34.2308209,25.6942138 C34.3618209,30.5952138 29.8628209,34.6922138 24.1828209,34.8432138 C18.5028209,34.9952138 13.7928209,31.1442138 13.6618209,26.2432138 C13.5308209,21.3412138 16.5318209,17.0532138 23.7098209,17.0932138 C29.3908209,17.1252138 34.0998209,20.7922138 34.2308209,25.6942138" id="Fill-3" fill="#090E2B"/><path d="M1.25032092,21.2440138 C2.46732092,21.3180138 3.78332092,22.1320138 4.93432092,22.1190138 L4.82132092,22.1840138 C14.0673209,13.2390138 33.9963209,13.0410138 40.0953209,24.3590138 C40.6603209,25.4080138 41.8153209,27.6770138 41.7353209,28.5680138 C41.7143209,28.7990138 41.1883209,28.1740138 41.0293209,28.0060138 C39.0393209,25.8850138 36.5713209,23.6590138 34.0683209,22.2170138 C25.2963209,17.1580138 14.2303209,16.9970138 5.36732092,23.1230138 C3.87232092,24.9010138 -2.44667908,22.3950138 1.25032092,21.2440138" id="Fill-5" fill="#090E2B"/><path d="M39.3724209,11.7831138 C27.5314209,6.24511384 13.9354209,4.53011384 2.04642092,11.0711138 C1.30642092,11.4431138 -0.268579075,11.1581138 0.0394209246,10.3871138 C0.809420925,8.46011384 4.12842092,5.38411384 7.14142092,3.72811384 C17.0154209,-1.69688616 32.5884209,-1.43488616 40.2934209,6.05911384 C42.5904209,7.64911384 43.6434209,12.8471138 39.3724209,11.7831138" id="Fill-14" fill="#090E2B"/></g><g id="eye2" transform="translate(82.117990, 14.377145)"><path d="M0.206608889,28.3658549 C0.206608889,29.1698549 4.54561037,34.1568549 14.5696104,34.1398983 C22.2946104,34.1268549 30.8266104,27.1508549 31.1276104,23.7498549 C31.4286104,20.3478549 25.1726104,16.5478549 18.1416104,16.0408549 C8.30761037,15.3328549 0.202610369,22.9968549 0.206608889,28.3658549" id="white" fill="#FFF"/><path d="M24.570912,22.2046549 C24.5739104,28.2416549 20.3149104,31.9926549 15.6719104,32.1166549 C11.0289104,32.2406549 6.95091037,29.3726549 6.20391037,24.7886549 C5.23291037,18.8266549 10.6589104,15.8296549 15.3009104,15.7056549 C19.9439104,15.5816549 24.5689104,17.5596549 24.570912,22.2046549" id="Fill-10" fill="#090E2B"/><path d="M0.0201103689,26.4273549 C1.25211037,15.4753549 17.4011104,11.5293549 25.9761104,16.3743549 C28.2491104,17.6593549 29.8071104,19.1303549 30.6171104,21.7593549 C30.6751104,21.9523549 30.4141104,21.9123549 29.8821104,21.6013549 C28.3761104,20.7223549 27.2161104,20.1253549 25.5041104,19.5243549 C16.8261104,16.4773549 6.03811037,17.8623549 1.47411037,26.9423549 C1.09011037,27.7243549 -0.173889631,27.2703549 0.0201103689,26.4273549" id="Fill-12" fill="#090E2B"/><path d="M1.31401037,6.80035493 C4.45201037,-0.809645071 16.6250104,-0.916645071 24.0670104,1.13235493 C25.9330104,1.64735493 27.5020104,2.29635493 28.5560104,2.99635493 C30.4970104,4.28435493 31.6110104,6.59335493 28.5170104,6.76235493 C27.4100104,6.82235493 25.6510104,6.35935493 24.5710104,6.20935493 C18.2020104,5.32435493 11.7630104,6.67135493 6.00701037,9.61035493 C3.79301037,11.0143549 -0.108989631,9.87635493 1.31401037,6.80035493" id="Fill-17" fill="#090E2B"/></g><path d="M79.5163974,56.0474227 C79.9047316,56.0474227 82.4878873,60.4695558 83.4356699,62.0222568 C86.4544009,66.9676809 89.7813295,72.5049636 84.8702,75.6883 C82.4912,77.2313 75.0122,74.8407787 75.0122,73.0253 C75.0122,70.2632077 81.8382,75.1193 83.4442,72.3153 C84.3857451,70.8872578 80.8590997,63.6440183 79.5163974,59.348811 C78.7670658,56.9517537 79.1280631,56.0474227 79.5163974,56.0474227 Z" id="nose" fill="#090E2B"/><g id="lips" transform="translate(55.983409, 85.182851)" fill="#090E2B"><path d="M22.9913913,0.0106487718 C30.3673913,-0.273351228 36.7023913,5.20264877 37.8773913,6.94964877 C39.0513913,8.69764877 38.5523913,9.32264877 37.9423913,9.41064877 C35.5463913,9.75864877 32.7193913,9.03764877 28.5613913,8.51364877 C25.0333913,8.06764877 20.2143913,10.0106488 17.4783913,10.0836488 C14.7443913,10.1566488 9.08812797,8.01233298 9.17412797,6.09433298 C9.26012797,4.17633298 16.5623913,0.257648772 22.9913913,0.0106487718 Z" id="Fill-21"/><path d="M16.0558913,11.4852488 C25.3758913,13.6272488 33.7108913,11.6752488 35.8068913,11.6192488 C37.9028913,11.5642488 42.2298913,10.0342488 42.6438913,12.9912488 C42.7938913,14.0702488 30.1368913,26.5102488 11.6928913,20.7592488 C2.75589126,17.9722488 -2.01210874,6.94024877 0.810891258,6.51324877 C5.05889126,5.86924877 5.83089126,9.13424877 16.0558913,11.4852488 Z" id="Fill-23"/></g></g><g id="Face-Add-On" stroke-width="1" fill="none" transform="translate(161.000000, 183.000000)" fill-opacity="0"/><g id="Glass" stroke-width="1" fill="none" transform="translate(164.000000, 138.000000)" fill-opacity="0"/></g></g></g><path d="M455.3925,44.009 L458.6475,54.029 C459.1025,55.419 460.3975,56.369 461.8625,56.369 L472.3975,56.369 C475.6775,56.369 477.0375,60.559 474.3875,62.484 L465.8675,68.679 C464.6775,69.534 464.1825,71.064 464.6375,72.454 L467.8925,82.474 C468.9075,85.589 465.3375,88.184 462.6875,86.254 L454.1625,80.064 C452.9825,79.204 451.3725,79.204 450.1875,80.064 L441.6675,86.254 C439.0175,88.184 435.4475,85.589 436.4625,82.474 L439.7175,72.454 C440.1725,71.064 439.6725,69.534 438.4875,68.679 L429.9675,62.484 C427.3125,60.559 428.6775,56.369 431.9575,56.369 L442.4875,56.369 C443.9525,56.369 445.2525,55.419 445.7075,54.029 L448.9575,44.009 C449.9725,40.894 454.3825,40.894 455.3925,44.009" id="Fill-70" fill="#FFB201"/><path d="M524.382,44.009 L527.637,54.029 C528.087,55.419 529.387,56.369 530.852,56.369 L541.387,56.369 C544.662,56.369 546.027,60.559 543.372,62.484 L534.852,68.679 C533.667,69.534 533.172,71.064 533.627,72.454 L536.882,82.474 C537.892,85.589 534.327,88.184 531.672,86.254 L523.152,80.064 C521.967,79.204 520.362,79.204 519.177,80.064 L510.652,86.254 C508.002,88.184 504.437,85.589 505.447,82.474 L508.702,72.454 C509.157,71.064 508.662,69.534 507.477,68.679 L498.952,62.484 C496.302,60.559 497.667,56.369 500.942,56.369 L511.472,56.369 C512.942,56.369 514.242,55.419 514.692,54.029 L517.947,44.009 C518.962,40.894 523.367,40.894 524.382,44.009" id="Fill-72" fill="#FFB201"/><path d="M593.3685,44.009 L596.6235,54.029 C597.0735,55.419 598.3735,56.369 599.8385,56.369 L610.3735,56.369 C613.6485,56.369 615.0135,60.559 612.3635,62.484 L603.8385,68.679 C602.6535,69.534 602.1585,71.064 602.6135,72.454 L605.8685,82.474 C606.8785,85.589 603.3135,88.184 600.6585,86.254 L592.1385,80.064 C590.9535,79.204 589.3485,79.204 588.1635,80.064 L579.6385,86.254 C576.9885,88.184 573.4235,85.589 574.4335,82.474 L577.6885,72.454 C578.1435,71.064 577.6485,69.534 576.4635,68.679 L567.9385,62.484 C565.2885,60.559 566.6535,56.369 569.9285,56.369 L580.4585,56.369 C581.9285,56.369 583.2285,55.419 583.6785,54.029 L586.9335,44.009 C587.9485,40.894 592.3535,40.894 593.3685,44.009" id="Fill-74" fill="#FFB201"/><path d="M662.3555,44.009 L665.6105,54.029 C666.0605,55.419 667.3605,56.369 668.8255,56.369 L679.3605,56.369 C682.6355,56.369 684.0005,60.559 681.3505,62.484 L672.8255,68.679 C671.6405,69.534 671.1455,71.064 671.6005,72.454 L674.8555,82.474 C675.8655,85.589 672.3005,88.184 669.6455,86.254 L661.1255,80.064 C659.9405,79.204 658.3355,79.204 657.1505,80.064 L648.6255,86.254 C645.9755,88.184 642.4105,85.589 643.4205,82.474 L646.6805,72.454 C647.1305,71.064 646.6355,69.534 645.4505,68.679 L636.9305,62.484 C634.2755,60.559 635.6405,56.369 638.9155,56.369 L649.4505,56.369 C650.9155,56.369 652.2155,55.419 652.6655,54.029 L655.9205,44.009 C656.9355,40.894 661.3405,40.894 662.3555,44.009" id="Fill-76" fill="#FFB201"/><path d="M731.34,44.009 L734.595,54.029 C735.05,55.419 736.35,56.369 737.815,56.369 L748.345,56.369 C751.625,56.369 752.985,60.559 750.335,62.484 L741.815,68.679 C740.625,69.534 740.135,71.064 740.585,72.454 L743.84,82.474 C744.85,85.589 741.285,88.184 738.635,86.254 L730.115,80.064 C728.93,79.204 727.32,79.204 726.135,80.064 L717.615,86.254 C714.965,88.184 711.4,85.589 712.41,82.474 L715.665,72.454 C716.115,71.064 715.62,69.534 714.435,68.679 L705.915,62.484 C703.265,60.559 704.625,56.369 707.905,56.369 L718.435,56.369 C719.9,56.369 721.2,55.419 721.655,54.029 L724.91,44.009 C725.92,40.894 730.33,40.894 731.34,44.009" id="Fill-78" fill="#CBD9EC"/><path d="M820.2305,161.724 L450.2205,161.724 C440.4855,161.724 432.5955,153.834 432.5955,144.099 L432.5955,136.129 C432.5955,126.399 440.4855,118.504 450.2205,118.504 L820.2305,118.504 C829.9605,118.504 837.8505,126.399 837.8505,136.129 L837.8505,144.099 C837.8505,153.834 829.9605,161.724 820.2305,161.724" id="Fill-80" fill="#C7D2F2" fill-rule="nonzero"/><line x1="434.921" y1="216.27" x2="1458.019" y2="216.5" id="Stroke-85" stroke="#C7D2F2" stroke-width="15" stroke-linecap="round" stroke-linejoin="round"/><line x1="434.921" y1="276.128" x2="973.64" y2="276.128" id="Stroke-86" stroke="#C7D2F2" stroke-width="15" stroke-linecap="round" stroke-linejoin="round"/></g><g id="Group-2-Copy" transform="translate(287.478500, 194.002500)"><g id="Face-Copy"><mask id="screenlaptop-1-mask-4" fill="#ffffff"><use xlink:href="#screenlaptop-1-path-3" fill="#ffffff"/></mask><use id="Mask" fill="#DCD6FF" xlink:href="#screenlaptop-1-path-3"/><g id="Character-1" mask="url(#screenlaptop-1-mask-4)"><g transform="translate(-13.000000, 9.422000)"><path d="M213.972307,222.517402 C213.972307,222.517402 207.254058,264.694548 213.762956,277.264565 C218.945634,287.273819 249.523831,300.962858 249.523831,300.962858 L255,330.345184 L141.468913,342 C128.331918,339.085547 80.7772962,326.899195 95.9567113,307.851838 C111.135125,288.804481 143.290964,283.552071 148.517715,275.109448 C158.553518,258.900611 160.387589,225.951401 160.111126,213.505277 C160.111126,210.413978 213.972307,222.517402 213.972307,222.517402" id="neck" fill="#09B9C6"/><g id="t-shirt" stroke-width="1" fill="none" transform="translate(31.000000, 287.000000)"><path d="M89.4468,0.0136764189 C102.8688,2.67167642 149.2358,34.6536764 177.6858,31.5776764 C192.0658,30.0236764 203.8198,5.46367642 204.2708,4.91467642 C204.576334,4.54492662 218.843092,11.9835019 231.055751,19.7322048 L231.0582,19.7031764 L231.0582,19.7031764 C231.135221,19.7651796 231.222432,19.8308242 231.319419,19.9003197 C231.863961,20.2463015 232.403006,20.5926111 232.936312,20.9387644 C239.599781,25.0355541 258.899602,36.4407721 265.3982,68.0261764 C268.0352,80.8401764 285.0832,128.800176 300.1392,167.597176 C288.335776,185.699803 275.3929,186.242882 241.16511,186.259174 L237.927661,186.259678 L237.927661,186.259678 C229.857644,186.259678 155.328216,189.846496 72.662627,186.259678 C38.2055127,184.764601 8.73269423,183.264728 1.25005975,158 C-2.84486358,144.173704 13.2909823,83.3129264 12.1768,74.8846764 C8.8578,49.7816764 26.8658,32.3416764 33.1348,27.1536764 C54.0788,9.82167642 87.2148,-0.427323581 89.4468,0.0136764189 Z" id="T-Shirt" fill="#3615F6"/><path d="M255.6453,102.608676 C258.0363,112.136676 258.064419,120.171504 257.606419,129.951504 C256.453079,147.259988 253.873594,145.961005 249.782594,166.732005 C247.698594,177.309005 246.534594,183.736005 245.868594,185.399005 C244.964594,187.656005 245.234594,181.318005 247.753594,166.371005 C250.267594,149.368005 252.892902,151.271638 254.510902,134.292638 C256.128902,117.313638 255.5623,114.940676 252.8243,102.383676 C250.3413,91.3246764 246.4643,81.4866764 243.1413,70.6196764 C242.9503,69.1046764 239.1053,59.6106764 241.0533,61.0176764 C245.5873,74.8956764 251.9913,88.4526764 255.6453,102.608676 Z" id="Fill-15" fill="#090E2B"/><path d="M96.8404,74.2851764 C93.7574,101.612176 89.1684,128.761176 83.1614,155.596176 C82.2654,157.756176 75.4204,187.256176 75.1164,182.060176 C75.0774,181.382176 75.2134,180.032176 75.3544,179.363176 C80.6594,154.144176 86.1554,126.484176 90.7034,101.126176 C90.7044,101.126176 95.4114,74.0911764 95.4114,74.0911764 C95.5384,73.2221764 96.9564,73.3601764 96.8404,74.2851764" id="Fill-17" fill="#090E2B"/></g><g id="Head" stroke-width="1" fill="none" transform="translate(43.000000, 0.000000)"><path d="M200.312971,280.7038 L199.0091,268.0988 L203.028919,280.7038 C203.028919,280.7038 272.0771,278.2948 273.1951,264.8788 C274.3131,251.4628 247.6101,191.459653 247.6101,153.2868 C248.277358,163.305072 260.891609,211.304374 266.217104,215.522318 C252.515374,190.830571 244.791189,119.649303 243.841508,114.3166 C239.91774,92.2836492 233.705096,76.1508857 228.770911,69.261275 C221.012911,58.430275 179.3731,51.0193119 166.3801,75.6503119 C152.8761,101.248312 170.5331,133.9078 166.3801,166.6048 C159.3711,221.7698 163.299225,268.0988 171.8301,282.6958 L200.312971,280.7038 Z" id="Fill-1" fill="#090E2B"/><path d="M230.8389,97.6343 C230.8389,97.6343 238.0639,177.5813 238.0639,199.9423 C238.0639,222.3023 236.7369,248.7503 213.1079,256.4113 C187.8319,264.6073 137.3559,250.1773 126.1459,246.9403 C77.9229,233.0193 108.0249,135.0243 114.7329,102.6023 C121.4409,70.1793 230.8389,97.6343 230.8389,97.6343" id="Fill-3" fill="#09B9C6"/><path d="M126.2676,128.6548 C126.2676,128.6548 118.4416,190.1448 126.2676,215.8588 C134.0936,241.5738 135.6756,272.546539 130.9716,279.3348 C126.2676,286.123061 109.348382,280.909511 96.5953269,280.7038 C84.5063209,280.5088 80.5752089,281.415175 78.4296,280.5088 C74.7606,274.8658 74.8386,265.0508 74.8386,265.0508 L74.8386,280.7038 C74.8386,280.7038 29.5292728,277.333758 29.5292728,254.271056 C29.5292728,234.633255 40.1726087,212.674758 55.1569663,181.027423 C71.8646917,145.740292 69.4935121,125.70407 74.8386,97.0518 C82.0586263,58.3489489 107.502539,44.2414344 130.9716,40.0600229 C171.64812,32.8128107 217.215619,44.219891 231.733297,74.9883268 C243.238504,99.3722018 235.50972,122.117953 235.50972,122.117953 C229.485526,120.42811 219.351296,119.583188 205.107029,119.583188 C195.288948,119.583188 180.653609,120.42811 161.201011,122.117953 L157.3686,97.0518 L157.3686,123.188942 L126.2676,128.6548 Z" id="Fill-5" fill="#090E2B"/><path d="M142.6573,251.2876 C149.0663,252.9406 154.4483,253.7906 160.4163,255.0806 C161.2683,255.2656 162.7693,255.5526 162.9693,255.7186 C164.1853,256.7296 161.9683,257.8536 157.5003,256.9906 C150.9573,255.7256 140.4883,250.7276 142.6573,251.2876" id="Fill-8" fill="#000"/></g><g id="Face" stroke-width="1" fill="none" transform="translate(164.000000, 133.000000)"><g id="eye1" transform="translate(21.027098, 10.213671)"><path d="M0.0487023333,7.96572872 C1.82485498,-0.0171869856 25.1977023,-2.81531309 35.4827023,3.36568691 C39.0387023,5.47868691 45.6427023,11.2837287 39.7957023,14.4437287 C38.2517023,15.1157287 36.7517023,14.4267287 35.4827023,13.6077287 C21.4647023,3.86572872 -1.18942441,13.5304877 0.0487023333,7.96572872 Z" id="Fill-1" fill="#090E2B"/><path d="M19.0113023,22.3973287 C13.7233023,23.8973287 9.19030233,28.1473287 8.76930233,31.6693287 C8.51430233,33.7973287 16.8643023,38.9063287 24.9173023,39.3033287 C35.5113023,39.8243287 40.8513023,34.0853287 40.8324531,32.2513287 C40.1193023,26.7013287 33.7283023,18.2233287 19.0113023,22.3973287 Z" id="Fill-6" fill="#FFF"/><path d="M35.3981023,25.5550287 C27.2551023,19.4010287 14.6431023,23.4110287 8.76910233,31.6690287 C8.43210233,32.0970287 8.52910233,31.0200287 8.76310233,30.5290287 C11.5971023,24.5820287 16.7101023,21.7750287 22.6381023,20.5510287 C26.2051023,19.8140287 29.5311023,19.7540287 33.0101023,21.3120287 C34.3551023,21.9130287 36.7311023,23.7450287 38.5671023,25.8170287 C39.9991023,27.4320287 41.2051023,30.2010287 39.5481023,29.2220287 C38.2511023,28.4550287 36.4781023,26.3720287 35.3981023,25.5550287 Z" id="Fill-8" fill="#090E2B"/><path d="M24.8135023,36.0623287 C29.3405023,36.0623287 33.0105023,32.7143287 33.0105023,28.5833287 C33.0105023,24.4533287 29.3405023,21.1043287 24.8135023,21.1043287 C20.2865023,21.1043287 16.6165023,24.4533287 16.6165023,28.5833287 C16.6165023,32.7143287 20.2865023,36.0623287 24.8135023,36.0623287 Z" id="Fill-10" fill="#090E2B"/></g><g id="eye2" transform="translate(81.203378, 15.000183)"><path d="M23.2557812,1.861246 C26.6096324,3.34897691 31.0744206,8.28711729 27.357522,8.28711729 C23.6406234,8.28711729 15.5900245,7.23270759 10.1930245,9.45970759 C8.30802454,9.94170759 6.87752199,10.8641173 4.98452199,11.0891173 C0.67652199,11.9281173 -1.66408888,6.76839233 1.38185604,3.64904337 C4.82290212,0.125071736 16.4397812,-1.545754 23.2557812,1.861246 Z" id="Fill-4" fill="#090E2B"/><path d="M19.455322,34.2343173 C24.826322,32.9853173 28.843322,28.1153173 28.389322,24.4763173 C27.503322,19.6543173 18.218322,16.5753173 13.017322,19.2083173 C7.86632199,21.8153173 4.64332199,27.6403173 5.05932199,29.9403173 C5.66032199,31.5323173 13.966322,35.5113173 19.455322,34.2343173 Z" id="Fill-12" fill="#FFF"/><path d="M15.011222,31.6060173 C18.549222,31.6060173 21.417222,28.8520173 21.417222,25.4560173 C21.417222,22.0590173 19.396222,18.8490173 15.011222,19.3060173 C11.492222,19.6720173 8.60422199,22.0590173 8.60422199,25.4560173 C8.60422199,28.8520173 11.473222,31.6060173 15.011222,31.6060173 Z" id="Fill-14" fill="#090E2B"/><path d="M5.25072199,26.6376173 C7.27972199,19.0636173 16.440722,15.1686173 23.685722,18.7546173 C24.705722,19.2866173 26.361722,20.4806173 27.601722,21.9226173 C28.742722,23.2526173 28.593722,23.9496173 28.127722,23.8116173 C27.355722,23.5816173 25.722722,22.1166173 24.395722,21.4866173 C17.685722,18.3036173 10.704722,20.0896173 5.59372199,27.5586173 C5.34272199,27.9456173 5.10472199,27.0746173 5.25072199,26.6376173" id="Fill-22" fill="#090E2B"/></g><path d="M85.9879908,71.3386563 C85.0131141,76.2575144 78.9689699,76.7359636 75.0323155,75.6212963 C71.832522,74.7152719 71.0034674,72.851321 72.0853454,72.2537752 C73.8485675,71.2799076 79.4997296,73.9889887 81.5858367,71.4027854 C85.305606,66.7912866 73.8914605,49.8346319 77.5177277,52.5592059 C82.3102149,56.1600121 86.6386051,68.0559034 85.9879908,71.3386563 Z" id="nose" fill="#090E2B"/><g id="lips" transform="translate(57.561158, 83.472328)" fill="#090E2B"><path d="M24.6314423,10.2352717 C21.1964423,11.9522717 16.3084423,13.7232717 10.6794423,12.9182717 C5.05144233,12.1142717 2.01844233,8.81927172 0.786442327,6.40327172 C-1.32255767,2.27127172 1.13144233,-0.833728284 4.34844233,0.200271716 C7.56344233,1.23527172 9.40744233,5.68627172 12.5654423,6.45927172 C16.4424423,7.40827172 22.8454423,4.43627172 26.5024423,3.47827172 C30.3364423,2.47327172 36.6974423,2.09918012 36.6974423,8.52727172 C36.6974423,12.1251305 34.5597106,11.3954112 32.84831,9.25710631 C31.1369095,7.11880144 28.0664423,8.51727172 24.6314423,10.2352717 Z" id="Fill-18"/><path d="M22.8970423,17.2262717 C18.4760423,16.5892717 14.2940423,17.1472717 14.5340423,20.0932717 C14.7730423,23.0402717 22.3760423,25.5572717 25.7640423,21.0492717 C26.4820423,20.0942717 27.3170423,17.8632717 22.8970423,17.2262717 Z" id="Fill-20"/></g></g><g id="Face-Add-On" stroke-width="1" fill="none" transform="translate(161.000000, 183.000000)" fill-opacity="0"/><g id="Glass" stroke-width="1" fill="none" transform="translate(164.000000, 138.000000)" fill-opacity="0"/></g></g></g><path d="M455.3925,40.7735 L458.6475,50.7935 C459.1025,52.1835 460.3975,53.1285 461.8625,53.1285 L472.3975,53.1285 C475.6775,53.1285 477.0375,57.3235 474.3875,59.2485 L465.8675,65.4435 C464.6775,66.2985 464.1825,67.8285 464.6375,69.2185 L467.8925,79.2385 C468.9075,82.3535 465.3375,84.9485 462.6875,83.0185 L454.1625,76.8285 C452.9825,75.9685 451.3725,75.9685 450.1875,76.8285 L441.6675,83.0185 C439.0175,84.9485 435.4475,82.3535 436.4625,79.2385 L439.7175,69.2185 C440.1725,67.8285 439.6725,66.2985 438.4875,65.4435 L429.9675,59.2485 C427.3125,57.3235 428.6775,53.1285 431.9575,53.1285 L442.4875,53.1285 C443.9525,53.1285 445.2525,52.1835 445.7075,50.7935 L448.9575,40.7735 C449.9725,37.6585 454.3825,37.6585 455.3925,40.7735" id="Fill-185" fill="#FFB201"/><path d="M524.382,40.7735 L527.637,50.7935 C528.087,52.1835 529.387,53.1285 530.852,53.1285 L541.387,53.1285 C544.662,53.1285 546.027,57.3235 543.372,59.2485 L534.852,65.4435 C533.667,66.2985 533.172,67.8285 533.627,69.2185 L536.882,79.2385 C537.892,82.3535 534.327,84.9485 531.672,83.0185 L523.152,76.8285 C521.967,75.9685 520.362,75.9685 519.177,76.8285 L510.652,83.0185 C508.002,84.9485 504.437,82.3535 505.447,79.2385 L508.702,69.2185 C509.157,67.8285 508.662,66.2985 507.477,65.4435 L498.952,59.2485 C496.302,57.3235 497.667,53.1285 500.942,53.1285 L511.472,53.1285 C512.942,53.1285 514.242,52.1835 514.692,50.7935 L517.947,40.7735 C518.962,37.6585 523.367,37.6585 524.382,40.7735" id="Fill-187" fill="#FFB201"/><path d="M593.3685,40.7735 L596.6235,50.7935 C597.0735,52.1835 598.3735,53.1285 599.8385,53.1285 L610.3735,53.1285 C613.6485,53.1285 615.0135,57.3235 612.3635,59.2485 L603.8385,65.4435 C602.6535,66.2985 602.1585,67.8285 602.6135,69.2185 L605.8685,79.2385 C606.8785,82.3535 603.3135,84.9485 600.6585,83.0185 L592.1385,76.8285 C590.9535,75.9685 589.3485,75.9685 588.1635,76.8285 L579.6385,83.0185 C576.9885,84.9485 573.4235,82.3535 574.4335,79.2385 L577.6885,69.2185 C578.1435,67.8285 577.6485,66.2985 576.4635,65.4435 L567.9385,59.2485 C565.2885,57.3235 566.6535,53.1285 569.9285,53.1285 L580.4585,53.1285 C581.9285,53.1285 583.2285,52.1835 583.6785,50.7935 L586.9335,40.7735 C587.9485,37.6585 592.3535,37.6585 593.3685,40.7735" id="Fill-189" fill="#FFB201"/><path d="M662.3555,40.7735 L665.6105,50.7935 C666.0605,52.1835 667.3605,53.1285 668.8255,53.1285 L679.3605,53.1285 C682.6355,53.1285 684.0005,57.3235 681.3505,59.2485 L672.8255,65.4435 C671.6405,66.2985 671.1455,67.8285 671.6005,69.2185 L674.8555,79.2385 C675.8655,82.3535 672.3005,84.9485 669.6455,83.0185 L661.1255,76.8285 C659.9405,75.9685 658.3355,75.9685 657.1505,76.8285 L648.6255,83.0185 C645.9755,84.9485 642.4105,82.3535 643.4205,79.2385 L646.6805,69.2185 C647.1305,67.8285 646.6355,66.2985 645.4505,65.4435 L636.9305,59.2485 C634.2755,57.3235 635.6405,53.1285 638.9155,53.1285 L649.4505,53.1285 C650.9155,53.1285 652.2155,52.1835 652.6655,50.7935 L655.9205,40.7735 C656.9355,37.6585 661.3405,37.6585 662.3555,40.7735" id="Fill-191" fill="#FFB201"/><path d="M731.34,40.7735 L734.595,50.7935 C735.05,52.1835 736.35,53.1285 737.815,53.1285 L748.345,53.1285 C751.625,53.1285 752.985,57.3235 750.335,59.2485 L741.815,65.4435 C740.625,66.2985 740.135,67.8285 740.585,69.2185 L743.84,79.2385 C744.85,82.3535 741.285,84.9485 738.635,83.0185 L730.115,76.8285 C728.93,75.9685 727.32,75.9685 726.135,76.8285 L717.615,83.0185 C714.965,84.9485 711.4,82.3535 712.41,79.2385 L715.665,69.2185 C716.115,67.8285 715.62,66.2985 714.435,65.4435 L705.915,59.2485 C703.265,57.3235 704.625,53.1285 707.905,53.1285 L718.435,53.1285 C719.9,53.1285 721.2,52.1835 721.655,50.7935 L724.91,40.7735 C725.92,37.6585 730.33,37.6585 731.34,40.7735" id="Fill-193" fill="#FFB201"/><path d="M820.2305,158.4885 L450.2205,158.4885 C440.4855,158.4885 432.5955,150.5985 432.5955,140.8635 L432.5955,132.8935 C432.5955,123.1635 440.4855,115.2685 450.2205,115.2685 L820.2305,115.2685 C829.9605,115.2685 837.8505,123.1635 837.8505,132.8935 L837.8505,140.8635 C837.8505,150.5985 829.9605,158.4885 820.2305,158.4885" id="Fill-195" fill="#C7D2F2" fill-rule="nonzero"/><line x1="434.921" y1="213.035" x2="1289.019" y2="213.5" id="Stroke-200" stroke="#C7D2F2" stroke-width="15" stroke-linecap="round" stroke-linejoin="round"/><line x1="434.921" y1="272.888" x2="1104.019" y2="272.5" id="Stroke-201" stroke="#C7D2F2" stroke-width="15" stroke-linecap="round" stroke-linejoin="round"/><line x1="434.921" y1="332.747" x2="973.64" y2="332.747" id="Stroke-202" stroke="#C7D2F2" stroke-width="15" stroke-linecap="round" stroke-linejoin="round"/></g></g></g></g><g id="Medium Plants" transform="translate(0.000000, 1250.000000) scale(1 1)"><defs><polygon id="medium-plantsplant-4-path-1" points="0.885 0.4042 225.003 0.4042 225.003 229 0.885 229"/></defs><g id="Medium Plants/Plant 4" stroke="none" stroke-width="1" fill="none" fill-rule="evenodd"><g id="Group-16" transform="translate(94.000000, 144.000000)"><path d="M662.512,98.475 C662.512,98.475 654.898,157.099 541.284,228.111 C510.266,247.427 495.952,267.763 485.27,286.623 C475.046,289.917 459.708,294.121 450.39,293.439 C450.39,293.439 464.366,297.417 479.476,297.417 C464.82,325.253 450.172,348.431 395.524,357.747 C395.524,357.747 337.882,323.167 382.904,223.567 C394.72,233.791 410.058,253.105 410.058,253.105 C408.24,238.223 394.606,221.181 387.79,213.453 C387.902,213.341 387.902,213.227 388.016,213.113 C421.08,151.081 484.704,148.921 545.942,145.173 C545.26,153.465 543.216,165.851 537.876,175.393 C537.876,175.393 554.122,163.123 559.122,144.263 C569.232,143.581 579.232,142.673 589.002,141.309 C617.178,137.445 647.174,121.881 662.512,98.475" id="Fill-1" fill="#009BA0"/><path d="M10.3910291,113.374429 C25.9612131,111.077316 44.3658046,110.707752 64.7231199,113.490176 C92.7811,117.325122 121.021718,126.762182 148.555346,143.024165 C148.887306,143.220228 149.073691,143.586985 149.043724,143.964048 L149.025625,144.089897 L141.939,177.971 L157.743907,149.967727 C158.008197,149.499404 158.589421,149.329819 159.058442,149.562859 L159.164491,149.623832 C168.811192,155.971576 178.331005,163.262123 187.817736,171.593001 C223.39881,202.762455 245.340792,234.773338 256.182175,266.376895 C263.611965,288.035365 265.047051,306.790526 263.048678,321.394825 C262.965152,322.005241 262.878548,322.576963 262.790336,323.109279 L262.656999,323.878111 L262.522354,324.587303 L262.387427,325.234372 L262.270923,325.733668 L262.231693,325.848056 L262.19283,325.931313 L262.135104,326.027965 L262.067638,326.116488 L261.991346,326.196343 L261.937861,326.243242 L261.839616,326.313749 L261.734763,326.371215 L261.723,326.375 C261.685299,326.393589 261.651094,326.406878 261.616178,326.418272 L261.510483,326.446248 L261.39938,326.463179 L261.286874,326.467227 L261.15729,326.45616 L261.040332,326.431323 L260.925944,326.392093 L260.842687,326.35323 L260.746035,326.295504 L260.710128,326.269686 C256.52596,323.158633 252.280858,320.451042 247.848299,318.035552 L246.822015,317.483266 L245.861482,316.978041 C245.701612,316.894826 245.541821,316.812091 245.382062,316.729817 L244.423531,316.241522 L243.46357,315.763265 C243.303334,315.684336 243.142946,315.605784 242.982361,315.527589 L242.016105,315.062517 L241.042887,314.604988 L240.060495,314.154002 C239.895875,314.079328 239.730781,314.004885 239.565167,313.930652 L238.564865,313.48761 C238.396984,313.414134 238.22849,313.340828 238.059338,313.267669 L237.036148,312.830324 L235.994935,312.395529 L234.933485,311.962285 C234.754768,311.890152 234.575115,311.818041 234.394481,311.745933 L233.298528,311.313144 C233.113784,311.240962 232.927966,311.16874 232.741028,311.096458 L231.605595,310.661878 L230.441076,310.224855 L229.245259,309.784392 L228.015931,309.339488 L226.104266,308.661626 L224.781482,308.201256 L223.417444,307.732952 L221.289196,307.013436 L219.812343,306.520928 L206.810764,302.22715 L202.409619,300.749307 L199.321756,299.691506 L196.319463,298.634097 L194.165491,297.849018 L192.409498,297.187179 L190.967544,296.62652 L189.08907,295.871239 L188.094412,295.46009 L187.031034,295.012617 L185.945089,294.548128 L184.825843,294.062648 L183.662562,293.5522 L181.811596,292.731019 L181.160962,292.440501 C165.668155,285.513952 150.417057,276.554523 133.881881,264.18801 C133.381817,263.814016 133.349536,263.089033 133.784048,262.669558 L133.884302,262.584585 L154.071,247.581 L128.318251,259.139532 C128.025678,259.270838 127.690765,259.252896 127.41632,259.097547 L127.302702,259.02259 L126.20091,258.173175 L124.740219,257.019217 L123.435516,255.968337 L121.948112,254.755968 C114.317692,248.488973 106.440774,241.063179 98.5597118,232.878472 L96.8083948,231.047319 C93.8897479,227.975117 90.972995,224.802876 88.070449,221.550911 L86.3307248,219.590328 C86.0410878,219.262024 85.7516174,218.932963 85.462326,218.603166 L83.7288245,216.615711 C83.4402984,216.28305 83.1519759,215.949693 82.8638695,215.615661 L81.1379203,213.603528 L79.417745,211.576162 L77.7039343,209.534539 C77.4188625,209.193134 77.1340804,208.851176 76.8496005,208.508685 L75.1464452,206.447503 C74.8632231,206.102961 74.5803277,205.757926 74.2977714,205.412419 L72.6066012,203.333873 C72.3254505,202.986559 72.0446635,202.638813 71.7642524,202.290656 L70.0863971,200.19694 L68.4181571,198.094331 C68.1409512,197.743209 67.8641706,197.391757 67.5878275,197.039995 L65.9351187,194.925873 C65.3860317,194.220035 64.8387936,193.513121 64.2935028,192.805294 L62.6635708,190.679234 L61.0459137,188.548669 C60.7773599,188.193253 60.5093422,187.837691 60.241873,187.482001 L58.6437364,185.346505 C58.37851,184.99039 58.1138565,184.634188 57.8497884,184.277921 L56.2725023,182.139689 C55.7491472,181.42679 55.228232,180.71379 54.7098551,180.000852 L53.162438,177.862384 L51.6308419,175.725263 L50.1156579,173.590461 L48.7570018,171.686355 L47.4092365,169.813079 C47.1855176,169.503427 46.9622533,169.195054 46.7394439,168.887957 L45.4080508,167.060658 L44.0875961,165.263833 L42.7780991,163.497338 L41.4795787,161.761033 L40.1920541,160.054772 L38.9155442,158.378416 L37.6500681,156.73182 L36.3956449,155.114842 L35.1522937,153.52734 L33.9200334,151.969172 L32.6988832,150.440194 C32.4962851,150.187789 32.2941507,149.936594 32.0924804,149.686607 L30.888031,148.201148 L29.6947393,146.744523 C29.4967882,146.504147 29.2993028,146.264966 29.1022835,146.026978 L27.925764,144.613338 L26.7604499,143.228175 C26.5671658,142.99968 26.3743493,142.772365 26.1820008,142.546228 L25.0335304,141.203515 L23.896313,139.888924 L22.7703676,138.602312 L21.6557133,137.343536 L20.5523691,136.112454 L19.4603542,134.908924 L18.3796874,133.732803 L17.310388,132.583948 C17.1331198,132.394736 16.956326,132.206655 16.780007,132.0197 L15.7277942,130.911478 L14.6869965,129.830165 L13.6576327,128.77562 C13.4870259,128.602086 13.3168964,128.42966 13.1472445,128.258341 L12.1115509,127.220503 C11.7708102,126.88174 11.4345633,126.550135 11.1028205,126.225611 L10.1211146,125.273206 C9.79839023,124.962768 9.48018011,124.659334 9.16649449,124.362829 L8.23902135,123.494021 L7.3387565,122.666324 C7.19098312,122.531774 7.04434597,122.398919 6.89884633,122.267748 L6.0395088,121.500855 L5.20753274,120.773924 L4.40297942,120.086498 C4.27117583,119.975193 4.14051741,119.865515 4.01100544,119.757455 L3.28328667,119.157441 L2.63493837,118.636079 C2.53098592,118.553585 2.42908819,118.473276 2.32924806,118.395131 L1.7549214,117.952054 C1.66332316,117.882478 1.57378826,117.815022 1.4863196,117.749665 L0.960618641,117.363961 L0.574456463,117.092618 L0.458066013,117.015105 C-0.270580867,116.544264 -0.0950827257,115.432463 0.74316699,115.208957 L1.39498615,115.046932 L2.25696813,114.847912 L2.91069485,114.704838 L3.26106716,114.630479 C3.77113547,114.523314 4.30265292,114.416183 4.85530049,114.309527 L5.98867462,114.096981 L7.17782865,113.886491 L8.42219547,113.678844 L9.72120796,113.474829 C9.94223234,113.441173 10.16551,113.407701 10.3910291,113.374429 Z" id="Fill-3" fill="#017C7F" fill-rule="nonzero"/><path d="M331.4778,356.7582 C331.4778,356.7582 277.8958,340.8782 240.0318,272.3862 C252.9298,268.6422 261.2518,259.9882 261.2518,259.9882 C252.0978,262.5682 235.4538,263.6502 235.4538,263.6502 C156.6878,164.7222 196.4138,0.0002 196.4138,0.0002 C205.1518,21.7202 248.5858,52.7902 283.7858,98.4742 C278.9598,102.7202 261.9898,119.9182 257.7458,126.6582 C257.7458,126.6582 276.8158,112.0302 286.9678,107.1182 C319.2578,149.3922 343.6278,201.9702 352.9478,243.4142 C373.2538,334.2902 331.4778,356.7582 331.4778,356.7582" id="Fill-5" fill="#009BA0"/><path d="M213.221,60.438 C226.283,96.12 240.029,131.57 255.003,166.488 C262.539,183.92 270.331,201.262 279.167,218.048 C280.291,220.136 281.347,222.262 282.525,224.314 L286.103,230.45 C288.467,234.544 290.993,238.608 293.429,242.688 C298.161,250.948 302.817,259.266 306.883,267.89 C315.213,285.026 321.729,303.09 326.015,321.68 C328.191,330.966 329.851,340.356 331.375,349.74 C332.161,354.422 332.873,359.132 333.519,363.866 C334.091,368.594 334.659,373.322 335.121,378.058 C337.053,396.988 338.417,415.954 339.741,434.92 C341.031,453.89 342.175,472.864 343.191,491.852 C343.229,492.542 342.699,493.13 342.011,493.167922 C341.321,493.204 340.733,492.674 340.695,491.984 L340.695,491.978 C339.745,473.004 338.665,454.032 337.443,435.072 C336.185,416.118 334.887,397.158 333.023,378.268 C332.579,373.544 332.031,368.834 331.477,364.126 C330.853,359.442 330.163,354.754 329.391,350.06 C327.903,340.684 326.283,331.34 324.153,322.112 C319.963,303.64 313.561,285.704 305.337,268.63 C301.325,260.042 296.717,251.744 292.033,243.502 C289.611,239.416 287.133,235.398 284.759,231.256 L281.177,225.064 C279.997,222.994 278.945,220.858 277.825,218.758 C269.013,201.874 261.271,184.486 253.789,167.008 C238.919,132.004 225.293,96.5 212.347,60.75 C212.259,60.51 212.385,60.244 212.625,60.156 C212.867,60.068 213.135,60.196 213.221,60.438" id="Fill-7" fill="#000"/><path d="M58.6878,139.4418 L153.4198,205.0718 C169.2218,216.0298 184.2658,228.1018 198.3638,241.1918 C201.9418,244.4078 205.3158,247.8418 208.7858,251.1738 C212.1118,254.6498 215.5678,258.0038 218.7678,261.6018 C225.3598,268.6178 231.4738,276.0698 237.3678,283.6838 C243.1938,291.3578 248.5438,299.3918 253.4298,307.7118 C258.1358,316.1338 262.3558,324.8458 265.4158,334.0538 C266.1898,336.3418 266.7758,338.6818 267.4658,340.9938 C268.0938,343.3198 268.8798,345.6138 269.3718,347.9698 C270.4218,352.6678 271.6798,357.3278 272.5558,362.0598 C274.4938,371.4878 276.1238,380.9718 277.5998,390.4738 C283.3618,428.5118 286.8678,466.8138 289.3598,505.1878 C289.4038,505.8758 288.8818,506.4718 288.1938,506.518389 C287.5038,506.5598 286.9098,506.0378 286.8638,505.3478 L286.8638,505.3438 L286.8638,505.3238 C284.5258,467.0358 281.1658,428.7338 275.5658,390.7818 C274.1318,381.3018 272.5418,371.8418 270.6478,362.4498 C269.7938,357.7338 268.5618,353.1058 267.5358,348.4278 C267.0558,346.0778 266.2858,343.8158 265.6738,341.5038 C264.9998,339.2138 264.4258,336.8858 263.6718,334.6258 C260.7018,325.5678 256.5598,316.9238 251.9298,308.5658 C247.1198,300.3038 241.8418,292.3078 236.0798,284.6578 C230.2478,277.0678 224.1958,269.6298 217.6578,262.6198 C214.4898,259.0258 211.0598,255.6718 207.7598,252.1978 C204.3158,248.8658 200.9678,245.4318 197.4158,242.2138 C183.4138,229.1118 168.4698,217.0238 152.7458,206.0318 L58.2718,140.0418 C58.1058,139.9278 58.0638,139.6998 58.1798,139.5338 C58.2938,139.3678 58.5218,139.3258 58.6878,139.4418" id="Fill-9" fill="#000"/><path d="M613.0178,154.895 C580.8438,175.235 548.4818,195.275 516.1918,215.435 L492.0098,230.555 C484.1098,235.679 476.6958,241.627 469.5438,247.821 C462.3498,253.985 455.6518,260.705 449.0918,267.533 C445.9438,271.073 442.6298,274.465 439.6618,278.159 L435.1058,283.605 L430.7858,289.241 C424.9858,296.729 419.8638,304.697 415.0098,312.811 C413.8498,314.867 412.7758,316.973 411.6538,319.053 C410.5878,321.159 409.3378,323.179 408.4198,325.355 L405.5198,331.817 L404.0758,335.049 L402.8718,338.375 L400.4638,345.027 C399.6238,347.235 399.1718,349.559 398.5058,351.819 C397.9038,354.099 397.2478,356.353 396.6858,358.655 L395.1518,365.619 L389.1638,393.517 C381.4018,430.763 373.9698,468.091 366.9418,505.483 C366.8158,506.161 366.1658,506.611 365.4858,506.487 C364.8078,506.361 364.3578,505.707 364.4818,505.027 C371.4418,467.595 378.6498,430.215 386.5218,392.961 L392.5418,365.043 L394.0878,358.073 C394.6538,355.753 395.3278,353.437 395.9418,351.117 C396.6218,348.817 397.0918,346.445 397.9438,344.203 L400.3998,337.437 L401.6298,334.055 L403.0978,330.773 L406.0518,324.217 C406.9858,322.007 408.2518,319.963 409.3358,317.829 C410.4758,315.721 411.5658,313.587 412.7438,311.505 C417.6658,303.293 422.8598,295.237 428.7238,287.677 L433.0958,281.991 L437.6998,276.495 C440.7018,272.771 444.0478,269.349 447.2258,265.781 C453.8518,258.899 460.6138,252.127 467.8818,245.911 C475.1158,239.665 482.5858,233.675 490.6638,228.445 C498.7658,223.347 506.8838,218.467 514.9938,213.467 C547.4558,193.603 579.8478,173.621 612.4238,153.939 C612.6898,153.777 613.0358,153.861 613.1978,154.127 C613.3578,154.389 613.2758,154.731 613.0178,154.895" id="Fill-11" fill="#000"/><g id="Group-15" transform="translate(216.000000, 426.090000)"><mask id="medium-plantsplant-4-mask-2" fill="#ffffff"><use xlink:href="#medium-plantsplant-4-path-1" fill="#ffffff"/></mask><g id="Clip-14"/><path d="M73.761,229.0002 L152.127,229.0002 C180.031,229.0002 203.369,225.7942 206.035,198.0182 L225.003,0.4042 L0.885,0.4042 L19.851,198.0182 C22.517,225.7942 45.855,229.0002 73.761,229.0002" id="Fill-13" fill="#F0F1FF" mask="url(#medium-plantsplant-4-mask-2)"/></g></g></g></g><g id="Flying Objects" opacity=".5" transform="translate(2376.000000, 97.000000) scale(1 1)"><g id="Flying Objects/Speech Bubble" stroke="none" stroke-width="1" fill="none" fill-rule="evenodd"><g id="comment" transform="translate(228.000000, 270.000000)"><path d="M-1.87583282e-12,121.62 C-1.87583282e-12,188.756 54.436,243.196 121.616,243.196 C138.552,243.196 154.64,239.716 169.268,233.472 L227.52,260.208 L201.916,212.856 C227.228,190.6 243.196,157.996 243.196,121.62 C243.196,54.44 188.752,2.84217094e-14 121.616,2.84217094e-14 C54.436,2.84217094e-14 -1.87583282e-12,54.44 -1.87583282e-12,121.62" id="Fill-4" fill="#FFB201"/><rect id="Rectangle-Copy-3" fill="#FFF" x="58.318" y="81.499" width="132" height="12" rx="6"/><rect id="Rectangle-Copy-4" fill="#FFF" x="58.318" y="115.499" width="117" height="12" rx="6"/><rect id="Rectangle-Copy-5" fill="#FFF" x="58.318" y="149.499" width="79" height="12" rx="6"/></g></g></g><g id="Outdoor Plants" transform="translate(2517.000000, 1088.000000) scale(1 1)"><g id="Outdoor Plants/Plant 1" stroke="none" stroke-width="1" fill="none" fill-rule="evenodd"><g id="Group-6" transform="translate(3.000000, 208.000000)"><path d="M199.883326,757 C199.883326,757 154.639614,615.704437 63.7021884,486.352218 C-27.2352371,357 -13.9695544,268.907181 63.7021884,246.214912 C141.373931,223.522642 267.592553,290.509829 306.646043,382.031679 C331.898655,441.210897 374.804123,628.371706 268.960535,757 C238.721051,756.165996 199.883326,757 199.883326,757 Z" id="Stroke-8" fill="#017C7F"/><path d="M180.80074,266.460237 C125.13078,13.4204746 221.50036,-21.2992546 328.620701,9.33958092 C435.741041,39.9784164 507.960342,173.305169 491.620701,300.677192 C466.681525,495.084959 320.447913,757 320.447913,757 L236.4707,757 C236.4707,598.666667 217.914047,435.153412 180.80074,266.460237 Z" id="Stroke-10" fill="#009BA0"/><path d="M299.869545,92.3392506 C301.326008,91.6825172 303.029928,92.2842179 303.76044,93.6823222 L303.857175,93.8846724 L304.316098,94.9397143 L304.887232,96.295742 C305.10977,96.8312409 305.345953,97.4073406 305.595259,98.0239333 L305.978996,98.9791786 C307.658678,103.18678 309.527498,108.198532 311.537907,114.004614 C317.270818,130.561319 322.999418,150.177346 328.343248,172.774008 C340.981111,226.213867 349.496836,287.717379 351.998041,356.891597 C354.239813,418.890863 350.075029,478.447706 339.405709,544.65636 L339.021897,547.023799 C329.749389,603.877937 316.614263,662.450624 292.750418,757.276586 C292.346063,758.883341 290.715735,759.858079 289.10898,759.453724 C287.502225,759.049369 286.527487,757.419042 286.931842,755.812287 L289.047362,747.388625 C311.539988,657.63471 324.138912,601.00352 333.100137,546.058001 C343.991922,479.275307 348.255457,419.431969 346.001959,357.108403 C343.515192,288.333464 335.05336,227.219184 322.504303,174.154847 L321.81134,171.250364 C316.714465,150.074656 311.289348,131.624212 305.868175,115.96781 L305.247809,114.188627 C303.503926,109.222351 301.87886,104.891689 300.406603,101.203688 L299.855033,99.8349225 C299.678602,99.4014064 299.50967,98.9906447 299.348457,98.6026828 L298.799647,97.2995385 L298.367875,96.3072458 C297.686818,94.7968393 298.359139,93.0203074 299.869545,92.3392506 Z" id="Path-6" fill="#090E2B" fill-rule="nonzero"/><path d="M589.575739,282.556489 C750.420208,274.363901 760.643075,407.886816 739.778496,462.864438 C715.162837,527.72606 641.307604,570.960237 582.304218,596.642758 C443.495397,657.062349 408.155852,757 408.155852,757 L286.620701,757 C286.620701,757 309.812449,296.806189 589.575739,282.556489 Z" id="Stroke-12" fill="#FFB201"/><path d="M613.533995,384.77167 C615.068698,384.147289 616.818982,384.88525 617.443363,386.419953 C618.067745,387.954656 617.329784,389.70494 615.795081,390.329322 C475.369379,447.460406 387.980539,569.583887 353.571426,757.085934 C353.272365,758.715574 351.708844,759.794222 350.079203,759.495162 C348.449563,759.196101 347.370914,757.63258 347.669975,756.002939 C382.426899,566.605602 471.067283,442.733123 613.533995,384.77167 Z" id="Path-3" fill="#090E2B" fill-rule="nonzero"/></g></g></g><g id="Flying Objects" opacity=".5" transform="translate(1017.000000, 400.000000) scale(-1, 1) translate(-1017.000000, -400.000000) translate(667.000000, 0.000000) scale(1 1)"><g id="Flying Objects/Cloud 2" stroke="none" stroke-width="1" fill="none" fill-rule="evenodd"><path d="M479.95575,473.895048 C489.613069,459.137123 499.099888,436.733126 487.997876,423.547909 C481.436886,415.755283 470.330969,416.37302 462.370839,421.934228 C454.409408,427.495437 448.858402,436.870226 443.55859,445.96136 C452.064059,424.955151 460.742631,403.137375 461.346539,379.753193 C461.950447,356.369012 424.683149,265.573363 301,363.097442 C274.191914,384.2356 253.304938,454.747164 158,473.792617 C160.945352,473.792617 156.578734,478.669903 159.524086,478.669903 L479.95575,473.895048 Z" id="cloud" fill="#E4E8FD" transform="translate(325.500000, 398.771931) scale(-1, 1) translate(-325.500000, -398.771931)"/></g></g><g id="Floor" transform="translate(112.000000, 2049.500000)" fill="#090E2B" fill-rule="nonzero"><path d="M3214.29077,-2.5 C3216.22377,-2.5 3217.79077,-0.932996624 3217.79077,1 C3217.79077,2.8685634 3216.32649,4.39512645 3214.48281,4.49482114 L3214.29077,4.5 L0.290769851,4.5 C-1.64222677,4.5 -3.20923015,2.93299662 -3.20923015,1 C-3.20923015,-0.868563404 -1.74495255,-2.39512645 0.098734648,-2.49482114 L0.290769851,-2.5 L3214.29077,-2.5 Z" id="Path-4-Copy"/></g></g><g transform="translate(2260.000000, 1123.000000) scale(-1, 1) translate(-2260.000000, -1123.000000) translate(1705.000000, 373.000000) scale(1 1)" id="Master/Character/Standing"><g id="Master/Character/Standing" stroke="none" stroke-width="1" fill="none" fill-rule="evenodd"><g id="Lower Body/Standing" transform="translate(-64.000000, 629.000000) scale(1 1)"><g id="Lower Body/Standing/Walking 2" stroke="none" stroke-width="1" fill="none" fill-rule="evenodd"><path d="M801,747.687502 C802.129589,758.517906 834.139628,827.458762 834.139628,827.458762 C852.387759,831.665218 883.250136,810.153822 879.721802,804.32176 C876.195477,798.489697 861.354185,729 861.354185,729 C861.354185,729 813.162409,739.769643 801,747.687502" id="leg-2" fill="#ff8282"/><path d="M271.574592,679 C271.574592,679 236.247973,731.727289 219.943534,748.544506 C204.876888,764.086322 252.552413,794 252.552413,794 L330,719.908237 L271.574592,679 Z" id="leg-1" fill="#ff8282"/><path d="M812.635753,370.807198 C833.322236,472.312266 862.427661,689.154094 867,728.962082 C833.431197,749.112089 783.399375,768.690066 778.435179,766.883976 C777.455535,766.527958 776.062041,756.413453 765.767782,743.231795 C758.12156,733.439306 766.998334,722.666768 758.013599,705.466909 C752.954437,695.779425 748.773956,693.582316 748.886915,672.382257 C748.918903,666.209949 746.421811,647.889034 744.814395,641.641722 C728.117461,576.739481 711.116638,504.271862 695.221414,450.75719 C672.519662,374.321373 601.527456,251.590244 601.527456,251.590244 C601.527456,251.590244 571.896223,344.448881 540.535617,422.883798 C481.274149,571.098199 354.398248,741.892728 343.473218,751.365201 C337.68732,756.380451 260.476374,706.023937 256,676.918483 C271.602331,653.767327 264.047076,653.137296 274.435302,635.817431 C279.818346,626.841983 288.328254,626.941988 293.391414,611.907237 C298.13669,597.821534 297.802811,589.74213 311.973663,576.689478 C330.422959,559.69763 341.064093,531.222208 347.273837,519.220609 C379.680062,456.595481 409.79712,387.020007 418.592924,330.016161 C451.474976,116.904519 446.063942,72.8723199 512.301876,0.421702002 C579.052622,-1.9174148 636.900604,-0.972367612 688.017031,0.421702002 C689.412524,32.8883233 790.363845,261.52474 812.635753,370.807198 Z" id="pant" fill="#001386"/><g id="shoe-1" transform="translate(176.000000, 743.000000)"><path d="M151.670252,109.488414 C146.415252,86.3634135 121.251252,83.7074135 105.950252,61.6184135 C101.629252,55.3804135 106.340252,41.8164135 97.928252,36.9074135 C85.679252,29.7584135 85.121252,49.6114135 64.209252,28.4494135 C58.672252,22.8474135 60.562252,11.9824135 51.230252,3.78941353 C49.713252,2.45841353 47.136252,-3.20458647 38.272252,2.49641353 C33.330252,5.67341353 5.43425201,24.4954135 4.98625201,37.6864135 C37.029252,68.2474135 59.817252,96.7004135 84.198252,109.224414 C101.964252,118.350414 115.192252,121.312414 148.119252,123.762414 C155.249252,124.293414 153.031252,115.477414 151.670252,109.488414" id="Fill-7" fill="#090E2B"/><path d="M132.129652,127.849714 C99.175652,127.849714 85.835652,120.503714 65.060652,104.903714 C47.725652,91.8857135 31.246652,74.3287135 18.025652,61.3007135 C-4.57134799,39.0337135 -0.725347989,33.7267135 2.35865201,30.0637135 C8.91665201,22.2727135 13.514652,20.1087135 15.983652,19.8867135 C33.184652,18.3397135 35.173652,48.9427135 32.994652,60.4387135 C49.749652,78.2597135 62.324652,92.9457135 77.407652,103.050714 C98.469652,117.162714 111.573652,119.512714 151.702652,122.779714 C148.824652,128.745714 140.668652,127.849714 132.129652,127.849714" id="Fill-9" fill="#FFB201"/><path d="M88.901652,72.6202135 C88.322652,74.2612135 102.845652,68.9532135 110.813652,70.2772135 C111.062652,70.3182135 105.145652,73.2662135 102.177652,77.2702135 C100.672652,79.3002135 100.118652,80.5152135 102.332652,79.8762135 C115.346652,76.1232135 119.015652,77.7592135 120.592652,77.4432135 C125.289652,76.5042135 118.053652,73.0852135 107.942652,75.3782135 C110.393652,73.8172135 114.252652,71.2412135 113.589652,69.6252135 C111.329652,64.1162135 89.912652,69.7552135 88.901652,72.6202135" id="Fill-12" fill="#FFB201"/></g><path d="M614.374312,218.774218 C611.465613,229.242415 607.296671,242.803668 603.945279,250.790685 C602.447848,254.35882 602.223822,252.626767 602,252.237424 C606.554684,230.249106 613.166354,208.25278 619.105567,186.500669 C624.950696,167.998413 629.200348,137.527642 639,122 C628.918094,151.511929 622.905308,188.066238 614.374312,218.774218 Z" id="Fill-14" fill="#FFF"/><g id="shoe-2" transform="translate(820.000000, 784.000000)"><path d="M171.635654,15.2866137 C160.837654,1.37061372 120.440654,4.32261372 91.1376537,6.09061372 C81.2746537,6.68461372 64.0626537,-1.88138628 58.3506537,0.381613717 C50.0336537,3.67761372 64.6976537,18.2936137 36.0216537,27.0206137 C28.4296537,29.3316137 25.0156537,21.6286137 8.18365371,25.7336137 C5.44865371,26.4006137 1.24365371,27.3526137 0.0726537081,34.9166137 C-0.581346292,39.1336137 3.06865371,73.7176137 15.5586537,83.8066137 C70.5086537,65.3566137 125.987654,43.5216137 174.181654,25.4166137 C178.887654,23.6476137 174.398654,18.8476137 171.635654,15.2866137" id="Fill-16" fill="#090E2B"/><path d="M165.912054,34.6753137 L35.4150537,84.9273137 C26.7570537,88.4853137 12.5110537,90.2613137 8.57505371,83.4243137 C5.63505371,78.3173137 3.41205371,65.6713137 3.56205371,64.7213137 C4.61205371,58.1003137 32.3810537,53.2283137 46.7600537,69.0453137 C95.9920537,55.1463137 176.322054,21.8503137 176.322054,21.8503137 C176.322054,21.8503137 180.181054,28.6183137 165.912054,34.6753137" id="Fill-18" fill="#FFB201"/><path d="M100.736254,15.4595137 C101.639254,7.09151372 102.716254,5.30051372 100.820254,4.72751372 C96.2842537,3.35651372 81.2042537,18.2095137 81.5732537,23.6365137 C81.8502537,27.7045137 90.0112537,12.6605137 99.0512537,7.56151372 C96.4342537,12.6315137 96.8222537,25.1045137 99.8902537,21.4705137 C114.843254,3.76351372 118.740254,5.18251372 118.616254,4.77151372 C118.031254,2.81951372 110.315254,3.88451372 100.736254,15.4595137" id="Fill-21" fill="#FFB201"/></g><path d="M288,683 C308.820557,702.793004 330.900536,721.302721 355,737 C329.265093,729.245308 305.633901,702.126374 288,683" id="Fill-23" fill="#FFB201"/><path d="M864,705 C856.17222,711.876917 845.457747,715.019137 836.363124,719.890827 C827.307282,724.366868 816.517236,730.37855 807,731 C818.062507,723.896284 830.523115,719.753948 842.252852,714.006033 C849.066362,711.357376 857.099979,705.053952 864,705" id="Fill-25" fill="#FFB201"/></g></g><g id="Upper Body/Standing" transform="translate(69.000000, -172.000000) scale(1 1)"><g id="Upper Body/Standing/Shopping Coffee 2" stroke="none" stroke-width="1" fill="none" fill-rule="evenodd"><polygon id="bag-strap" fill="#FFB201" points="313.83974 757.398591 300 838 305.25 837.52068 321 755"/><path d="M786.278252,651.10399 C791.328241,648.208557 789.737333,624.694964 795.918002,633.205027 C797.455915,635.322272 798.808553,642.201644 798.808553,642.201644 L825.795616,643.887911 C825.795616,643.887911 827.482617,633.785656 829.538838,624.524086 C831.594058,615.262516 837.175937,645.929045 827.434154,655.304844 C825.581054,657.087418 817.066199,660.751724 801.528976,665.837922 C791.592078,669.090443 654.315264,745.946862 629.673638,738.490912 C604.890927,730.99388 567,673.729745 567,673.729745 L611.666513,617 C611.666513,617 643.703565,680.164412 652.755878,680.164412 C656.403591,680.164412 668.93953,673.729745 716.076341,665.837922 C733.395565,662.938272 781.228264,653.999423 786.278252,651.10399 Z" id="hand-2" fill="#ff8282"/><path d="M535.965742,496.521459 C515.178733,487.803266 510.291226,487.919616 503.66698,480.315458 C500.833687,477.063041 496.655838,459.368807 499.284149,444.997536 C501.913463,430.625269 448.170884,421 448.170884,421 C448.170884,421 455.080748,469.498844 445.997129,475.853248 C440.958984,479.37766 425,484.676546 425,484.676546 C474.558153,527.80829 489.045431,535.213551 503.66698,534.995397 C525.92396,534.664016 536.690214,521.839369 535.965742,496.521459 Z" id="Fill-5" fill="#ff8282"/><path d="M221.442785,756.389176 C170.320586,798.139517 148.682544,817.874293 144.520074,817.411525 C99.5236222,812.41122 62.5232294,856.149863 75.6993838,856 C88.8755382,855.850366 105.516418,850.797975 126.497702,846.505846 C144.529071,842.817721 223.348085,814.436584 292.059815,772.598097 C335.666779,746.044996 337.20741,760.001003 374.722614,671.493005 C385.804538,645.349585 321.136722,634.70429 321.136722,634.70429 C329.096907,620.36409 309.306473,649.022857 292.42668,697.130757 C286.322925,714.529654 272.181126,714.953358 221.442785,756.389176 Z" id="hand-1" fill="#ff8282"/><path d="M432.561659,484.936518 C438.973815,489.656606 461.096355,515.501972 498.147199,524.345259 C525.78616,530.943996 526.337798,499.566267 524.388544,492.645738 C523.228202,488.530396 535.260115,493.039483 546.804465,499.979 C547.235388,500.238037 547.638255,500.537885 548.015002,500.873762 C553.088363,505.05382 580.55187,531.282137 627,640.96292 C613.881831,667.152001 571.080337,692.526609 571.080337,692.526609 L563.113441,677.224226 C562.963785,677.815086 562.811248,678.408781 562.655795,679.005344 C557.577923,698.490756 573.929832,769.205072 575.423559,815.441202 C576.248513,840.979703 432.202944,799.491506 368.944794,817.202064 C343.622513,824.291484 376.843929,764.620034 387.105795,725.496309 C394.555378,697.091547 392.290147,684.118357 394.506506,660.444831 C384.181761,680.050186 373.527099,698.617868 368.867105,704.099532 C358.825493,715.9129 312.948442,694.73858 297,666.16404 C297,666.16404 312.344744,630.173291 329.131155,589.075841 C353.3693,529.734576 369.351692,507.990011 380.082186,499.271274 C380.647638,498.354438 382.183505,497.279686 384.752232,496.038068 C387.569193,494.425676 389.932963,493.682302 391.932041,493.091956 C400.081964,490.126598 412.522429,486.464205 429.76305,482.013101 C430.522539,481.81702 431.113189,483.870278 432.561659,484.936518 Z" id="Tshirt" fill="#3615F6"/><path d="M825.168366,655 L799.556866,655 C798.146559,655 796.95427,653.958929 796.770317,652.56593 L789,594 L833,594 L827.969677,652.438059 C827.843635,653.887638 826.6275,655 825.168366,655" id="Fill-16" fill="#FFB201"/><path d="M556.637102,557.064687 C575.548412,605.312956 571.370622,627.221639 562.52612,676.699042 C562.46226,677.14153 561.729875,677.084338 561.778767,676.604725 C563.309393,651.664847 569.196415,626.437 565.807885,601.527224 C564.170495,591.741311 561.788745,581.707566 559.206438,572.110288 C558.962974,570.125613 554.494824,555.927863 556.637102,557.064687 Z M408.259361,638.708918 C407.20269,641.121031 396.526527,659.573899 394.536635,659.573899 C394.18702,659.573899 393.143718,659.342028 395.474247,654.654723 C400.420007,644.707501 403.786233,638.16663 407.607809,628.687751 C409.006725,625.468925 413.83671,614.353974 415.476096,611.166253 C420.04203,608.722032 409.380889,636.924918 408.259361,638.708918 Z" id="Combined-Shape" fill="#090E2B"/><path d="M826.742627,655.086935 C832.512059,650.345255 837.805567,620.668179 830.278469,622.046512 C822.751371,623.424845 819.445042,625.615207 814,657.0159 C814.24572,659.993093 820.973194,659.829626 826.742627,655.086935 Z" id="Fill-27" fill="#ff8282"/><path d="M830,591 L792,591 L793.852514,583.834186 C794.285035,582.161766 795.742788,581 797.407648,581 L824.592352,581 C826.257212,581 827.713821,582.161766 828.146341,583.834186 L830,591 Z" id="Fill-30" fill="#111B56"/><polygon id="Fill-32" fill="#090E2B" points="786 596 836 596 836 587 786 587"/><g id="Bag" transform="translate(254.000000, 484.000000)"><path d="M164.53652,148.190512 C167.58552,132.607512 171.468025,112.261232 174.833025,96.7362318 C181.517025,66.1332318 190.08882,19.8568254 152.48182,3.71182538 C147.89982,2.77282538 155.503137,0.942 160.278137,0 C161.976137,0.277 183.053137,11.21 186.749137,36.406 C191.533137,69.029 183.365137,94.213 177.550137,125.692 C162.444137,198.16 146.350137,285.365 132.241137,358.678 C131.614137,362.268 125.735137,361.56 126.319137,357.713 C139.433337,285.264848 151.09452,218.060512 164.53652,148.190512 Z" id="Fill-14" fill="#FFB201"/><path d="M166.302537,463.6173 C142.227537,501.8863 21.921537,495.1413 2.275537,454.4223 C-11.376463,426.1283 40.859537,349.9333 40.859537,349.9333 L139.637537,355.4713 C139.637537,355.4713 183.031537,437.0263 166.302537,463.6173" id="Fill-20" fill="#090E2B"/><path d="M139.215637,375.2471 C136.740637,394.2141 127.173637,413.0821 111.060637,423.9711 C72.420637,449.2461 42.198637,415.7261 40.767637,376.6001 C40.608637,374.1171 39.044637,347.6861 43.215637,353.8551 C43.133637,375.4801 45.520637,399.4701 60.156637,416.4681 C75.170637,434.1401 102.325637,428.5601 117.123637,413.4691 C127.910637,403.2781 134.631637,389.4361 138.218637,375.0611 C138.326637,374.4641 139.329637,374.6191 139.215637,375.2471" id="Fill-23" fill="#FFF"/></g></g></g><g id="Head" transform="translate(399.000000, 26.000000) scale(1 1)"><g id="Head/Long Hair Dark" stroke="none" stroke-width="1" fill="none" fill-rule="evenodd"><path d="M202.9604,77.8622 C181.8504,79.5182 184.2014,108.0832 184.2014,108.0832 L160.7914,233.7422 L164.1714,235.8612 C164.1714,235.8612 157.9414,270.7612 161.9164,281.3122 C164.6894,288.6752 176.1664,298.4982 184.1564,300.4462 C187.9064,301.3602 191.2484,298.4592 193.2994,294.2252 C205.5034,269.0352 175.3224,218.2022 216.6524,184.7252 C225.0304,165.6512 231.8324,150.8302 233.9964,147.8302 C241.0224,138.0892 269.2194,72.6632 202.9604,77.8622" id="hair" fill="#090E2B"/><path d="M231.595269,169.854103 C231.717269,186.900103 240.726936,192.187937 233.168864,222.1603 C227.297267,245.444758 204.337313,266.222315 197.587626,266.222315 C160.590562,266.222315 132.3061,237.7663 116.0411,222.1603 C99.7771,206.5543 83.9321,173.9643 94.9881,136.8963 C106.0421,99.8283 189.0941,48.6463 217.2231,106.1073 C225.8691,123.7683 231.336269,133.563103 231.595269,169.854103 Z" id="face" fill="#ff8282"/><path d="M130.087655,181.78177 C128.899958,173.986917 126.061679,165.704676 126.5405,162.5359 C137.8085,137.9049 220.0525,153.8619 221.6185,97.6449 C222.2235,75.9519 202.4985,58.0299 185.9315,54.0029 C144.8365,44.0129 94.0475,71.7789 71.6945,128.6529 C57.5485,164.6449 86.5035,215.8529 60.7515,217.0079 C-17.4695,220.5169 -34.6575,251.4859 -39.8695,280.6199 C-46.4775,317.5549 -23.3965,354.4209 10.5785,340.6359 C59.7395,379.8769 115.6965,300.6149 120.2235,241.3049 C123.0005,204.9159 95.7905,197.4829 100.6795,184.5109 C105.0535,175.3509 110.5145,161.8199 115.9255,179.9739 C116.6975,182.5669 115.7295,189.8349 118.0735,193.2009 C121.4855,198.1019 126.8645,197.6369 128.6255,195.2909 C130.940106,192.206653 130.899208,187.107992 130.087655,181.78177 Z" id="hair" fill="#090E2B"/><path d="M115.313,181.2645 C114.883,173.3005 111.137,163.3435 100.53,162.5625 C94.807,162.1405 82.16,166.5795 87.755,189.1845 C91.797,205.5085 108.376,210.1455 113.018,209.2605 C121.327,207.6775 115.947,193.0495 115.313,181.2645" id="ear" fill="#ff8282"/><path d="M160.0464,257.3124 C155.3254,256.3244 150.3684,253.2734 146.5424,250.1684 C143.4234,247.6374 138.6424,242.7114 136.4884,240.1034 C135.4624,238.8614 137.1414,239.9734 138.7704,241.1364 C140.9294,242.6774 148.1634,248.8464 155.4154,252.9594 C156.3164,253.4704 161.2814,256.3174 161.2404,256.8324 C161.2124,257.1764 160.7484,257.4594 160.0464,257.3124" id="Fill-11" fill="#090E2B"/><path d="M97.6772,177.0077 C95.0942,177.1907 95.6262,181.2557 98.1642,180.7767 C101.5882,180.1307 104.4142,181.8047 106.4202,184.3537 C103.9832,184.6467 101.3422,187.2217 99.6492,188.5937 C98.4302,189.7157 100.2972,191.5487 101.3982,190.3177 C102.4102,189.2197 103.5952,188.1137 104.8172,187.2487 C105.6362,186.7047 106.5192,186.1107 107.4222,186.1657 C107.5252,186.1937 107.6202,186.2477 107.7152,186.3107 C108.6512,188.0027 109.2862,189.8777 109.5692,191.6537 C114.8252,195.7947 108.3302,174.4217 97.6772,177.0077" id="Fill-13" fill="#090E2B"/></g></g><g id="Expressions" transform="translate(520.000000, 159.000000) scale(1 1)"><g id="Expressions/Happy" stroke="none" stroke-width="1" fill="none" fill-rule="evenodd"><g id="eye1" transform="translate(21.027098, 10.213671)"><path d="M0.0487023333,7.96572872 C1.82485498,-0.0171869856 25.1977023,-2.81531309 35.4827023,3.36568691 C39.0387023,5.47868691 45.6427023,11.2837287 39.7957023,14.4437287 C38.2517023,15.1157287 36.7517023,14.4267287 35.4827023,13.6077287 C21.4647023,3.86572872 -1.18942441,13.5304877 0.0487023333,7.96572872 Z" id="Fill-1" fill="#090E2B"/><path d="M19.0113023,22.3973287 C13.7233023,23.8973287 9.19030233,28.1473287 8.76930233,31.6693287 C8.51430233,33.7973287 16.8643023,38.9063287 24.9173023,39.3033287 C35.5113023,39.8243287 40.8513023,34.0853287 40.8324531,32.2513287 C40.1193023,26.7013287 33.7283023,18.2233287 19.0113023,22.3973287 Z" id="Fill-6" fill="#FFF"/><path d="M35.3981023,25.5550287 C27.2551023,19.4010287 14.6431023,23.4110287 8.76910233,31.6690287 C8.43210233,32.0970287 8.52910233,31.0200287 8.76310233,30.5290287 C11.5971023,24.5820287 16.7101023,21.7750287 22.6381023,20.5510287 C26.2051023,19.8140287 29.5311023,19.7540287 33.0101023,21.3120287 C34.3551023,21.9130287 36.7311023,23.7450287 38.5671023,25.8170287 C39.9991023,27.4320287 41.2051023,30.2010287 39.5481023,29.2220287 C38.2511023,28.4550287 36.4781023,26.3720287 35.3981023,25.5550287 Z" id="Fill-8" fill="#090E2B"/><path d="M24.8135023,36.0623287 C29.3405023,36.0623287 33.0105023,32.7143287 33.0105023,28.5833287 C33.0105023,24.4533287 29.3405023,21.1043287 24.8135023,21.1043287 C20.2865023,21.1043287 16.6165023,24.4533287 16.6165023,28.5833287 C16.6165023,32.7143287 20.2865023,36.0623287 24.8135023,36.0623287 Z" id="Fill-10" fill="#090E2B"/></g><g id="eye2" transform="translate(81.203378, 15.000183)"><path d="M23.2557812,1.861246 C26.6096324,3.34897691 31.0744206,8.28711729 27.357522,8.28711729 C23.6406234,8.28711729 15.5900245,7.23270759 10.1930245,9.45970759 C8.30802454,9.94170759 6.87752199,10.8641173 4.98452199,11.0891173 C0.67652199,11.9281173 -1.66408888,6.76839233 1.38185604,3.64904337 C4.82290212,0.125071736 16.4397812,-1.545754 23.2557812,1.861246 Z" id="Fill-4" fill="#090E2B"/><path d="M19.455322,34.2343173 C24.826322,32.9853173 28.843322,28.1153173 28.389322,24.4763173 C27.503322,19.6543173 18.218322,16.5753173 13.017322,19.2083173 C7.86632199,21.8153173 4.64332199,27.6403173 5.05932199,29.9403173 C5.66032199,31.5323173 13.966322,35.5113173 19.455322,34.2343173 Z" id="Fill-12" fill="#FFF"/><path d="M15.011222,31.6060173 C18.549222,31.6060173 21.417222,28.8520173 21.417222,25.4560173 C21.417222,22.0590173 19.396222,18.8490173 15.011222,19.3060173 C11.492222,19.6720173 8.60422199,22.0590173 8.60422199,25.4560173 C8.60422199,28.8520173 11.473222,31.6060173 15.011222,31.6060173 Z" id="Fill-14" fill="#090E2B"/><path d="M5.25072199,26.6376173 C7.27972199,19.0636173 16.440722,15.1686173 23.685722,18.7546173 C24.705722,19.2866173 26.361722,20.4806173 27.601722,21.9226173 C28.742722,23.2526173 28.593722,23.9496173 28.127722,23.8116173 C27.355722,23.5816173 25.722722,22.1166173 24.395722,21.4866173 C17.685722,18.3036173 10.704722,20.0896173 5.59372199,27.5586173 C5.34272199,27.9456173 5.10472199,27.0746173 5.25072199,26.6376173" id="Fill-22" fill="#090E2B"/></g><path d="M89.773817,88.8585998 C81.203378,89.8585998 88.1482904,99.3833823 83.7083884,100.648667 C72.3411441,103.888108 60,99.9572383 58.0067117,89.8585998 C56.8303329,83.8986871 60.3418642,84.6193542 63.1467832,84.8682179 C65.9517021,85.1170816 79.8038764,85.6292987 87.244688,85.6292987 C94.4593207,85.6292987 90.833428,88.7349642 89.773817,88.8585998 Z" id="Fill-18" fill="#090E2B"/><path d="M79.5163974,56.0474227 C79.9047316,56.0474227 82.4878873,60.4695558 83.4356699,62.0222568 C86.4544009,66.9676809 89.7813295,72.5049636 84.8702,75.6883 C82.4912,77.2313 75.0122,74.8407787 75.0122,73.0253 C75.0122,70.2632077 81.8382,75.1193 83.4442,72.3153 C84.3857451,70.8872578 80.8590997,63.6440183 79.5163974,59.348811 C78.7670658,56.9517537 79.1280631,56.0474227 79.5163974,56.0474227 Z" id="nose" fill="#090E2B"/></g></g><g id="Facial Accesories" transform="translate(517.000000, 209.000000) scale(1 1)" fill="#000"><g id="Facial Accesories/None" stroke="none" stroke-width="1" fill="none" fill-rule="evenodd" fill-opacity="0"/></g><g id="Glass" transform="translate(520.000000, 164.000000) scale(1 1)" fill="#000"><g id="Glass/None" stroke="none" stroke-width="1" fill="none" fill-rule="evenodd" fill-opacity="0"/></g></g></g></g></svg>