<svg viewBox="-40 120 3279.9999999999995 1800.0000000000002" xmlns="http://www.w3.org/2000/svg" xmlns:xlink="http://www.w3.org/1999/xlink" overflow="visible" width="3279.9999999999995px" height="1800.0000000000002px"><defs><polygon id="masterscenesonline-searching-path-5" points="0.885 0.4042 225.003 0.4042 225.003 229 0.885 229"/><polygon id="masterscenesonline-searching-path-7" points="0.354636271 0.4782 167.3115 0.4782 167.3115 15 0.354636271 15"/><path d="M363.685,181.685 C363.685,81.345 282.34,0 182,0 C81.66,0 0.315,81.345 0.315,181.685 C0.315,282.02 81.66,363.365 182,363.365 C282.34,363.365 363.685,282.02 363.685,181.685" id="masterscenesonline-searching-path-1"/><path d="M363.685,181.685 C363.685,81.345 282.34,0 182,0 C81.66,0 0.315,81.345 0.315,181.685 C0.315,282.02 81.66,363.365 182,363.365 C282.34,363.365 363.685,282.02 363.685,181.685" id="masterscenesonline-searching-path-3"/></defs><g id="Master/Scenes/Online Searching" stroke="none" stroke-width="1" fill="none" fill-rule="evenodd"><g id="Background" transform="translate(-112.000000, -177.000000)"><g id="Outdoor Plants" transform="translate(2557.000000, 1085.000000) scale(1 1)"><g id="Outdoor Plants/Bush" stroke="none" stroke-width="1" fill="none" fill-rule="evenodd"><g id="Group-16-Copy" transform="translate(98.000000, 689.000000)"><path d="M2.39500229,275.969448 C4.95578,275.610539 7.81571397,276.244612 10.3764917,275.885703 L558,275.885703 C557.748709,255.057012 545.866222,224.872758 527.67752,214.67974 C509.500785,204.498686 485.903338,204.821704 468.013793,215.46934 C476.079046,172.735231 481.918576,128.086941 470.155752,86.2022508 C458.41686,44.3175605 424.971188,5.75876099 381.773022,0.590470148 C341.267263,-4.24283888 301.934196,21.2038153 278.611973,54.6661058 C255.28975,88.1283962 244.831246,128.637268 234.815494,168.165122 C235.952288,149.465959 226.678444,130.479668 211.253946,119.855959 C195.817483,109.23225 174.768847,107.365923 157.704973,115.094432 C138.654702,123.720214 125.982442,142.814177 120.107013,162.889159 C114.24355,182.976104 114.255516,204.223522 114.315347,225.135958 C102.109771,197.476031 66.8212974,182.581304 38.4971814,193.133231 C10.1610992,203.697122 -6.48395591,247.077267 2.39500229,275.969448" id="Fill-1" fill="#F67A49"/><path d="M118.397008,275.974803 C119.891241,275.760692 121.552828,276.153228 123.047061,275.927223 L442,275.927223 C441.856554,263.85377 434.923314,246.356186 424.344146,240.456253 C413.753025,234.556319 400.018038,234.734745 389.59427,240.920159 C394.292138,216.142818 397.687034,190.247344 390.849426,165.969594 C383.999863,141.691845 364.515068,119.341089 339.352189,116.343542 C315.76722,113.536316 292.863621,128.286149 279.27208,147.686938 C265.692493,167.087727 259.607977,190.556615 253.762539,213.478332 C254.420001,202.641962 249.02881,191.639062 240.039506,185.489334 C231.050202,179.32771 218.785539,178.233367 208.85188,182.717792 C197.758697,187.725599 190.37121,198.787974 186.952406,210.42131 C183.545555,222.066541 183.545555,234.389789 183.581417,246.498926 C176.480823,230.476325 155.92018,221.840536 139.423851,227.966474 C122.915568,234.080518 113.220986,259.226605 118.397008,275.974803" id="Fill-4" fill="#FFB201"/></g></g></g><g id="Screen" transform="translate(591.000000, 705.000000) scale(1 1)"><defs><path d="M363.685,181.685 C363.685,81.345 282.34,0 182,0 C81.66,0 0.315,81.345 0.315,181.685 C0.315,282.02 81.66,363.365 182,363.365 C282.34,363.365 363.685,282.02 363.685,181.685" id="screenlaptop-1-path-1"/><path d="M363.685,181.685 C363.685,81.345 282.34,0 182,0 C81.66,0 0.315,81.345 0.315,181.685 C0.315,282.02 81.66,363.365 182,363.365 C282.34,363.365 363.685,282.02 363.685,181.685" id="screenlaptop-1-path-3"/></defs><g id="Screen/Laptop 1" stroke="none" stroke-width="1" fill="none" fill-rule="evenodd"><g id="Group"><path d="M2021.3995,1329.31 L156.8995,1329.31 C116.6695,1329.31 84.0595,1296.705 84.0595,1256.475 L84.0595,72.835 C84.0595,32.61 116.6695,-2.27373675e-13 156.8995,-2.27373675e-13 L2021.3995,-2.27373675e-13 C2061.6295,-2.27373675e-13 2094.2345,32.61 2094.2345,72.835 L2094.2345,1256.475 C2094.2345,1296.705 2061.6295,1329.31 2021.3995,1329.31" id="Fill-1" fill="#008BF2"/><path d="M2088.885,1347.308 L88.985,1347.308 C39.84,1347.308 0,1307.463 0,1258.318 L0,1230.993 L2177.875,1230.993 L2177.875,1258.318 C2177.875,1307.463 2138.03,1347.308 2088.885,1347.308" id="Fill-4" fill="#276DFF"/><polygon id="Fill-7" fill="#FFF" points="138.0175 1175.397 2034.6575 1175.397 2034.6575 52.812 138.0175 52.812"/><polygon id="Fill-9" fill="#090E2B" points="890.987 1230.9945 918.012 1273.9845 1298.292 1273.9845 1323.392 1230.9945"/><g id="Group-3" transform="translate(287.478500, 665.002500)"><g id="Face"><mask id="screenlaptop-1-mask-2" fill="#ffffff"><use xlink:href="#screenlaptop-1-path-1" fill="#ffffff"/></mask><use id="Mask" fill="#FFDFEA" xlink:href="#screenlaptop-1-path-1"/><g id="Character-2" mask="url(#screenlaptop-1-mask-2)"><g transform="translate(-13.000000, 9.422000)"><path d="M213.972307,222.517402 C213.972307,222.517402 207.254058,264.694548 213.762956,277.264565 C218.945634,287.273819 249.523831,300.962858 249.523831,300.962858 L255,330.345184 L141.468913,342 C128.331918,339.085547 80.7772962,326.899195 95.9567113,307.851838 C111.135125,288.804481 143.290964,283.552071 148.517715,275.109448 C158.553518,258.900611 160.387589,225.951401 160.111126,213.505277 C160.111126,210.413978 213.972307,222.517402 213.972307,222.517402" id="neck" fill="#09B9C6"/><g id="t-shirt" stroke-width="1" fill="none" transform="translate(31.000000, 287.000000)"><path d="M89.4468,0.0136764189 C102.8688,2.67167642 149.2358,34.6536764 177.6858,31.5776764 C192.0658,30.0236764 203.8198,5.46367642 204.2708,4.91467642 C204.576334,4.54492662 218.843092,11.9835019 231.055751,19.7322048 L231.0582,19.7031764 L231.0582,19.7031764 C231.135221,19.7651796 231.222432,19.8308242 231.319419,19.9003197 C231.863961,20.2463015 232.403006,20.5926111 232.936312,20.9387644 C239.599781,25.0355541 258.899602,36.4407721 265.3982,68.0261764 C268.0352,80.8401764 285.0832,128.800176 300.1392,167.597176 C288.335776,185.699803 275.3929,186.242882 241.16511,186.259174 L237.927661,186.259678 L237.927661,186.259678 C229.857644,186.259678 155.328216,189.846496 72.662627,186.259678 C38.2055127,184.764601 8.73269423,183.264728 1.25005975,158 C-2.84486358,144.173704 13.2909823,83.3129264 12.1768,74.8846764 C8.8578,49.7816764 26.8658,32.3416764 33.1348,27.1536764 C54.0788,9.82167642 87.2148,-0.427323581 89.4468,0.0136764189 Z" id="T-Shirt" fill="#FF0057"/><path d="M255.6453,102.608676 C258.0363,112.136676 258.064419,120.171504 257.606419,129.951504 C256.453079,147.259988 253.873594,145.961005 249.782594,166.732005 C247.698594,177.309005 246.534594,183.736005 245.868594,185.399005 C244.964594,187.656005 245.234594,181.318005 247.753594,166.371005 C250.267594,149.368005 252.892902,151.271638 254.510902,134.292638 C256.128902,117.313638 255.5623,114.940676 252.8243,102.383676 C250.3413,91.3246764 246.4643,81.4866764 243.1413,70.6196764 C242.9503,69.1046764 239.1053,59.6106764 241.0533,61.0176764 C245.5873,74.8956764 251.9913,88.4526764 255.6453,102.608676 Z" id="Fill-15" fill="#090E2B"/><path d="M96.8404,74.2851764 C93.7574,101.612176 89.1684,128.761176 83.1614,155.596176 C82.2654,157.756176 75.4204,187.256176 75.1164,182.060176 C75.0774,181.382176 75.2134,180.032176 75.3544,179.363176 C80.6594,154.144176 86.1554,126.484176 90.7034,101.126176 C90.7044,101.126176 95.4114,74.0911764 95.4114,74.0911764 C95.5384,73.2221764 96.9564,73.3601764 96.8404,74.2851764" id="Fill-17" fill="#090E2B"/></g><g id="Head" stroke-width="1" fill="none" transform="translate(43.000000, 0.000000)"><path d="M172.750436,123.673215 C181.557667,108.745196 199.106925,88.6932061 230.141424,95.6440364 C273.229251,105.294464 235.7643,153.087 237.6813,176.044 C244.6903,259.99 223.691575,291.326 194.4633,291.326 C165.633543,291.326 152.716829,272.531922 167.8583,235.389 C181.469468,202 156.532456,151.162251 172.750436,123.673215 Z" id="Fill-1" fill="#090E2B"/><path d="M234.848949,163.885475 C232.942649,191.560432 241.123118,249.878015 201.29748,260.203135 C173.36764,267.444173 110.311063,248.579884 103.276658,201.477616 C102.046318,193.23928 88.8110684,143.437961 121.79356,114.65996 C150.3729,89.7238126 226.222248,92.3469712 232.718352,105.216043 C244.807119,129.164429 236.755249,136.210518 234.848949,163.885475 Z" id="Fill-4" fill="#09B9C6"/><path d="M237.603038,103.221619 C239.025848,118.481668 225.330156,127.182873 206.488422,130.336394 C177.59303,135.172586 147.011189,128.954083 127.124348,145.641593 C121.289634,150.537637 127.072681,170.703956 120.574681,176.920956 C116.314681,180.995956 114.36699,172.243021 114.14799,171.477021 C112.27999,164.953021 110.267031,170.610727 107.622031,169.289727 C106.838031,193.824727 106.838031,208.48543 118.7562,227.334768 C132.788009,249.526962 163.406531,304.845442 153.793292,347 C141.472103,401.029063 71.580246,413.225066 83.4284519,336.190768 C95.2766578,259.15647 57.6589481,273.146983 57.6559481,223.783983 C57.6529481,191.521983 77.3517084,164.160122 83.4284519,125.164426 C95.2766578,49.1320851 135.97534,40.854482 183.415368,53.3378562 C216.713053,62.0998128 236.04809,86.5443478 237.603038,103.221619 Z" id="Fill-6" fill="#090E2B"/><path d="M102.271722,163.023106 C97.3166078,162.654238 86.4745543,163.725043 90.9927759,185.83565 C93.9563575,200.338389 113.042311,203.391002 117.062687,202.616683 C124.257151,201.229616 117.611469,190.122232 117.062687,179.804078 C116.690803,172.831144 111.458282,163.708003 102.271722,163.023106 Z" id="Fill-9" fill="#09B9C6"/><path d="M162.122346,256.020918 C162.376346,256.116918 162.793001,257.295741 162.526001,257.346741 C157.131001,258.395741 143.458313,253.166394 135.058313,245.948394 C134.075313,245.103394 130.395313,241.885394 132.088313,242.314394 C139.611313,247.511394 159.614346,255.083918 162.122346,256.020918 Z" id="Fill-11" fill="#090E2B"/><path d="M98.7621,171.4166 C96.1761,171.5516 95.2181,174.2336 97.7951,174.0726 C101.1761,173.8616 105.4961,176.9886 107.5011,179.5376 C105.0641,179.8306 103.0591,180.4216 101.2001,182.4326 C100.0751,183.6496 100.1801,185.0626 101.4441,183.9976 C104.5421,181.3886 107.6001,181.2946 108.5041,181.3496 C108.6501,181.4696 110.4571,185.6546 110.7401,187.4306 C112.7531,187.9676 109.6011,170.8536 98.7621,171.4166" id="Fill-13" fill="#090E2B"/></g><g id="Face" stroke-width="1" fill="none" transform="translate(164.000000, 133.000000)"><g id="eye1" transform="translate(24.000079, 12.999886)"><path d="M4.87822092,23.1366138 C4.87822092,23.1366138 13.0082209,15.1016138 26.8302209,17.6006138 C38.0772209,19.6346138 42.2992209,28.8076138 42.2693796,30.3186138 C41.5022209,33.3806138 35.9152209,36.1726138 32.0652209,37.4256138 C28.2142209,38.6796138 8.96622092,40.2646138 4.87822092,23.1366138" id="white" fill="#FFF"/><path d="M34.2308209,25.6942138 C34.3618209,30.5952138 29.8628209,34.6922138 24.1828209,34.8432138 C18.5028209,34.9952138 13.7928209,31.1442138 13.6618209,26.2432138 C13.5308209,21.3412138 16.5318209,17.0532138 23.7098209,17.0932138 C29.3908209,17.1252138 34.0998209,20.7922138 34.2308209,25.6942138" id="Fill-3" fill="#090E2B"/><path d="M1.25032092,21.2440138 C2.46732092,21.3180138 3.78332092,22.1320138 4.93432092,22.1190138 L4.82132092,22.1840138 C14.0673209,13.2390138 33.9963209,13.0410138 40.0953209,24.3590138 C40.6603209,25.4080138 41.8153209,27.6770138 41.7353209,28.5680138 C41.7143209,28.7990138 41.1883209,28.1740138 41.0293209,28.0060138 C39.0393209,25.8850138 36.5713209,23.6590138 34.0683209,22.2170138 C25.2963209,17.1580138 14.2303209,16.9970138 5.36732092,23.1230138 C3.87232092,24.9010138 -2.44667908,22.3950138 1.25032092,21.2440138" id="Fill-5" fill="#090E2B"/><path d="M39.3724209,11.7831138 C27.5314209,6.24511384 13.9354209,4.53011384 2.04642092,11.0711138 C1.30642092,11.4431138 -0.268579075,11.1581138 0.0394209246,10.3871138 C0.809420925,8.46011384 4.12842092,5.38411384 7.14142092,3.72811384 C17.0154209,-1.69688616 32.5884209,-1.43488616 40.2934209,6.05911384 C42.5904209,7.64911384 43.6434209,12.8471138 39.3724209,11.7831138" id="Fill-14" fill="#090E2B"/></g><g id="eye2" transform="translate(82.117990, 14.377145)"><path d="M0.206608889,28.3658549 C0.206608889,29.1698549 4.54561037,34.1568549 14.5696104,34.1398983 C22.2946104,34.1268549 30.8266104,27.1508549 31.1276104,23.7498549 C31.4286104,20.3478549 25.1726104,16.5478549 18.1416104,16.0408549 C8.30761037,15.3328549 0.202610369,22.9968549 0.206608889,28.3658549" id="white" fill="#FFF"/><path d="M24.570912,22.2046549 C24.5739104,28.2416549 20.3149104,31.9926549 15.6719104,32.1166549 C11.0289104,32.2406549 6.95091037,29.3726549 6.20391037,24.7886549 C5.23291037,18.8266549 10.6589104,15.8296549 15.3009104,15.7056549 C19.9439104,15.5816549 24.5689104,17.5596549 24.570912,22.2046549" id="Fill-10" fill="#090E2B"/><path d="M0.0201103689,26.4273549 C1.25211037,15.4753549 17.4011104,11.5293549 25.9761104,16.3743549 C28.2491104,17.6593549 29.8071104,19.1303549 30.6171104,21.7593549 C30.6751104,21.9523549 30.4141104,21.9123549 29.8821104,21.6013549 C28.3761104,20.7223549 27.2161104,20.1253549 25.5041104,19.5243549 C16.8261104,16.4773549 6.03811037,17.8623549 1.47411037,26.9423549 C1.09011037,27.7243549 -0.173889631,27.2703549 0.0201103689,26.4273549" id="Fill-12" fill="#090E2B"/><path d="M1.31401037,6.80035493 C4.45201037,-0.809645071 16.6250104,-0.916645071 24.0670104,1.13235493 C25.9330104,1.64735493 27.5020104,2.29635493 28.5560104,2.99635493 C30.4970104,4.28435493 31.6110104,6.59335493 28.5170104,6.76235493 C27.4100104,6.82235493 25.6510104,6.35935493 24.5710104,6.20935493 C18.2020104,5.32435493 11.7630104,6.67135493 6.00701037,9.61035493 C3.79301037,11.0143549 -0.108989631,9.87635493 1.31401037,6.80035493" id="Fill-17" fill="#090E2B"/></g><path d="M79.5163974,56.0474227 C79.9047316,56.0474227 82.4878873,60.4695558 83.4356699,62.0222568 C86.4544009,66.9676809 89.7813295,72.5049636 84.8702,75.6883 C82.4912,77.2313 75.0122,74.8407787 75.0122,73.0253 C75.0122,70.2632077 81.8382,75.1193 83.4442,72.3153 C84.3857451,70.8872578 80.8590997,63.6440183 79.5163974,59.348811 C78.7670658,56.9517537 79.1280631,56.0474227 79.5163974,56.0474227 Z" id="nose" fill="#090E2B"/><g id="lips" transform="translate(55.983409, 85.182851)" fill="#090E2B"><path d="M22.9913913,0.0106487718 C30.3673913,-0.273351228 36.7023913,5.20264877 37.8773913,6.94964877 C39.0513913,8.69764877 38.5523913,9.32264877 37.9423913,9.41064877 C35.5463913,9.75864877 32.7193913,9.03764877 28.5613913,8.51364877 C25.0333913,8.06764877 20.2143913,10.0106488 17.4783913,10.0836488 C14.7443913,10.1566488 9.08812797,8.01233298 9.17412797,6.09433298 C9.26012797,4.17633298 16.5623913,0.257648772 22.9913913,0.0106487718 Z" id="Fill-21"/><path d="M16.0558913,11.4852488 C25.3758913,13.6272488 33.7108913,11.6752488 35.8068913,11.6192488 C37.9028913,11.5642488 42.2298913,10.0342488 42.6438913,12.9912488 C42.7938913,14.0702488 30.1368913,26.5102488 11.6928913,20.7592488 C2.75589126,17.9722488 -2.01210874,6.94024877 0.810891258,6.51324877 C5.05889126,5.86924877 5.83089126,9.13424877 16.0558913,11.4852488 Z" id="Fill-23"/></g></g><g id="Face-Add-On" stroke-width="1" fill="none" transform="translate(161.000000, 183.000000)" fill-opacity="0"/><g id="Glass" stroke-width="1" fill="none" transform="translate(164.000000, 138.000000)" fill-opacity="0"/></g></g></g><path d="M455.3925,44.009 L458.6475,54.029 C459.1025,55.419 460.3975,56.369 461.8625,56.369 L472.3975,56.369 C475.6775,56.369 477.0375,60.559 474.3875,62.484 L465.8675,68.679 C464.6775,69.534 464.1825,71.064 464.6375,72.454 L467.8925,82.474 C468.9075,85.589 465.3375,88.184 462.6875,86.254 L454.1625,80.064 C452.9825,79.204 451.3725,79.204 450.1875,80.064 L441.6675,86.254 C439.0175,88.184 435.4475,85.589 436.4625,82.474 L439.7175,72.454 C440.1725,71.064 439.6725,69.534 438.4875,68.679 L429.9675,62.484 C427.3125,60.559 428.6775,56.369 431.9575,56.369 L442.4875,56.369 C443.9525,56.369 445.2525,55.419 445.7075,54.029 L448.9575,44.009 C449.9725,40.894 454.3825,40.894 455.3925,44.009" id="Fill-70" fill="#FFB201"/><path d="M524.382,44.009 L527.637,54.029 C528.087,55.419 529.387,56.369 530.852,56.369 L541.387,56.369 C544.662,56.369 546.027,60.559 543.372,62.484 L534.852,68.679 C533.667,69.534 533.172,71.064 533.627,72.454 L536.882,82.474 C537.892,85.589 534.327,88.184 531.672,86.254 L523.152,80.064 C521.967,79.204 520.362,79.204 519.177,80.064 L510.652,86.254 C508.002,88.184 504.437,85.589 505.447,82.474 L508.702,72.454 C509.157,71.064 508.662,69.534 507.477,68.679 L498.952,62.484 C496.302,60.559 497.667,56.369 500.942,56.369 L511.472,56.369 C512.942,56.369 514.242,55.419 514.692,54.029 L517.947,44.009 C518.962,40.894 523.367,40.894 524.382,44.009" id="Fill-72" fill="#FFB201"/><path d="M593.3685,44.009 L596.6235,54.029 C597.0735,55.419 598.3735,56.369 599.8385,56.369 L610.3735,56.369 C613.6485,56.369 615.0135,60.559 612.3635,62.484 L603.8385,68.679 C602.6535,69.534 602.1585,71.064 602.6135,72.454 L605.8685,82.474 C606.8785,85.589 603.3135,88.184 600.6585,86.254 L592.1385,80.064 C590.9535,79.204 589.3485,79.204 588.1635,80.064 L579.6385,86.254 C576.9885,88.184 573.4235,85.589 574.4335,82.474 L577.6885,72.454 C578.1435,71.064 577.6485,69.534 576.4635,68.679 L567.9385,62.484 C565.2885,60.559 566.6535,56.369 569.9285,56.369 L580.4585,56.369 C581.9285,56.369 583.2285,55.419 583.6785,54.029 L586.9335,44.009 C587.9485,40.894 592.3535,40.894 593.3685,44.009" id="Fill-74" fill="#FFB201"/><path d="M662.3555,44.009 L665.6105,54.029 C666.0605,55.419 667.3605,56.369 668.8255,56.369 L679.3605,56.369 C682.6355,56.369 684.0005,60.559 681.3505,62.484 L672.8255,68.679 C671.6405,69.534 671.1455,71.064 671.6005,72.454 L674.8555,82.474 C675.8655,85.589 672.3005,88.184 669.6455,86.254 L661.1255,80.064 C659.9405,79.204 658.3355,79.204 657.1505,80.064 L648.6255,86.254 C645.9755,88.184 642.4105,85.589 643.4205,82.474 L646.6805,72.454 C647.1305,71.064 646.6355,69.534 645.4505,68.679 L636.9305,62.484 C634.2755,60.559 635.6405,56.369 638.9155,56.369 L649.4505,56.369 C650.9155,56.369 652.2155,55.419 652.6655,54.029 L655.9205,44.009 C656.9355,40.894 661.3405,40.894 662.3555,44.009" id="Fill-76" fill="#FFB201"/><path d="M731.34,44.009 L734.595,54.029 C735.05,55.419 736.35,56.369 737.815,56.369 L748.345,56.369 C751.625,56.369 752.985,60.559 750.335,62.484 L741.815,68.679 C740.625,69.534 740.135,71.064 740.585,72.454 L743.84,82.474 C744.85,85.589 741.285,88.184 738.635,86.254 L730.115,80.064 C728.93,79.204 727.32,79.204 726.135,80.064 L717.615,86.254 C714.965,88.184 711.4,85.589 712.41,82.474 L715.665,72.454 C716.115,71.064 715.62,69.534 714.435,68.679 L705.915,62.484 C703.265,60.559 704.625,56.369 707.905,56.369 L718.435,56.369 C719.9,56.369 721.2,55.419 721.655,54.029 L724.91,44.009 C725.92,40.894 730.33,40.894 731.34,44.009" id="Fill-78" fill="#CBD9EC"/><path d="M820.2305,161.724 L450.2205,161.724 C440.4855,161.724 432.5955,153.834 432.5955,144.099 L432.5955,136.129 C432.5955,126.399 440.4855,118.504 450.2205,118.504 L820.2305,118.504 C829.9605,118.504 837.8505,126.399 837.8505,136.129 L837.8505,144.099 C837.8505,153.834 829.9605,161.724 820.2305,161.724" id="Fill-80" fill="#C7D2F2" fill-rule="nonzero"/><line x1="434.921" y1="216.27" x2="1458.019" y2="216.5" id="Stroke-85" stroke="#C7D2F2" stroke-width="15" stroke-linecap="round" stroke-linejoin="round"/><line x1="434.921" y1="276.128" x2="973.64" y2="276.128" id="Stroke-86" stroke="#C7D2F2" stroke-width="15" stroke-linecap="round" stroke-linejoin="round"/></g><g id="Group-2-Copy" transform="translate(287.478500, 194.002500)"><g id="Face-Copy"><mask id="screenlaptop-1-mask-4" fill="#ffffff"><use xlink:href="#screenlaptop-1-path-3" fill="#ffffff"/></mask><use id="Mask" fill="#DCD6FF" xlink:href="#screenlaptop-1-path-3"/><g id="Character-1" mask="url(#screenlaptop-1-mask-4)"><g transform="translate(-13.000000, 9.422000)"><path d="M213.972307,222.517402 C213.972307,222.517402 207.254058,264.694548 213.762956,277.264565 C218.945634,287.273819 249.523831,300.962858 249.523831,300.962858 L255,330.345184 L141.468913,342 C128.331918,339.085547 80.7772962,326.899195 95.9567113,307.851838 C111.135125,288.804481 143.290964,283.552071 148.517715,275.109448 C158.553518,258.900611 160.387589,225.951401 160.111126,213.505277 C160.111126,210.413978 213.972307,222.517402 213.972307,222.517402" id="neck" fill="#09B9C6"/><g id="t-shirt" stroke-width="1" fill="none" transform="translate(31.000000, 287.000000)"><path d="M89.4468,0.0136764189 C102.8688,2.67167642 149.2358,34.6536764 177.6858,31.5776764 C192.0658,30.0236764 203.8198,5.46367642 204.2708,4.91467642 C204.576334,4.54492662 218.843092,11.9835019 231.055751,19.7322048 L231.0582,19.7031764 L231.0582,19.7031764 C231.135221,19.7651796 231.222432,19.8308242 231.319419,19.9003197 C231.863961,20.2463015 232.403006,20.5926111 232.936312,20.9387644 C239.599781,25.0355541 258.899602,36.4407721 265.3982,68.0261764 C268.0352,80.8401764 285.0832,128.800176 300.1392,167.597176 C288.335776,185.699803 275.3929,186.242882 241.16511,186.259174 L237.927661,186.259678 L237.927661,186.259678 C229.857644,186.259678 155.328216,189.846496 72.662627,186.259678 C38.2055127,184.764601 8.73269423,183.264728 1.25005975,158 C-2.84486358,144.173704 13.2909823,83.3129264 12.1768,74.8846764 C8.8578,49.7816764 26.8658,32.3416764 33.1348,27.1536764 C54.0788,9.82167642 87.2148,-0.427323581 89.4468,0.0136764189 Z" id="T-Shirt" fill="#3615F6"/><path d="M255.6453,102.608676 C258.0363,112.136676 258.064419,120.171504 257.606419,129.951504 C256.453079,147.259988 253.873594,145.961005 249.782594,166.732005 C247.698594,177.309005 246.534594,183.736005 245.868594,185.399005 C244.964594,187.656005 245.234594,181.318005 247.753594,166.371005 C250.267594,149.368005 252.892902,151.271638 254.510902,134.292638 C256.128902,117.313638 255.5623,114.940676 252.8243,102.383676 C250.3413,91.3246764 246.4643,81.4866764 243.1413,70.6196764 C242.9503,69.1046764 239.1053,59.6106764 241.0533,61.0176764 C245.5873,74.8956764 251.9913,88.4526764 255.6453,102.608676 Z" id="Fill-15" fill="#090E2B"/><path d="M96.8404,74.2851764 C93.7574,101.612176 89.1684,128.761176 83.1614,155.596176 C82.2654,157.756176 75.4204,187.256176 75.1164,182.060176 C75.0774,181.382176 75.2134,180.032176 75.3544,179.363176 C80.6594,154.144176 86.1554,126.484176 90.7034,101.126176 C90.7044,101.126176 95.4114,74.0911764 95.4114,74.0911764 C95.5384,73.2221764 96.9564,73.3601764 96.8404,74.2851764" id="Fill-17" fill="#090E2B"/></g><g id="Head" stroke-width="1" fill="none" transform="translate(43.000000, 0.000000)"><path d="M200.312971,280.7038 L199.0091,268.0988 L203.028919,280.7038 C203.028919,280.7038 272.0771,278.2948 273.1951,264.8788 C274.3131,251.4628 247.6101,191.459653 247.6101,153.2868 C248.277358,163.305072 260.891609,211.304374 266.217104,215.522318 C252.515374,190.830571 244.791189,119.649303 243.841508,114.3166 C239.91774,92.2836492 233.705096,76.1508857 228.770911,69.261275 C221.012911,58.430275 179.3731,51.0193119 166.3801,75.6503119 C152.8761,101.248312 170.5331,133.9078 166.3801,166.6048 C159.3711,221.7698 163.299225,268.0988 171.8301,282.6958 L200.312971,280.7038 Z" id="Fill-1" fill="#090E2B"/><path d="M230.8389,97.6343 C230.8389,97.6343 238.0639,177.5813 238.0639,199.9423 C238.0639,222.3023 236.7369,248.7503 213.1079,256.4113 C187.8319,264.6073 137.3559,250.1773 126.1459,246.9403 C77.9229,233.0193 108.0249,135.0243 114.7329,102.6023 C121.4409,70.1793 230.8389,97.6343 230.8389,97.6343" id="Fill-3" fill="#09B9C6"/><path d="M126.2676,128.6548 C126.2676,128.6548 118.4416,190.1448 126.2676,215.8588 C134.0936,241.5738 135.6756,272.546539 130.9716,279.3348 C126.2676,286.123061 109.348382,280.909511 96.5953269,280.7038 C84.5063209,280.5088 80.5752089,281.415175 78.4296,280.5088 C74.7606,274.8658 74.8386,265.0508 74.8386,265.0508 L74.8386,280.7038 C74.8386,280.7038 29.5292728,277.333758 29.5292728,254.271056 C29.5292728,234.633255 40.1726087,212.674758 55.1569663,181.027423 C71.8646917,145.740292 69.4935121,125.70407 74.8386,97.0518 C82.0586263,58.3489489 107.502539,44.2414344 130.9716,40.0600229 C171.64812,32.8128107 217.215619,44.219891 231.733297,74.9883268 C243.238504,99.3722018 235.50972,122.117953 235.50972,122.117953 C229.485526,120.42811 219.351296,119.583188 205.107029,119.583188 C195.288948,119.583188 180.653609,120.42811 161.201011,122.117953 L157.3686,97.0518 L157.3686,123.188942 L126.2676,128.6548 Z" id="Fill-5" fill="#090E2B"/><path d="M142.6573,251.2876 C149.0663,252.9406 154.4483,253.7906 160.4163,255.0806 C161.2683,255.2656 162.7693,255.5526 162.9693,255.7186 C164.1853,256.7296 161.9683,257.8536 157.5003,256.9906 C150.9573,255.7256 140.4883,250.7276 142.6573,251.2876" id="Fill-8" fill="#000"/></g><g id="Face" stroke-width="1" fill="none" transform="translate(164.000000, 133.000000)"><g id="eye1" transform="translate(21.027098, 10.213671)"><path d="M0.0487023333,7.96572872 C1.82485498,-0.0171869856 25.1977023,-2.81531309 35.4827023,3.36568691 C39.0387023,5.47868691 45.6427023,11.2837287 39.7957023,14.4437287 C38.2517023,15.1157287 36.7517023,14.4267287 35.4827023,13.6077287 C21.4647023,3.86572872 -1.18942441,13.5304877 0.0487023333,7.96572872 Z" id="Fill-1" fill="#090E2B"/><path d="M19.0113023,22.3973287 C13.7233023,23.8973287 9.19030233,28.1473287 8.76930233,31.6693287 C8.51430233,33.7973287 16.8643023,38.9063287 24.9173023,39.3033287 C35.5113023,39.8243287 40.8513023,34.0853287 40.8324531,32.2513287 C40.1193023,26.7013287 33.7283023,18.2233287 19.0113023,22.3973287 Z" id="Fill-6" fill="#FFF"/><path d="M35.3981023,25.5550287 C27.2551023,19.4010287 14.6431023,23.4110287 8.76910233,31.6690287 C8.43210233,32.0970287 8.52910233,31.0200287 8.76310233,30.5290287 C11.5971023,24.5820287 16.7101023,21.7750287 22.6381023,20.5510287 C26.2051023,19.8140287 29.5311023,19.7540287 33.0101023,21.3120287 C34.3551023,21.9130287 36.7311023,23.7450287 38.5671023,25.8170287 C39.9991023,27.4320287 41.2051023,30.2010287 39.5481023,29.2220287 C38.2511023,28.4550287 36.4781023,26.3720287 35.3981023,25.5550287 Z" id="Fill-8" fill="#090E2B"/><path d="M24.8135023,36.0623287 C29.3405023,36.0623287 33.0105023,32.7143287 33.0105023,28.5833287 C33.0105023,24.4533287 29.3405023,21.1043287 24.8135023,21.1043287 C20.2865023,21.1043287 16.6165023,24.4533287 16.6165023,28.5833287 C16.6165023,32.7143287 20.2865023,36.0623287 24.8135023,36.0623287 Z" id="Fill-10" fill="#090E2B"/></g><g id="eye2" transform="translate(81.203378, 15.000183)"><path d="M23.2557812,1.861246 C26.6096324,3.34897691 31.0744206,8.28711729 27.357522,8.28711729 C23.6406234,8.28711729 15.5900245,7.23270759 10.1930245,9.45970759 C8.30802454,9.94170759 6.87752199,10.8641173 4.98452199,11.0891173 C0.67652199,11.9281173 -1.66408888,6.76839233 1.38185604,3.64904337 C4.82290212,0.125071736 16.4397812,-1.545754 23.2557812,1.861246 Z" id="Fill-4" fill="#090E2B"/><path d="M19.455322,34.2343173 C24.826322,32.9853173 28.843322,28.1153173 28.389322,24.4763173 C27.503322,19.6543173 18.218322,16.5753173 13.017322,19.2083173 C7.86632199,21.8153173 4.64332199,27.6403173 5.05932199,29.9403173 C5.66032199,31.5323173 13.966322,35.5113173 19.455322,34.2343173 Z" id="Fill-12" fill="#FFF"/><path d="M15.011222,31.6060173 C18.549222,31.6060173 21.417222,28.8520173 21.417222,25.4560173 C21.417222,22.0590173 19.396222,18.8490173 15.011222,19.3060173 C11.492222,19.6720173 8.60422199,22.0590173 8.60422199,25.4560173 C8.60422199,28.8520173 11.473222,31.6060173 15.011222,31.6060173 Z" id="Fill-14" fill="#090E2B"/><path d="M5.25072199,26.6376173 C7.27972199,19.0636173 16.440722,15.1686173 23.685722,18.7546173 C24.705722,19.2866173 26.361722,20.4806173 27.601722,21.9226173 C28.742722,23.2526173 28.593722,23.9496173 28.127722,23.8116173 C27.355722,23.5816173 25.722722,22.1166173 24.395722,21.4866173 C17.685722,18.3036173 10.704722,20.0896173 5.59372199,27.5586173 C5.34272199,27.9456173 5.10472199,27.0746173 5.25072199,26.6376173" id="Fill-22" fill="#090E2B"/></g><path d="M85.9879908,71.3386563 C85.0131141,76.2575144 78.9689699,76.7359636 75.0323155,75.6212963 C71.832522,74.7152719 71.0034674,72.851321 72.0853454,72.2537752 C73.8485675,71.2799076 79.4997296,73.9889887 81.5858367,71.4027854 C85.305606,66.7912866 73.8914605,49.8346319 77.5177277,52.5592059 C82.3102149,56.1600121 86.6386051,68.0559034 85.9879908,71.3386563 Z" id="nose" fill="#090E2B"/><g id="lips" transform="translate(57.561158, 83.472328)" fill="#090E2B"><path d="M24.6314423,10.2352717 C21.1964423,11.9522717 16.3084423,13.7232717 10.6794423,12.9182717 C5.05144233,12.1142717 2.01844233,8.81927172 0.786442327,6.40327172 C-1.32255767,2.27127172 1.13144233,-0.833728284 4.34844233,0.200271716 C7.56344233,1.23527172 9.40744233,5.68627172 12.5654423,6.45927172 C16.4424423,7.40827172 22.8454423,4.43627172 26.5024423,3.47827172 C30.3364423,2.47327172 36.6974423,2.09918012 36.6974423,8.52727172 C36.6974423,12.1251305 34.5597106,11.3954112 32.84831,9.25710631 C31.1369095,7.11880144 28.0664423,8.51727172 24.6314423,10.2352717 Z" id="Fill-18"/><path d="M22.8970423,17.2262717 C18.4760423,16.5892717 14.2940423,17.1472717 14.5340423,20.0932717 C14.7730423,23.0402717 22.3760423,25.5572717 25.7640423,21.0492717 C26.4820423,20.0942717 27.3170423,17.8632717 22.8970423,17.2262717 Z" id="Fill-20"/></g></g><g id="Face-Add-On" stroke-width="1" fill="none" transform="translate(161.000000, 183.000000)" fill-opacity="0"/><g id="Glass" stroke-width="1" fill="none" transform="translate(164.000000, 138.000000)" fill-opacity="0"/></g></g></g><path d="M455.3925,40.7735 L458.6475,50.7935 C459.1025,52.1835 460.3975,53.1285 461.8625,53.1285 L472.3975,53.1285 C475.6775,53.1285 477.0375,57.3235 474.3875,59.2485 L465.8675,65.4435 C464.6775,66.2985 464.1825,67.8285 464.6375,69.2185 L467.8925,79.2385 C468.9075,82.3535 465.3375,84.9485 462.6875,83.0185 L454.1625,76.8285 C452.9825,75.9685 451.3725,75.9685 450.1875,76.8285 L441.6675,83.0185 C439.0175,84.9485 435.4475,82.3535 436.4625,79.2385 L439.7175,69.2185 C440.1725,67.8285 439.6725,66.2985 438.4875,65.4435 L429.9675,59.2485 C427.3125,57.3235 428.6775,53.1285 431.9575,53.1285 L442.4875,53.1285 C443.9525,53.1285 445.2525,52.1835 445.7075,50.7935 L448.9575,40.7735 C449.9725,37.6585 454.3825,37.6585 455.3925,40.7735" id="Fill-185" fill="#FFB201"/><path d="M524.382,40.7735 L527.637,50.7935 C528.087,52.1835 529.387,53.1285 530.852,53.1285 L541.387,53.1285 C544.662,53.1285 546.027,57.3235 543.372,59.2485 L534.852,65.4435 C533.667,66.2985 533.172,67.8285 533.627,69.2185 L536.882,79.2385 C537.892,82.3535 534.327,84.9485 531.672,83.0185 L523.152,76.8285 C521.967,75.9685 520.362,75.9685 519.177,76.8285 L510.652,83.0185 C508.002,84.9485 504.437,82.3535 505.447,79.2385 L508.702,69.2185 C509.157,67.8285 508.662,66.2985 507.477,65.4435 L498.952,59.2485 C496.302,57.3235 497.667,53.1285 500.942,53.1285 L511.472,53.1285 C512.942,53.1285 514.242,52.1835 514.692,50.7935 L517.947,40.7735 C518.962,37.6585 523.367,37.6585 524.382,40.7735" id="Fill-187" fill="#FFB201"/><path d="M593.3685,40.7735 L596.6235,50.7935 C597.0735,52.1835 598.3735,53.1285 599.8385,53.1285 L610.3735,53.1285 C613.6485,53.1285 615.0135,57.3235 612.3635,59.2485 L603.8385,65.4435 C602.6535,66.2985 602.1585,67.8285 602.6135,69.2185 L605.8685,79.2385 C606.8785,82.3535 603.3135,84.9485 600.6585,83.0185 L592.1385,76.8285 C590.9535,75.9685 589.3485,75.9685 588.1635,76.8285 L579.6385,83.0185 C576.9885,84.9485 573.4235,82.3535 574.4335,79.2385 L577.6885,69.2185 C578.1435,67.8285 577.6485,66.2985 576.4635,65.4435 L567.9385,59.2485 C565.2885,57.3235 566.6535,53.1285 569.9285,53.1285 L580.4585,53.1285 C581.9285,53.1285 583.2285,52.1835 583.6785,50.7935 L586.9335,40.7735 C587.9485,37.6585 592.3535,37.6585 593.3685,40.7735" id="Fill-189" fill="#FFB201"/><path d="M662.3555,40.7735 L665.6105,50.7935 C666.0605,52.1835 667.3605,53.1285 668.8255,53.1285 L679.3605,53.1285 C682.6355,53.1285 684.0005,57.3235 681.3505,59.2485 L672.8255,65.4435 C671.6405,66.2985 671.1455,67.8285 671.6005,69.2185 L674.8555,79.2385 C675.8655,82.3535 672.3005,84.9485 669.6455,83.0185 L661.1255,76.8285 C659.9405,75.9685 658.3355,75.9685 657.1505,76.8285 L648.6255,83.0185 C645.9755,84.9485 642.4105,82.3535 643.4205,79.2385 L646.6805,69.2185 C647.1305,67.8285 646.6355,66.2985 645.4505,65.4435 L636.9305,59.2485 C634.2755,57.3235 635.6405,53.1285 638.9155,53.1285 L649.4505,53.1285 C650.9155,53.1285 652.2155,52.1835 652.6655,50.7935 L655.9205,40.7735 C656.9355,37.6585 661.3405,37.6585 662.3555,40.7735" id="Fill-191" fill="#FFB201"/><path d="M731.34,40.7735 L734.595,50.7935 C735.05,52.1835 736.35,53.1285 737.815,53.1285 L748.345,53.1285 C751.625,53.1285 752.985,57.3235 750.335,59.2485 L741.815,65.4435 C740.625,66.2985 740.135,67.8285 740.585,69.2185 L743.84,79.2385 C744.85,82.3535 741.285,84.9485 738.635,83.0185 L730.115,76.8285 C728.93,75.9685 727.32,75.9685 726.135,76.8285 L717.615,83.0185 C714.965,84.9485 711.4,82.3535 712.41,79.2385 L715.665,69.2185 C716.115,67.8285 715.62,66.2985 714.435,65.4435 L705.915,59.2485 C703.265,57.3235 704.625,53.1285 707.905,53.1285 L718.435,53.1285 C719.9,53.1285 721.2,52.1835 721.655,50.7935 L724.91,40.7735 C725.92,37.6585 730.33,37.6585 731.34,40.7735" id="Fill-193" fill="#FFB201"/><path d="M820.2305,158.4885 L450.2205,158.4885 C440.4855,158.4885 432.5955,150.5985 432.5955,140.8635 L432.5955,132.8935 C432.5955,123.1635 440.4855,115.2685 450.2205,115.2685 L820.2305,115.2685 C829.9605,115.2685 837.8505,123.1635 837.8505,132.8935 L837.8505,140.8635 C837.8505,150.5985 829.9605,158.4885 820.2305,158.4885" id="Fill-195" fill="#C7D2F2" fill-rule="nonzero"/><line x1="434.921" y1="213.035" x2="1289.019" y2="213.5" id="Stroke-200" stroke="#C7D2F2" stroke-width="15" stroke-linecap="round" stroke-linejoin="round"/><line x1="434.921" y1="272.888" x2="1104.019" y2="272.5" id="Stroke-201" stroke="#C7D2F2" stroke-width="15" stroke-linecap="round" stroke-linejoin="round"/><line x1="434.921" y1="332.747" x2="973.64" y2="332.747" id="Stroke-202" stroke="#C7D2F2" stroke-width="15" stroke-linecap="round" stroke-linejoin="round"/></g></g></g></g><g id="Medium Plants" transform="translate(0.000000, 1250.000000) scale(1 1)"><g id="Medium Plants/Plant 3" stroke="none" stroke-width="1" fill="none" fill-rule="evenodd"><g id="Group" transform="translate(215.000000, 84.000000)"><path d="M112.880533,293.771571 C72.2193038,211.163092 32.755718,181.121219 20.2319955,171.471577 C31.7926281,194.631785 123.101369,458.278287 135.733483,527.310338 C93.3433125,443.747754 71.4872134,425.696285 63.5834793,417.566804 C42.1911559,395.561848 15.4147691,379.927685 0,372.207616 C6.74873695,381.58313 85.7416546,476.436559 113.680146,559.433088 L135.838322,599 L246.627421,599 C246.627421,599 258.188054,560.566979 276.492093,543.592439 C294.796131,526.619679 363.774357,441.65075 374.3719,391.46763 C348.802317,421.08304 267.492695,526.619679 253.027882,543.592439 C288.674647,442.658364 294.026586,433.333145 324.490079,377.359528 C354.953572,321.384132 418.11073,239.428478 421,237.498906 C388.244282,254.870397 291.937958,315.57786 246.266707,435.847441 C227.181252,486.106622 221.197939,518.114609 221.197939,518.114609 C221.197939,518.114609 241.824632,417.660531 240.859765,319.222084 C239.896675,220.783637 246.627421,0 246.627421,0 C246.627421,0 202.715749,77.0946758 186.442858,202.073242 C180.425007,248.291359 175.348107,438.140602 177.274287,484.065846 C177.274287,484.065846 152.358334,373.975203 112.880533,293.771571 Z" id="Fill-1" fill="#009BA0"/><path d="M254.50609,716 L126.947716,716 C108.198988,716 93,690.078415 93,671.268722 L93,544 L292,544 L292,667.710997 C292,688.399168 275.127209,716 254.50609,716" id="Fill-4" fill="#FF00A4"/></g></g></g><g id="Flying Objects" opacity=".5" transform="translate(2376.000000, 97.000000) scale(1 1)"><g id="Flying Objects/Cloud 1" stroke="none" stroke-width="1" fill="none" fill-rule="evenodd"><path d="M479.95575,473.895048 C489.613069,459.137123 499.099888,436.733126 487.997876,423.547909 C481.436886,415.755283 470.330969,416.37302 462.370839,421.934228 C454.409408,427.495437 448.858402,436.870226 443.55859,445.96136 C452.064059,424.955151 460.742631,403.137375 461.346539,379.753193 C461.950447,356.369012 452.155166,330.873179 433.86613,323.327963 C414.905507,315.50382 394.716245,328.774134 378.352165,342.761464 C343.415317,372.620853 311.811676,408.189581 284.665759,448.195929 C286.38117,435.63948 288.09658,422.759979 286.097437,410.263412 C284.098294,397.765269 277.573747,385.527143 267.572825,381.604829 C257.656503,377.714031 246.935838,382.62441 237.627328,388.303808 C205.588977,407.842892 177.856072,437.617184 158,473.792617 C160.945352,473.792617 156.578734,478.669903 159.524086,478.669903 L479.95575,473.895048 Z" id="cloud" fill="#F0F1FF" transform="translate(325.500000, 399.834951) scale(-1, 1) translate(-325.500000, -399.834951)"/></g></g><g id="Outdoor Plants" transform="translate(2517.000000, 1088.000000) scale(1 1)"><g id="Outdoor Plants/Bush" stroke="none" stroke-width="1" fill="none" fill-rule="evenodd"><g id="Group-16-Copy" transform="translate(98.000000, 689.000000)"><path d="M2.39500229,275.969448 C4.95578,275.610539 7.81571397,276.244612 10.3764917,275.885703 L558,275.885703 C557.748709,255.057012 545.866222,224.872758 527.67752,214.67974 C509.500785,204.498686 485.903338,204.821704 468.013793,215.46934 C476.079046,172.735231 481.918576,128.086941 470.155752,86.2022508 C458.41686,44.3175605 424.971188,5.75876099 381.773022,0.590470148 C341.267263,-4.24283888 301.934196,21.2038153 278.611973,54.6661058 C255.28975,88.1283962 244.831246,128.637268 234.815494,168.165122 C235.952288,149.465959 226.678444,130.479668 211.253946,119.855959 C195.817483,109.23225 174.768847,107.365923 157.704973,115.094432 C138.654702,123.720214 125.982442,142.814177 120.107013,162.889159 C114.24355,182.976104 114.255516,204.223522 114.315347,225.135958 C102.109771,197.476031 66.8212974,182.581304 38.4971814,193.133231 C10.1610992,203.697122 -6.48395591,247.077267 2.39500229,275.969448" id="Fill-1" fill="#F67A49"/><path d="M118.397008,275.974803 C119.891241,275.760692 121.552828,276.153228 123.047061,275.927223 L442,275.927223 C441.856554,263.85377 434.923314,246.356186 424.344146,240.456253 C413.753025,234.556319 400.018038,234.734745 389.59427,240.920159 C394.292138,216.142818 397.687034,190.247344 390.849426,165.969594 C383.999863,141.691845 364.515068,119.341089 339.352189,116.343542 C315.76722,113.536316 292.863621,128.286149 279.27208,147.686938 C265.692493,167.087727 259.607977,190.556615 253.762539,213.478332 C254.420001,202.641962 249.02881,191.639062 240.039506,185.489334 C231.050202,179.32771 218.785539,178.233367 208.85188,182.717792 C197.758697,187.725599 190.37121,198.787974 186.952406,210.42131 C183.545555,222.066541 183.545555,234.389789 183.581417,246.498926 C176.480823,230.476325 155.92018,221.840536 139.423851,227.966474 C122.915568,234.080518 113.220986,259.226605 118.397008,275.974803" id="Fill-4" fill="#FFB201"/></g></g></g><g id="Flying Objects" opacity=".5" transform="translate(1017.000000, 400.000000) scale(-1, 1) translate(-1017.000000, -400.000000) translate(667.000000, 0.000000) scale(1 1)"><g id="Flying Objects/Cloud 2" stroke="none" stroke-width="1" fill="none" fill-rule="evenodd"><path d="M479.95575,473.895048 C489.613069,459.137123 499.099888,436.733126 487.997876,423.547909 C481.436886,415.755283 470.330969,416.37302 462.370839,421.934228 C454.409408,427.495437 448.858402,436.870226 443.55859,445.96136 C452.064059,424.955151 460.742631,403.137375 461.346539,379.753193 C461.950447,356.369012 424.683149,265.573363 301,363.097442 C274.191914,384.2356 253.304938,454.747164 158,473.792617 C160.945352,473.792617 156.578734,478.669903 159.524086,478.669903 L479.95575,473.895048 Z" id="cloud" fill="#E4E8FD" transform="translate(325.500000, 398.771931) scale(-1, 1) translate(-325.500000, -398.771931)"/></g></g><g id="Floor" transform="translate(112.000000, 2049.500000)" fill="#090E2B" fill-rule="nonzero"><path d="M3214.29077,-2.5 C3216.22377,-2.5 3217.79077,-0.932996624 3217.79077,1 C3217.79077,2.8685634 3216.32649,4.39512645 3214.48281,4.49482114 L3214.29077,4.5 L0.290769851,4.5 C-1.64222677,4.5 -3.20923015,2.93299662 -3.20923015,1 C-3.20923015,-0.868563404 -1.74495255,-2.39512645 0.098734648,-2.49482114 L0.290769851,-2.5 L3214.29077,-2.5 Z" id="Path-4-Copy"/></g></g><g transform="translate(2260.000000, 1123.000000) scale(-1, 1) translate(-2260.000000, -1123.000000) translate(1705.000000, 373.000000) scale(1 1)" id="Master/Character/Standing"><g id="Master/Character/Standing" stroke="none" stroke-width="1" fill="none" fill-rule="evenodd"><g id="Lower Body/Standing" transform="translate(-64.000000, 629.000000) scale(1 1)"><g id="Lower Body/Standing/Stand One Leg" stroke="none" stroke-width="1" fill="none" fill-rule="evenodd"><g id="leg-2" transform="translate(542.000000, 726.000000)"><path d="M85.4175702,9.9475983e-14 C85.4175702,9.9475983e-14 70.9765702,50.33 69.1545702,68.549 C68.6725702,73.368 80.6475702,84.092 80.6475702,84.092 L60.3095702,108.001 L16.9515702,102.467 L12.7325702,2.444 L85.4175702,9.9475983e-14 Z" id="leg" fill="#ca8f67"/><g id="shoe-2" transform="translate(0.000000, 75.797772)"><path d="M176.78477,52.5498283 C171.36377,35.7908283 132.37077,24.8268283 104.21377,16.5228283 C94.7357702,13.7268283 81.4637702,-0.183171687 75.3227702,0.00182831299 C66.3817702,0.272828313 75.1987702,19.0038283 45.2637702,17.4578283 C37.3397702,17.0488283 36.7487702,8.64382831 19.5237702,6.77882831 C16.7257702,6.47682831 12.4467702,5.94182831 8.77177019,12.6558283 C6.72377019,16.3998283 -1.60722981,50.1628283 6.70777019,63.8988283 C64.6557702,65.2388283 124.25377,63.5748283 175.73277,62.9418283 C180.75977,62.8798283 178.17177,56.8378283 176.78477,52.5498283" id="Fill-14" fill="#090E2B"/><path d="M164.80617,68.8359283 L24.9981702,71.7059283 C15.6471702,72.1069283 1.64517019,68.9319283 0.269170191,61.1639283 C-0.757829809,55.3609283 1.45217019,42.7129283 1.91717019,41.8709283 C5.15717019,36.0009283 32.9261702,40.8649283 41.0691702,60.6299283 C92.0921702,64.3049283 178.95817,60.3159283 178.95817,60.3159283 C178.95817,60.3159283 180.28617,67.9929283 164.80617,68.8359283" id="Fill-16" fill="#FF0057"/><path d="M110.05327,28.5977283 C113.74827,21.0357283 115.37127,19.7177283 113.78227,18.5337283 C109.98327,15.7017283 90.7502702,24.5397283 89.2512702,29.7697283 C88.1282702,33.6887283 100.91927,22.3177283 111.15527,20.5967283 C106.96927,24.4747283 103.09127,36.3357283 107.21427,33.9617283 C127.29827,22.3967283 130.47927,25.0567283 130.50227,24.6277283 C130.61527,22.5937283 122.99727,20.9707283 110.05327,28.5977283" id="Fill-19" fill="#FF0057"/></g></g><g id="leg-1" transform="translate(515.159812, 671.090226) rotate(-8.000000) translate(-515.159812, -671.090226) translate(446.659812, 563.090226)"><path d="M55.1088938,42.095 C55.1088938,42.095 96.7988938,16.759 116.099894,3.41060513e-13 C130.862894,42.935 136.509894,58.94 136.509894,58.94 C136.509894,58.94 100.991894,74.523 88.8768938,82.011 C83.9988938,85.026 87.9838938,104.932 87.9838938,104.932 C87.9838938,104.932 61.7978938,103.857 57.4858938,89.033 C53.1728938,74.211 55.1088938,42.095 55.1088938,42.095" id="Fill-1" fill="#ca8f67"/><g id="shoe-1" transform="translate(-0.000000, 39.429041)"><path d="M82.6333938,169.923759 C95.8113938,158.236759 90.2163938,118.119759 86.5313938,88.995759 C85.2903938,79.192759 92.7103938,61.455759 90.0773938,55.904759 C86.2443938,47.821759 72.6213938,63.411759 62.0313938,35.369759 C59.2293938,27.946759 66.6913938,24.034759 61.4903938,7.50875902 C60.6463938,4.82375902 59.4193938,0.690759021 51.7953938,0.0167590207 C47.5453938,-0.358240979 13.2753938,5.55075902 4.02739384,18.675759 C26.0393938,72.297759 51.4663938,126.224759 72.6933938,173.128759 C74.7663938,177.707759 79.2623938,172.913759 82.6333938,169.923759" id="Fill-6" fill="#090E2B"/><path d="M62.9116938,165.483359 L4.21069384,38.563359 C0.0926938412,30.157359 -2.61330616,16.057359 3.94969384,11.681359 C8.85269384,8.41335902 21.3256938,5.36635902 22.2846938,5.45435902 C28.9606938,6.06735902 35.6416938,33.456359 20.8026938,48.841359 C37.8996938,97.056359 76.3916938,175.031359 76.3916938,175.031359 C76.3916938,175.031359 69.8916938,179.325359 62.9116938,165.483359" id="Fill-8" fill="#FF0057"/><path d="M77.8120938,99.188459 C86.2210938,99.541459 88.0800938,100.499459 88.5270938,98.568459 C89.5970938,93.952459 73.7880938,79.878459 68.3960938,80.603459 C64.3550938,81.146459 79.9020938,88.302459 85.5830938,96.989459 C80.3520938,94.709459 67.9310938,95.915459 71.7590938,98.739459 C90.4090938,112.499459 89.2480938,116.479459 89.6500938,116.329459 C91.5590938,115.617459 89.9910938,107.987459 77.8120938,99.188459" id="Fill-10" fill="#FF0057"/></g></g><path d="M559.052071,-17.8288135 L705.122061,2.6999849 C705.122061,2.6999849 705.122105,2.70783391 705.12219,2.72342195 L705.124235,2.75434839 C718.996153,4.64986141 728.813179,6.02955443 728.813179,6.02955443 C733.117322,12.2596974 736.34168,18.6154616 738.486254,25.0968471 C774.74713,134.685377 800.586579,239.136408 820.622201,329.365429 C827.168201,358.843429 848.742046,420.392377 792.679046,463.055377 C764.680462,484.36196 682.743759,532.708034 620.331014,568.731505 C600.874529,658.586344 584.843673,725.913568 581.554546,727.843577 C573.199546,732.745577 491.318546,753.782577 491.318546,727.843577 C488.643546,622.172577 510.498546,512.738577 518.160546,431.823577 C525.281546,356.619577 526.423936,307.838024 518.160546,189.687577 C508.075546,45.4916348 559.052071,-17.8288135 559.052071,-17.8288135 L559.052071,-17.8288135 Z M674.193778,303.741721 L673.274593,308.592512 C666.934585,342.000168 660.02046,377.236768 652.921337,412.511488 C673.457724,396.817012 693.726714,382.688998 711.244046,372.936377 C702.782154,358.759122 689.225769,333.112038 674.193778,303.741721 Z" id="Combined-Shape" fill="#FFB201" transform="translate(660.642203, 361.355918) rotate(-8.000000) translate(-660.642203, -361.355918)"/><path d="M682.938633,103.929024 C679.897633,136.976024 675.475633,170.259024 670.837633,203.107024 C665.551633,233.822024 661.769633,271.022024 652.449633,300.572024 C651.859633,302.441024 651.949633,300.352024 651.982633,299.741024 C653.505633,271.123024 662.896633,230.941024 666.709633,202.479024 C670.548633,178.740024 674.570633,152.399024 678.269633,128.499024 L682.700633,101.764024 C682.758633,101.297024 683.000633,103.409024 682.938633,103.929024" id="Fill-23" fill="#000" transform="translate(667.453075, 201.514715) rotate(-8.000000) translate(-667.453075, -201.514715)"/><path d="M671.307247,414.599774 C665.618247,466.142774 653.627247,521.476774 638.583247,570.630774 C638.306247,571.537774 638.835247,568.872774 638.949247,568.145774 C642.483247,545.476774 650.161247,514.120774 654.110247,492.054774 C658.708247,469.187774 664.744247,437.875774 670.629247,415.588774 C670.746247,415.050774 671.374247,414.013774 671.307247,414.599774" id="Fill-25" fill="#000" transform="translate(654.908110, 492.621261) rotate(-8.000000) translate(-654.908110, -492.621261)"/></g></g><g id="Upper Body/Standing" transform="translate(69.000000, -172.000000) scale(1 1)"><g id="Upper Body/Standing/Namaste 2" stroke="none" stroke-width="1" fill="none" fill-rule="evenodd"><path d="M577.929327,657.91287 L562,628.8482 C562,628.8482 584.184069,604.633491 594.545418,600.415219 C610.141346,594.066253 617.087842,595.055897 617.087842,595.055897 C617.087842,595.055897 633.978439,632.370613 637,663.545923 C619.504492,676.183695 577.929327,657.91287 577.929327,657.91287" id="Fill-1" fill="#ca8f67"/><path d="M441.711172,405 C441.711172,405 447.322511,449.556873 438.830431,467.779166 C436.051787,473.742224 415.267011,478.893551 410,482.55286 C429.222289,518.926206 474.954802,526 488.243445,526 C511.98003,526 511.978028,502.329381 513,484.909787 C504.788187,482.485633 496.542341,479.206604 494.728616,472.070601 C493.53548,467.37882 497.807545,432.554684 497.807545,432.554684 L441.711172,405 Z" id="neck" fill="#ca8f67"/><path d="M509.375869,481.35538 C509.375869,481.35538 506.283,510.887902 493.099346,517.737066 C486.287241,521.274535 425.243035,486.034709 418.931424,477 C414.516892,476.97675 378.623227,487.339407 373.607304,491.218535 C368.590383,495.097663 353.319795,570.530291 359.507531,589.093762 C365.695267,607.657233 380.480575,607.239951 388.538978,641.116393 C402.176839,698.448121 383.617623,775.434982 355.495811,811.876854 C345.908969,824.300039 330.538901,853.351087 418.931424,828.991401 C476.906737,813.014349 554.300394,868.489466 579.037353,815.481874 C585.572336,801.478387 542.480359,749.976258 554.300394,664.24483 C556.14153,650.89016 558.738901,639.273755 561.018593,629.511499 C562.25634,633.431586 564.871692,644.933106 568.780735,644.383654 C586.089215,641.953081 622.026836,635.292729 632.70203,629.347663 C635.670025,627.694313 615.879059,576.915997 599.4397,549.419442 C587.638646,529.680145 570.816675,503.483293 550.739998,493.505252 C535.519405,485.939804 509.375869,481.35538 509.375869,481.35538 Z" id="Fill-5" fill="#3615F6"/><path d="M504.909165,573.031393 C504.909165,573.031393 510.360224,566.210092 518.898717,573.032393 C525.069577,577.96361 526.839544,593.376289 527.320078,597.533472 C527.799612,601.690655 530.162238,631.273958 523.311622,639.824335 C543.288831,644.813554 582.790744,656.194056 582.790744,656.194056 C582.790744,656.194056 609.522461,656.231057 636.386326,659.683209 C639.171422,679.323074 641.057518,716.649719 617.943823,718.903818 C607.696431,719.902862 553.051684,714.246613 509.318066,647.44467 C494.361439,643.061477 493.819837,634.854116 493.041972,621.608532 C492.179013,606.928886 504.909165,573.031393 504.909165,573.031393" id="Fill-8" fill="#ca8f67"/><path d="M310.588881,607.435257 C300.004578,634.001851 294.20009,688.633959 296.499115,707.169978 C301.972032,751.301641 370.888847,745.196964 440.833332,697.247503 C473.199448,675.060677 490.410175,661.03542 500.811715,650.679968 C508.035367,643.488349 516.022031,643.194364 519.446599,628.611136 C522.259959,616.624771 521.16138,588.935237 516.883916,579.62173 C512.605452,570.308223 506.56427,569.593261 503.047821,569.054289 C494.380038,567.726359 490.18247,591.119121 487.682705,599.810661 C487.23029,597.221798 485.115028,593.769981 483.437199,592.558045 C478.954001,589.319216 476.220538,591.040125 479.481318,598.807714 C482.912877,606.978281 473.129538,627.4132 482.724122,636.346727 C466.551051,646.11421 436.112442,649.789015 413.377862,654.61276 C392.513862,659.037526 373.112969,663.237303 370.296614,663.48829 C375.428972,647.364144 387.515331,619.207634 387.515331,619.207634 C387.515331,619.207634 321.174183,580.867664 310.588881,607.435257" id="Fill-11" fill="#ca8f67"/><path d="M345.074243,671.568517 C353.030207,667.4734 361.581953,663.639798 370.693833,663.000211 C371.027878,662.988458 371.12361,663.470352 370.803824,663.573195 C364.691215,665.814197 357.953291,668.157062 351.781614,670.145363 C350.909839,670.221761 344.225892,673.057294 345.074243,671.568517" id="Fill-23" fill="#090E2B"/><path d="M376.253856,490 C376.253856,490 414.094239,535.191968 415.938457,557.582525 C417.780678,579.974079 377.664961,651 376.047279,651 C372.231107,650.998006 357.474375,643.871879 330.541618,640.118347 C303.780509,636.388748 302.656814,636.105538 302.051056,632.110679 C300.787648,623.792876 323.216643,554.472199 342.1538,522.662909 C356.81872,498.030604 376.253856,490 376.253856,490" id="Fill-13" fill="#3615F6"/><path d="M415.383367,547.675662 C414.476496,545.094561 416.29645,541.48255 417.709135,552.704295 C419.60457,567.760792 411.91655,583.817428 403.937464,601.967097 C401.516812,606.963128 391.056422,626.015164 386.46337,633.329884 C385.137693,635.441107 386.940331,632.145028 388.31389,629.247272 C395.762596,613.532956 419.60457,572.423153 415.383367,547.675662 Z" id="Fill-15" fill="#090E2B"/><path d="M560.767253,549.613858 C573.516494,574.935473 566.645663,603.233276 561.096724,629.541616 C561.036638,629.833831 560.788283,630.194096 560.837353,629.875862 C562.602879,614.065239 565.650239,595.229392 565.706319,579.459799 C565.263686,569.425422 562.886285,558.797609 560.02419,549.182541 C559.859955,548.751224 560.578983,549.161525 560.767253,549.613858" id="Fill-17" fill="#090E2B"/><path d="M509.696495,571.012213 C526.420136,575.093291 526.219968,631.255694 515.513546,641.320149 C512.953027,643.923665 509.391671,646.409977 506,647 C507.26197,645.87004 509.330706,645.239948 510.693268,644.050885 C524.161393,634.467264 521.209684,603.632788 519.356356,588.897231 C518.325036,582.260722 516.561123,574.194733 509.572533,571.383858 C509.339851,571.32175 509.457716,570.926064 509.696495,571.012213" id="Fill-19" fill="#090E2B"/><path d="M576.17715,654.002775 C584.515963,655.530582 603.520227,659.140192 610.646066,663.981807 C611.120311,664.305056 612.347471,665.183316 611.905653,664.965784 C611.546929,664.789929 610.666333,664.412805 610.037046,664.14953 C600.80345,660.300025 590.137998,658.37883 580.626746,655.575308 L576.111283,654.313825 C575.931921,654.267066 575.980562,653.968213 576.17715,654.002775" id="Fill-21" fill="#090E2B"/></g></g><g id="Head" transform="translate(399.000000, 26.000000) scale(1 1)"><g id="Head/Afro" stroke="none" stroke-width="1" fill="none" fill-rule="evenodd"><path d="M231.6313,151.3019 C236.4543,169.0359 245.8113,200.7169 229.2603,232.6039 C218.0793,254.1449 198.8703,266.8079 180.7813,266.8079 C172.0283,266.8079 143.6393,257.6409 128.9153,246.5709 C111.3193,233.3429 100.9123,219.1829 100.882902,185.5669 C100.8523,150.3759 106.1943,130.0149 125.5053,112.3559 C149.7133,90.2149 222.6933,88.2139 228.7473,116.0439 C228.7473,116.0439 226.8073,133.5669 231.6313,151.3019 Z" id="Fill-1" fill="#ca8f67"/><path d="M186.1612,279.8005 C198.3292,282.114043 206.1462,278.402877 210.7822,275.450615 C216.0322,283.751065 242.8552,283.10653 247.3622,258.387393 C265.5082,256.621463 289.3372,245.942532 281.1322,217.989088 C295.6742,218.876899 295.9942,198.910845 290.1182,187.541825 C308.544499,181.777839 310.8892,155.008788 298.1052,142.314837 C308.4822,138.444718 315.1702,119.439167 298.1052,93.7440189 C307.2022,73.4891359 298.1052,59.3432839 287.4802,60.1080031 C288.7652,53.7857425 292.1022,48.3571082 273.8482,46.3905489 C276.5522,29.3544651 269.7432,7.14465354 240.1832,11.9626755 C236.8022,-7.69516429 218.6722,-16.6721346 205.7152,-6.12307987 C194.8972,-24.4705262 161.9962,-24.1371125 153.9452,-3.70873814 C135.2502,-22.8567651 104.9412,-4.71867154 97.5042,12.9735781 C86.5952,-1.53282599 61.1512,-2.25877619 46.2312,30.9575648 C14.3742,29.0016669 -4.8638,42.2238467 2.0722,67.0999988 C-15.3448,69.76537 -33.7798,91.4246613 -15.6978,120.428746 C-25.4898,121.92717 -32.7808,150.208212 -15.9448,153.458996 C-26.1028,160.900713 -24.4868,192.889044 3.2312,194.199438 C-11.0198,199.998316 -11.6418,228.927771 8.6402,233.515117 C3.6952,259.12885 27.2562,267.22964 41.7672,259.069728 C43.7722,281.317339 79.0096927,284.841214 89.4597564,270.390539 C106.654181,276.448135 118.476574,269.409587 121.0792,263.008264 C129.20875,243.013122 118.388956,236.640352 118.388956,236.640352 C125.758956,226.622434 115.4722,207.799198 104.3832,202.760193 C94.4182,198.231 100.8272,178.346779 104.3832,167.200681 C115.5572,171.092123 117.2932,186.284739 121.0792,175.379009 C124.8652,164.473279 123.2632,157.14787 123.2632,157.14787 C131.6472,146.804291 148.1822,151.292776 147.4732,130.633726 C155.2782,136.168975 167.2712,133.585988 169.1942,124.516941 C180.4912,138.343918 195.3552,133.394081 198.3292,126.254763 C200.9172,134.937089 213.4532,138.330349 226.9512,133.000576 C225.3782,143.659153 229.2602,153.740072 235.0712,176.986955 C237.246848,185.690628 243.85663,217.989088 219.038702,248.090856 C205.341331,264.704455 186.0242,270.901068 160.9592,262.426157 C160.9592,262.426157 164.3122,275.642521 186.1612,279.8005 Z" id="Fill-3" fill="#090E2B"/><path d="M116.452939,175.434825 C115.032939,169.438825 102.362688,156.78726 90.0576876,163.71926 C82.3906876,168.03826 78.9723375,177.245694 83.2974894,187.750725 C87.6226412,198.255755 104.109131,208.330523 113.652528,202.276629 C123.195925,196.222734 117.872939,181.430825 116.452939,175.434825 Z" id="Fill-6" fill="#ca8f67"/><path d="M130.844,247.7548 C140.999,254.0438 151.196,257.8948 161.161,261.4238 C162.281,261.8198 161.214,262.5198 160.041,262.4468 C149.714,261.8138 137.573,254.1728 135.002,252.4118 C129.728,248.8018 127.379,245.6088 130.844,247.7548" id="Fill-8" fill="#090E2B"/><path d="M101.208529,172.634366 C99.3520604,171.272846 97.8524659,170.341859 96.7694659,170.090859 C94.5974659,169.586859 97.4586652,171.219339 99.9656652,174.002339 C101.456665,175.656339 102.967823,177.818816 104.093252,179.919728 C101.461252,181.164728 97.9904659,185.086859 99.1164659,190.593859 C99.9684659,191.423859 99.9880991,188.631411 100.886466,186.891859 C102.46178,183.8415 104.331794,183.400754 105.551466,182.998859 C106.379466,184.813859 107.097466,186.970859 107.634466,189.656859 C107.744466,190.207859 108.895378,191.512406 109.283315,189.390222 C109.595315,183.288222 106.240982,176.32513 101.208529,172.634366 Z" id="Fill-10" fill="#090E2B" transform="translate(102.651692, 180.372220) rotate(-3.000000) translate(-102.651692, -180.372220)"/></g></g><g id="Expressions" transform="translate(520.000000, 159.000000) scale(1 1)"><g id="Expressions/Happy" stroke="none" stroke-width="1" fill="none" fill-rule="evenodd"><g id="eye1" transform="translate(21.027098, 10.213671)"><path d="M0.0487023333,7.96572872 C1.82485498,-0.0171869856 25.1977023,-2.81531309 35.4827023,3.36568691 C39.0387023,5.47868691 45.6427023,11.2837287 39.7957023,14.4437287 C38.2517023,15.1157287 36.7517023,14.4267287 35.4827023,13.6077287 C21.4647023,3.86572872 -1.18942441,13.5304877 0.0487023333,7.96572872 Z" id="Fill-1" fill="#090E2B"/><path d="M19.0113023,22.3973287 C13.7233023,23.8973287 9.19030233,28.1473287 8.76930233,31.6693287 C8.51430233,33.7973287 16.8643023,38.9063287 24.9173023,39.3033287 C35.5113023,39.8243287 40.8513023,34.0853287 40.8324531,32.2513287 C40.1193023,26.7013287 33.7283023,18.2233287 19.0113023,22.3973287 Z" id="Fill-6" fill="#FFF"/><path d="M35.3981023,25.5550287 C27.2551023,19.4010287 14.6431023,23.4110287 8.76910233,31.6690287 C8.43210233,32.0970287 8.52910233,31.0200287 8.76310233,30.5290287 C11.5971023,24.5820287 16.7101023,21.7750287 22.6381023,20.5510287 C26.2051023,19.8140287 29.5311023,19.7540287 33.0101023,21.3120287 C34.3551023,21.9130287 36.7311023,23.7450287 38.5671023,25.8170287 C39.9991023,27.4320287 41.2051023,30.2010287 39.5481023,29.2220287 C38.2511023,28.4550287 36.4781023,26.3720287 35.3981023,25.5550287 Z" id="Fill-8" fill="#090E2B"/><path d="M24.8135023,36.0623287 C29.3405023,36.0623287 33.0105023,32.7143287 33.0105023,28.5833287 C33.0105023,24.4533287 29.3405023,21.1043287 24.8135023,21.1043287 C20.2865023,21.1043287 16.6165023,24.4533287 16.6165023,28.5833287 C16.6165023,32.7143287 20.2865023,36.0623287 24.8135023,36.0623287 Z" id="Fill-10" fill="#090E2B"/></g><g id="eye2" transform="translate(81.203378, 15.000183)"><path d="M23.2557812,1.861246 C26.6096324,3.34897691 31.0744206,8.28711729 27.357522,8.28711729 C23.6406234,8.28711729 15.5900245,7.23270759 10.1930245,9.45970759 C8.30802454,9.94170759 6.87752199,10.8641173 4.98452199,11.0891173 C0.67652199,11.9281173 -1.66408888,6.76839233 1.38185604,3.64904337 C4.82290212,0.125071736 16.4397812,-1.545754 23.2557812,1.861246 Z" id="Fill-4" fill="#090E2B"/><path d="M19.455322,34.2343173 C24.826322,32.9853173 28.843322,28.1153173 28.389322,24.4763173 C27.503322,19.6543173 18.218322,16.5753173 13.017322,19.2083173 C7.86632199,21.8153173 4.64332199,27.6403173 5.05932199,29.9403173 C5.66032199,31.5323173 13.966322,35.5113173 19.455322,34.2343173 Z" id="Fill-12" fill="#FFF"/><path d="M15.011222,31.6060173 C18.549222,31.6060173 21.417222,28.8520173 21.417222,25.4560173 C21.417222,22.0590173 19.396222,18.8490173 15.011222,19.3060173 C11.492222,19.6720173 8.60422199,22.0590173 8.60422199,25.4560173 C8.60422199,28.8520173 11.473222,31.6060173 15.011222,31.6060173 Z" id="Fill-14" fill="#090E2B"/><path d="M5.25072199,26.6376173 C7.27972199,19.0636173 16.440722,15.1686173 23.685722,18.7546173 C24.705722,19.2866173 26.361722,20.4806173 27.601722,21.9226173 C28.742722,23.2526173 28.593722,23.9496173 28.127722,23.8116173 C27.355722,23.5816173 25.722722,22.1166173 24.395722,21.4866173 C17.685722,18.3036173 10.704722,20.0896173 5.59372199,27.5586173 C5.34272199,27.9456173 5.10472199,27.0746173 5.25072199,26.6376173" id="Fill-22" fill="#090E2B"/></g><path d="M89.773817,88.8585998 C81.203378,89.8585998 88.1482904,99.3833823 83.7083884,100.648667 C72.3411441,103.888108 60,99.9572383 58.0067117,89.8585998 C56.8303329,83.8986871 60.3418642,84.6193542 63.1467832,84.8682179 C65.9517021,85.1170816 79.8038764,85.6292987 87.244688,85.6292987 C94.4593207,85.6292987 90.833428,88.7349642 89.773817,88.8585998 Z" id="Fill-18" fill="#090E2B"/><path d="M79.5163974,56.0474227 C79.9047316,56.0474227 82.4878873,60.4695558 83.4356699,62.0222568 C86.4544009,66.9676809 89.7813295,72.5049636 84.8702,75.6883 C82.4912,77.2313 75.0122,74.8407787 75.0122,73.0253 C75.0122,70.2632077 81.8382,75.1193 83.4442,72.3153 C84.3857451,70.8872578 80.8590997,63.6440183 79.5163974,59.348811 C78.7670658,56.9517537 79.1280631,56.0474227 79.5163974,56.0474227 Z" id="nose" fill="#090E2B"/></g></g><g id="Facial Accesories" transform="translate(517.000000, 209.000000) scale(1 1)" fill="#000"><g id="Facial Accesories/None" stroke="none" stroke-width="1" fill="none" fill-rule="evenodd" fill-opacity="0"/></g><g id="Glass" transform="translate(520.000000, 164.000000) scale(1 1)" fill="#000"><g id="Glass/None" stroke="none" stroke-width="1" fill="none" fill-rule="evenodd" fill-opacity="0"/></g></g></g></g></svg>