<svg viewBox="21.424999999999955 70.92441860465124 1671.1499999999996 1053.1201550387598" xmlns="http://www.w3.org/2000/svg" xmlns:xlink="http://www.w3.org/1999/xlink" overflow="visible" width="1671.1499999999996px" height="1053.1201550387598px"><defs><path d="M276.440483,138.260288 C276.440483,61.9026511 214.609363,0 138.339959,0 C62.0705552,0 0.239434544,61.9026511 0.239434544,138.260288 C0.239434544,214.614121 62.0705552,276.516772 138.339959,276.516772 C214.609363,276.516772 276.440483,214.614121 276.440483,138.260288" id="masterstickerslaptop-path-1"/><path d="M276.287829,138.260288 C276.287829,61.9026511 214.490853,0 138.263566,0 C62.0362791,0 0.239302326,61.9026511 0.239302326,138.260288 C0.239302326,214.614121 62.0362791,276.516772 138.263566,276.516772 C214.490853,276.516772 276.287829,214.614121 276.287829,138.260288" id="masterstickerslaptop-path-3"/></defs><g id="Master/Stickers/Laptop" stroke="none" stroke-width="1" fill="none" fill-rule="evenodd"><g id="Group" transform="translate(30.000000, 86.000000)"><path d="M1535.67196,1010 L119.331839,1010 C88.7717089,1010 64,985.22696 64,954.660501 L64,55.3394994 C64,24.7768391 88.7717089,0 119.331839,0 L1535.67196,0 C1566.23209,0 1591,24.7768391 1591,55.3394994 L1591,954.660501 C1591,985.22696 1566.23209,1010 1535.67196,1010" id="Fill-1" fill="#008BF2"/><path d="M1587.37516,1023 L67.6210412,1023 C30.2750158,1023 0,992.854619 0,955.673172 L0,935 L1655,935 L1655,955.673172 C1655,992.854619 1624.72118,1023 1587.37516,1023" id="Fill-4" fill="#276DFF"/><polygon id="Fill-7" fill="#FFF" points="105 893 1546 893 1546 40 105 40"/><polygon id="Fill-9" fill="#090E2B" points="677 935 697.562262 968 986.902395 968 1006 935"/><g id="Group-3" transform="translate(218.000000, 505.000000)"><g id="Face"><mask id="masterstickerslaptop-mask-2" fill="#fff"><use xlink:href="#masterstickerslaptop-path-1"/></mask><use id="Mask" fill="#FFDFEA" xlink:href="#masterstickerslaptop-path-1"/><g id="Character-2" mask="url(#masterstickerslaptop-mask-2)"><g transform="translate(-9.881426, 7.170038)"><path d="M162.642418,169.333298 C162.642418,169.333298 157.535813,201.429642 162.483289,210.995287 C166.422692,218.612219 189.665476,229.029427 189.665476,229.029427 L193.827964,251.389055 L107.531888,260.258242 C97.5463308,258.040375 61.3996035,248.766695 72.9376236,234.271866 C84.4748824,219.777037 108.916846,215.78001 112.88975,209.355267 C120.518061,197.02052 121.912156,171.946533 121.702014,162.475169 C121.702014,160.122725 162.642418,169.333298 162.642418,169.333298" id="neck" fill="#09B9C6"/><g id="t-shirt" stroke-width="1" fill="none" transform="translate(23.563400, 218.403846)"><path d="M67.9893771,0.0104076045 C78.191569,2.0331164 113.435574,26.3710669 135.060694,24.0302647 C145.991071,22.8476878 154.9254,4.15779771 155.268209,3.74001475 C155.500439,3.45865054 166.343876,9.11885761 175.626589,15.015279 L175.629571,14.9939007 L175.629571,14.9939007 C175.686862,15.0400745 175.751571,15.088902 175.823402,15.1405326 C176.241745,15.4070067 176.656054,15.6734949 177.065895,15.9398578 C182.137829,19.0610879 196.794737,27.7439074 201.731737,51.7671727 C203.736146,61.5184859 216.694495,98.0155189 228.138707,127.53961 C219.16681,141.315509 209.328805,141.728786 183.311931,141.741185 L180.851114,141.741568 L180.851114,141.741568 C174.717017,141.741568 118.066478,144.471097 55.231565,141.741568 C29.0403794,140.603831 6.63780528,139.462444 0.950182497,120.236264 C-2.1624083,109.714604 10.1026041,63.4002214 9.25570336,56.9864158 C6.73289938,37.8833087 20.4209542,24.6116604 25.1860817,20.6636494 C41.1058185,7.47418782 66.2928123,-0.325188549 67.9893771,0.0104076045 Z" id="T-Shirt" fill="#FF0057"/><path d="M194.318463,78.0840752 C196.135885,85.3347785 196.157259,91.4491943 195.809129,98.8916669 C194.932464,112.063233 192.971772,111.074721 189.862164,126.881223 C188.278095,134.930204 187.393328,139.821081 186.887095,141.086605 C186.199955,142.804157 186.405185,137.981009 188.319901,126.606506 C190.230817,113.66741 192.226339,115.116054 193.456196,102.195222 C194.686053,89.2743893 194.255374,87.4685917 192.174194,77.9128527 C190.286841,69.4970752 187.339896,62.0104653 184.814052,53.7407977 C184.668871,52.5878994 181.746249,45.3630697 183.226943,46.4337812 C186.67328,56.9947867 191.541022,67.3115147 194.318463,78.0840752 Z" id="Fill-15" fill="#090E2B"/><path d="M73.6093239,56.5302029 C71.2659058,77.3257496 67.7777626,97.9858403 63.2117838,118.40698 C62.5307256,120.050717 57.3277749,142.499892 57.0967016,138.545794 C57.0670573,138.029843 57.1704322,137.002508 57.2776077,136.493406 C61.3099894,117.302024 65.4875522,96.2530683 68.9445309,76.955909 C68.945291,76.955909 72.5231272,56.3825711 72.5231272,56.3825711 C72.6196611,55.7212716 73.6974966,55.8262881 73.6093239,56.5302029" id="Fill-17" fill="#090E2B"/></g><g id="Head" stroke-width="1" fill="none" transform="translate(32.684716, 0.000000)"><path d="M131.309276,94.1139574 C138.003738,82.753899 151.343098,67.4945552 174.93272,72.7840606 C207.684195,80.1279299 179.206723,116.497525 180.663853,133.967549 C185.991462,197.849533 170.030128,221.695885 147.813434,221.695885 C125.899657,221.695885 116.081538,207.393798 127.590716,179.128442 C137.936697,153.71978 118.981832,115.032812 131.309276,94.1139574 Z" id="Fill-1" fill="#090E2B"/><path d="M178.510956,124.715046 C177.061959,145.775384 183.280012,190.154423 153.00816,198.011727 C131.778419,203.522077 83.8485049,189.16656 78.5015857,153.322252 C77.5663925,147.052968 67.5061514,109.154712 92.576462,87.2549698 C114.299895,68.2788354 171.953717,70.2750303 176.891468,80.0682525 C186.080257,98.2927109 179.959953,103.654708 178.510956,124.715046 Z" id="Fill-4" fill="#09B9C6"/><path d="M180.604365,78.5505174 C181.685857,90.1632473 171.275629,96.7847685 156.953845,99.1845638 C134.990178,102.864853 111.744625,98.13264 96.6284453,110.831652 C92.193423,114.557487 96.589173,129.903835 91.6499804,134.634903 C88.4119133,137.735934 86.9314547,131.075046 86.7649907,130.492128 C85.3451059,125.527436 83.8150362,129.832888 81.8045461,128.827622 C81.2086202,147.498487 81.2086202,158.655121 90.2677353,172.99926 C100.933449,189.887276 124.206883,231.984032 116.899768,264.063187 C107.534312,305.17871 54.4088368,314.459734 63.4147726,255.83748 C72.4207084,197.215226 43.8271237,207.861852 43.8248433,170.297152 C43.822563,145.746124 58.7957811,124.924049 63.4147726,95.2487529 C72.4207084,37.3889769 103.35617,31.0898119 139.415794,40.5895225 C164.725686,47.2572751 179.422434,65.8592976 180.604365,78.5505174 Z" id="Fill-6" fill="#090E2B"/><path d="M77.7377242,124.058793 C73.9712941,123.778088 65.7301444,124.592959 69.1644883,141.418888 C71.4171354,152.455313 85.9245529,154.778317 88.98048,154.189069 C94.4490615,153.133526 89.397614,144.680929 88.98048,136.828928 C88.6978067,131.522602 84.7205176,124.579991 77.7377242,124.058793 Z" id="Fill-9" fill="#09B9C6"/><path d="M123.230762,194.829105 C123.423829,194.90216 123.740533,195.799231 123.537584,195.838042 C119.436792,196.636319 109.04405,192.656844 102.659129,187.164025 C101.911941,186.52099 99.1147373,184.072127 100.401603,184.398591 C106.119908,188.353451 121.324407,194.116058 123.230762,194.829105 Z" id="Fill-11" fill="#090E2B"/><path d="M75.0700267,130.446149 C73.1043831,130.548882 72.376198,132.589855 74.3350006,132.467336 C76.9049314,132.306767 80.1886051,134.68638 81.712625,136.626141 C79.8602378,136.84911 78.3362179,137.298855 76.923174,138.829204 C76.0680507,139.755327 76.1478622,140.830605 77.1086408,140.020152 C79.4634605,138.034731 81.7878759,137.963198 82.475015,138.005053 C82.585991,138.096371 83.9595092,141.28111 84.1746202,142.632627 C85.704721,143.041278 83.3088553,130.017712 75.0700267,130.446149" id="Fill-13" fill="#090E2B"/></g><g id="Face" stroke-width="1" fill="none" transform="translate(124.657985, 101.211538)"><g id="eye1" transform="translate(18.242692, 9.892771)"><path d="M3.70798287,17.6067089 C3.70798287,17.6067089 9.88767444,11.4921622 20.3939102,13.3938737 C28.9428636,14.9417254 32.1520466,21.9222776 32.1293639,23.072132 C31.5462392,25.4022803 27.2995065,27.5269616 24.3730843,28.4804809 C21.445902,29.4347611 6.81531118,30.6409287 3.70798287,17.6067089" id="white" fill="#FFF"/><path d="M26.0191778,19.5530144 C26.1187522,23.2826215 22.6990188,26.4003935 18.3815959,26.5153028 C14.064173,26.6309732 10.4840565,23.7004045 10.3844821,19.9707973 C10.2849077,16.2404292 12.5659969,12.9773083 18.022064,13.0077479 C22.340247,13.0320995 25.9196034,15.8226462 26.0191778,19.5530144" id="Fill-3" fill="#090E2B"/><path d="M0.950381018,16.1664611 C1.87543448,16.2227743 2.8757388,16.8422193 3.75062502,16.8323265 L3.66473263,16.8817908 C10.6927066,10.074744 25.8409321,9.92406822 30.4768409,18.5369418 C30.9063029,19.3352193 31.7842295,21.0619034 31.7234208,21.7399446 C31.7074585,21.9157331 31.3076408,21.4401149 31.1867833,21.3122688 C29.6741651,19.6982111 27.7982145,18.0042495 25.89566,16.9069034 C19.227978,13.05706 10.8166045,12.9345408 4.07975251,17.5963594 C2.94338856,18.9493979 -1.85974441,17.0423594 0.950381018,16.1664611" id="Fill-5" fill="#090E2B"/><path d="M29.9273576,8.96682015 C20.9268991,4.752463 10.5924481,3.44736685 1.55550432,8.42499597 C0.99302317,8.70808388 -0.204149551,8.49120201 0.0299642258,7.90447949 C0.615248667,6.43805366 3.13805264,4.09725146 5.42826306,2.83705366 C12.9335859,-1.29131172 24.7707737,-1.0919326 30.6274186,4.61091905 C32.3733905,5.82089157 33.173786,9.77651245 29.9273576,8.96682015" id="Fill-14" fill="#090E2B"/></g><g id="eye2" transform="translate(62.418678, 10.940849)"><path d="M0.157045413,21.5861039 C0.157045413,22.1979391 3.45516237,25.9929913 11.0745016,25.9800874 C16.9463488,25.9701616 23.4316045,20.6615022 23.6603975,18.0733786 C23.8891905,15.484494 19.1339444,12.5927358 13.7896134,12.2069143 C6.31469493,11.6681341 0.154006099,17.5003539 0.157045413,21.5861039" id="white" fill="#FFF"/><path d="M18.6765876,16.8974984 C18.6788668,21.4915891 15.4415597,24.3460588 11.9123705,24.4404215 C8.38318136,24.5347841 5.28345415,22.3522676 4.71565223,18.863894 C3.97758574,14.3268775 8.10194078,12.0461934 11.6303698,11.9518308 C15.159559,11.8574682 18.6750662,13.3627044 18.6765876,16.8974984" id="Fill-10" fill="#090E2B"/><path d="M0.0152860857,20.1109267 C0.951741192,11.776575 13.2267522,8.7737124 19.7446925,12.4607042 C21.4724218,13.438575 22.6566727,14.5579899 23.2723615,16.55863 C23.3164478,16.7055009 23.1180592,16.6750613 22.7136809,16.4383937 C21.5689557,15.7694844 20.6872285,15.3151739 19.3859208,14.8578195 C12.7896891,12.539086 4.58962604,13.5930558 1.12048554,20.502836 C0.828603426,21.0979294 -0.132175189,20.7524404 0.0152860857,20.1109267" id="Fill-12" fill="#090E2B"/><path d="M0.99879198,5.17499537 C3.38401611,-0.616131002 12.636831,-0.697556826 18.2935672,0.861709658 C19.7119318,1.253619 20.9045439,1.74750087 21.7056995,2.28019317 C23.1810723,3.26034702 24.0278345,5.01747065 21.6760552,5.14607779 C20.8346138,5.19173713 19.4975809,4.83939922 18.6766624,4.72525087 C13.835524,4.05177559 8.94117786,5.07682779 4.56598663,7.31337449 C2.88310384,8.38180306 -0.0828440719,7.51579757 0.99879198,5.17499537" id="Fill-17" fill="#090E2B"/></g><path d="M60.4411821,42.6514728 C60.7363587,42.6514728 62.6998403,46.0166675 63.420259,47.1982559 C65.7148256,50.9616692 68.2436562,55.1754805 64.5106592,57.5979646 C62.7023583,58.7721706 57.0174981,56.9530102 57.0174981,55.5714508 C57.0174981,53.4695289 62.2060067,57.1649618 63.4267428,55.0311486 C64.1424204,53.9444242 61.4617831,48.4323985 60.4411821,45.163793 C59.8716079,43.3396587 60.1460055,42.6514728 60.4411821,42.6514728 Z" id="nose" fill="#090E2B"/><g id="lips" transform="translate(42.553530, 64.823214)" fill="#090E2B"><path d="M17.4759787,0.00810359836 C23.0825476,-0.208017281 27.8978423,3.95915854 28.7909711,5.28860635 C29.6833399,6.61881514 29.3040452,7.09443327 28.8403783,7.1614003 C27.0191555,7.42622448 24.8703255,6.8775514 21.7097895,6.47879316 C19.0281226,6.13939206 15.3651542,7.61799371 13.2854941,7.67354591 C11.2073543,7.7290981 6.9079739,6.09729735 6.97334333,4.63772043 C7.03871276,3.1781435 12.5892337,0.196067884 17.4759787,0.00810359836 Z" id="Fill-21"/><path d="M12.2042381,8.7401481 C19.2884602,10.3701866 25.6239742,8.88473602 27.2171641,8.84212063 C28.8103539,8.80026624 32.0993485,7.63595305 32.4140339,9.88619755 C32.5280503,10.7073047 22.9073423,20.174008 8.88787965,15.7975602 C2.09477958,13.6766838 -1.5294233,5.28145305 0.616366282,4.95651074 C3.84531214,4.46643382 4.4321168,6.95106294 12.2042381,8.7401481 Z" id="Fill-23"/></g></g><g id="Face-Add-On" stroke-width="1" fill="none" transform="translate(122.377656, 139.260989)" fill-opacity="0"/><g id="Glass" stroke-width="1" fill="none" transform="translate(124.657985, 105.016484)" fill-opacity="0"/></g></g></g><path d="M346.14824,33.4903654 L348.622397,41.1154753 C348.968247,42.17325 349.952589,42.8961896 351.06615,42.8961896 L359.073905,42.8961896 C361.567065,42.8961896 362.600814,46.0847335 360.586523,47.5496374 L354.110389,52.2639643 C353.205858,52.9146099 352.829604,54.0789231 353.175454,55.1366978 L355.649611,62.7618077 C356.421122,65.1322885 353.707531,67.1070549 351.69324,65.6383462 L345.213305,60.9278242 C344.316376,60.2733736 343.092599,60.2733736 342.191869,60.9278242 L335.715735,65.6383462 C333.701444,67.1070549 330.987853,65.1322885 331.759364,62.7618077 L334.233521,55.1366978 C334.579371,54.0789231 334.199316,52.9146099 333.298586,52.2639643 L326.822452,47.5496374 C324.804361,46.0847335 325.841911,42.8961896 328.33507,42.8961896 L336.339025,42.8961896 C337.452586,42.8961896 338.440728,42.17325 338.786578,41.1154753 L341.256935,33.4903654 C342.028446,31.1198846 345.380529,31.1198846 346.14824,33.4903654" id="Fill-70" fill="#FFB201"/><path d="M398.587826,33.4903654 L401.061983,41.1154753 C401.404032,42.17325 402.392175,42.8961896 403.505735,42.8961896 L411.513491,42.8961896 C414.00285,42.8961896 415.0404,46.0847335 413.022308,47.5496374 L406.546174,52.2639643 C405.645444,52.9146099 405.26919,54.0789231 405.61504,55.1366978 L408.089197,62.7618077 C408.856907,65.1322885 406.147117,67.1070549 404.129025,65.6383462 L397.652891,60.9278242 C396.752161,60.2733736 395.532185,60.2733736 394.631455,60.9278242 L388.15152,65.6383462 C386.13723,67.1070549 383.427439,65.1322885 384.195149,62.7618077 L386.669306,55.1366978 C387.015156,54.0789231 386.638902,52.9146099 385.738172,52.2639643 L379.258237,47.5496374 C377.243947,46.0847335 378.281496,42.8961896 380.770855,42.8961896 L388.77481,42.8961896 C389.892171,42.8961896 390.880314,42.17325 391.222363,41.1154753 L393.69652,33.4903654 C394.468032,31.1198846 397.816315,31.1198846 398.587826,33.4903654" id="Fill-72" fill="#FFB201"/><path d="M451.025131,33.4903654 L453.499288,41.1154753 C453.841338,42.17325 454.82948,42.8961896 455.943041,42.8961896 L463.950796,42.8961896 C466.440155,42.8961896 467.477705,46.0847335 465.463414,47.5496374 L458.983479,52.2639643 C458.082749,52.9146099 457.706495,54.0789231 458.052345,55.1366978 L460.526502,62.7618077 C461.294213,65.1322885 458.584422,67.1070549 456.566331,65.6383462 L450.090196,60.9278242 C449.189466,60.2733736 447.96949,60.2733736 447.06876,60.9278242 L440.588826,65.6383462 C438.574535,67.1070549 435.864744,65.1322885 436.632455,62.7618077 L439.106612,55.1366978 C439.452462,54.0789231 439.076207,52.9146099 438.175477,52.2639643 L431.695542,47.5496374 C429.681252,46.0847335 430.718802,42.8961896 433.208161,42.8961896 L441.212115,42.8961896 C442.329477,42.8961896 443.317619,42.17325 443.659669,41.1154753 L446.133826,33.4903654 C446.905337,31.1198846 450.25362,31.1198846 451.025131,33.4903654" id="Fill-74" fill="#FFB201"/><path d="M503.462817,33.4903654 L505.936974,41.1154753 C506.279023,42.17325 507.267166,42.8961896 508.380726,42.8961896 L516.388481,42.8961896 C518.877841,42.8961896 519.91539,46.0847335 517.9011,47.5496374 L511.421165,52.2639643 C510.520435,52.9146099 510.144181,54.0789231 510.490031,55.1366978 L512.964187,62.7618077 C513.731898,65.1322885 511.022107,67.1070549 509.004016,65.6383462 L502.527882,60.9278242 C501.627152,60.2733736 500.407176,60.2733736 499.506446,60.9278242 L493.026511,65.6383462 C491.01222,67.1070549 488.302429,65.1322885 489.07014,62.7618077 L491.548098,55.1366978 C491.890147,54.0789231 491.513893,52.9146099 490.613163,52.2639643 L484.137028,47.5496374 C482.118937,46.0847335 483.156487,42.8961896 485.645846,42.8961896 L493.653601,42.8961896 C494.767162,42.8961896 495.755305,42.17325 496.097354,41.1154753 L498.571511,33.4903654 C499.343022,31.1198846 502.691305,31.1198846 503.462817,33.4903654" id="Fill-76" fill="#FFB201"/><path d="M555.898602,33.4903654 L558.372759,41.1154753 C558.718609,42.17325 559.706751,42.8961896 560.820312,42.8961896 L568.824267,42.8961896 C571.317426,42.8961896 572.351175,46.0847335 570.336885,47.5496374 L563.860751,52.2639643 C562.95622,52.9146099 562.583766,54.0789231 562.925816,55.1366978 L565.399973,62.7618077 C566.167683,65.1322885 563.457892,67.1070549 561.443602,65.6383462 L554.967467,60.9278242 C554.066737,60.2733736 552.842961,60.2733736 551.942231,60.9278242 L545.466097,65.6383462 C543.451806,67.1070549 540.742015,65.1322885 541.509726,62.7618077 L543.983883,55.1366978 C544.325932,54.0789231 543.949678,52.9146099 543.048948,52.2639643 L536.572814,47.5496374 C534.558523,46.0847335 535.592272,42.8961896 538.085432,42.8961896 L546.089387,42.8961896 C547.202947,42.8961896 548.19109,42.17325 548.53694,41.1154753 L551.011097,33.4903654 C551.778807,31.1198846 555.130891,31.1198846 555.898602,33.4903654" id="Fill-78" fill="#CBD9EC"/><path d="M623.46513,123.070187 L342.216953,123.070187 C334.817285,123.070187 328.82002,117.065984 328.82002,109.657755 L328.82002,103.592673 C328.82002,96.18825 334.817285,90.1802418 342.216953,90.1802418 L623.46513,90.1802418 C630.860997,90.1802418 636.858262,96.18825 636.858262,103.592673 L636.858262,109.657755 C636.858262,117.065984 630.860997,123.070187 623.46513,123.070187" id="Fill-80" fill="#C7D2F2" fill-rule="nonzero"/><path d="M330.58896,157.079094 L1108.25602,157.253741 C1112.39815,157.254671 1115.75433,160.613289 1115.75433,164.755425 C1115.75433,168.816342 1112.5252,172.122717 1108.49538,172.249941 L1108.25265,172.25374 L330.585591,172.079094 C326.443455,172.078163 323.087275,168.719545 323.087275,164.577409 C323.087275,160.516492 326.316404,157.210117 330.346228,157.082893 L330.58896,157.079094 Z" id="Stroke-85" fill="#C7D2F2" fill-rule="nonzero"/><path d="M740.073553,202.630754 C744.215689,202.630754 747.573553,205.988618 747.573553,210.130754 C747.573553,214.191671 744.346079,217.498772 740.316285,217.626901 L740.073553,217.630754 L330.587275,217.630754 C326.44514,217.630754 323.087275,214.27289 323.087275,210.130754 C323.087275,206.069837 326.31475,202.762737 330.344544,202.634608 L330.587275,202.630754 L740.073553,202.630754 Z" id="Stroke-86" fill="#C7D2F2" fill-rule="nonzero"/></g><g id="Group-2-Copy" transform="translate(219.000000, 147.000000)"><g id="Face-Copy"><mask id="masterstickerslaptop-mask-4" fill="#fff"><use xlink:href="#masterstickerslaptop-path-3"/></mask><use id="Mask" fill="#DCD6FF" xlink:href="#masterstickerslaptop-path-3"/><g id="Character-1" mask="url(#masterstickerslaptop-mask-4)"><g transform="translate(-9.875969, 7.170038)"><path d="M162.552605,169.333298 C162.552605,169.333298 157.448819,201.429642 162.393564,210.995287 C166.330791,218.612219 189.56074,229.029427 189.56074,229.029427 L193.72093,251.389055 L107.472508,260.258242 C97.4924646,258.040375 61.3656979,248.766695 72.8973466,234.271866 C84.4282343,219.777037 108.856701,215.78001 112.827411,209.355267 C120.45151,197.02052 121.844835,171.946533 121.634809,162.475169 C121.634809,160.122725 162.552605,169.333298 162.552605,169.333298" id="neck" fill="#09B9C6"/><g id="t-shirt" stroke-width="1" fill="none" transform="translate(23.550388, 218.403846)"><path d="M67.9518326,0.0104076045 C78.1483907,2.0331164 113.372933,26.3710669 134.986112,24.0302647 C145.910453,22.8476878 154.839848,4.15779771 155.182468,3.74001475 C155.414566,3.45865465 166.251703,9.11869225 175.529199,15.0150207 L175.532586,14.9939007 L175.532586,14.9939007 C175.589845,15.0400745 175.654518,15.088902 175.726311,15.1405326 C176.149531,15.4102634 176.568638,15.6800181 176.983154,15.9496378 C182.067798,19.0792174 196.691211,27.7689643 201.620338,51.7671727 C203.62364,61.5184859 216.574834,98.0155189 228.012726,127.53961 C219.045784,141.315509 209.213211,141.728786 183.210704,141.741185 L180.751246,141.741568 L180.751246,141.741568 C174.620536,141.741568 118.00128,144.471097 55.2010655,141.741568 C29.024343,140.603831 6.6341398,139.462444 0.949657795,120.236264 C-2.1612142,109.714604 10.0970253,63.4002214 9.25059225,56.9864158 C6.7291814,37.8833087 20.4096775,24.6116604 25.1721736,20.6636494 C41.0831194,7.47418782 66.2562047,-0.325188549 67.9518326,0.0104076045 Z" id="T-Shirt" fill="#3615F6"/><path d="M194.211158,78.0840752 C196.027577,85.3347785 196.048938,91.4491943 195.701,98.8916669 C194.82482,112.063233 192.865211,111.074721 189.75732,126.881223 C188.174126,134.930204 187.289847,139.821081 186.783893,141.086605 C186.097134,142.804157 186.30225,137.981009 188.215909,126.606506 C190.125769,113.66741 192.120189,115.116054 193.349367,102.195222 C194.578546,89.2743893 194.148104,87.4685917 192.068073,77.9128527 C190.181763,69.4970752 187.236445,62.0104653 184.711995,53.7407977 C184.566895,52.5878994 181.645887,45.3630697 183.125763,46.4337812 C186.570197,56.9947867 191.435251,67.3115147 194.211158,78.0840752 Z" id="Fill-15" fill="#090E2B"/><path d="M73.568676,56.5302029 C71.2265519,77.3257496 67.7403349,97.9858403 63.1768775,118.40698 C62.4961953,120.050717 57.2961178,142.499892 57.0651721,138.545794 C57.0355442,138.029843 57.138862,137.002508 57.2459783,136.493406 C61.2761333,117.302024 65.4513891,96.2530683 68.9064589,76.955909 C68.9072186,76.955909 72.4830791,56.3825711 72.4830791,56.3825711 C72.5795597,55.7212716 73.6568,55.8262881 73.568676,56.5302029" id="Fill-17" fill="#090E2B"/></g><g id="Head" stroke-width="1" fill="none" transform="translate(32.666667, 0.000000)"><path d="M152.175746,213.612507 L151.185208,204.020241 L154.239024,213.612507 C154.239024,213.612507 206.694231,211.779285 207.543564,201.569856 C208.392898,191.360427 188.106898,145.698692 188.106898,116.64957 C188.613807,124.273366 198.196726,160.800307 202.242451,164.010115 C191.833385,145.219967 185.9654,91.0518049 185.243936,86.9936765 C182.263089,70.226843 177.543406,57.9499872 173.794955,52.7070692 C167.901281,44.4647972 136.267936,38.8251357 126.397285,57.569056 C116.138433,77.0488527 129.552278,101.902364 126.397285,126.784422 C121.072619,168.764381 124.056775,204.020241 130.537595,215.128397 L152.175746,213.612507 Z" id="Fill-1" fill="#090E2B"/><path d="M175.365986,74.2986294 C175.365986,74.2986294 180.854746,135.137418 180.854746,152.153893 C180.854746,169.169607 179.846637,189.296245 161.895924,195.126182 C142.694002,201.363248 104.347893,190.382176 95.831769,187.918855 C59.1972419,177.325127 82.0654279,102.752009 87.1614279,78.0792228 C92.2574279,53.4056761 175.365986,74.2986294 175.365986,74.2986294" id="Fill-3" fill="#09B9C6"/><path d="M95.9242233,97.904889 C95.9242233,97.904889 89.9788899,144.698103 95.9242233,164.266175 C101.869557,183.835007 103.071386,207.404921 99.4978047,212.570713 C95.9242233,217.736505 83.0708636,213.769051 73.3824964,213.612507 C64.1986004,213.464114 61.2121742,214.153856 59.5821767,213.464114 C56.7948744,209.169853 56.8541302,201.700746 56.8541302,201.700746 L56.8541302,213.612507 C56.8541302,213.612507 22.433091,211.047942 22.433091,193.49748 C22.433091,178.553329 30.518726,161.843154 41.9021914,137.759879 C54.5948821,110.90676 52.7935208,95.6594157 56.8541302,73.8553533 C62.3391114,44.4029089 81.6685954,33.6672454 99.4978047,30.4852372 C130.399347,24.9701884 165.016517,33.6508511 176.04545,57.0652927 C184.785841,75.6211536 178.914361,92.9304203 178.914361,92.9304203 C174.337842,91.644468 166.638969,91.0014919 155.817743,91.0014919 C148.359046,91.0014919 137.240726,91.644468 122.462783,92.9304203 L119.55134,73.8553533 L119.55134,93.7454315 L95.9242233,97.904889 Z" id="Fill-5" fill="#090E2B"/><path d="M108.375313,191.227102 C113.244166,192.485017 117.332817,193.131858 121.866647,194.113534 C122.513902,194.254316 123.654197,194.47272 123.806135,194.599045 C124.729918,195.368404 123.045685,196.223756 119.651391,195.567023 C114.68074,194.604371 106.727546,190.800948 108.375313,191.227102" id="Fill-8" fill="#000"/></g><g id="Face" stroke-width="1" fill="none" transform="translate(124.589147, 101.211538)"><g id="eye1" transform="translate(15.974074, 7.772492)"><path d="M0.0369986718,6.06183202 C1.38632394,-0.0130791072 19.1424405,-2.14242232 26.9558514,2.56125075 C29.6573087,4.16922053 34.674301,8.58679356 30.232394,10.9915188 C29.0594328,11.5029034 27.9198979,10.978582 26.9558514,10.355332 C16.3065181,2.94177707 -0.903593736,10.2965524 0.0369986718,6.06183202 Z" id="Fill-1" fill="#090E2B"/><path d="M14.4426948,17.044121 C10.4254545,18.1856045 6.98178007,21.4198078 6.66195061,24.1000111 C6.46822968,25.7193958 12.8116405,29.6072886 18.9294235,29.9094012 C26.9775785,30.3058765 31.0343227,25.9385606 31.0200031,24.5429067 C30.4782297,20.3194177 25.6230514,13.8677529 14.4426948,17.044121 Z" id="Fill-6" fill="#FFF"/><path d="M26.8915816,19.447096 C20.7054266,14.7639697 11.1242173,17.8155356 6.66179867,24.0997828 C6.40578317,24.4254861 6.47947309,23.605901 6.65724053,23.2322554 C8.81020177,18.7066537 12.6944963,16.5705576 17.1979382,15.639107 C19.9077522,15.0782581 22.4344808,15.0325988 25.0774421,16.2182197 C26.099225,16.6755741 27.9042483,18.0697059 29.299039,19.6464751 C30.386915,20.8754724 31.303101,22.982651 30.0442948,22.2376427 C29.058977,21.6539642 27.7120467,20.0688241 26.8915816,19.447096 Z" id="Fill-8" fill="#090E2B"/><path d="M18.8505677,27.4430359 C22.2896839,27.4430359 25.077746,24.8952447 25.077746,21.7515991 C25.077746,18.6087144 22.2896839,16.0601622 18.8505677,16.0601622 C15.4114514,16.0601622 12.6233894,18.6087144 12.6233894,21.7515991 C12.6233894,24.8952447 15.4114514,27.4430359 18.8505677,27.4430359 Z" id="Fill-10" fill="#090E2B"/></g><g id="eye2" transform="translate(61.689388, 11.414974)"><path d="M17.6671826,1.41638775 C20.2150696,2.54853463 23.6069241,6.30640519 20.7832338,6.30640519 C17.9595434,6.30640519 11.8435845,5.504011 7.74353802,7.19873352 C6.31152252,7.56553023 5.22478415,8.26747387 3.78669112,8.4386964 C0.513946938,9.07716618 -1.26419155,5.15067218 1.04978211,2.7768819 C3.66391013,0.0951782164 12.4891361,-1.17630181 17.6671826,1.41638775 Z" id="Fill-4" fill="#090E2B"/><path d="M14.7800121,26.0519393 C18.8603066,25.101464 21.911981,21.3954475 21.5670818,18.6262085 C20.8939966,14.9567195 13.8402756,12.6136343 9.88912833,14.6173184 C5.97596554,16.6012167 3.52748492,21.0339777 3.84351593,22.7842524 C4.30008957,23.995747 10.6100741,27.0237222 14.7800121,26.0519393 Z" id="Fill-12" fill="#FFF"/><path d="M11.4038741,24.0518318 C14.091657,24.0518318 16.2704477,21.9560681 16.2704477,19.3717494 C16.2704477,16.7866698 14.7351144,14.343895 11.4038741,14.691667 C8.73052523,14.970189 6.53654074,16.7866698 6.53654074,19.3717494 C6.53654074,21.9560681 8.71609112,24.0518318 11.4038741,24.0518318 Z" id="Fill-14" fill="#090E2B"/><path d="M3.98892058,20.270934 C5.53033143,14.5072033 12.4898508,11.5431511 17.9938043,14.2720577 C18.768688,14.6769038 20.0267345,15.5855247 20.96875,16.6828709 C21.8355562,17.6949862 21.7223624,18.2253956 21.3683469,18.1203791 C20.7818663,17.9453516 19.5412927,16.8305027 18.5331841,16.3510796 C13.4356648,13.9288516 8.13226942,15.287978 4.24949422,20.9718049 C4.05881205,21.2663077 3.87800585,20.6034862 3.98892058,20.270934" id="Fill-22" fill="#090E2B"/></g><path d="M65.3242101,54.2879335 C64.5836061,58.0311304 59.9919306,58.395225 57.001294,57.5469755 C54.5704431,56.8575008 53.9406187,55.4390547 54.7625105,54.9843289 C56.1020125,54.2432264 60.3951434,56.3048073 61.9799379,54.336735 C64.8058092,50.8274352 56.1345979,37.9236073 58.8894366,39.9969781 C62.5302408,42.7371521 65.8184752,51.7897946 65.3242101,54.2879335 Z" id="nose" fill="#090E2B"/><g id="lips" transform="translate(43.728631, 63.521525)" fill="#090E2B"><path d="M18.7122585,7.7889293 C16.1027236,9.09554743 12.3893593,10.443259 8.11306471,9.83066282 C3.83752983,9.21882765 1.53339029,6.71136886 0.59745231,4.87281941 C-1.00473374,1.72841282 0.859545334,-0.634458062 3.30346781,0.152404575 C5.74587092,0.940028201 7.14673913,4.32719029 9.54583991,4.91543479 C12.4911577,5.63761337 17.3554523,3.37595403 20.1336384,2.64692655 C23.0462895,1.8821326 27.8786771,1.597453 27.8786771,6.48916007 C27.8786771,9.22709109 26.2546639,8.67178269 24.9545301,7.04455618 C23.6543964,5.41732967 21.3217934,6.48155018 18.7122585,7.7889293 Z" id="Fill-18"/><path d="M17.3946523,13.1090035 C14.0360632,12.6242535 10.8590399,13.0488853 11.0413655,15.290759 C11.2229314,17.5333936 16.9988539,19.4488029 19.5726833,16.0182645 C20.1181407,15.29152 20.7524818,13.5937535 17.3946523,13.1090035 Z" id="Fill-20"/></g></g><g id="Face-Add-On" stroke-width="1" fill="none" transform="translate(122.310078, 139.260989)" fill-opacity="0"/><g id="Glass" stroke-width="1" fill="none" transform="translate(124.589147, 105.016484)" fill-opacity="0"/></g></g></g><path d="M345.957093,31.0281854 L348.429884,38.6532953 C348.775543,39.7110701 349.759341,40.4302047 350.872287,40.4302047 L358.87562,40.4302047 C361.367403,40.4302047 362.400581,43.6225536 360.387403,45.0874574 L353.914845,49.8017843 C353.010814,50.4524299 352.634767,51.6167431 352.980426,52.6745179 L355.453217,60.2996277 C356.224302,62.6701085 353.512209,64.644875 351.499031,63.1761662 L345.022674,58.4656442 C344.12624,57.8111937 342.90314,57.8111937 342.002907,58.4656442 L335.530349,63.1761662 C333.517171,64.644875 330.805078,62.6701085 331.576163,60.2996277 L334.048953,52.6745179 C334.394612,51.6167431 334.014767,50.4524299 333.114535,49.8017843 L326.641977,45.0874574 C324.625,43.6225536 325.661977,40.4302047 328.15376,40.4302047 L336.153295,40.4302047 C337.26624,40.4302047 338.253837,39.7110701 338.599496,38.6532953 L341.068488,31.0281854 C341.839574,28.6577047 345.189806,28.6577047 345.957093,31.0281854" id="Fill-185" fill="#FFB201"/><path d="M398.367721,31.0281854 L400.840512,38.6532953 C401.182372,39.7110701 402.169969,40.4302047 403.282915,40.4302047 L411.286248,40.4302047 C413.774233,40.4302047 414.811209,43.6225536 412.794233,45.0874574 L406.321674,49.8017843 C405.421442,50.4524299 405.045395,51.6167431 405.391054,52.6745179 L407.863845,60.2996277 C408.631132,62.6701085 405.922837,64.644875 403.90586,63.1761662 L397.433302,58.4656442 C396.53307,57.8111937 395.313767,57.8111937 394.413535,58.4656442 L387.937178,63.1761662 C385.924,64.644875 383.215705,62.6701085 383.982992,60.2996277 L386.455783,52.6745179 C386.801442,51.6167431 386.425395,50.4524299 385.525163,49.8017843 L379.048806,45.0874574 C377.035628,43.6225536 378.072605,40.4302047 380.560589,40.4302047 L388.560124,40.4302047 C389.676868,40.4302047 390.664465,39.7110701 391.006326,38.6532953 L393.479116,31.0281854 C394.250202,28.6577047 397.596636,28.6577047 398.367721,31.0281854" id="Fill-187" fill="#FFB201"/><path d="M450.77607,31.0281854 L453.24886,38.6532953 C453.590721,39.7110701 454.578318,40.4302047 455.691264,40.4302047 L463.694597,40.4302047 C466.182581,40.4302047 467.219558,43.6225536 465.20638,45.0874574 L458.730023,49.8017843 C457.829791,50.4524299 457.453744,51.6167431 457.799403,52.6745179 L460.272194,60.2996277 C461.039481,62.6701085 458.331186,64.644875 456.314209,63.1761662 L449.841651,58.4656442 C448.941419,57.8111937 447.722116,57.8111937 446.821884,58.4656442 L440.345527,63.1761662 C438.332349,64.644875 435.624054,62.6701085 436.391341,60.2996277 L438.864132,52.6745179 C439.209791,51.6167431 438.833744,50.4524299 437.933512,49.8017843 L431.457155,45.0874574 C429.443977,43.6225536 430.480953,40.4302047 432.968938,40.4302047 L440.968473,40.4302047 C442.085217,40.4302047 443.072814,39.7110701 443.414674,38.6532953 L445.887465,31.0281854 C446.65855,28.6577047 450.004984,28.6577047 450.77607,31.0281854" id="Fill-189" fill="#FFB201"/><path d="M503.184798,31.0281854 L505.657589,38.6532953 C505.99945,39.7110701 506.987047,40.4302047 508.099992,40.4302047 L516.103326,40.4302047 C518.59131,40.4302047 519.628287,43.6225536 517.615109,45.0874574 L511.138752,49.8017843 C510.238519,50.4524299 509.862473,51.6167431 510.208132,52.6745179 L512.680922,60.2996277 C513.448209,62.6701085 510.739915,64.644875 508.722938,63.1761662 L502.25038,58.4656442 C501.350147,57.8111937 500.130845,57.8111937 499.230612,58.4656442 L492.754256,63.1761662 C490.741078,64.644875 488.032783,62.6701085 488.80007,60.2996277 L491.276659,52.6745179 C491.618519,51.6167431 491.242473,50.4524299 490.34224,49.8017843 L483.869682,45.0874574 C481.852705,43.6225536 482.889682,40.4302047 485.377667,40.4302047 L493.381,40.4302047 C494.493946,40.4302047 495.481543,39.7110701 495.823403,38.6532953 L498.296194,31.0281854 C499.067279,28.6577047 502.413713,28.6577047 503.184798,31.0281854" id="Fill-191" fill="#FFB201"/><path d="M555.591628,31.0281854 L558.064419,38.6532953 C558.410078,39.7110701 559.397674,40.4302047 560.51062,40.4302047 L568.510155,40.4302047 C571.001938,40.4302047 572.035116,43.6225536 570.021938,45.0874574 L563.54938,49.8017843 C562.645349,50.4524299 562.273101,51.6167431 562.614961,52.6745179 L565.087752,60.2996277 C565.855039,62.6701085 563.146744,64.644875 561.133566,63.1761662 L554.661008,58.4656442 C553.760775,57.8111937 552.537674,57.8111937 551.637442,58.4656442 L545.164884,63.1761662 C543.151705,64.644875 540.443411,62.6701085 541.210698,60.2996277 L543.683488,52.6745179 C544.025349,51.6167431 543.649302,50.4524299 542.74907,49.8017843 L536.276512,45.0874574 C534.263333,43.6225536 535.296512,40.4302047 537.788295,40.4302047 L545.787829,40.4302047 C546.900775,40.4302047 547.888372,39.7110701 548.234031,38.6532953 L550.706822,31.0281854 C551.474109,28.6577047 554.824341,28.6577047 555.591628,31.0281854" id="Fill-193" fill="#FFB201"/><path d="M623.120845,120.608007 L342.027977,120.608007 C334.632395,120.608007 328.638442,114.603804 328.638442,107.195576 L328.638442,101.130493 C328.638442,93.7260701 334.632395,87.7180618 342.027977,87.7180618 L623.120845,87.7180618 C630.512628,87.7180618 636.506581,93.7260701 636.506581,101.130493 L636.506581,107.195576 C636.506581,114.603804 630.512628,120.608007 623.120845,120.608007" id="Fill-195" fill="#C7D2F2" fill-rule="nonzero"/><path d="M330.408811,154.616915 L979.258834,154.970774 C983.400969,154.973033 986.754744,158.332729 986.754744,162.474864 C986.754744,166.53578 983.523251,169.84112 979.493387,169.967051 L979.250654,169.970772 L330.400631,169.616915 C326.258496,169.614653 322.904721,166.254958 322.904721,162.112823 C322.904721,158.051907 326.136214,154.746567 330.166078,154.620636 L330.408811,154.616915 Z" id="Stroke-200" fill="#C7D2F2" fill-rule="nonzero"/><path d="M838.707746,199.869125 C842.849881,199.866717 846.212109,203.222628 846.212109,207.364763 C846.212109,211.425679 842.988919,214.734656 838.959199,214.865129 L838.716471,214.869125 L330.409083,215.164769 C326.266948,215.167177 322.904721,211.811266 322.904721,207.669131 C322.904721,203.608215 326.127911,200.299238 330.15763,200.168765 L330.400359,200.16477 L838.707746,199.869125 Z" id="Stroke-201" fill="#C7D2F2" fill-rule="nonzero"/><path d="M739.664876,245.71643 C743.807012,245.71643 747.164876,249.074294 747.164876,253.21643 C747.164876,257.277347 743.937402,260.584447 739.907607,260.712576 L739.664876,260.71643 L330.404721,260.71643 C326.262585,260.71643 322.904721,257.358566 322.904721,253.21643 C322.904721,249.155513 326.132195,245.848412 330.16199,245.720284 L330.404721,245.71643 L739.664876,245.71643 Z" id="Stroke-202" fill="#C7D2F2" fill-rule="nonzero"/></g></g></g></svg>