<svg viewBox="200 160 1180.0000000000002 879.9999999999997" fill="none" xmlns="http://www.w3.org/2000/svg" xmlns:xlink="http://www.w3.org/1999/xlink" overflow="visible" width="1180.0000000000002px" height="879.9999999999997px"><g id="Master/Close Ups/Working"><g id="Food" transform="translate(707 418) scale(1 1)"><g id="Food/Banana"><path id="Path 186" fill-rule="evenodd" clip-rule="evenodd" d="M192.014 43.9189C192.014 43.9189 69.1321 192.568 6 233.108L21.783 250C21.783 250 34.184 239.865 49.967 239.865C65.75 239.865 230.344 238.739 220.198 54.0541L245 20.2703L205.542 0L192.014 43.9189Z" fill="#FFCE00"/><mask id="mask0be999696-6183-4dc3-8f6a-e7702079cc92" mask-type="alpha" maskUnits="userSpaceOnUse" x="6" y="0" width="239" height="250" fill="#ffffff"><path id="Path 186_2" fill-rule="evenodd" clip-rule="evenodd" d="M192.014 43.9189C192.014 43.9189 69.1321 192.568 6 233.108L21.783 250C21.783 250 34.184 239.865 49.967 239.865C65.75 239.865 230.344 238.739 220.198 54.0541L245 20.2703L205.542 0L192.014 43.9189Z" fill="#ffffff"/></mask><g mask="url(#mask0be999696-6183-4dc3-8f6a-e7702079cc92)"><path id="Combined Shape" fill-rule="evenodd" clip-rule="evenodd" d="M189.305 25.4502C189.102 24.486 189 23.5033 189 22.518V-27L282 -6L237.234 39.6987C235.111 41.8662 232.487 43.4779 229.593 44.3916L221.576 46.9233C217.761 48.1282 213.627 46.4509 211.73 42.9278L211.362 42.2432C209.475 38.7388 205.181 37.3154 201.574 38.9986C197.192 41.0438 192.047 38.4734 191.051 33.7408L189.305 25.4502ZM43.6947 245.55C43.8977 246.514 44 247.497 44 248.482V298L-49 277L-4.23395 231.301C-2.11064 229.134 0.513454 227.522 3.40686 226.608L11.4236 224.077C15.2392 222.872 19.3726 224.549 21.2696 228.072L21.6383 228.757C23.5253 232.261 27.8188 233.685 31.4255 232.001C35.8081 229.956 40.953 232.527 41.9493 237.259L43.6947 245.55Z" fill="#C7A100"/><path id="Combined Shape_2" fill-rule="evenodd" clip-rule="evenodd" d="M195.498 64.5851C194.717 64.31 193.86 64.7204 193.585 65.5018C177.05 112.461 129.262 161.909 50.1779 213.745C49.485 214.2 49.2915 215.129 49.7456 215.822C50.1998 216.515 51.1296 216.709 51.8225 216.255C131.405 164.091 179.617 114.206 196.415 66.4982C196.69 65.7168 196.28 64.8603 195.498 64.5851ZM206.496 77.1091C206.556 76.2828 205.935 75.5642 205.109 75.504L204.965 75.5003C204.201 75.5175 203.561 76.1133 203.504 76.8909C198.886 140.22 150.637 189.791 58.457 225.602C57.6848 225.902 57.302 226.771 57.602 227.543C57.902 228.315 58.7712 228.698 59.5434 228.398C152.696 192.209 201.781 141.78 206.496 77.1091Z" fill="#D6AD00"/></g></g></g><g id="Computer"><path id="Monitor" fill-rule="evenodd" clip-rule="evenodd" d="M255.556 475.339L709.308 254.513C731.655 243.638 758.587 252.937 769.463 275.284C772.448 281.419 774 288.153 774 294.976V636.214C774 661.086 759.807 683.777 737.444 694.661L283.692 915.487C261.345 926.362 234.413 917.063 223.537 894.716C220.552 888.581 219 881.847 219 875.024V533.786C219 508.914 233.192 486.223 255.556 475.339ZM724 636.214V302.969L277.436 520.298C272.275 522.81 269 528.046 269 533.786V867.03L715.564 649.702C720.622 647.241 723.868 642.162 723.996 636.558L724 636.214Z" fill="#E4EDF1"/><path id="Path" d="M746.983 286.224C748.31 288.951 749 291.944 749 294.976V636.214C749 651.52 740.266 665.484 726.504 672.181L272.752 893.007C262.82 897.841 250.85 893.708 246.017 883.776C244.69 881.049 244 878.056 244 875.024V533.785C244 518.48 252.734 504.516 266.496 497.819L720.248 276.993C730.18 272.159 742.15 276.292 746.983 286.224Z" fill="#6E8B9A"/><path id="Path_2" d="M709 636.214V326.951L284 533.785L284 843.047L709 636.214Z" fill="#001D2D"/><path id="Keyboard" fill-rule="evenodd" clip-rule="evenodd" d="M424 897.21C424 889.529 428.398 882.527 435.318 879.193L708.45 747.57C713.195 745.283 718.651 744.96 723.633 746.673L827.994 782.541C844.893 788.349 846.273 811.715 830.176 819.472L587.241 936.543C583.908 938.15 580.194 938.8 576.514 938.422L441.956 924.595C431.755 923.547 424 914.954 424 904.7V897.21Z" fill="#E4EDF1"/><g id="code"><path id="Path_3" fill-rule="evenodd" clip-rule="evenodd" d="M673.387 411.987L642.034 427.29C637.071 429.712 631.084 427.653 628.661 422.689C626.239 417.726 628.298 411.739 633.262 409.316L664.614 394.013C669.577 391.591 675.564 393.651 677.987 398.614C680.409 403.577 678.35 409.564 673.387 411.987ZM540.485 476.855L606.088 444.835C611.051 442.413 613.11 436.425 610.688 431.462C608.265 426.499 602.278 424.439 597.315 426.862L531.712 458.882C526.749 461.305 524.69 467.292 527.112 472.255C529.535 477.218 535.522 479.278 540.485 476.855ZM504.538 494.401L438.936 526.421C433.973 528.844 427.985 526.784 425.563 521.821C423.14 516.858 425.2 510.87 430.163 508.448L495.766 476.427C500.729 474.005 506.716 476.065 509.139 481.028C511.561 485.991 509.502 491.978 504.538 494.401ZM402.989 543.966L337.387 575.987C332.423 578.409 326.436 576.35 324.014 571.386C321.591 566.423 323.651 560.436 328.614 558.013L394.217 525.993C399.18 523.571 405.167 525.63 407.59 530.593C410.012 535.557 407.952 541.544 402.989 543.966Z" fill="white"/><path id="Path Copy" fill-rule="evenodd" clip-rule="evenodd" d="M469.655 566.103L421.999 589.295C417.033 591.712 411.048 589.645 408.632 584.68C406.215 579.714 408.281 573.729 413.247 571.312L460.903 548.119C465.869 545.702 471.854 547.769 474.271 552.735C476.688 557.701 474.621 563.686 469.655 566.103ZM386.032 606.799L338.376 629.992C333.41 632.409 327.425 630.342 325.009 625.376C322.592 620.41 324.658 614.425 329.624 612.008L377.28 588.816C382.246 586.399 388.231 588.465 390.648 593.431C393.065 598.397 390.998 604.382 386.032 606.799Z" fill="white"/><path id="Path Copy_2" d="M501.392 549.984L546.392 527.984C551.354 525.558 553.41 519.57 550.984 514.608C548.558 509.646 542.57 507.591 537.608 510.016L492.608 532.016C487.647 534.442 485.591 540.431 488.016 545.392C490.442 550.354 496.431 552.41 501.392 549.984Z" fill="#FF8282"/><path id="Path Copy_3" fill-rule="evenodd" clip-rule="evenodd" d="M673.361 465.999L660.054 472.447C655.084 474.855 649.102 472.778 646.694 467.808C644.286 462.838 646.363 456.857 651.333 454.449L664.64 448.001C669.61 445.593 675.591 447.669 678 452.64C680.408 457.61 678.331 463.591 673.361 465.999ZM624.057 489.889L576.361 512.999C571.391 515.408 565.409 513.331 563.001 508.361C560.593 503.39 562.67 497.409 567.64 495.001L615.336 471.89C620.306 469.482 626.287 471.559 628.696 476.529C631.104 481.499 629.027 487.481 624.057 489.889Z" fill="#A37BFF"/><path id="Path Copy 2" fill-rule="evenodd" clip-rule="evenodd" d="M441.367 633.996L422.031 643.383C417.062 645.795 411.079 643.722 408.668 638.754C406.256 633.785 408.328 627.803 413.297 625.391L432.633 616.004C437.602 613.592 443.585 615.665 445.996 620.633C448.408 625.601 446.336 631.584 441.367 633.996ZM386.046 660.851L338.367 683.996C333.399 686.408 327.416 684.335 325.004 679.367C322.592 674.399 324.665 668.416 329.633 666.004L377.312 642.859C382.281 640.447 388.264 642.519 390.676 647.488C393.087 652.456 391.015 658.439 386.046 660.851Z" fill="#26A9FF"/><path id="Path Copy 2_2" d="M480.409 615.976L527.98 592.608C532.937 590.173 534.981 584.18 532.546 579.223C530.111 574.266 524.119 572.222 519.162 574.657L471.591 598.024C466.634 600.46 464.59 606.452 467.025 611.409C469.46 616.366 475.452 618.411 480.409 615.976Z" fill="#FF8282"/><path id="Path Copy 3" fill-rule="evenodd" clip-rule="evenodd" d="M660.008 580.517L576.432 621.31C571.469 623.733 565.481 621.673 563.059 616.71C560.636 611.746 562.696 605.759 567.659 603.337L651.235 562.544C656.198 560.121 662.185 562.181 664.608 567.144C667.03 572.107 664.971 578.094 660.008 580.517ZM456.909 679.648L540.485 638.855C545.448 636.433 547.508 630.446 545.085 625.482C542.663 620.519 536.676 618.46 531.712 620.882L448.136 661.675C443.173 664.098 441.114 670.085 443.536 675.048C445.959 680.011 451.946 682.071 456.909 679.648ZM337.387 737.987L420.963 697.194C425.926 694.771 427.985 688.784 425.563 683.821C423.14 678.858 417.153 676.798 412.19 679.22L328.614 720.013C323.651 722.436 321.591 728.423 324.014 733.386C326.436 738.35 332.423 740.409 337.387 737.987Z" fill="white"/><path id="Path Copy 4" fill-rule="evenodd" clip-rule="evenodd" d="M552.274 687.396L504.619 710.591C499.653 713.008 493.668 710.941 491.251 705.975C488.834 701.01 490.9 695.025 495.866 692.608L543.521 669.413C548.487 666.996 554.472 669.062 556.889 674.028C559.306 678.994 557.24 684.979 552.274 687.396ZM420.998 751.291L468.653 728.096C473.619 725.679 475.685 719.694 473.268 714.728C470.851 709.762 464.866 707.696 459.9 710.113L412.245 733.308C407.279 735.725 405.213 741.71 407.63 746.676C410.047 751.642 416.032 753.708 420.998 751.291ZM337.377 791.992L385.032 768.797C389.998 766.38 392.064 760.395 389.647 755.429C387.23 750.463 381.245 748.397 376.279 750.814L328.624 774.008C323.658 776.426 321.592 782.411 324.009 787.376C326.426 792.342 332.411 794.409 337.377 791.992Z" fill="#26A9FF"/></g></g><g id="Plants" transform="translate(327 870) scale(0.4666666666666667 0.4666666666666667)"><g id="Plants/Fern"><g id="Group"><path id="Star Copy 2" d="M188 158.388V158.388C182.715 169.416 166.323 166.819 164.704 154.698V154.698V154.698C156.269 163.553 141.482 156.018 143.688 143.99V143.99V143.99C132.93 149.805 121.195 138.07 127.01 127.312V127.312V127.312C114.982 129.518 107.447 114.731 116.302 106.296V106.296V106.296C104.181 104.677 101.584 88.2855 112.612 83V83V83C101.584 77.7145 104.181 61.3229 116.302 59.7039V59.7039V59.7039C107.447 51.2693 114.982 36.4822 127.01 38.6882V38.6882V38.6882C121.195 27.9302 132.93 16.1951 143.688 22.0101V22.0101V22.0101C141.482 9.98163 156.269 2.44722 164.704 11.302V11.302V11.302C166.323 -0.81938 182.715 -3.41556 188 7.6123V7.6123V7.6123C193.285 -3.41556 209.677 -0.81938 211.296 11.302V11.302V11.302C219.731 2.44722 234.518 9.98162 232.312 22.0101V22.0101V22.0101C243.07 16.1951 254.805 27.9302 248.99 38.6882V38.6882V38.6882C261.018 36.4822 268.553 51.2693 259.698 59.7039V59.7039V59.7039C271.819 61.3229 274.416 77.7145 263.388 83V83V83C274.416 88.2855 271.819 104.677 259.698 106.296V106.296V106.296C268.553 114.731 261.018 129.518 248.99 127.312V127.312V127.312C254.805 138.07 243.07 149.805 232.312 143.99V143.99V143.99C234.518 156.018 219.731 163.553 211.296 154.698V154.698V154.698C209.677 166.819 193.285 169.416 188 158.388V158.388Z" fill="#42AB99"/><path id="Star Copy" d="M94 196.162V196.162C89.6418 205.255 76.1259 203.114 74.791 193.119V193.119V193.119C67.8361 200.421 55.6433 194.208 57.4622 184.29V184.29V184.29C48.5916 189.085 38.9152 179.408 43.7101 170.538V170.538V170.538C33.7919 172.357 27.5793 160.164 34.8806 153.209V153.209V153.209C24.8858 151.874 22.7451 138.358 31.8382 134V134V134C22.7451 129.642 24.8858 116.126 34.8806 114.791V114.791V114.791C27.5793 107.836 33.7919 95.6433 43.7101 97.4622V97.4622V97.4622C38.9152 88.5915 48.5915 78.9152 57.4622 83.7101V83.7101V83.7101C55.6433 73.7919 67.8361 67.5793 74.791 74.8806V74.8806V74.8806C76.1259 64.8858 89.6418 62.7451 94 71.8382V71.8382V71.8382C98.3582 62.7451 111.874 64.8858 113.209 74.8806V74.8806V74.8806C120.164 67.5793 132.357 73.7919 130.538 83.7101V83.7101V83.7101C139.408 78.9152 149.085 88.5916 144.29 97.4622V97.4622V97.4622C154.208 95.6433 160.421 107.836 153.119 114.791V114.791V114.791C163.114 116.126 165.255 129.642 156.162 134V134V134C165.255 138.358 163.114 151.874 153.119 153.209V153.209V153.209C160.421 160.164 154.208 172.357 144.29 170.538V170.538V170.538C149.085 179.408 139.408 189.085 130.538 184.29V184.29V184.29C132.357 194.208 120.164 200.421 113.209 193.119V193.119V193.119C111.874 203.114 98.3582 205.255 94 196.162V196.162Z" fill="#59BCAB"/><path id="Star" d="M150 272.388V272.388C144.715 283.416 128.323 280.819 126.704 268.698V268.698V268.698C118.269 277.553 103.482 270.018 105.688 257.99V257.99V257.99C94.9302 263.805 83.1951 252.07 89.0101 241.312V241.312V241.312C76.9816 243.518 69.4472 228.731 78.302 220.296V220.296V220.296C66.1806 218.677 63.5844 202.285 74.6123 197V197V197C63.5844 191.715 66.1806 175.323 78.302 173.704V173.704V173.704C69.4472 165.269 76.9816 150.482 89.0101 152.688V152.688V152.688C83.1951 141.93 94.9302 130.195 105.688 136.01V136.01V136.01C103.482 123.982 118.269 116.447 126.704 125.302V125.302V125.302C128.323 113.181 144.715 110.584 150 121.612V121.612V121.612C155.285 110.584 171.677 113.181 173.296 125.302V125.302V125.302C181.731 116.447 196.518 123.982 194.312 136.01V136.01V136.01C205.07 130.195 216.805 141.93 210.99 152.688V152.688V152.688C223.018 150.482 230.553 165.269 221.698 173.704V173.704V173.704C233.819 175.323 236.416 191.715 225.388 197V197V197C236.416 202.285 233.819 218.677 221.698 220.296V220.296V220.296C230.553 228.731 223.018 243.518 210.99 241.312V241.312V241.312C216.805 252.07 205.07 263.805 194.312 257.99V257.99V257.99C196.518 270.018 181.731 277.553 173.296 268.698V268.698V268.698C171.677 280.819 155.285 283.416 150 272.388V272.388Z" fill="#82D1C4"/><path id="Rectangle" fill-rule="evenodd" clip-rule="evenodd" d="M80 240H220V254.894C220 269.307 214.037 283.077 203.526 292.939V292.939C198.691 297.475 192.31 300 185.68 300H114.32C107.69 300 101.309 297.475 96.4735 292.939V292.939C85.9627 283.077 80 269.307 80 254.894V240Z" fill="#E4EDF1"/><path id="Combined Shape" fill-rule="evenodd" clip-rule="evenodd" d="M199 253C199 250.791 197.209 249 195 249H176L175.8 249.005C173.684 249.109 172 250.858 172 253C172 255.209 173.791 257 176 257H195L195.2 256.995C197.316 256.891 199 255.142 199 253ZM203 267C203 264.791 201.209 263 199 263H190L189.8 263.005C187.684 263.109 186 264.858 186 267C186 269.209 187.791 271 190 271H199L199.2 270.995C201.316 270.891 203 269.142 203 267ZM176 269C178.209 269 180 270.791 180 273C180 275.142 178.316 276.891 176.2 276.995L176 277H163C160.791 277 159 275.209 159 273C159 270.858 160.684 269.109 162.8 269.005L163 269H176ZM187 287C187 284.791 185.209 283 183 283H170L169.8 283.005C167.684 283.109 166 284.858 166 287C166 289.209 167.791 291 170 291H183L183.2 290.995C185.316 290.891 187 289.142 187 287Z" fill="#B9CCD4"/></g></g></g><g id="Master/Character/Bust" transform="matrix(-1 0 0 1 1664 0) scale(1 1)"><g id="Master/Character/Bust"><g id="Bodies" transform="translate(290 534) scale(1 1)"><g id="Bodies/Blue A"><g id="Patterns"><path id="Mask" fill-rule="evenodd" clip-rule="evenodd" d="M362.086 371.318C382.619 359.612 401.825 343.91 412.196 322.671C422.566 301.43 422.346 273.901 407.079 255.857C393.928 240.311 372.8 234.442 352.814 230.543C287.28 217.761 219.322 217.53 153.704 229.867C135.359 233.316 116.444 238.106 102.232 250.207C80.6574 268.576 74.8264 301.471 84.5594 328.083C94.2924 354.695 117.352 374.983 143.395 386.149C168.918 397.092 197.103 400.083 224.642 400.132C254.423 400.186 283.106 400.179 312.073 392.105C329.507 387.247 346.361 380.282 362.086 371.318" fill="#7192F0"/><mask id="mask0bacb7581-481d-4c7b-8d3d-99039ff83343" mask-type="alpha" maskUnits="userSpaceOnUse" x="80" y="220" width="340" height="181" fill="#ffffff"><path id="Mask_2" fill-rule="evenodd" clip-rule="evenodd" d="M362.086 371.318C382.619 359.612 401.825 343.91 412.196 322.671C422.566 301.43 422.346 273.901 407.079 255.857C393.928 240.311 372.8 234.442 352.814 230.543C287.28 217.761 219.322 217.53 153.704 229.867C135.359 233.316 116.444 238.106 102.232 250.207C80.6574 268.576 74.8264 301.471 84.5594 328.083C94.2924 354.695 117.352 374.983 143.395 386.149C168.918 397.092 197.103 400.083 224.642 400.132C254.423 400.186 283.106 400.179 312.073 392.105C329.507 387.247 346.361 380.282 362.086 371.318" fill="#ffffff"/></mask><g mask="url(#mask0bacb7581-481d-4c7b-8d3d-99039ff83343)"><g id="Patterns_2"><g id="Group"><path id="Path 51" d="M527.949 211.503L528.051 212.497L28.0507 263.497L27.9492 262.503L527.949 211.503Z" fill="white"/><path id="Path 52" d="M28.0596 295.504L528.06 355.504L527.94 356.496L27.9404 296.496L28.0596 295.504Z" fill="white"/><path id="Path 53" d="M28.0477 325.502L528.048 373.502L527.952 374.498L27.9521 326.498L28.0477 325.502Z" fill="white"/><path id="Path 54" d="M28.0138 383.5L528.014 397.5L527.986 398.5L27.9858 384.5L28.0138 383.5Z" fill="white"/><path id="Path 59" d="M28.0199 283.5L528.02 303.5L527.98 304.5L27.98 284.5L28.0199 283.5Z" fill="white"/></g></g></g></g><g id="Patterns_3"><path id="Mask_3" fill-rule="evenodd" clip-rule="evenodd" d="M173 432.67C179.305 415.74 194.413 407.054 218.304 403.364C240.694 399.907 280.799 397.842 303.623 399.213C321.21 400.27 334.314 404.493 344.813 414.666C371.433 440.462 328.228 465.612 298.732 474.4C268.904 483.288 224.217 483.556 196.974 470.244C180.424 462.157 167.512 447.407 173 432.67" fill="#418FE7"/><mask id="mask1bacb7581-481d-4c7b-8d3d-99039ff83343" mask-type="alpha" maskUnits="userSpaceOnUse" x="171" y="398" width="183" height="83" fill="#ffffff"><path id="Mask_4" fill-rule="evenodd" clip-rule="evenodd" d="M173 432.67C179.305 415.74 194.413 407.054 218.304 403.364C240.694 399.907 280.799 397.842 303.623 399.213C321.21 400.27 334.314 404.493 344.813 414.666C371.433 440.462 328.228 465.612 298.732 474.4C268.904 483.288 224.217 483.556 196.974 470.244C180.424 462.157 167.512 447.407 173 432.67" fill="#ffffff"/></mask><g mask="url(#mask1bacb7581-481d-4c7b-8d3d-99039ff83343)"><g id="Patterns_4"><g id="Group_2"><path id="Path 49" d="M358.072 209.012L351.088 500.012L350.088 499.988L357.072 208.988L358.072 209.012Z" fill="white"/><path id="Path 50" d="M325.479 499.976L324.481 500.024L310.513 209.024L311.511 208.976L325.479 499.976Z" fill="white"/><path id="Path 51_2" d="M305.107 499.949L304.113 500.051L274.431 209.051L275.425 208.949L305.107 499.949Z" fill="white"/><path id="Path 52_2" d="M256.218 209.06L221.298 500.06L220.305 499.94L255.225 208.94L256.218 209.06Z" fill="white"/><path id="Path 53_2" d="M238.76 209.048L210.824 500.048L209.828 499.952L237.764 208.952L238.76 209.048Z" fill="white"/><path id="Path 54_2" d="M205.006 209.014L196.858 500.014L195.858 499.986L204.006 208.986L205.006 209.014Z" fill="white"/><path id="Path 55" d="M176.486 499.954L175.49 500.046L148.718 209.046L149.714 208.954L176.486 499.954Z" fill="white"/><path id="Path 59_2" d="M263.206 209.02L251.566 500.02L250.566 499.98L262.206 208.98L263.206 209.02Z" fill="white"/></g></g></g></g><g id="Patterns_5"><path id="Mask_5" fill-rule="evenodd" clip-rule="evenodd" d="M120.01 191.589C90.6146 164.371 80.3056 116.785 100.238 82.034C117.951 51.15 154.034 35.558 188.992 28.808C208.597 25.023 229.563 23.493 247.95 31.276C264.428 38.249 277.253 52.198 285.704 67.969C300.706 95.966 302.661 130.622 290.903 160.128C281.517 183.679 260.725 209.613 236.014 218.325C215.838 225.439 184.192 221.141 164.288 215.692C147.923 211.21 132.495 203.149 120.01 191.589" fill="#418FE7"/><mask id="mask2bacb7581-481d-4c7b-8d3d-99039ff83343" mask-type="alpha" maskUnits="userSpaceOnUse" x="89" y="25" width="210" height="198" fill="#ffffff"><path id="Mask_6" fill-rule="evenodd" clip-rule="evenodd" d="M120.01 191.589C90.6146 164.371 80.3056 116.785 100.238 82.034C117.951 51.15 154.034 35.558 188.992 28.808C208.597 25.023 229.563 23.493 247.95 31.276C264.428 38.249 277.253 52.198 285.704 67.969C300.706 95.966 302.661 130.622 290.903 160.128C281.517 183.679 260.725 209.613 236.014 218.325C215.838 225.439 184.192 221.141 164.288 215.692C147.923 211.21 132.495 203.149 120.01 191.589" fill="#ffffff"/></mask><g mask="url(#mask2bacb7581-481d-4c7b-8d3d-99039ff83343)"><g id="Patterns_6"><g id="Group_3"><path id="Path 48" d="M590.465 263.074L589.772 263.796L229.148 -82.6867L229.841 -83.4078L590.465 263.074Z" fill="white"/><path id="Path 49_2" d="M212.178 -65.7146L557.246 296.324L556.522 297.014L211.454 -65.0247L212.178 -65.7146Z" fill="white"/><path id="Path 50_2" d="M526.108 327.412L525.436 328.152L154.912 -8.43099L155.584 -9.17118L526.108 327.412Z" fill="white"/><path id="Path 51_3" d="M501.339 352.143L500.707 352.918L111.091 35.4271L111.723 34.6519L501.339 352.143Z" fill="white"/><path id="Path 52_3" d="M88.4661 58.0651L399.593 454.045L398.807 454.663L87.6798 58.683L88.4661 58.0651Z" fill="white"/><path id="Path 53_3" d="M67.2453 79.2691L386.858 466.764L386.086 467.4L66.4739 79.9054L67.2453 79.2691Z" fill="white"/><path id="Path 54_3" d="M26.2107 120.256L369.865 483.709L369.138 484.396L25.4841 120.943L26.2107 120.256Z" fill="white"/><path id="Path 55_2" d="M345.072 508.417L344.433 509.186L-41.6475 188.159L-41.0081 187.39L345.072 508.417Z" fill="white"/><path id="Path 56" d="M304.087 549.453L303.394 550.174L-57.2307 203.691L-56.5379 202.97L304.087 549.453Z" fill="white"/><path id="Path 57" d="M281.458 572.079L280.767 572.802L-80.5645 227.027L-79.8731 226.304L281.458 572.079Z" fill="white"/><path id="Path 59_3" d="M96.9252 49.5496L436.336 417.245L435.602 417.923L96.1904 50.2279L96.9252 49.5496Z" fill="white"/></g></g></g></g><g id="Patterns_7"><path id="Mask_7" fill-rule="evenodd" clip-rule="evenodd" d="M300.791 200.575C287.995 180.96 288.228 153.025 303.161 134.985C318.095 116.944 347.343 111.946 366.261 125.752C377.633 134.052 384.324 147.57 387.099 161.372C389.715 174.388 389.123 188.262 383.908 200.472C378.092 214.087 363.802 230.873 347.739 229.49C329.39 227.909 310.723 215.801 300.791 200.575" fill="#64BBF6"/><mask id="mask3bacb7581-481d-4c7b-8d3d-99039ff83343" mask-type="alpha" maskUnits="userSpaceOnUse" x="291" y="117" width="98" height="113" fill="#ffffff"><path id="Mask_8" fill-rule="evenodd" clip-rule="evenodd" d="M300.791 200.575C287.995 180.96 288.228 153.025 303.161 134.985C318.095 116.944 347.343 111.946 366.261 125.752C377.633 134.052 384.324 147.57 387.099 161.372C389.715 174.388 389.123 188.262 383.908 200.472C378.092 214.087 363.802 230.873 347.739 229.49C329.39 227.909 310.723 215.801 300.791 200.575" fill="#ffffff"/></mask><g mask="url(#mask3bacb7581-481d-4c7b-8d3d-99039ff83343)"><g id="Patterns_8"><g id="Group_4"><path id="Path 51_4" d="M286.252 89.0507L287.247 88.9492L305.097 263.949L304.102 264.051L286.252 89.0507Z" fill="white"/><path id="Path 52_4" d="M315.653 263.94L336.653 88.9404L337.646 89.0596L316.646 264.06L315.653 263.94Z" fill="white"/><path id="Path 53_4" d="M326.152 263.952L342.952 88.9522L343.947 89.0478L327.147 264.048L326.152 263.952Z" fill="white"/><path id="Path 54_4" d="M346.45 263.986L351.35 88.986L352.35 89.014L347.45 264.014L346.45 263.986Z" fill="white"/><path id="Path 55_3" d="M363.602 89.0458L364.598 88.9542L380.698 263.954L379.702 264.046L363.602 89.0458Z" fill="white"/><path id="Path 56_2" d="M383.9 89.01L384.9 88.99L388.4 263.99L387.4 264.01L383.9 89.01Z" fill="white"/><path id="Path 59_4" d="M311.45 263.98L318.45 88.98L319.449 89.02L312.449 264.02L311.45 263.98Z" fill="white"/></g></g></g></g><g id="Patterns_9"><path id="Mask_9" fill-rule="evenodd" clip-rule="evenodd" d="M298.869 96.9474C286.401 79.4724 287.029 53.7874 300.296 36.9114C313.563 20.0364 337.336 17.3594 357.306 25.2354C377.274 33.1114 389.812 51.8644 388.109 73.2634C384.425 119.556 325.635 134.462 298.869 96.9474" fill="#7192F0"/><mask id="mask4bacb7581-481d-4c7b-8d3d-99039ff83343" mask-type="alpha" maskUnits="userSpaceOnUse" x="289" y="21" width="100" height="98" fill="#ffffff"><path id="Mask_10" fill-rule="evenodd" clip-rule="evenodd" d="M298.869 96.9474C286.401 79.4724 287.029 53.7874 300.296 36.9114C313.563 20.0364 337.336 17.3594 357.306 25.2354C377.274 33.1114 389.812 51.8644 388.109 73.2634C384.425 119.556 325.635 134.462 298.869 96.9474" fill="#ffffff"/></mask><g mask="url(#mask4bacb7581-481d-4c7b-8d3d-99039ff83343)"><g id="Patterns_10"><g id="Group_5"><path id="Path 49_3" d="M273.012 24.0161L500.012 29.4641L499.988 30.4639L272.988 25.0159L273.012 24.0161Z" fill="white"/><path id="Path 50_3" d="M499.976 49.4406L500.024 50.4394L273.024 61.3354L272.976 60.3366L499.976 49.4406Z" fill="white"/><path id="Path 51_5" d="M499.949 65.3326L500.051 66.3274L273.051 89.4814L272.949 88.4866L499.949 65.3326Z" fill="white"/><path id="Path 52_5" d="M273.06 103.47L500.06 130.71L499.94 131.702L272.94 104.462L273.06 103.47Z" fill="white"/><path id="Path 53_5" d="M273.048 117.088L500.048 138.88L499.952 139.876L272.952 118.084L273.048 117.088Z" fill="white"/><path id="Path 59_5" d="M273.02 98.0184L500.02 107.098L499.98 108.098L272.98 99.0176L273.02 98.0184Z" fill="white"/></g></g></g></g></g></g><g id="Heads" transform="translate(508 359) scale(1 1)"><g id="Heads/Wide"><g id="Patterns"><path id="Mask" fill-rule="evenodd" clip-rule="evenodd" d="M57.366 40.3249C39.1737 45.033 21.7672 54.7631 10.7108 69.9844C-0.345563 85.2043 -4.09743 106.33 3.88277 123.371C9.86792 136.15 21.6585 145.489 34.5622 151.155C47.4659 156.821 61.5386 159.193 75.4872 161.178C101.795 164.923 129.298 167.356 154.365 158.525C179.432 149.692 201.348 126.656 200.738 100.04C200.267 79.4103 186.363 60.7819 168.696 50.1751C137.562 31.4824 91.7011 31.4392 57.366 40.3249" fill="#FF996B"/><mask id="mask0552a1ca8-b5ab-4fec-a977-9a1086cd1473" mask-type="alpha" maskUnits="userSpaceOnUse" x="-1" y="34" width="202" height="131" fill="#ffffff"><path id="Mask_2" fill-rule="evenodd" clip-rule="evenodd" d="M57.366 40.3249C39.1737 45.033 21.7672 54.7631 10.7108 69.9844C-0.345563 85.2043 -4.09743 106.33 3.88277 123.371C9.86792 136.15 21.6585 145.489 34.5622 151.155C47.4659 156.821 61.5386 159.193 75.4872 161.178C101.795 164.923 129.298 167.356 154.365 158.525C179.432 149.692 201.348 126.656 200.738 100.04C200.267 79.4103 186.363 60.7819 168.696 50.1751C137.562 31.4824 91.7011 31.4392 57.366 40.3249" fill="#ffffff"/></mask><g mask="url(#mask0552a1ca8-b5ab-4fec-a977-9a1086cd1473)"><g id="Patterns_2"><g id="Group"><path id="Path 7" d="M291.108 147.73C255.358 190.903 225.742 212.512 202.183 212.512C194.567 212.512 186.906 211.856 178.322 210.567L176.859 210.342C173.425 209.805 169.816 209.166 165.653 208.371L162.25 207.711L150.821 205.427C125.892 200.46 109.798 198.361 89.0476 198.361C73.6428 198.361 59.4579 200.171 39.8043 204.021L36.981 204.583C34.2519 205.137 23.2808 207.36 20.1169 207.96L18.666 208.232C13.2046 209.244 8.87942 209.896 5.0011 210.257C-4.92556 211.181 -11.8399 210.118 -16.736 206.468L-17.0162 206.254L-16.402 205.465C-11.825 209.027 -5.23887 210.139 4.34143 209.312L4.90845 209.262C8.9198 208.888 13.4258 208.199 19.2018 207.115L22.3238 206.511C27.6386 205.461 37.5901 203.439 37.4022 203.477L38.5144 203.256C58.7985 199.246 73.2792 197.361 89.0476 197.361C109.205 197.361 124.982 199.334 148.625 203.973L162.708 206.782C163.48 206.933 164.215 207.076 164.942 207.216L166.722 207.556C171.088 208.383 174.849 209.033 178.471 209.578C187.009 210.861 194.62 211.512 202.183 211.512C225.121 211.512 254.176 190.48 289.273 148.374L290.338 147.092L291.108 147.73Z" fill="white"/><path id="Path 10" d="M291.105 138.504C271.371 161.954 248.132 178.004 221.397 186.647C212.094 189.655 200.756 190.446 186.399 189.441L184.228 189.279C175.074 188.562 167.843 187.585 149.892 184.742L135.87 182.512C126.941 181.111 120.801 180.227 114.256 179.426C90.5704 176.527 71.9999 176.371 55.5022 179.73L54.7181 179.893C18.0252 187.644 -5.82276 184.481 -16.7828 170.291L-17.111 169.858L-16.308 169.262C-5.90556 183.274 17.3208 186.605 53.4138 179.144L54.5115 178.915C70.8072 175.472 89.0379 175.473 112.128 178.165L114.377 178.434C121.263 179.276 127.698 180.21 137.384 181.738L153.095 184.235C169.61 186.829 176.389 187.697 185.608 188.382C200.258 189.47 211.744 188.717 221.089 185.696C247.34 177.209 270.199 161.531 289.67 138.652L290.34 137.86L291.105 138.504Z" fill="white"/><path id="Path 11" d="M290.751 125.993L290.695 126.991C276.027 126.176 264.447 130.114 247.866 139.863L246.097 140.913C245.506 141.266 244.891 141.636 244.226 142.039L237.852 145.92C225.6 153.362 217.878 157.358 208.521 160.5C196.698 164.47 184.371 165.946 170.453 164.611L169.543 164.52C135.097 160.929 100.988 163.073 60.8105 169.351L58.0084 169.795C49.9694 171.094 30.452 174.442 27.0231 174.976C8.57572 177.847 -6.05587 171.768 -16.7942 156.769L-17.1184 156.312L-16.3 155.737C-5.85967 170.604 8.31839 176.705 26.3116 174.072L26.8693 173.988C30.3788 173.441 50.8424 169.929 58.4617 168.709L59.0219 168.62C99.4426 162.219 133.708 159.937 168.246 163.382L169.647 163.525C183.794 165 196.257 163.563 208.203 159.552C216.927 156.622 224.232 152.936 235.227 146.337L244.103 140.945C244.88 140.475 245.592 140.049 246.286 139.636L246.632 139.431C263.512 129.422 275.291 125.271 290.105 125.96L290.751 125.993Z" fill="white"/><path id="Path 12" fill-rule="evenodd" clip-rule="evenodd" d="M38.2318 131.534C47.757 132.766 55.4744 135.529 59.1988 139.312C63.5711 143.753 62.3269 149.261 54.9278 155.184C40.4658 166.761 26.2143 170.818 14.9718 167.579C4.62304 164.598 -1.83741 155.644 -1.83741 144.335C-1.83741 133.84 17.4513 128.845 38.2318 131.534ZM15.2486 166.618C26.1465 169.758 40.0753 165.793 54.3028 154.403C61.2873 148.812 62.3811 143.97 58.4862 140.013C54.9551 136.426 47.4269 133.732 38.1035 132.525C17.8789 129.908 -0.837414 134.755 -0.837414 144.335C-0.837414 155.206 5.33622 163.763 15.2486 166.618Z" fill="white"/><path id="Path 12_2" fill-rule="evenodd" clip-rule="evenodd" d="M35.1798 137.993C41.2103 138.781 46.1013 140.549 48.4802 142.991C51.3162 145.901 50.507 149.52 45.777 153.345C36.6347 160.738 27.6076 163.334 20.4692 161.257C13.8775 159.339 9.76123 153.575 9.76123 146.309C9.76123 139.473 22.0041 136.27 35.1798 137.993ZM20.7486 160.297C27.5393 162.273 36.2412 159.77 45.1482 152.568C49.4674 149.075 50.1291 146.115 47.764 143.688C45.5783 141.446 40.8778 139.746 35.0502 138.984C22.4284 137.334 10.7612 140.386 10.7612 146.309C10.7612 153.14 14.5934 158.506 20.7486 160.297Z" fill="white"/><path id="Path 12_3" fill-rule="evenodd" clip-rule="evenodd" d="M31.942 145.106C34.266 145.405 36.1584 146.077 37.111 147.037C38.3273 148.263 37.9753 149.81 36.0698 151.324C29.1369 156.832 22.0582 154.808 22.0582 148.483C22.0582 145.781 26.4732 144.544 31.3646 145.04L31.942 145.106ZM23.0582 148.483C23.0582 153.856 29.1008 155.583 35.4477 150.541C36.9355 149.359 37.1352 148.482 36.401 147.742C35.6419 146.976 33.9375 146.371 31.8147 146.098C27.2564 145.513 23.0582 146.592 23.0582 148.483Z" fill="white"/><path id="Path 13" d="M290.746 116.149L290.699 117.148L288.11 117.033C261.085 115.897 239.15 117.082 220.797 120.289C206.026 122.871 194.336 126.526 181.953 131.89L180.999 132.306C177.723 133.744 165.106 139.668 161.911 141.042C148.988 146.598 138.469 148.768 124.065 147.91C103.704 146.697 89.4395 142.552 72.9346 134.576L71.7449 133.994C69.6043 132.927 60.406 128.288 57.6544 127.006C47.6711 122.355 39.7233 120.224 30.02 120.224C9.08583 120.224 -6.23013 127.18 -15.9846 141.09L-16.2973 141.541L-17.1222 140.976C-7.18501 126.475 8.54856 119.224 30.02 119.224C39.6461 119.224 47.576 121.287 57.3409 125.76L58.0768 126.1C61.0572 127.489 71.5093 132.769 72.5466 133.276C89.2938 141.46 103.568 145.687 124.124 146.912C138.087 147.743 148.328 145.702 160.781 140.437L161.516 140.123C164.692 138.757 177.304 132.836 180.597 131.39C193.406 125.768 205.391 121.967 220.625 119.304C239.345 116.033 261.757 114.858 289.444 116.089L290.746 116.149Z" fill="white"/><path id="Path 14" fill-rule="evenodd" clip-rule="evenodd" d="M203.592 130.854C221.471 126.133 238.202 124.858 240.137 128.73C241.368 131.195 239.606 133.981 235.478 137.084C232.635 139.221 228.723 141.473 223.827 143.898L223.623 143.998C220.494 145.536 213.999 148.47 210.646 149.984C209.609 150.452 208.873 150.785 208.629 150.899L208.022 151.197C202.977 153.655 195.987 156.149 189.966 157.133C180.762 158.637 174.528 156.624 172.8 149.998C171.062 143.331 183.366 136.346 202.417 131.169L203.592 130.854ZM223.984 142.703C228.549 140.417 232.209 138.29 234.878 136.284C238.653 133.447 240.174 131.041 239.242 129.177C237.659 126.009 221.07 127.273 203.848 131.821L203.277 131.973C184.512 137 172.239 143.882 173.768 149.746C175.329 155.732 181.046 157.577 189.805 156.146C195.927 155.146 203.112 152.539 208.108 150.04C208.23 149.979 209.063 149.602 210.299 149.044C213.61 147.548 219.81 144.746 222.969 143.205L223.984 142.703Z" fill="white"/><path id="Path 14_2" fill-rule="evenodd" clip-rule="evenodd" d="M198.776 137.715C208.464 135.171 217.417 134.493 218.531 136.71C219.259 138.159 218.262 139.727 215.978 141.434C214.447 142.578 212.351 143.778 209.728 145.07L209.4 145.229C207.653 146.072 204.382 147.541 202.676 148.307C202.17 148.535 201.801 148.7 201.652 148.769L201.145 149.014C198.449 150.302 194.781 151.592 191.606 152.108C186.595 152.922 183.151 151.817 182.19 148.153C181.217 144.441 187.744 140.722 197.92 137.944L198.776 137.715ZM210.226 143.702C212.362 142.613 214.092 141.595 215.379 140.633C217.309 139.191 218.063 138.005 217.637 137.159C216.898 135.689 208.58 136.273 199.838 138.474L199.03 138.682C189.002 141.315 182.389 144.967 183.157 147.899C183.95 150.923 186.879 151.863 191.446 151.121C194.685 150.595 198.495 149.22 201.14 147.905C201.207 147.871 201.661 147.667 202.332 147.366C204.186 146.533 207.696 144.955 209.286 144.172L210.226 143.702Z" fill="white"/><path id="Path 15" d="M290.872 107.557L290.574 108.512C268.728 101.69 250.076 99.0614 232.5 99.8035L231.078 99.8699C218.35 100.523 207.428 102.668 190.702 107.232L188.485 107.841L181.152 109.882C162.661 115.003 152.374 117.24 139.068 118.446L138.432 118.503C120.324 120.088 101.206 118.715 79.0569 113.715L77.8675 113.444C11.1725 98.0742 -22.5048 111.252 -23.5656 152.912L-23.5878 154.183L-24.5878 154.174C-24.1781 111.135 9.5066 97.1023 76.0651 112.009L78.0921 112.469C100.647 117.667 120.02 119.111 138.345 117.507L139.605 117.392C152.328 116.199 162.413 114.015 180.017 109.159L188.553 106.785L190.442 106.266C207.853 101.516 219.02 99.3717 232.458 98.8044C249.852 98.07 268.283 100.613 289.759 107.212L290.872 107.557Z" fill="white"/><path id="Path 16" d="M304.025 88.0344L303.244 88.6589C287.51 68.9792 270.985 61.4665 251.475 63.2645C243.21 64.0262 234.405 66.4168 223.967 70.4939L222.665 71.0077C219.17 72.4008 215.474 73.9825 211.222 75.89L208.785 76.9909C207.554 77.551 206.274 78.1376 204.829 78.8049L194.765 83.4726C169.698 95.062 154.524 100.568 137.075 102.993C93.1536 109.097 42.4121 100.702 -15.1497 77.8187L-16.8961 77.1209L-16.5234 76.1929C41.6087 99.5423 92.7624 108.142 136.938 102.002L138.157 101.827C154.775 99.3634 169.59 93.9755 193.468 82.9701L205.352 77.4627C206.731 76.8279 207.97 76.2617 209.188 75.71L211.607 74.6222C216.065 72.6325 219.921 71.0009 223.603 69.5625C234.121 65.4541 243.012 63.0402 251.384 62.2687C271.04 60.4573 287.75 67.9467 303.547 87.4401L304.025 88.0344Z" fill="white"/><path id="Path 17" d="M298.361 62.6943L297.841 63.5483C285.505 56.0346 272.425 51.2618 251.09 49.0834C220.56 45.9662 180.506 50.0004 128.862 63.2026L127.294 63.6054C50.0532 83.5379 -4.49815 81.1171 -36.3554 56.2721L-37.3138 55.5124L-36.6864 54.7337C-5.59033 79.7878 48.2096 82.6444 124.718 63.2322L127.044 62.6372C179.554 49.0867 220.226 44.9268 251.192 48.0886C272.386 50.2527 285.536 54.9735 297.842 62.3797L298.361 62.6943Z" fill="white"/><path id="Path 18" fill-rule="evenodd" clip-rule="evenodd" d="M64.4529 12.786C81.0497 12.786 97.0806 18.4676 106.972 26.9025C116.559 35.077 117.841 43.8911 108.941 48.1903C99.8256 52.5935 78.5258 57.3049 58.656 59.1861L57.2723 59.3127C33.0523 61.4511 15.3847 59.1804 9.94106 51.7265C-2.23789 35.0501 28.8668 12.786 64.4529 12.786ZM57.8718 58.2547C77.8285 56.4287 99.4122 51.6826 108.506 47.2899C116.596 43.3816 115.441 35.4382 106.324 27.6634C96.6162 19.3858 80.8162 13.786 64.4529 13.786C29.5304 13.786 -0.717293 35.4366 10.7486 51.1367C15.8933 58.1812 33.3322 60.4225 57.1843 58.3165L57.8718 58.2547Z" fill="white"/><path id="Path 18_2" fill-rule="evenodd" clip-rule="evenodd" d="M63.3461 27.3123C74.4597 27.3123 85.1975 30.187 91.8358 34.4629C98.3815 38.6791 99.297 43.4351 93.1243 45.6875C87.0718 47.896 73.0161 50.2551 59.8216 51.2221L58.5477 51.3113C42.3034 52.3947 30.4916 51.248 26.8006 47.4302C22.7569 43.2477 25.488 38.1155 33.1417 33.9772C40.6986 29.8913 51.9359 27.3123 63.3461 27.3123ZM59.1133 50.2703C72.4052 49.3396 86.736 46.9541 92.7815 44.7481C97.9716 42.8542 97.2575 39.1446 91.2943 35.3036C84.8252 31.1367 74.2753 28.3123 63.3461 28.3123C52.095 28.3123 41.0209 30.8539 33.6173 34.8569C26.4566 38.7286 24.0859 43.1837 27.5195 46.7351C30.8259 50.1551 42.0051 51.3169 57.3108 50.3881L59.1133 50.2703Z" fill="white"/><path id="Path 18_3" fill-rule="evenodd" clip-rule="evenodd" d="M76.0345 39.1974C77.5917 39.9629 78.5672 40.7963 78.7833 41.653C79.0468 42.6979 78.2305 43.4862 76.618 43.9353C68.6658 46.1497 47.8052 47.2115 44.412 44.5331C43.2958 43.652 43.0942 42.5459 43.8309 41.4893C44.4527 40.5976 45.7339 39.7548 47.5336 39.0122C51.2091 37.4955 56.6589 36.541 62.191 36.541C67.5841 36.541 72.7974 37.6062 76.0345 39.1974ZM45.0316 43.7482C48.0757 46.1511 68.7037 45.1012 76.3498 42.9719L76.5463 42.9144C77.5532 42.6042 77.9008 42.2432 77.8136 41.8976C77.6906 41.4099 76.9076 40.7409 75.5934 40.0948C72.5027 38.5756 67.4392 37.541 62.191 37.541C56.7831 37.541 51.4619 38.473 47.9151 39.9366C46.2764 40.6127 45.14 41.3603 44.6512 42.0613C44.2259 42.6712 44.3198 43.1863 45.0316 43.7482Z" fill="white"/><path id="Path 19" d="M304.057 51.1625L303.214 51.7006C298.19 43.8319 288.439 39.4089 273.665 37.5212L273.01 37.4395C261.569 36.0493 251.109 36.0827 226.171 37.047L219.169 37.3152C210.773 37.6241 204.834 37.7717 199.037 37.7804L198.493 37.7808C183.955 37.7808 173.371 35.3123 161.627 29.759L160.948 29.4351C155.855 26.9852 136.757 16.2858 134.152 14.9056C121.288 8.08927 108.573 2.46483 92.849 -2.95467C91.1477 -3.54105 89.4193 -4.12154 87.6622 -4.69632C45.6655 -18.4347 7.88762 -4.97881 -25.7559 35.7388L-26.7742 36.981L-27.55 36.3501C6.59604 -5.63888 45.1328 -19.6611 87.9731 -5.64676C89.7352 -5.07034 91.4686 -4.48818 93.1748 -3.90009C108.499 1.38175 120.981 6.85995 133.514 13.4386L134.984 14.217C138.66 16.2049 156.512 26.1914 161.382 28.534C173.043 34.1439 183.43 36.6842 197.668 36.7781L199.578 36.7792C204.649 36.764 209.886 36.6421 216.838 36.3984L232.031 35.8279C252.866 35.0855 262.567 35.1631 273.13 36.4468C288.315 38.2922 298.465 42.74 303.823 50.8044L304.057 51.1625Z" fill="white"/></g></g></g></g></g></g><g id="Face" transform="translate(589 429) scale(1 1)"><g id="Face/Face"><g id="MOUTH"><g id="Group"><path id="Clip 11" fill-rule="evenodd" clip-rule="evenodd" d="M24.9999 38.5633C10.9824 34.7403 13.9999 54.5633 24.9999 57.5633C35.9999 60.5633 42.9999 60.5633 52.9999 57.5633C66.6922 53.4556 65.482 34.4026 52.9999 38.5633C43.9999 41.5633 35.9999 41.5633 24.9999 38.5633Z" fill="white"/><mask id="mask0cfdd10ce-4683-432b-bb37-66c02dcb8190" mask-type="alpha" maskUnits="userSpaceOnUse" x="15" y="37" width="48" height="23" fill="#ffffff"><path id="Clip 11_2" fill-rule="evenodd" clip-rule="evenodd" d="M24.9999 38.5633C10.9824 34.7403 13.9999 54.5633 24.9999 57.5633C35.9999 60.5633 42.9999 60.5633 52.9999 57.5633C66.6922 53.4556 65.482 34.4026 52.9999 38.5633C43.9999 41.5633 35.9999 41.5633 24.9999 38.5633Z" fill="#ffffff"/></mask><g mask="url(#mask0cfdd10ce-4683-432b-bb37-66c02dcb8190)"><path id="Fill 7" fill-rule="evenodd" clip-rule="evenodd" d="M27.5685 66.605L25.0205 33.197L27.6045 33L30.1535 66.407L27.5685 66.605Z" fill="#BEDBEA"/><path id="Fill 4" fill-rule="evenodd" clip-rule="evenodd" d="M40.9148 69.0913L38.3218 69.0583L38.7258 37.2753L41.3178 37.3073L40.9148 69.0913Z" fill="#BEDBEA"/><path id="Fill 10" fill-rule="evenodd" clip-rule="evenodd" d="M52.4081 74.4683L49.8311 74.1903L54.2211 33.5633L56.8001 33.8413L52.4081 74.4683Z" fill="#BEDBEA"/></g></g></g><g id="EYES"><path id="Fill 1" d="M65.5302 21.9005C68.7192 22.4315 72.2132 20.8015 73.6692 17.9155C76.8882 11.5345 69.4722 6.0005 63.5982 8.7005C57.4312 11.5365 58.9212 20.7995 65.5302 21.9005" fill="#001D2D"/><path id="Fill 4_2" d="M14.9191 21.9005C11.7301 22.4315 8.23606 20.8015 6.78006 17.9155C3.56006 11.5345 10.9761 6.0005 16.8501 8.7005C23.0181 11.5365 21.5291 20.7995 14.9191 21.9005" fill="#001D2D"/></g></g></g><g id="Head Accesory" transform="matrix(-1 0 0 1 708 166) scale(1 1)"><g id="Head Accesory/Long Beanie"><path id="Fill 1" fill-rule="evenodd" clip-rule="evenodd" d="M137.388 180.198H62.6119C61.0495 180.198 59.8356 181.603 60.0182 183.201L61.6796 197.82C61.8339 199.176 62.9488 200.198 64.2733 200.198H135.727C137.051 200.198 138.166 199.176 138.321 197.82L139.982 183.201C140.163 181.603 138.951 180.198 137.388 180.198" fill="#3A306F"/><path id="Fill 4" fill-rule="evenodd" clip-rule="evenodd" d="M65.6832 180.116C65.6832 180.116 48.8937 153.116 80.8937 139.116C80.8937 139.116 67.8937 94.1157 113.736 97.8512C113.736 97.8512 138.879 73.2606 152.894 98.1157C166.908 122.971 135.894 130.116 135.894 130.116C135.894 130.116 144.894 151.116 125.575 155.21C125.575 155.21 146.121 163.203 133.584 180.116H65.6832Z" fill="#6670AA"/></g></g></g></g><g id="Arms"><path id="Combined Shape" fill-rule="evenodd" clip-rule="evenodd" d="M1162.02 601.643C1162.21 599.442 1164.16 597.819 1166.36 598.016C1168.56 598.213 1170.18 600.157 1169.98 602.357C1149.61 829.46 985.818 927.06 680.731 894.894C660.608 892.772 643.862 904.468 630.172 930.843C629.154 932.804 626.74 933.568 624.779 932.55C622.818 931.532 622.054 929.118 623.071 927.157C638.144 898.12 657.751 884.426 681.57 886.938C982.654 918.682 1142.1 823.673 1162.02 601.643ZM984.916 670.674C983.539 668.946 981.023 668.661 979.295 670.038C960.146 685.293 933.861 695.434 901.999 701.248C872.172 706.69 843.227 707.87 808.453 706.882L805.124 706.781L794.029 706.421C792.687 706.387 791.649 706.371 790.769 706.371L789.954 706.377C763.091 706.771 738.977 726.698 717.501 765.472C716.43 767.404 717.129 769.839 719.061 770.909C720.994 771.979 723.428 771.281 724.499 769.348C744.93 732.462 767.058 714.371 790.769 714.371C791.783 714.371 793.071 714.395 794.888 714.448L806.561 714.83C842.589 715.919 872.46 714.769 903.435 709.118C936.485 703.088 963.95 692.491 984.28 676.295C986.007 674.919 986.292 672.402 984.916 670.674ZM751.883 740.842C753.52 739.36 756.05 739.485 757.533 741.123C759.016 742.76 758.89 745.29 757.253 746.772C747.919 755.225 739.396 766.049 731.696 779.259C730.583 781.167 728.134 781.813 726.225 780.7C724.317 779.588 723.672 777.138 724.784 775.23C732.88 761.341 741.91 749.874 751.883 740.842ZM768.779 750.365C767.331 748.696 764.805 748.517 763.136 749.965C749.15 762.098 739.158 774.314 733.195 786.649C732.234 788.638 733.067 791.03 735.056 791.991C737.045 792.953 739.436 792.12 740.398 790.131C745.844 778.864 755.159 767.476 768.378 756.008C770.047 754.56 770.226 752.034 768.779 750.365ZM806.325 754.909C782.469 752.402 762.829 766.073 747.729 795.065C746.709 797.025 747.47 799.44 749.429 800.461C751.388 801.481 753.804 800.72 754.824 798.761C768.54 772.426 785.321 760.746 805.489 762.865L805.694 762.887C808.177 763.171 811.635 763.964 817.687 765.583L828.237 768.429C830.77 769.102 833.08 769.701 835.368 770.274L836.892 770.652C855.189 775.16 871.918 777.882 889.679 778.586C906.377 779.247 922.908 778.001 939.343 774.55C917.367 787.565 892.12 798.381 864.074 807.154C826.14 819.02 784.878 826.625 742.433 830.793C715.447 833.444 693.564 834.324 672.89 834.382L670.639 834.386C643.608 834.386 619.259 852.522 597.582 888.181C596.434 890.069 597.034 892.529 598.922 893.677C600.809 894.825 603.27 894.225 604.418 892.337C624.786 858.831 646.865 842.386 670.639 842.386C692.219 842.386 714.952 841.531 743.215 838.755L745.362 838.541C787.559 834.279 828.594 826.635 866.463 814.789C914.81 799.665 955.178 778.521 985.267 750.45C1020.55 717.538 1040.67 675.994 1043.2 625.181C1043.31 622.974 1041.61 621.097 1039.4 620.987L1039.2 620.982C1037.08 620.981 1035.31 622.644 1035.21 624.783C1032.79 673.471 1013.6 713.077 979.81 744.6C973.021 750.934 965.676 756.911 957.804 762.541C956.905 762.079 955.831 761.955 954.79 762.279C933.395 768.926 911.864 771.459 889.996 770.592C872.838 769.912 856.619 767.274 838.805 762.884C836.31 762.27 833.836 761.635 831.112 760.915L828.587 760.242L819.223 757.713C813.27 756.128 809.712 755.315 806.828 754.966L806.325 754.909ZM646.063 881.723C644.613 880.057 642.086 879.882 640.42 881.332C626.46 893.484 616.486 905.718 610.535 918.071C609.577 920.061 610.413 922.452 612.403 923.411C614.393 924.37 616.784 923.533 617.743 921.543C623.179 910.258 632.477 898.853 645.672 887.366C647.339 885.916 647.514 883.389 646.063 881.723ZM630.502 868.913C632.137 867.427 634.666 867.549 636.152 869.184C637.638 870.819 637.516 873.348 635.881 874.834C626.565 883.299 618.058 894.14 610.371 907.371C609.261 909.281 606.813 909.93 604.903 908.82C602.993 907.71 602.344 905.262 603.454 903.352C611.535 889.442 620.547 877.958 630.502 868.913Z" fill="#001D2D"/></g></g></svg>