<svg width="437" height="430" viewBox="0 0 437 430" fill="none" xmlns="http://www.w3.org/2000/svg">
<g clip-path="url(#clip0_182_680)">
<path d="M169.542 255.257C99.8797 238.768 56.6701 168.889 73.22 99.4843C89.7699 30.0797 159.908 -12.9703 229.57 3.51846C249.806 8.33016 268.59 17.9054 284.345 31.4414C300.101 44.9774 312.37 62.0796 320.123 81.3141L318.727 81.8726C311.064 62.8605 298.937 45.956 283.364 32.5765C267.791 19.1969 249.225 9.73231 229.223 4.97621C160.368 -11.3214 91.0413 31.2304 74.6832 99.8307C58.3251 168.431 101.035 237.501 169.889 253.799C189.055 258.401 209.031 258.514 228.248 254.127C247.465 249.741 265.399 240.975 280.643 228.519L281.591 229.681C266.17 242.283 248.025 251.151 228.584 255.589C209.142 260.027 188.932 259.913 169.542 255.257Z" fill="#E6E6E6"/>
<path d="M404.083 181.863H300.003C294.36 181.863 289.77 175.508 289.77 167.698V61.1609C289.77 53.3507 294.36 46.9961 300.003 46.9961H426.766C432.409 46.9961 437 53.3507 437 61.1609V136.301C437 161.424 422.234 181.863 404.083 181.863Z" fill="#F2F2F2"/>
<path d="M215.565 413.424H223.866L231.932 351.227H213.133L215.565 413.424Z" fill="#A0616A"/>
<path d="M212.857 407.761L226.117 406.973V412.633L238.724 421.307C239.347 421.736 239.816 422.351 240.063 423.064C240.309 423.777 240.321 424.549 240.096 425.269C239.871 425.989 239.42 426.618 238.811 427.065C238.201 427.512 237.464 427.753 236.708 427.753H220.921L218.2 422.154L217.137 427.753H211.185L212.857 407.761Z" fill="#2F2E41"/>
<path d="M92.3203 393.699L99.8927 397.085L132.812 343.629L115.661 335.961L92.3203 393.699Z" fill="#A0616A"/>
<path d="M92.1764 387.426L104.598 392.115L102.272 397.28L110.209 410.336C110.601 410.981 110.776 411.734 110.708 412.485C110.641 413.236 110.334 413.945 109.833 414.51C109.331 415.075 108.662 415.465 107.922 415.624C107.183 415.783 106.411 415.703 105.721 415.394L91.3179 408.954L91.1362 402.736L87.866 407.411L82.4355 404.983L92.1764 387.426Z" fill="#2F2E41"/>
<path d="M152.039 215.518L190.431 210.332C190.431 210.332 239.788 324.059 237.722 382.216L206.401 386.065C206.401 386.065 206.639 362.217 208.377 360.393C210.114 358.569 212.258 360.889 210.114 355.671C207.971 350.454 206.251 349.135 208.826 346.591C211.4 344.047 180.941 299.551 180.941 299.551C180.941 299.551 133.013 359.612 130.441 361.32C127.869 363.028 124.946 363.405 126.622 367.701C128.297 371.998 125.295 380.23 125.295 380.23C125.295 380.23 106.407 377.375 98.6909 358.583C98.6909 358.583 129.893 301.95 132.725 301.01C135.558 300.07 136.844 304.768 135.558 300.07C134.272 295.372 131.7 297.08 134.272 295.372C136.004 294.27 137.879 293.408 139.845 292.809L149.825 266.521C142.131 248.939 142.623 231.921 152.039 215.518Z" fill="#2F2E41"/>
<path d="M151.67 185.424L153.08 198.446L152.25 215.522L190.213 211.028L193.781 185.424L189.236 185.468L151.67 185.424Z" fill="#FFB6B6"/>
<path d="M183.962 143.364L169.674 132.126L162.175 131.691L151.046 138.794L148.321 152.645L141.876 168.242L151.329 210.333C151.329 210.333 152.215 213.353 149.892 213.716C147.569 214.079 147.847 218.531 147.847 218.531C147.847 218.531 148.321 222.389 146.065 222.729C143.809 223.069 137.793 223.069 143.057 229.812C148.321 236.554 190.953 210.999 190.953 210.999L196.001 179.441C196.001 179.441 207.728 163.748 195.099 154.761L183.962 143.364Z" fill="#1279F2"/>
<path d="M121.591 238.928C120.961 238.146 120.512 237.235 120.273 236.261C120.035 235.286 120.015 234.271 120.213 233.288C120.411 232.305 120.823 231.376 121.42 230.569C122.017 229.761 122.785 229.094 123.669 228.614L141.64 168.525L152.877 174.162L133.306 231.756C134.017 233.289 134.139 235.029 133.649 236.645C133.158 238.262 132.09 239.643 130.646 240.527C129.202 241.411 127.482 241.737 125.813 241.442C124.145 241.147 122.642 240.253 121.591 238.928H121.591Z" fill="#A0616A"/>
<path d="M153.627 138.238C153.627 138.238 150.414 136.537 148.217 143.898C146.458 149.79 132.185 184.888 132.003 193.422C130.828 193.67 129.769 194.3 128.994 195.213C128.218 196.127 127.77 197.271 127.719 198.466L145.367 200.822C148.451 198.231 149.26 194.731 148.067 193.692L151.899 183.266L167.884 150.092L155.971 139.427L153.627 138.238Z" fill="#1279F2"/>
<path d="M247.925 219.177C248.153 218.2 248.163 217.186 247.955 216.204C247.746 215.223 247.324 214.299 246.719 213.498C246.114 212.697 245.339 212.037 244.45 211.566C243.561 211.096 242.58 210.825 241.574 210.773L200.348 163.863L191.603 174.26L234.248 217.758C234.273 219.447 234.918 221.068 236.062 222.314C237.205 223.56 238.768 224.345 240.454 224.52C242.14 224.695 243.831 224.248 245.208 223.263C246.585 222.278 247.552 220.825 247.925 219.177Z" fill="#A0616A"/>
<path d="M175.335 142.191C175.335 142.191 177.493 139.274 182.669 144.963C186.812 149.519 214.916 175.016 218.784 182.631C219.951 182.349 221.179 182.461 222.275 182.95C223.37 183.44 224.271 184.279 224.836 185.334L209.946 195.062C206.041 194.054 203.792 191.247 204.417 189.796L196.437 182.046L167.624 159.022L173.737 144.273L175.335 142.191Z" fill="#1279F2"/>
<path d="M182.649 132.686C184.303 130.319 170.008 124.723 167.241 125.786C161.563 127.982 154.856 132.671 149.637 133.338C149.737 131.275 149.552 129.208 149.088 127.195C148.524 129.24 147.968 131.293 147.404 133.346C142.478 132.649 134.274 124.423 136.29 105.446C137.124 97.6318 142.877 89.3232 161.676 86.244C179.032 83.4121 183.265 96.2458 184.889 104.629C188.589 123.666 186.762 132.394 182.649 132.686Z" fill="#2F2E41"/>
<path d="M166.492 125.814C175.081 125.814 182.043 118.877 182.043 110.32C182.043 101.763 175.081 94.8262 166.492 94.8262C157.903 94.8262 150.94 101.763 150.94 110.32C150.94 118.877 157.903 125.814 166.492 125.814Z" fill="#A0616A"/>
<path d="M187.424 104.792L179.974 105.926C176.689 103.876 175.438 100.834 175.282 97.2581L176.031 106.526L172.47 107.068C170.146 105.524 169.108 103.851 169.733 102.012L170.17 107.419C160.679 110.826 151.48 113.338 143.713 111.447C143.313 108.838 143.433 106.177 144.065 103.614C144.697 101.051 145.83 98.638 147.399 96.5115C148.967 94.385 150.941 92.5872 153.206 91.2206C155.472 89.854 157.986 88.9455 160.604 88.5468L164.439 87.963C167.057 87.5644 169.728 87.6834 172.301 88.3134C174.873 88.9434 177.295 90.0719 179.429 91.6346C181.564 93.1973 183.368 95.1635 184.74 97.421C186.112 99.6785 187.024 102.183 187.424 104.792Z" fill="#2F2E41"/>
<path d="M50.7347 413.441C50.3023 413.461 49.8742 413.347 49.5085 413.117C49.1428 412.886 48.8571 412.549 48.6901 412.151C48.5231 411.753 48.4829 411.314 48.575 410.892C48.667 410.471 48.8869 410.088 49.2047 409.795L49.3493 409.222C49.3303 409.176 49.3111 409.131 49.2919 409.085C48.8563 408.06 48.1263 407.186 47.1938 406.572C46.2612 405.959 45.1675 405.634 44.0502 405.639C42.9329 405.643 41.8417 405.976 40.9137 406.596C39.9858 407.216 39.2624 408.095 38.8344 409.123C37.124 413.228 34.9464 417.339 34.4103 421.678C34.1741 423.596 34.2737 425.541 34.7047 427.425C30.6875 418.694 28.6015 409.205 28.588 399.601C28.5872 397.191 28.7216 394.783 28.9906 392.387C29.2129 390.424 29.5214 388.474 29.9159 386.539C32.0691 376.037 36.692 366.193 43.4049 357.817C46.654 356.051 49.2815 353.335 50.9335 350.035C51.532 348.848 51.955 347.582 52.1893 346.275C51.8228 346.323 50.8073 340.762 51.0838 340.421C50.573 339.649 49.6588 339.265 49.101 338.511C46.3266 334.764 42.5043 335.418 40.5089 340.511C36.2462 342.654 36.2049 346.209 38.8205 349.628C40.4845 351.803 40.7132 354.746 42.1732 357.074C42.023 357.266 41.8668 357.452 41.7166 357.643C38.9707 361.161 36.5774 364.938 34.5712 368.921C35.059 364.459 34.4767 359.946 32.8721 355.752C31.2458 351.843 28.1976 348.551 25.5133 345.172C22.289 341.113 15.6772 342.884 15.1092 348.03C15.1037 348.079 15.0983 348.129 15.0931 348.179C15.4918 348.403 15.8821 348.641 16.264 348.893C16.7437 349.212 17.1154 349.668 17.3304 350.202C17.5455 350.735 17.5937 351.321 17.4689 351.882C17.3441 352.443 17.0521 352.954 16.6311 353.347C16.21 353.74 15.6796 353.997 15.1094 354.084L15.051 354.093C15.1931 355.525 15.4441 356.944 15.8021 358.338C12.3584 371.606 19.793 376.438 30.4086 376.656C30.6429 376.775 30.8713 376.895 31.1056 377.009C29.0899 382.7 27.8256 388.628 27.3443 394.644C27.0719 398.194 27.088 401.759 27.3924 405.306L27.3744 405.18C26.6052 401.236 24.4935 397.678 21.3959 395.105C16.7952 391.34 10.2952 389.953 5.33187 386.927C4.80438 386.589 4.19105 386.409 3.5642 386.408C2.93736 386.406 2.32314 386.583 1.79401 386.918C1.26488 387.253 0.842884 387.732 0.577818 388.297C0.312752 388.863 0.215675 389.493 0.298009 390.112C0.304661 390.156 0.311412 390.2 0.318295 390.244C1.05819 390.545 1.7786 390.89 2.47532 391.28C2.87403 391.504 3.26432 391.742 3.6462 391.994C4.12592 392.313 4.49762 392.769 4.71263 393.303C4.92763 393.836 4.97592 394.422 4.85112 394.983C4.72632 395.544 4.43427 396.055 4.01325 396.448C3.59223 396.841 3.06188 397.098 2.49166 397.185L2.43321 397.194C2.39117 397.2 2.3551 397.206 2.3131 397.212C3.57731 400.22 5.35167 402.988 7.55845 405.396C9.71168 416.978 18.9598 418.077 28.8524 414.704H28.8584C29.9439 419.403 31.5165 423.977 33.5511 428.353H50.3146C50.3748 428.167 50.4288 427.976 50.4829 427.79C48.9313 427.887 47.3735 427.795 45.8443 427.515C47.0881 425.994 48.3319 424.462 49.5756 422.941C49.6034 422.913 49.6295 422.883 49.6538 422.851C50.2847 422.073 50.9215 421.301 51.5524 420.523L51.5528 420.522C51.5864 418.136 51.3116 415.757 50.7353 413.441L50.7347 413.441Z" fill="#F2F2F2"/>
<path d="M0.895201 429.77L434.595 430.001C434.832 430.001 435.06 429.907 435.228 429.739C435.396 429.572 435.49 429.345 435.49 429.109C435.49 428.872 435.396 428.645 435.228 428.478C435.06 428.311 434.832 428.217 434.595 428.217L0.895201 427.986C0.658186 427.987 0.431107 428.081 0.263754 428.249C0.0964016 428.416 0.00244141 428.642 0.00244141 428.878C0.00244141 429.115 0.0964016 429.341 0.263754 429.508C0.431107 429.675 0.658186 429.77 0.895201 429.77Z" fill="#CACACA"/>
<path d="M388.795 222.131H248.224C245.511 222.128 242.91 221.053 240.992 219.142C239.073 217.23 237.994 214.639 237.991 211.936V81.7837C237.994 79.0805 239.073 76.489 240.992 74.5776C242.91 72.6662 245.511 71.591 248.224 71.5879H388.795C391.508 71.591 394.109 72.6662 396.027 74.5776C397.946 76.489 399.025 79.0805 399.028 81.7837V211.936C399.025 214.639 397.946 217.23 396.027 219.142C394.109 221.053 391.508 222.128 388.795 222.131Z" fill="#E6E6E6"/>
<path d="M359.209 215.254H255.129C252.415 215.251 249.814 214.176 247.896 212.265C245.977 210.353 244.898 207.762 244.895 205.059V88.6664C244.898 85.9633 245.977 83.3718 247.896 81.4604C249.814 79.549 252.415 78.4738 255.129 78.4707H381.892C384.605 78.4738 387.206 79.549 389.125 81.4604C391.043 83.3718 392.122 85.9633 392.125 88.6664V182.459C392.116 191.154 388.644 199.49 382.473 205.638C376.302 211.786 367.936 215.244 359.209 215.254Z" fill="white"/>
<path d="M303.894 117.306C303.895 120.27 303.014 123.168 301.361 125.633C299.709 128.099 297.36 130.02 294.612 131.155C291.863 132.29 288.838 132.588 285.92 132.01C283.002 131.433 280.321 130.006 278.217 127.91C276.112 125.815 274.679 123.145 274.098 120.237C273.517 117.33 273.814 114.317 274.952 111.578C276.09 108.839 278.017 106.498 280.491 104.85C282.964 103.203 285.872 102.323 288.848 102.322C290.824 102.32 292.781 102.705 294.607 103.457C296.433 104.209 298.093 105.313 299.491 106.705C300.888 108.096 301.997 109.749 302.752 111.568C303.508 113.388 303.896 115.337 303.894 117.306Z" fill="#1279F2"/>
<path d="M314.226 144.344H277.676C275.571 144.344 273.864 146.044 273.864 148.142V149.957C273.864 152.055 275.571 153.755 277.676 153.755H314.226C316.332 153.755 318.039 152.055 318.039 149.957V148.142C318.039 146.044 316.332 144.344 314.226 144.344Z" fill="#3F3D56"/>
<path d="M359.22 163.166H277.8C275.695 163.166 273.988 164.866 273.988 166.964V168.779C273.988 170.877 275.695 172.577 277.8 172.577H359.22C361.326 172.577 363.032 170.877 363.032 168.779V166.964C363.032 164.866 361.326 163.166 359.22 163.166Z" fill="#3F3D56"/>
<path d="M359.22 181.99H277.8C275.695 181.99 273.988 183.691 273.988 185.788V187.604C273.988 189.701 275.695 191.402 277.8 191.402H359.22C361.326 191.402 363.032 189.701 363.032 187.604V185.788C363.032 183.691 361.326 181.99 359.22 181.99Z" fill="#3F3D56"/>
<path d="M289.183 119.479C292.09 119.479 294.447 117.131 294.447 114.235C294.447 111.338 292.09 108.99 289.183 108.99C286.276 108.99 283.919 111.338 283.919 114.235C283.919 117.131 286.276 119.479 289.183 119.479Z" fill="white"/>
<path d="M294.826 121.352H283.546C282.849 121.352 282.18 121.629 281.686 122.12C281.193 122.612 280.915 123.279 280.915 123.974C281.075 126.22 281.427 128.448 281.967 130.634C284.229 131.795 286.75 132.366 289.294 132.291C291.838 132.216 294.321 131.499 296.51 130.207C296.993 128.158 297.31 126.073 297.458 123.974C297.457 123.279 297.18 122.612 296.686 122.12C296.193 121.629 295.524 121.352 294.826 121.352Z" fill="white"/>
<path d="M375.167 103.8C373.201 103.8 371.279 103.219 369.645 102.131C368.01 101.043 366.736 99.4962 365.984 97.6867C365.231 95.8771 365.035 93.886 365.418 91.965C365.802 90.0441 366.748 88.2796 368.138 86.8946C369.528 85.5097 371.299 84.5665 373.228 84.1844C375.156 83.8023 377.154 83.9984 378.97 84.748C380.787 85.4975 382.339 86.7668 383.431 88.3953C384.523 90.0238 385.106 91.9384 385.106 93.8971C385.106 96.5234 384.059 99.0423 382.195 100.899C380.331 102.757 377.803 103.8 375.167 103.8Z" fill="#E6E6E6"/>
<path d="M378.633 95.9703L376.553 93.8981L378.633 91.8258C378.817 91.6426 378.921 91.3942 378.921 91.1351C378.921 90.876 378.817 90.6275 378.633 90.4443C378.45 90.2611 378.2 90.1582 377.94 90.1582C377.68 90.1582 377.431 90.2611 377.247 90.4443L375.167 92.5166L373.087 90.4443C372.903 90.2611 372.654 90.1582 372.394 90.1582C372.134 90.1582 371.884 90.2611 371.7 90.4443C371.516 90.6275 371.413 90.876 371.413 91.1351C371.413 91.3942 371.516 91.6426 371.7 91.8258L373.78 93.8981L371.7 95.9703C371.516 96.1535 371.413 96.402 371.413 96.6611C371.413 96.9202 371.516 97.1686 371.7 97.3518C371.884 97.535 372.134 97.638 372.394 97.638C372.654 97.638 372.903 97.535 373.087 97.3518L375.167 95.2796L377.247 97.3518C377.338 97.4425 377.446 97.5144 377.565 97.5635C377.684 97.6126 377.811 97.6379 377.94 97.6379C378.069 97.6379 378.196 97.6126 378.315 97.5635C378.434 97.5144 378.542 97.4425 378.633 97.3518C378.724 97.2611 378.797 97.1534 378.846 97.0349C378.895 96.9163 378.921 96.7893 378.921 96.661C378.921 96.5327 378.895 96.4057 378.846 96.2872C378.797 96.1687 378.724 96.061 378.633 95.9703V95.9703Z" fill="white"/>
</g>
<defs>
<clipPath id="clip0_182_680">
<rect width="437" height="430" fill="white"/>
</clipPath>
</defs>
</svg>
