<svg viewBox="249.39999999999998 411.1156716417911 189.20000000000016 51.60447761194032" fill="none" xmlns="http://www.w3.org/2000/svg" xmlns:xlink="http://www.w3.org/1999/xlink" overflow="visible" width="189.20000000000016px" height="51.60447761194032px"><g id="Master/Stickers/Good Review"><g id="Good"><path id="Fill 1" fill-rule="evenodd" clip-rule="evenodd" d="M411.874 460.173H275.836C264.053 460.173 254.5 450.62 254.5 438.837C254.5 427.053 264.053 417.5 275.836 417.5H411.874C423.657 417.5 433.21 427.053 433.21 438.837C433.21 450.62 423.657 460.173 411.874 460.173" fill="#EEF2F8"/><path id="Fill 3" fill-rule="evenodd" clip-rule="evenodd" d="M275.836 418C264.347 418 255 427.348 255 438.837C255 450.326 264.347 459.673 275.836 459.673H411.874C423.363 459.673 432.71 450.326 432.71 438.837C432.71 427.348 423.363 418 411.874 418H275.836ZM411.874 460.673H275.836C263.796 460.673 254 450.877 254 438.837C254 426.796 263.796 417 275.836 417H411.874C423.914 417 433.71 426.796 433.71 438.837C433.71 450.877 423.914 460.673 411.874 460.673V460.673Z" fill="black"/><path id="Fill 6" fill-rule="evenodd" clip-rule="evenodd" d="M284.363 429.352L287.445 435.597L294.337 436.598L289.349 441.458L290.527 448.322L284.363 445.081L278.2 448.322L279.377 441.458L274.39 436.598L281.281 435.597L284.363 429.352Z" fill="#FFBA00"/><path id="Fill 8" fill-rule="evenodd" clip-rule="evenodd" d="M284.362 444.581C284.442 444.581 284.522 444.601 284.594 444.639L289.862 447.407L288.855 441.543C288.828 441.38 288.882 441.215 289 441.1L293.261 436.947L287.372 436.092C287.21 436.067 287.068 435.966 286.996 435.818L284.362 430.481L281.728 435.818C281.656 435.966 281.514 436.067 281.352 436.092L275.464 436.947L279.724 441.1C279.842 441.215 279.896 441.38 279.869 441.543L278.863 447.407L284.13 444.639C284.202 444.601 284.282 444.581 284.362 444.581M290.526 448.821C290.446 448.821 290.367 448.803 290.294 448.764L284.362 445.645L278.431 448.764C278.263 448.852 278.059 448.838 277.905 448.726C277.751 448.614 277.674 448.425 277.706 448.236L278.839 441.633L274.041 436.956C273.904 436.823 273.855 436.624 273.914 436.443C273.972 436.262 274.13 436.13 274.317 436.102L280.948 435.14L283.914 429.13C284.082 428.79 284.642 428.79 284.81 429.13L287.776 435.14L294.408 436.102C294.595 436.13 294.753 436.262 294.811 436.443C294.87 436.624 294.821 436.823 294.684 436.956L289.885 441.633L291.019 448.236C291.051 448.424 290.974 448.614 290.82 448.726C290.733 448.789 290.63 448.821 290.526 448.821" fill="black"/><path id="Fill 10" fill-rule="evenodd" clip-rule="evenodd" d="M314.109 429.352L317.191 435.597L324.083 436.598L319.096 441.458L320.273 448.322L314.109 445.081L307.946 448.322L309.123 441.458L304.136 436.598L311.028 435.597L314.109 429.352Z" fill="#FFBA00"/><path id="Fill 10 Copy" fill-rule="evenodd" clip-rule="evenodd" d="M344.109 429.352L347.191 435.597L354.083 436.598L349.096 441.458L350.273 448.322L344.109 445.081L337.946 448.322L339.123 441.458L334.136 436.598L341.028 435.597L344.109 429.352Z" fill="#FFBA00"/><path id="Fill 12" fill-rule="evenodd" clip-rule="evenodd" d="M314.108 444.581C314.188 444.581 314.268 444.601 314.34 444.639L319.608 447.407L318.602 441.543C318.575 441.38 318.629 441.215 318.747 441.1L323.007 436.947L317.118 436.092C316.956 436.067 316.814 435.966 316.742 435.818L314.108 430.481L311.475 435.818C311.403 435.966 311.261 436.067 311.099 436.092L305.21 436.947L309.47 441.1C309.588 441.215 309.642 441.38 309.615 441.543L308.609 447.407L313.876 444.639C313.948 444.601 314.028 444.581 314.108 444.581M307.945 448.821C307.841 448.821 307.738 448.789 307.651 448.726C307.497 448.614 307.42 448.425 307.452 448.236L308.585 441.633L303.787 436.956C303.65 436.823 303.601 436.624 303.66 436.443C303.718 436.262 303.876 436.13 304.063 436.102L310.695 435.14L313.66 429.13C313.828 428.79 314.388 428.79 314.556 429.13L317.522 435.14L324.154 436.102C324.341 436.13 324.499 436.262 324.557 436.443C324.616 436.624 324.567 436.823 324.43 436.956L319.632 441.633L320.765 448.236C320.797 448.425 320.72 448.614 320.566 448.726C320.412 448.838 320.208 448.852 320.04 448.764L314.108 445.645L308.177 448.764C308.104 448.803 308.025 448.821 307.945 448.821" fill="black"/><path id="Fill 16" fill-rule="evenodd" clip-rule="evenodd" d="M334.956 436.948L339.217 441.1C339.335 441.216 339.389 441.381 339.361 441.544L338.355 447.408L343.623 444.639C343.768 444.563 343.943 444.563 344.088 444.639L349.354 447.408L348.349 441.544C348.321 441.381 348.375 441.216 348.493 441.1L352.754 436.948L346.864 436.093C346.702 436.068 346.56 435.967 346.488 435.819L343.855 430.482L341.222 435.819C341.149 435.967 341.008 436.068 340.846 436.093L334.956 436.948ZM350.019 448.822C349.938 448.822 349.859 448.803 349.786 448.764L343.855 445.646L337.924 448.764C337.756 448.853 337.552 448.839 337.397 448.726C337.243 448.615 337.166 448.426 337.198 448.237L338.331 441.634L333.533 436.957C333.396 436.824 333.348 436.625 333.406 436.444C333.465 436.262 333.622 436.131 333.81 436.103L340.441 435.14L343.407 429.131C343.491 428.961 343.665 428.852 343.855 428.852C344.046 428.852 344.22 428.961 344.304 429.131L347.269 435.14L353.9 436.103C354.088 436.131 354.245 436.262 354.304 436.444C354.362 436.625 354.313 436.824 354.177 436.957L349.379 441.634L350.512 448.237C350.544 448.426 350.467 448.615 350.312 448.726C350.226 448.79 350.122 448.822 350.019 448.822V448.822Z" fill="black"/><path id="Fill 18" fill-rule="evenodd" clip-rule="evenodd" d="M373.602 429.352L376.683 435.597L383.575 436.598L378.588 441.458L379.765 448.322L373.602 445.081L367.438 448.322L368.615 441.458L363.628 436.598L370.52 435.597L373.602 429.352Z" fill="#FFBA00"/><path id="Fill 20" fill-rule="evenodd" clip-rule="evenodd" d="M364.702 436.948L368.963 441.1C369.081 441.216 369.135 441.381 369.107 441.544L368.101 447.408L373.369 444.639C373.514 444.563 373.689 444.563 373.834 444.639L379.1 447.408L378.095 441.544C378.067 441.381 378.121 441.216 378.239 441.1L382.5 436.948L376.61 436.093C376.448 436.068 376.306 435.967 376.234 435.819L373.601 430.482L370.968 435.819C370.895 435.967 370.754 436.068 370.592 436.093L364.702 436.948ZM379.765 448.822C379.684 448.822 379.605 448.803 379.532 448.764L373.601 445.646L367.67 448.764C367.502 448.853 367.297 448.839 367.143 448.726C366.989 448.615 366.912 448.426 366.944 448.237L368.077 441.634L363.279 436.957C363.142 436.824 363.094 436.625 363.152 436.444C363.211 436.262 363.368 436.131 363.556 436.103L370.187 435.14L373.153 429.131C373.237 428.961 373.411 428.852 373.601 428.852C373.792 428.852 373.966 428.961 374.05 429.131L377.015 435.14L383.646 436.103C383.834 436.131 383.991 436.262 384.05 436.444C384.108 436.625 384.059 436.824 383.923 436.957L379.125 441.634L380.258 448.237C380.29 448.426 380.213 448.615 380.058 448.726C379.972 448.79 379.868 448.822 379.765 448.822V448.822Z" fill="black"/><path id="Fill 22" fill-rule="evenodd" clip-rule="evenodd" d="M403.348 429.352L406.43 435.597L413.321 436.598L408.334 441.458L409.511 448.322L403.348 445.081L397.184 448.322L398.362 441.458L393.374 436.598L400.266 435.597L403.348 429.352Z" fill="#FFBA00"/><path id="Fill 24" fill-rule="evenodd" clip-rule="evenodd" d="M403.348 444.581C403.428 444.581 403.508 444.601 403.58 444.639L408.847 447.407L407.841 441.543C407.814 441.38 407.868 441.215 407.986 441.1L412.246 436.947L406.358 436.092C406.196 436.067 406.054 435.966 405.982 435.818L403.348 430.481L400.714 435.818C400.642 435.966 400.5 436.067 400.338 436.092L394.449 436.947L398.71 441.1C398.828 441.215 398.882 441.38 398.855 441.543L397.848 447.407L403.116 444.639C403.188 444.601 403.268 444.581 403.348 444.581M397.184 448.821C397.08 448.821 396.977 448.789 396.89 448.726C396.736 448.614 396.659 448.424 396.691 448.236L397.825 441.633L393.026 436.956C392.889 436.823 392.84 436.624 392.899 436.443C392.957 436.262 393.115 436.13 393.302 436.102L399.934 435.14L402.9 429.13C403.068 428.79 403.628 428.79 403.796 429.13L406.762 435.14L413.393 436.102C413.58 436.13 413.738 436.262 413.796 436.443C413.855 436.624 413.806 436.823 413.669 436.956L408.871 441.633L410.004 448.236C410.036 448.425 409.959 448.614 409.805 448.726C409.651 448.838 409.447 448.852 409.279 448.764L403.348 445.645L397.416 448.764C397.343 448.803 397.264 448.821 397.184 448.821" fill="black"/><path id="Fill 28" fill-rule="evenodd" clip-rule="evenodd" d="M350.019 448.821C349.939 448.821 349.86 448.802 349.787 448.763L343.623 445.523C343.378 445.395 343.285 445.092 343.414 444.848C343.542 444.602 343.846 444.51 344.088 444.638L349.355 447.407L348.349 441.543C348.322 441.38 348.375 441.215 348.494 441.099L352.754 436.947L346.865 436.092C346.703 436.067 346.561 435.966 346.489 435.818L343.408 429.573C343.286 429.325 343.387 429.025 343.634 428.903C343.882 428.781 344.183 428.884 344.304 429.13L347.269 435.139L353.901 436.102C354.088 436.13 354.246 436.261 354.304 436.443C354.363 436.624 354.314 436.823 354.177 436.956L349.379 441.633L350.512 448.236C350.544 448.425 350.467 448.614 350.313 448.725C350.226 448.789 350.123 448.821 350.019 448.821" fill="black"/></g></g></svg>