<svg viewBox="249.39999999999998 411.1156716417911 189.20000000000016 51.60447761194032" fill="none" xmlns="http://www.w3.org/2000/svg" xmlns:xlink="http://www.w3.org/1999/xlink" overflow="visible" width="189.20000000000016px" height="51.60447761194032px"><g id="Master/Stickers/Regular Review"><g id="Medium"><path id="Fill 1" fill-rule="evenodd" clip-rule="evenodd" d="M413.691 460.173H275.033C263.023 460.173 253.286 450.62 253.286 438.837C253.286 427.053 263.023 417.5 275.033 417.5H413.691C425.701 417.5 435.438 427.053 435.438 438.837C435.438 450.62 425.701 460.173 413.691 460.173" fill="#EEF2F8"/><path id="Fill 3" fill-rule="evenodd" clip-rule="evenodd" d="M275.033 418C263.323 418 253.796 427.348 253.796 438.837C253.796 450.326 263.323 459.673 275.033 459.673H413.691C425.401 459.673 434.928 450.326 434.928 438.837C434.928 427.348 425.401 418 413.691 418H275.033ZM413.691 460.673H275.033C262.761 460.673 252.776 450.877 252.776 438.837C252.776 426.796 262.761 417 275.033 417H413.691C425.963 417 435.947 426.796 435.947 438.837C435.947 450.877 425.963 460.673 413.691 460.673V460.673Z" fill="black"/><path id="Fill 6" fill-rule="evenodd" clip-rule="evenodd" d="M283.724 429.352L286.865 435.597L293.89 436.598L288.806 441.458L290.006 448.322L283.724 445.081L277.442 448.322L278.642 441.458L273.559 436.598L280.582 435.597L283.724 429.352Z" fill="#FFBA00"/><path id="Fill 8" fill-rule="evenodd" clip-rule="evenodd" d="M283.723 444.581C283.805 444.581 283.886 444.601 283.96 444.639L289.329 447.407L288.303 441.543C288.275 441.38 288.33 441.215 288.45 441.1L292.793 436.947L286.791 436.092C286.626 436.067 286.481 435.966 286.408 435.818L283.723 430.481L281.038 435.818C280.965 435.966 280.82 436.067 280.655 436.092L274.654 436.947L278.996 441.1C279.116 441.215 279.171 441.38 279.144 441.543L278.118 447.407L283.487 444.639C283.56 444.601 283.642 444.581 283.723 444.581M290.006 448.821C289.924 448.821 289.844 448.803 289.769 448.764L283.723 445.645L277.678 448.764C277.507 448.852 277.299 448.838 277.142 448.726C276.985 448.614 276.906 448.425 276.939 448.236L278.094 441.633L273.203 436.956C273.064 436.823 273.014 436.624 273.074 436.443C273.133 436.262 273.294 436.13 273.485 436.102L280.243 435.14L283.266 429.13C283.438 428.79 284.009 428.79 284.18 429.13L287.203 435.14L293.963 436.102C294.153 436.13 294.314 436.262 294.373 436.443C294.434 436.624 294.384 436.823 294.244 436.956L289.352 441.633L290.508 448.236C290.541 448.424 290.462 448.614 290.306 448.726C290.217 448.789 290.112 448.821 290.006 448.821" fill="black"/><path id="Fill 10" fill-rule="evenodd" clip-rule="evenodd" d="M314.043 429.352L317.184 435.597L324.209 436.598L319.126 441.458L320.326 448.322L314.043 445.081L307.761 448.322L308.961 441.458L303.878 436.598L310.903 435.597L314.043 429.352Z" fill="#FFBA00"/><path id="Fill 12" fill-rule="evenodd" clip-rule="evenodd" d="M314.042 444.581C314.124 444.581 314.206 444.601 314.279 444.639L319.648 447.407L318.623 441.543C318.596 441.38 318.651 441.215 318.771 441.1L323.113 436.947L317.11 436.092C316.945 436.067 316.801 435.966 316.727 435.818L314.042 430.481L311.359 435.818C311.285 435.966 311.141 436.067 310.976 436.092L304.973 436.947L309.315 441.1C309.435 441.215 309.49 441.38 309.463 441.543L308.438 447.407L313.806 444.639C313.879 444.601 313.961 444.581 314.042 444.581M307.761 448.821C307.655 448.821 307.55 448.789 307.461 448.726C307.304 448.614 307.226 448.425 307.258 448.236L308.413 441.633L303.523 436.956C303.383 436.823 303.333 436.624 303.393 436.443C303.452 436.262 303.613 436.13 303.804 436.102L310.564 435.14L313.586 429.13C313.757 428.79 314.328 428.79 314.499 429.13L317.522 435.14L324.282 436.102C324.473 436.13 324.634 436.262 324.693 436.443C324.753 436.624 324.703 436.823 324.563 436.956L319.673 441.633L320.828 448.236C320.86 448.425 320.782 448.614 320.625 448.726C320.468 448.838 320.26 448.852 320.089 448.764L314.042 445.645L307.997 448.764C307.923 448.803 307.842 448.821 307.761 448.821" fill="black"/><path id="Fill 14" fill-rule="evenodd" clip-rule="evenodd" d="M344.362 429.352L347.503 435.597L354.527 436.598L349.444 441.458L350.644 448.322L344.362 445.081L338.08 448.322L339.279 441.458L334.196 436.598L341.221 435.597L344.362 429.352Z" fill="#FFBA00"/><path id="Fill 16" fill-rule="evenodd" clip-rule="evenodd" d="M335.292 436.948L339.635 441.1C339.755 441.216 339.81 441.381 339.782 441.544L338.756 447.408L344.126 444.639C344.274 444.563 344.452 444.563 344.6 444.639L349.967 447.408L348.943 441.544C348.914 441.381 348.969 441.216 349.09 441.1L353.433 436.948L347.429 436.093C347.264 436.068 347.119 435.967 347.046 435.819L344.362 430.482L341.679 435.819C341.604 435.967 341.461 436.068 341.295 436.093L335.292 436.948ZM350.645 448.822C350.563 448.822 350.482 448.803 350.408 448.764L344.362 445.646L338.317 448.764C338.146 448.853 337.938 448.839 337.78 448.726C337.623 448.615 337.545 448.426 337.577 448.237L338.732 441.634L333.842 436.957C333.702 436.824 333.653 436.625 333.712 436.444C333.772 436.262 333.932 436.131 334.124 436.103L340.883 435.14L343.906 429.131C343.991 428.961 344.169 428.852 344.362 428.852C344.557 428.852 344.734 428.961 344.82 429.131L347.842 435.14L354.601 436.103C354.792 436.131 354.953 436.262 355.013 436.444C355.072 436.625 355.022 436.824 354.883 436.957L349.993 441.634L351.148 448.237C351.18 448.426 351.102 448.615 350.944 448.726C350.856 448.79 350.75 448.822 350.645 448.822V448.822Z" fill="black"/><path id="Fill 18" fill-rule="evenodd" clip-rule="evenodd" d="M374.682 429.352L377.822 435.597L384.847 436.598L379.764 441.458L380.963 448.322L374.682 445.081L368.399 448.322L369.599 441.458L364.516 436.598L371.54 435.597L374.682 429.352Z" fill="#EEF2F8"/><path id="Fill 20" fill-rule="evenodd" clip-rule="evenodd" d="M365.61 436.948L369.953 441.1C370.074 441.216 370.129 441.381 370.1 441.544L369.075 447.408L374.444 444.639C374.592 444.563 374.77 444.563 374.918 444.639L380.286 447.408L379.261 441.544C379.233 441.381 379.288 441.216 379.408 441.1L383.751 436.948L377.748 436.093C377.583 436.068 377.438 435.967 377.364 435.819L374.681 430.482L371.997 435.819C371.923 435.967 371.779 436.068 371.614 436.093L365.61 436.948ZM380.963 448.822C380.881 448.822 380.8 448.803 380.726 448.764L374.681 445.646L368.636 448.764C368.464 448.853 368.255 448.839 368.098 448.726C367.941 448.615 367.863 448.426 367.896 448.237L369.05 441.634L364.16 436.957C364.02 436.824 363.971 436.625 364.03 436.444C364.091 436.262 364.251 436.131 364.442 436.103L371.201 435.14L374.224 429.131C374.31 428.961 374.487 428.852 374.681 428.852C374.875 428.852 375.053 428.961 375.138 429.131L378.16 435.14L384.919 436.103C385.111 436.131 385.271 436.262 385.331 436.444C385.39 436.625 385.34 436.824 385.202 436.957L380.311 441.634L381.466 448.237C381.499 448.426 381.42 448.615 381.262 448.726C381.174 448.79 381.068 448.822 380.963 448.822V448.822Z" fill="black"/><path id="Fill 22" fill-rule="evenodd" clip-rule="evenodd" d="M405 429.352L408.141 435.597L415.165 436.598L410.082 441.458L411.282 448.322L405 445.081L398.717 448.322L399.918 441.458L394.834 436.598L401.859 435.597L405 429.352Z" fill="#EEF2F8"/><path id="Fill 24" fill-rule="evenodd" clip-rule="evenodd" d="M405 444.581C405.082 444.581 405.164 444.601 405.237 444.639L410.605 447.407L409.58 441.543C409.553 441.38 409.608 441.215 409.728 441.1L414.07 436.947L408.068 436.092C407.903 436.067 407.759 435.966 407.685 435.818L405 430.481L402.316 435.818C402.242 435.966 402.098 436.067 401.933 436.092L395.93 436.947L400.273 441.1C400.393 441.215 400.448 441.38 400.421 441.543L399.395 447.407L404.764 444.639C404.837 444.601 404.919 444.581 405 444.581M398.718 448.821C398.612 448.821 398.507 448.789 398.418 448.726C398.261 448.614 398.183 448.424 398.215 448.236L399.371 441.633L394.48 436.956C394.34 436.823 394.29 436.624 394.35 436.443C394.409 436.262 394.57 436.13 394.761 436.102L401.521 435.14L404.544 429.13C404.715 428.79 405.286 428.79 405.457 429.13L408.48 435.14L415.239 436.102C415.43 436.13 415.591 436.262 415.65 436.443C415.71 436.624 415.66 436.823 415.52 436.956L410.63 441.633L411.785 448.236C411.817 448.425 411.739 448.614 411.582 448.726C411.425 448.838 411.217 448.852 411.046 448.764L405 445.645L398.954 448.764C398.88 448.803 398.799 448.821 398.718 448.821" fill="black"/><path id="Fill 26" fill-rule="evenodd" clip-rule="evenodd" d="M344.362 429.352L347.503 435.597L354.527 436.598L349.444 441.458L350.644 448.322L344.362 445.081" fill="#EEF2F8"/><path id="Fill 28" fill-rule="evenodd" clip-rule="evenodd" d="M350.644 448.821C350.562 448.821 350.482 448.802 350.407 448.763L344.125 445.523C343.875 445.395 343.78 445.092 343.912 444.848C344.042 444.602 344.352 444.51 344.599 444.638L349.967 447.407L348.942 441.543C348.914 441.38 348.968 441.215 349.09 441.099L353.432 436.947L347.429 436.092C347.264 436.067 347.119 435.966 347.046 435.818L343.906 429.573C343.781 429.325 343.884 429.025 344.136 428.903C344.389 428.781 344.696 428.884 344.819 429.13L347.841 435.139L354.601 436.102C354.791 436.13 354.952 436.261 355.011 436.443C355.072 436.624 355.022 436.823 354.882 436.956L349.992 441.633L351.146 448.236C351.179 448.425 351.101 448.614 350.944 448.725C350.855 448.789 350.75 448.821 350.644 448.821" fill="black"/></g></g></svg>