<svg width="418" height="753" viewBox="0 0 418 753" fill="none" xmlns="http://www.w3.org/2000/svg">
<rect x="418" y="753" width="418" height="753" rx="24" transform="rotate(180 418 753)" fill="white"/>
<path d="M375.616 664.595C375.262 665.396 375.085 665.796 374.839 665.92C374.625 666.027 374.374 666.027 374.161 665.92C373.915 665.796 373.738 665.396 373.384 664.595L370.569 658.218C370.465 657.981 370.412 657.863 370.331 657.772C370.26 657.692 370.173 657.628 370.075 657.584C369.965 657.534 369.837 657.521 369.582 657.493L362.705 656.761C361.842 656.669 361.41 656.623 361.218 656.424C361.051 656.252 360.973 656.011 361.008 655.773C361.048 655.498 361.371 655.205 362.015 654.618L367.152 649.943C367.343 649.77 367.438 649.683 367.499 649.578C367.552 649.484 367.586 649.38 367.597 649.273C367.609 649.152 367.583 649.025 367.53 648.771L366.095 641.941C365.915 641.083 365.824 640.655 365.952 640.409C366.062 640.195 366.266 640.046 366.501 640.006C366.772 639.96 367.148 640.179 367.9 640.617L373.89 644.105C374.112 644.235 374.223 644.299 374.341 644.325C374.446 644.347 374.554 644.347 374.659 644.325C374.777 644.299 374.888 644.235 375.11 644.105L381.1 640.617C381.852 640.179 382.228 639.96 382.499 640.006C382.734 640.046 382.937 640.195 383.048 640.409C383.175 640.655 383.085 641.083 382.905 641.941L381.47 648.771C381.417 649.025 381.391 649.152 381.403 649.273C381.414 649.38 381.448 649.484 381.501 649.578C381.562 649.683 381.657 649.77 381.848 649.943L386.984 654.618C387.629 655.205 387.952 655.498 387.992 655.773C388.027 656.011 387.949 656.252 387.782 656.424C387.59 656.623 387.158 656.669 386.295 656.761L379.418 657.493C379.163 657.521 379.035 657.534 378.925 657.584C378.827 657.628 378.74 657.692 378.668 657.772C378.588 657.863 378.535 657.981 378.431 658.218L375.616 664.595Z" fill="#EE82C7"/>
<path d="M391.06 680V685.46H368.758C366.098 685.46 364.768 686.594 364.768 688.862C364.768 691.13 366.098 692.264 368.758 692.264H391.06V709.988H359.476V704.57H384.55V697.724H367.456C364.544 697.724 362.29 696.94 360.694 695.372C359.07 693.804 358.258 691.634 358.258 688.862C358.258 686.09 359.07 683.92 360.694 682.352C362.29 680.784 364.544 680 367.456 680H391.06Z" fill="#5347F5"/>
<path d="M42.3845 87.4046C42.7379 86.604 42.9147 86.2036 43.1608 86.0803C43.3745 85.9732 43.6255 85.9732 43.8392 86.0803C44.0854 86.2036 44.2621 86.604 44.6156 87.4046L47.4308 93.7822C47.5354 94.0189 47.5876 94.1372 47.6685 94.2279C47.74 94.3081 47.8275 94.3722 47.925 94.4161C48.0354 94.4658 48.163 94.4794 48.4183 94.5065L55.295 95.2394C56.1584 95.3314 56.59 95.3775 56.7822 95.5757C56.9491 95.7479 57.0266 95.989 56.9918 96.2274C56.9518 96.5018 56.6294 96.7951 55.9845 97.382L50.8476 102.057C50.6571 102.23 50.5616 102.317 50.5013 102.422C50.4479 102.516 50.4145 102.62 50.4033 102.727C50.3907 102.848 50.4172 102.975 50.4705 103.229L51.9053 110.059C52.0854 110.917 52.1755 111.345 52.0482 111.591C51.9375 111.805 51.7345 111.954 51.4992 111.994C51.2284 112.04 50.8523 111.821 50.1003 111.383L44.1102 107.895C43.888 107.765 43.7768 107.701 43.6586 107.675C43.5541 107.653 43.446 107.653 43.3414 107.675C43.2232 107.701 43.1121 107.765 42.8898 107.895L36.8998 111.383C36.1478 111.821 35.7718 112.04 35.5009 111.994C35.2656 111.954 35.0625 111.805 34.9519 111.591C34.8246 111.345 34.9147 110.917 35.0948 110.059L36.5295 103.229C36.5828 102.975 36.6094 102.848 36.5968 102.727C36.5856 102.62 36.5522 102.516 36.4988 102.422C36.4384 102.317 36.343 102.23 36.1524 102.057L31.0156 97.382C30.3707 96.7951 30.0483 96.5018 30.0082 96.2274C29.9734 95.989 30.0509 95.7479 30.2179 95.5757C30.41 95.3775 30.8417 95.3314 31.7051 95.2394L38.5818 94.5065C38.837 94.4794 38.9646 94.4658 39.075 94.4161C39.1726 94.3722 39.26 94.3081 39.3316 94.2279C39.4124 94.1372 39.4647 94.0189 39.5692 93.7822L42.3845 87.4046Z" fill="#EE82C7"/>
<path d="M26.94 72V66.54H49.242C51.902 66.54 53.232 65.406 53.232 63.138C53.232 60.87 51.902 59.736 49.242 59.736H26.94V42.012H58.524V47.43H33.45V54.276H50.544C53.456 54.276 55.71 55.06 57.306 56.628C58.93 58.196 59.742 60.366 59.742 63.138C59.742 65.91 58.93 68.08 57.306 69.648C55.71 71.216 53.456 72 50.544 72H26.94Z" fill="#5347F5"/>
<path fill-rule="evenodd" clip-rule="evenodd" d="M43.3028 732C30.048 732 19.3028 721.255 19.3028 708V375V163.091C19.3028 149.879 30.1768 139.556 42.9359 136.125C63.2801 130.654 77.4382 118.466 77.4382 104.308V42C77.4382 28.7452 88.1834 18 101.438 18H375C388.255 18 399 28.7451 399 42V375V586.909C399 600.121 388.126 610.444 375.367 613.875C355.023 619.346 340.865 631.534 340.865 645.692V708C340.865 721.255 330.119 732 316.865 732H43.3028Z" fill="#CCFD51"/>
<mask id="mask0_57_175" style="mask-type:alpha" maskUnits="userSpaceOnUse" x="19" y="18" width="380" height="714">
<path fill-rule="evenodd" clip-rule="evenodd" d="M43.3028 732C30.048 732 19.3028 721.255 19.3028 708V375V163.091C19.3028 149.879 30.1768 139.556 42.9359 136.125C63.2801 130.654 77.4382 118.466 77.4382 104.308V42C77.4382 28.7452 88.1834 18 101.438 18H375C388.255 18 399 28.7451 399 42V375V586.909C399 600.121 388.126 610.444 375.367 613.875C355.023 619.346 340.865 631.534 340.865 645.692V708C340.865 721.255 330.119 732 316.865 732H43.3028Z" fill="#CCFD51"/>
</mask>
<g mask="url(#mask0_57_175)">
<path d="M43.016 704.16C38.792 704.16 35.56 703.189 33.32 701.248C31.08 699.285 29.96 696.384 29.96 692.544C29.96 688.725 31.08 685.835 33.32 683.872C35.56 681.909 38.792 680.939 43.016 680.96L54.536 681.024V685.12H43.368C40.5947 685.12 38.536 685.707 37.192 686.88C35.848 688.053 35.176 689.941 35.176 692.544C35.176 695.147 35.848 697.045 37.192 698.24C38.536 699.413 40.5947 700 43.368 700H54.856V704.16H43.016ZM68.9795 704.16C64.9048 704.16 61.7475 703.189 59.5075 701.248C57.2675 699.285 56.1475 696.384 56.1475 692.544C56.1475 688.725 57.2675 685.845 59.5075 683.904C61.7475 681.941 64.9795 680.96 69.2035 680.96H74.9635C79.1875 680.96 82.4195 681.941 84.6595 683.904C86.8995 685.845 88.0195 688.725 88.0195 692.544C88.0195 696.384 86.8995 699.285 84.6595 701.248C82.4195 703.189 79.2408 704.16 75.1235 704.16H68.9795ZM69.5555 685.12C67.1875 685.12 65.3422 685.547 64.0195 686.4C62.6968 687.253 61.8648 688.608 61.5235 690.464H82.6435C82.3022 688.608 81.4702 687.253 80.1475 686.4C78.8248 685.547 76.9795 685.12 74.6115 685.12H69.5555ZM69.6515 700H74.6115C77.0008 700 78.8462 699.573 80.1475 698.72C81.4702 697.867 82.3022 696.501 82.6435 694.624H61.5235C61.8648 696.501 62.6968 697.867 64.0195 698.72C65.3422 699.573 67.2195 700 69.6515 700ZM91.2088 704V681.12H95.4968L106.089 688.544H106.249L116.841 681.12H121.129V704H116.009V687.52L108.745 692.384V704H103.625V692.384L96.3288 687.52V704H91.2088ZM125.615 704V681.12H144.783C147.151 681.12 148.986 681.717 150.287 682.912C151.61 684.107 152.271 685.92 152.271 688.352C152.271 690.784 151.61 692.597 150.287 693.792C148.986 694.987 147.151 695.584 144.783 695.584H130.735V704H125.615ZM144.175 685.28H130.735V691.392L144.175 691.424C145.114 691.424 145.828 691.189 146.319 690.72C146.831 690.251 147.087 689.461 147.087 688.352C147.087 687.221 146.831 686.432 146.319 685.984C145.828 685.515 145.114 685.28 144.175 685.28ZM154.179 704V699.84H171.779C172.589 699.84 173.197 699.616 173.603 699.168C174.008 698.699 174.211 698.059 174.211 697.248C174.211 696.416 174.008 695.765 173.603 695.296C173.197 694.827 172.589 694.592 171.779 694.592H157.187V690.464H171.747C173.389 690.464 174.211 689.6 174.211 687.872C174.211 686.165 173.389 685.312 171.747 685.312H154.179V681.152H172.707C174.925 681.152 176.643 681.707 177.859 682.816C179.096 683.904 179.715 685.429 179.715 687.392C179.715 688.459 179.512 689.472 179.107 690.432C178.701 691.371 178.029 692.064 177.091 692.512C178.029 692.981 178.701 693.675 179.107 694.592C179.512 695.488 179.715 696.48 179.715 697.568C179.715 699.509 179.096 701.067 177.859 702.24C176.643 703.413 174.925 704 172.707 704H154.179ZM183.664 704V699.776H197.296C199.216 699.776 200.73 699.328 201.84 698.432C202.949 697.536 203.653 696.267 203.952 694.624H188.656C186.458 694.624 184.741 694.016 183.504 692.8C182.266 691.584 181.648 689.963 181.648 687.936C181.648 685.888 182.266 684.256 183.504 683.04C184.741 681.803 186.458 681.184 188.656 681.184H197.744C200.24 681.184 202.373 681.653 204.144 682.592C205.914 683.531 207.269 684.853 208.208 686.56C209.146 688.267 209.616 690.272 209.616 692.576C209.616 694.88 209.146 696.885 208.208 698.592C207.269 700.299 205.914 701.632 204.144 702.592C202.373 703.531 200.24 704 197.744 704H183.664ZM189.648 690.464H203.952C203.632 688.821 202.906 687.563 201.776 686.688C200.666 685.813 199.152 685.376 197.232 685.376H189.648C187.984 685.376 187.152 686.229 187.152 687.936C187.152 689.621 187.984 690.464 189.648 690.464ZM220.154 704C217.957 704 216.24 703.381 215.002 702.144C213.765 700.907 213.146 699.275 213.146 697.248C213.146 695.115 213.797 693.419 215.098 692.16C214.224 691.029 213.786 689.589 213.786 687.84C213.786 685.813 214.405 684.192 215.642 682.976C216.88 681.76 218.597 681.152 220.794 681.152H233.402C235.621 681.152 237.338 681.76 238.554 682.976C239.792 684.192 240.41 685.813 240.41 687.84C240.41 689.589 239.973 691.029 239.098 692.16C240.4 693.397 241.05 695.093 241.05 697.248C241.05 699.275 240.432 700.907 239.194 702.144C237.978 703.381 236.261 704 234.042 704H220.154ZM221.786 690.368H232.41C234.096 690.368 234.938 689.515 234.938 687.808C234.938 686.187 234.096 685.376 232.41 685.376H221.786C220.101 685.376 219.258 686.187 219.258 687.808C219.258 689.515 220.101 690.368 221.786 690.368ZM221.146 699.808H233.05C234.736 699.808 235.578 698.944 235.578 697.216C235.578 695.467 234.736 694.592 233.05 694.592H221.146C219.482 694.592 218.65 695.467 218.65 697.216C218.65 698.944 219.482 699.808 221.146 699.808ZM250.385 704V685.344H243.601V681.184H255.345V704H250.385ZM30.12 723V711.56H42.664V713.64H32.68V716.168H41.736V718.248H32.68V720.92H42.664V723H30.12ZM43.4569 723L46.5609 718.888L43.4569 714.776H46.1769L48.5609 717.96H49.7289L52.1289 714.776H54.8329L51.7449 718.888L54.8329 723H52.1289L49.7129 719.8H48.5609L46.1769 723H43.4569ZM60.168 723C59.24 723 58.5573 722.771 58.12 722.312C57.6827 721.843 57.464 721.229 57.464 720.472V716.6H55.08V714.76H57.464V712.232H59.784V714.76H63.208V716.6H59.784V720.184C59.784 720.835 60.104 721.16 60.744 721.16H63.656V723H60.168ZM69.0728 723.08C67.6434 723.08 66.5288 722.728 65.7288 722.024C64.9288 721.309 64.5288 720.264 64.5288 718.888C64.5288 717.501 64.9288 716.456 65.7288 715.752C66.5288 715.037 67.6434 714.68 69.0728 714.68H73.0728C74.0114 714.68 74.7261 714.904 75.2168 715.352C75.7181 715.789 75.9688 716.419 75.9688 717.24C75.9688 718.915 75.0034 719.752 73.0728 719.752H67.0248C67.2488 720.744 67.9314 721.24 69.0728 721.24H75.5528V723.08H69.0728ZM69.0728 716.52C67.9741 716.52 67.2968 716.984 67.0408 717.912H72.9608C73.1741 717.912 73.3394 717.848 73.4568 717.72C73.5848 717.592 73.6488 717.416 73.6488 717.192C73.6488 716.744 73.4194 716.52 72.9608 716.52H69.0728ZM77.4113 723V714.76H84.5953C85.5339 714.76 86.2166 714.995 86.6433 715.464C87.0806 715.923 87.2993 716.531 87.2993 717.288V723H84.9792V717.56C84.9792 716.92 84.6593 716.6 84.0193 716.6H79.7313V723H77.4113ZM99.1178 723H96.7978V711.56H99.1178V723ZM98.7178 723H93.1978C91.7684 723 90.6538 722.648 89.8538 721.944C89.0538 721.24 88.6538 720.221 88.6538 718.888C88.6538 717.544 89.0538 716.52 89.8538 715.816C90.6538 715.112 91.7684 714.76 93.1978 714.76H98.5578V716.6H93.1978C92.5044 716.6 91.9711 716.792 91.5978 717.176C91.2351 717.549 91.0538 718.12 91.0538 718.888C91.0538 719.645 91.2351 720.216 91.5978 720.6C91.9711 720.973 92.5044 721.16 93.1978 721.16H98.7178V723ZM105.104 723.08C103.675 723.08 102.56 722.728 101.76 722.024C100.96 721.309 100.56 720.264 100.56 718.888C100.56 717.501 100.96 716.456 101.76 715.752C102.56 715.037 103.675 714.68 105.104 714.68H109.104C110.043 714.68 110.757 714.904 111.248 715.352C111.749 715.789 112 716.419 112 717.24C112 718.915 111.035 719.752 109.104 719.752H103.056C103.28 720.744 103.963 721.24 105.104 721.24H111.584V723.08H105.104ZM105.104 716.52C104.005 716.52 103.328 716.984 103.072 717.912H108.992C109.205 717.912 109.371 717.848 109.488 717.72C109.616 717.592 109.68 717.416 109.68 717.192C109.68 716.744 109.451 716.52 108.992 716.52H105.104ZM123.587 723H121.267V711.56H123.587V723ZM123.187 723H117.667C116.237 723 115.123 722.648 114.323 721.944C113.523 721.24 113.123 720.221 113.123 718.888C113.123 717.544 113.523 716.52 114.323 715.816C115.123 715.112 116.237 714.76 117.667 714.76H123.027V716.6H117.667C116.973 716.6 116.44 716.792 116.067 717.176C115.704 717.549 115.523 718.12 115.523 718.888C115.523 719.645 115.704 720.216 116.067 720.6C116.44 720.973 116.973 721.16 117.667 721.16H123.187V723ZM136.959 723.08C134.921 723.08 133.343 722.595 132.223 721.624C131.103 720.643 130.543 719.192 130.543 717.272C130.543 715.363 131.103 713.923 132.223 712.952C133.343 711.971 134.959 711.48 137.071 711.48H139.951C142.063 711.48 143.679 711.971 144.799 712.952C145.919 713.923 146.479 715.363 146.479 717.272C146.479 719.192 145.919 720.643 144.799 721.624C143.679 722.595 142.089 723.08 140.031 723.08H136.959ZM137.247 713.56C136.063 713.56 135.14 713.773 134.479 714.2C133.817 714.627 133.401 715.304 133.231 716.232H143.791C143.62 715.304 143.204 714.627 142.543 714.2C141.881 713.773 140.959 713.56 139.775 713.56H137.247ZM137.295 721H139.775C140.969 721 141.892 720.787 142.543 720.36C143.204 719.933 143.62 719.251 143.791 718.312H133.231C133.401 719.251 133.817 719.933 134.479 720.36C135.14 720.787 136.079 721 137.295 721ZM147.833 726.6V714.76H153.753C155.182 714.76 156.297 715.112 157.097 715.816C157.897 716.52 158.297 717.539 158.297 718.872C158.297 720.216 157.897 721.24 157.097 721.944C156.297 722.648 155.182 723 153.753 723H150.153V726.6H147.833ZM153.753 716.6H150.153V721.16H153.753C154.446 721.16 154.974 720.973 155.337 720.6C155.71 720.216 155.897 719.64 155.897 718.872C155.897 718.115 155.71 717.549 155.337 717.176C154.974 716.792 154.446 716.6 153.753 716.6ZM163.963 723.08C162.534 723.08 161.419 722.728 160.619 722.024C159.819 721.309 159.419 720.264 159.419 718.888C159.419 717.501 159.819 716.456 160.619 715.752C161.419 715.037 162.534 714.68 163.963 714.68H167.963C168.902 714.68 169.617 714.904 170.107 715.352C170.609 715.789 170.859 716.419 170.859 717.24C170.859 718.915 169.894 719.752 167.963 719.752H161.915C162.139 720.744 162.822 721.24 163.963 721.24H170.443V723.08H163.963ZM163.963 716.52C162.865 716.52 162.187 716.984 161.931 717.912H167.851C168.065 717.912 168.23 717.848 168.347 717.72C168.475 717.592 168.539 717.416 168.539 717.192C168.539 716.744 168.31 716.52 167.851 716.52H163.963ZM172.302 723V714.76H178.606C179.534 714.76 180.217 714.995 180.654 715.464C181.091 715.923 181.31 716.531 181.31 717.288V719H178.958V717.576C178.958 716.936 178.638 716.616 177.998 716.616H174.654V723H172.302ZM184.775 723C183.911 723 183.25 722.781 182.791 722.344C182.332 721.907 182.103 721.283 182.103 720.472C182.103 719.672 182.332 719.053 182.791 718.616C183.25 718.179 183.911 717.96 184.775 717.96H190.919V717.576C190.919 716.925 190.599 716.6 189.959 716.6H183.175V714.76H190.567C191.538 714.76 192.226 714.984 192.631 715.432C193.036 715.869 193.239 716.488 193.239 717.288V723H184.775ZM185.191 721.16H190.919V719.8H185.191C184.988 719.8 184.828 719.864 184.711 719.992C184.604 720.109 184.551 720.269 184.551 720.472C184.551 720.675 184.604 720.84 184.711 720.968C184.828 721.096 184.988 721.16 185.191 721.16ZM199.293 723C198.365 723 197.682 722.771 197.245 722.312C196.808 721.843 196.589 721.229 196.589 720.472V716.6H194.205V714.76H196.589V712.232H198.909V714.76H202.333V716.6H198.909V720.184C198.909 720.835 199.229 721.16 199.869 721.16H202.781V723H199.293ZM203.974 723V714.76H206.294V723H203.974ZM203.958 713.4V711.592H206.31V713.4H203.958ZM208.052 723V714.76H215.236C216.175 714.76 216.857 714.995 217.284 715.464C217.721 715.923 217.94 716.531 217.94 717.288V723H215.62V717.56C215.62 716.92 215.3 716.6 214.66 716.6H210.372V723H208.052ZM221.566 726.6V724.76H226.398C227.038 724.76 227.358 724.435 227.358 723.784V723H223.838C222.409 723 221.294 722.648 220.494 721.944C219.694 721.24 219.294 720.221 219.294 718.888C219.294 717.544 219.694 716.52 220.494 715.816C221.294 715.112 222.409 714.76 223.838 714.76H229.678V724.072C229.678 724.829 229.46 725.437 229.022 725.896C228.585 726.365 227.902 726.6 226.974 726.6H221.566ZM223.838 721.16H227.358V716.6H223.838C223.145 716.6 222.612 716.792 222.238 717.176C221.876 717.549 221.694 718.12 221.694 718.888C221.694 719.645 221.876 720.216 222.238 720.6C222.612 720.973 223.145 721.16 223.838 721.16ZM236.908 723.08V721L246.108 721.016C246.578 721.016 246.935 720.909 247.18 720.696C247.436 720.472 247.564 720.115 247.564 719.624C247.564 719.133 247.436 718.781 247.18 718.568C246.935 718.344 246.578 718.232 246.108 718.232H240.38C239.196 718.232 238.274 717.949 237.612 717.384C236.962 716.808 236.636 715.965 236.636 714.856C236.636 713.747 236.962 712.909 237.612 712.344C238.274 711.768 239.196 711.48 240.38 711.48H249.372V713.56L240.652 713.544C240.194 713.544 239.836 713.651 239.58 713.864C239.324 714.067 239.196 714.397 239.196 714.856C239.196 715.315 239.324 715.651 239.58 715.864C239.836 716.067 240.194 716.168 240.652 716.168H246.38C247.564 716.168 248.482 716.461 249.132 717.048C249.794 717.624 250.124 718.483 250.124 719.624C250.124 720.755 249.794 721.613 249.132 722.2C248.482 722.787 247.564 723.08 246.38 723.08H236.908ZM253.345 726.6V724.76H258.177C258.817 724.76 259.137 724.435 259.137 723.784V723H254.193C253.255 723 252.567 722.765 252.129 722.296C251.703 721.827 251.489 721.219 251.489 720.472V714.76H253.809V720.2C253.809 720.84 254.129 721.16 254.769 721.16H259.057V714.76H261.457V724.072C261.457 724.829 261.239 725.437 260.801 725.896C260.364 726.365 259.681 726.6 258.753 726.6H253.345ZM262.952 723.08V721.24H270.792C271.24 721.24 271.464 720.989 271.464 720.488C271.464 719.997 271.24 719.752 270.792 719.752H265.72C264.77 719.752 264.05 719.539 263.56 719.112C263.069 718.675 262.824 718.051 262.824 717.24C262.824 716.419 263.069 715.789 263.56 715.352C264.061 714.904 264.781 714.68 265.72 714.68H273.016V716.52H265.832C265.373 716.52 265.144 716.744 265.144 717.192C265.144 717.416 265.208 717.592 265.336 717.72C265.464 717.848 265.629 717.912 265.832 717.912H271.208C272.04 717.912 272.674 718.131 273.112 718.568C273.56 718.995 273.784 719.619 273.784 720.44C273.784 721.272 273.56 721.923 273.112 722.392C272.664 722.851 272.029 723.08 271.208 723.08H262.952ZM279.434 723C278.506 723 277.823 722.771 277.386 722.312C276.948 721.843 276.73 721.229 276.73 720.472V716.6H274.346V714.76H276.73V712.232H279.05V714.76H282.474V716.6H279.05V720.184C279.05 720.835 279.37 721.16 280.01 721.16H282.922V723H279.434ZM288.338 723.08C286.909 723.08 285.794 722.728 284.994 722.024C284.194 721.309 283.794 720.264 283.794 718.888C283.794 717.501 284.194 716.456 284.994 715.752C285.794 715.037 286.909 714.68 288.338 714.68H292.338C293.277 714.68 293.992 714.904 294.482 715.352C294.984 715.789 295.234 716.419 295.234 717.24C295.234 718.915 294.269 719.752 292.338 719.752H286.29C286.514 720.744 287.197 721.24 288.338 721.24H294.818V723.08H288.338ZM288.338 716.52C287.24 716.52 286.562 716.984 286.306 717.912H292.226C292.44 717.912 292.605 717.848 292.722 717.72C292.85 717.592 292.914 717.416 292.914 717.192C292.914 716.744 292.685 716.52 292.226 716.52H288.338ZM296.677 723V714.76H307.349C308.288 714.76 308.976 714.995 309.413 715.464C309.85 715.923 310.069 716.531 310.069 717.288V723H307.749V717.576C307.749 716.925 307.418 716.6 306.757 716.6H304.533V723H302.213V716.6H298.997V723H296.677ZM311.483 723.08V721.24H319.323C319.771 721.24 319.995 720.989 319.995 720.488C319.995 719.997 319.771 719.752 319.323 719.752H314.251C313.302 719.752 312.582 719.539 312.091 719.112C311.6 718.675 311.355 718.051 311.355 717.24C311.355 716.419 311.6 715.789 312.091 715.352C312.592 714.904 313.312 714.68 314.251 714.68H321.547V716.52H314.363C313.904 716.52 313.675 716.744 313.675 717.192C313.675 717.416 313.739 717.592 313.867 717.72C313.995 717.848 314.16 717.912 314.363 717.912H319.739C320.571 717.912 321.206 718.131 321.643 718.568C322.091 718.995 322.315 719.619 322.315 720.44C322.315 721.272 322.091 721.923 321.643 722.392C321.195 722.851 320.56 723.08 319.739 723.08H311.483Z" fill="#5347F5"/>
<path d="M374.984 49.84C379.208 49.84 382.44 50.8107 384.68 52.752C386.92 54.7147 388.04 57.616 388.04 61.456C388.04 65.2747 386.92 68.1653 384.68 70.128C382.44 72.0907 379.208 73.0613 374.984 73.04L363.464 72.976V68.88H374.632C377.405 68.88 379.464 68.2933 380.808 67.12C382.152 65.9467 382.824 64.0587 382.824 61.456C382.824 58.8533 382.152 56.9547 380.808 55.76C379.464 54.5867 377.405 54 374.632 54H363.144V49.84H374.984ZM349.02 49.84C353.095 49.84 356.252 50.8107 358.492 52.752C360.732 54.7147 361.852 57.616 361.852 61.456C361.852 65.2747 360.732 68.1547 358.492 70.096C356.252 72.0587 353.02 73.04 348.796 73.04H343.036C338.812 73.04 335.58 72.0587 333.34 70.096C331.1 68.1547 329.98 65.2747 329.98 61.456C329.98 57.616 331.1 54.7147 333.34 52.752C335.58 50.8107 338.759 49.84 342.876 49.84H349.02ZM348.444 68.88C350.812 68.88 352.658 68.4533 353.98 67.6C355.303 66.7467 356.135 65.392 356.476 63.536H335.356C335.698 65.392 336.53 66.7467 337.852 67.6C339.175 68.4533 341.02 68.88 343.388 68.88H348.444ZM348.348 54H343.388C340.999 54 339.154 54.4267 337.852 55.28C336.53 56.1333 335.698 57.4987 335.356 59.376H356.476C356.135 57.4987 355.303 56.1333 353.98 55.28C352.658 54.4267 350.78 54 348.348 54ZM326.791 50V72.88H322.503L311.911 65.456H311.751L301.159 72.88H296.871V50H301.991V66.48L309.255 61.616V50H314.375V61.616L321.671 66.48V50H326.791ZM292.385 50V72.88H273.217C270.849 72.88 269.014 72.2827 267.713 71.088C266.39 69.8933 265.729 68.08 265.729 65.648C265.729 63.216 266.39 61.4027 267.713 60.208C269.014 59.0133 270.849 58.416 273.217 58.416H287.265V50H292.385ZM273.825 68.72H287.265V62.608L273.825 62.576C272.886 62.576 272.172 62.8107 271.681 63.28C271.169 63.7493 270.913 64.5387 270.913 65.648C270.913 66.7787 271.169 67.568 271.681 68.016C272.172 68.4853 272.886 68.72 273.825 68.72ZM263.821 50V54.16H246.221C245.411 54.16 244.803 54.384 244.397 54.832C243.992 55.3013 243.789 55.9413 243.789 56.752C243.789 57.584 243.992 58.2347 244.397 58.704C244.803 59.1733 245.411 59.408 246.221 59.408H260.813V63.536H246.253C244.611 63.536 243.789 64.4 243.789 66.128C243.789 67.8347 244.611 68.688 246.253 68.688H263.821V72.848H245.293C243.075 72.848 241.357 72.2933 240.141 71.184C238.904 70.096 238.285 68.5707 238.285 66.608C238.285 65.5413 238.488 64.528 238.893 63.568C239.299 62.6293 239.971 61.936 240.909 61.488C239.971 61.0187 239.299 60.3253 238.893 59.408C238.488 58.512 238.285 57.52 238.285 56.432C238.285 54.4907 238.904 52.9333 240.141 51.76C241.357 50.5867 243.075 50 245.293 50H263.821ZM234.336 50V54.224H220.704C218.784 54.224 217.27 54.672 216.16 55.568C215.051 56.464 214.347 57.7333 214.048 59.376H229.344C231.542 59.376 233.259 59.984 234.496 61.2C235.734 62.416 236.352 64.0373 236.352 66.064C236.352 68.112 235.734 69.744 234.496 70.96C233.259 72.1973 231.542 72.816 229.344 72.816H220.256C217.76 72.816 215.627 72.3467 213.856 71.408C212.086 70.4693 210.731 69.1467 209.792 67.44C208.854 65.7333 208.384 63.728 208.384 61.424C208.384 59.12 208.854 57.1147 209.792 55.408C210.731 53.7013 212.086 52.368 213.856 51.408C215.627 50.4693 217.76 50 220.256 50H234.336ZM228.352 63.536H214.048C214.368 65.1787 215.094 66.4373 216.224 67.312C217.334 68.1867 218.848 68.624 220.768 68.624H228.352C230.016 68.624 230.848 67.7707 230.848 66.064C230.848 64.3787 230.016 63.536 228.352 63.536ZM197.846 50C200.043 50 201.76 50.6187 202.998 51.856C204.235 53.0933 204.854 54.7253 204.854 56.752C204.854 58.8853 204.203 60.5813 202.902 61.84C203.776 62.9707 204.214 64.4107 204.214 66.16C204.214 68.1867 203.595 69.808 202.358 71.024C201.12 72.24 199.403 72.848 197.206 72.848H184.598C182.379 72.848 180.662 72.24 179.446 71.024C178.208 69.808 177.59 68.1867 177.59 66.16C177.59 64.4107 178.027 62.9707 178.902 61.84C177.6 60.6027 176.95 58.9067 176.95 56.752C176.95 54.7253 177.568 53.0933 178.806 51.856C180.022 50.6187 181.739 50 183.958 50H197.846ZM196.214 63.632H185.59C183.904 63.632 183.062 64.4853 183.062 66.192C183.062 67.8133 183.904 68.624 185.59 68.624H196.214C197.899 68.624 198.742 67.8133 198.742 66.192C198.742 64.4853 197.899 63.632 196.214 63.632ZM196.854 54.192H184.95C183.264 54.192 182.422 55.056 182.422 56.784C182.422 58.5333 183.264 59.408 184.95 59.408H196.854C198.518 59.408 199.35 58.5333 199.35 56.784C199.35 55.056 198.518 54.192 196.854 54.192ZM167.615 50V68.656H174.399V72.816H162.655V50H167.615ZM387.88 31V42.44H375.336V40.36H385.32V37.832H376.264V35.752H385.32V33.08H375.336V31H387.88ZM374.543 31L371.439 35.112L374.543 39.224H371.823L369.439 36.04H368.271L365.871 39.224H363.167L366.255 35.112L363.167 31H365.871L368.287 34.2H369.439L371.823 31H374.543ZM357.832 31C358.76 31 359.443 31.2293 359.88 31.688C360.317 32.1573 360.536 32.7707 360.536 33.528V37.4H362.92V39.24H360.536V41.768H358.216V39.24H354.792V37.4H358.216V33.816C358.216 33.1653 357.896 32.84 357.256 32.84H354.344V31H357.832ZM348.927 30.92C350.357 30.92 351.471 31.272 352.271 31.976C353.071 32.6907 353.471 33.736 353.471 35.112C353.471 36.4987 353.071 37.544 352.271 38.248C351.471 38.9627 350.357 39.32 348.927 39.32H344.927C343.989 39.32 343.274 39.096 342.783 38.648C342.282 38.2107 342.031 37.5813 342.031 36.76C342.031 35.0853 342.997 34.248 344.927 34.248H350.975C350.751 33.256 350.069 32.76 348.927 32.76H342.447V30.92H348.927ZM348.927 37.48C350.026 37.48 350.703 37.016 350.959 36.088H345.039C344.826 36.088 344.661 36.152 344.543 36.28C344.415 36.408 344.351 36.584 344.351 36.808C344.351 37.256 344.581 37.48 345.039 37.48H348.927ZM340.589 31V39.24H333.405C332.466 39.24 331.783 39.0053 331.357 38.536C330.919 38.0773 330.701 37.4693 330.701 36.712V31H333.021V36.44C333.021 37.08 333.341 37.4 333.981 37.4H338.269V31H340.589ZM318.882 31H321.202V42.44H318.882V31ZM319.282 31H324.802C326.232 31 327.346 31.352 328.146 32.056C328.946 32.76 329.346 33.7787 329.346 35.112C329.346 36.456 328.946 37.48 328.146 38.184C327.346 38.888 326.232 39.24 324.802 39.24H319.442V37.4H324.802C325.496 37.4 326.029 37.208 326.402 36.824C326.765 36.4507 326.946 35.88 326.946 35.112C326.946 34.3547 326.765 33.784 326.402 33.4C326.029 33.0267 325.496 32.84 324.802 32.84H319.282V31ZM312.896 30.92C314.325 30.92 315.44 31.272 316.24 31.976C317.04 32.6907 317.44 33.736 317.44 35.112C317.44 36.4987 317.04 37.544 316.24 38.248C315.44 38.9627 314.325 39.32 312.896 39.32H308.896C307.957 39.32 307.243 39.096 306.752 38.648C306.251 38.2107 306 37.5813 306 36.76C306 35.0853 306.965 34.248 308.896 34.248H314.944C314.72 33.256 314.037 32.76 312.896 32.76H306.416V30.92H312.896ZM312.896 37.48C313.995 37.48 314.672 37.016 314.928 36.088H309.008C308.795 36.088 308.629 36.152 308.512 36.28C308.384 36.408 308.32 36.584 308.32 36.808C308.32 37.256 308.549 37.48 309.008 37.48H312.896ZM294.413 31H296.733V42.44H294.413V31ZM294.813 31H300.333C301.763 31 302.877 31.352 303.677 32.056C304.477 32.76 304.877 33.7787 304.877 35.112C304.877 36.456 304.477 37.48 303.677 38.184C302.877 38.888 301.763 39.24 300.333 39.24H294.973V37.4H300.333C301.027 37.4 301.56 37.208 301.933 36.824C302.296 36.4507 302.477 35.88 302.477 35.112C302.477 34.3547 302.296 33.784 301.933 33.4C301.56 33.0267 301.027 32.84 300.333 32.84H294.813V31ZM281.041 30.92C283.079 30.92 284.657 31.4053 285.777 32.376C286.897 33.3573 287.457 34.808 287.457 36.728C287.457 38.6373 286.897 40.0773 285.777 41.048C284.657 42.0293 283.041 42.52 280.929 42.52H278.049C275.937 42.52 274.321 42.0293 273.201 41.048C272.081 40.0773 271.521 38.6373 271.521 36.728C271.521 34.808 272.081 33.3573 273.201 32.376C274.321 31.4053 275.911 30.92 277.969 30.92H281.041ZM280.753 40.44C281.937 40.44 282.86 40.2267 283.521 39.8C284.183 39.3733 284.599 38.696 284.769 37.768H274.209C274.38 38.696 274.796 39.3733 275.457 39.8C276.119 40.2267 277.041 40.44 278.225 40.44H280.753ZM280.705 33H278.225C277.031 33 276.108 33.2133 275.457 33.64C274.796 34.0667 274.38 34.7493 274.209 35.688H284.769C284.599 34.7493 284.183 34.0667 283.521 33.64C282.86 33.2133 281.921 33 280.705 33ZM270.167 27.4V39.24H264.247C262.818 39.24 261.703 38.888 260.903 38.184C260.103 37.48 259.703 36.4613 259.703 35.128C259.703 33.784 260.103 32.76 260.903 32.056C261.703 31.352 262.818 31 264.247 31H267.847V27.4H270.167ZM264.247 37.4H267.847V32.84H264.247C263.554 32.84 263.026 33.0267 262.663 33.4C262.29 33.784 262.103 34.36 262.103 35.128C262.103 35.8853 262.29 36.4507 262.663 36.824C263.026 37.208 263.554 37.4 264.247 37.4ZM254.037 30.92C255.466 30.92 256.581 31.272 257.381 31.976C258.181 32.6907 258.581 33.736 258.581 35.112C258.581 36.4987 258.181 37.544 257.381 38.248C256.581 38.9627 255.466 39.32 254.037 39.32H250.037C249.098 39.32 248.383 39.096 247.893 38.648C247.391 38.2107 247.141 37.5813 247.141 36.76C247.141 35.0853 248.106 34.248 250.037 34.248H256.085C255.861 33.256 255.178 32.76 254.037 32.76H247.557V30.92H254.037ZM254.037 37.48C255.135 37.48 255.813 37.016 256.069 36.088H250.149C249.935 36.088 249.77 36.152 249.653 36.28C249.525 36.408 249.461 36.584 249.461 36.808C249.461 37.256 249.69 37.48 250.149 37.48H254.037ZM245.698 31V39.24H239.394C238.466 39.24 237.783 39.0053 237.346 38.536C236.909 38.0773 236.69 37.4693 236.69 36.712V35H239.042V36.424C239.042 37.064 239.362 37.384 240.002 37.384H243.346V31H245.698ZM233.225 31C234.089 31 234.75 31.2187 235.209 31.656C235.668 32.0933 235.897 32.7173 235.897 33.528C235.897 34.328 235.668 34.9467 235.209 35.384C234.75 35.8213 234.089 36.04 233.225 36.04H227.081V36.424C227.081 37.0747 227.401 37.4 228.041 37.4H234.825V39.24H227.433C226.462 39.24 225.774 39.016 225.369 38.568C224.964 38.1307 224.761 37.512 224.761 36.712V31H233.225ZM232.809 32.84H227.081V34.2H232.809C233.012 34.2 233.172 34.136 233.289 34.008C233.396 33.8907 233.449 33.7307 233.449 33.528C233.449 33.3253 233.396 33.16 233.289 33.032C233.172 32.904 233.012 32.84 232.809 32.84ZM218.707 31C219.635 31 220.318 31.2293 220.755 31.688C221.192 32.1573 221.411 32.7707 221.411 33.528V37.4H223.795V39.24H221.411V41.768H219.091V39.24H215.667V37.4H219.091V33.816C219.091 33.1653 218.771 32.84 218.131 32.84H215.219V31H218.707ZM214.026 31V39.24H211.706V31H214.026ZM214.042 40.6V42.408H211.69V40.6H214.042ZM209.948 31V39.24H202.764C201.825 39.24 201.143 39.0053 200.716 38.536C200.279 38.0773 200.06 37.4693 200.06 36.712V31H202.38V36.44C202.38 37.08 202.7 37.4 203.34 37.4H207.628V31H209.948ZM196.434 27.4V29.24H191.602C190.962 29.24 190.642 29.5653 190.642 30.216V31H194.162C195.591 31 196.706 31.352 197.506 32.056C198.306 32.76 198.706 33.7787 198.706 35.112C198.706 36.456 198.306 37.48 197.506 38.184C196.706 38.888 195.591 39.24 194.162 39.24H188.322V29.928C188.322 29.1707 188.54 28.5627 188.978 28.104C189.415 27.6347 190.098 27.4 191.026 27.4H196.434ZM194.162 32.84H190.642V37.4H194.162C194.855 37.4 195.388 37.208 195.762 36.824C196.124 36.4507 196.306 35.88 196.306 35.112C196.306 34.3547 196.124 33.784 195.762 33.4C195.388 33.0267 194.855 32.84 194.162 32.84ZM181.092 30.92V33L171.892 32.984C171.422 32.984 171.065 33.0907 170.82 33.304C170.564 33.528 170.436 33.8853 170.436 34.376C170.436 34.8667 170.564 35.2187 170.82 35.432C171.065 35.656 171.422 35.768 171.892 35.768H177.62C178.804 35.768 179.726 36.0507 180.388 36.616C181.038 37.192 181.364 38.0347 181.364 39.144C181.364 40.2533 181.038 41.0907 180.388 41.656C179.726 42.232 178.804 42.52 177.62 42.52H168.628V40.44L177.348 40.456C177.806 40.456 178.164 40.3493 178.42 40.136C178.676 39.9333 178.804 39.6027 178.804 39.144C178.804 38.6853 178.676 38.3493 178.42 38.136C178.164 37.9333 177.806 37.832 177.348 37.832H171.62C170.436 37.832 169.518 37.5387 168.868 36.952C168.206 36.376 167.876 35.5173 167.876 34.376C167.876 33.2453 168.206 32.3867 168.868 31.8C169.518 31.2133 170.436 30.92 171.62 30.92H181.092ZM164.655 27.4V29.24H159.823C159.183 29.24 158.863 29.5653 158.863 30.216V31H163.807C164.745 31 165.433 31.2347 165.871 31.704C166.297 32.1733 166.511 32.7813 166.511 33.528V39.24H164.191V33.8C164.191 33.16 163.871 32.84 163.231 32.84H158.943V39.24H156.543V29.928C156.543 29.1707 156.761 28.5627 157.199 28.104C157.636 27.6347 158.319 27.4 159.247 27.4H164.655ZM155.048 30.92V32.76H147.208C146.76 32.76 146.536 33.0107 146.536 33.512C146.536 34.0027 146.76 34.248 147.208 34.248H152.28C153.23 34.248 153.95 34.4613 154.44 34.888C154.931 35.3253 155.176 35.9493 155.176 36.76C155.176 37.5813 154.931 38.2107 154.44 38.648C153.939 39.096 153.219 39.32 152.28 39.32H144.984V37.48H152.168C152.627 37.48 152.856 37.256 152.856 36.808C152.856 36.584 152.792 36.408 152.664 36.28C152.536 36.152 152.371 36.088 152.168 36.088H146.792C145.96 36.088 145.326 35.8693 144.888 35.432C144.44 35.0053 144.216 34.3813 144.216 33.56C144.216 32.728 144.44 32.0773 144.888 31.608C145.336 31.1493 145.971 30.92 146.792 30.92H155.048ZM138.566 31C139.494 31 140.177 31.2293 140.614 31.688C141.052 32.1573 141.27 32.7707 141.27 33.528V37.4H143.654V39.24H141.27V41.768H138.95V39.24H135.526V37.4H138.95V33.816C138.95 33.1653 138.63 32.84 137.99 32.84H135.078V31H138.566ZM129.662 30.92C131.091 30.92 132.206 31.272 133.006 31.976C133.806 32.6907 134.206 33.736 134.206 35.112C134.206 36.4987 133.806 37.544 133.006 38.248C132.206 38.9627 131.091 39.32 129.662 39.32H125.662C124.723 39.32 124.008 39.096 123.518 38.648C123.016 38.2107 122.766 37.5813 122.766 36.76C122.766 35.0853 123.731 34.248 125.662 34.248H131.71C131.486 33.256 130.803 32.76 129.662 32.76H123.182V30.92H129.662ZM129.662 37.48C130.76 37.48 131.438 37.016 131.694 36.088H125.774C125.56 36.088 125.395 36.152 125.278 36.28C125.15 36.408 125.086 36.584 125.086 36.808C125.086 37.256 125.315 37.48 125.774 37.48H129.662ZM121.323 31V39.24H110.651C109.712 39.24 109.024 39.0053 108.587 38.536C108.15 38.0773 107.931 37.4693 107.931 36.712V31H110.251V36.424C110.251 37.0747 110.582 37.4 111.243 37.4H113.467V31H115.787V37.4H119.003V31H121.323ZM106.517 30.92V32.76H98.677C98.229 32.76 98.005 33.0107 98.005 33.512C98.005 34.0027 98.229 34.248 98.677 34.248H103.749C104.698 34.248 105.418 34.4613 105.909 34.888C106.4 35.3253 106.645 35.9493 106.645 36.76C106.645 37.5813 106.4 38.2107 105.909 38.648C105.408 39.096 104.688 39.32 103.749 39.32H96.453V37.48H103.637C104.096 37.48 104.325 37.256 104.325 36.808C104.325 36.584 104.261 36.408 104.133 36.28C104.005 36.152 103.84 36.088 103.637 36.088H98.261C97.429 36.088 96.7943 35.8693 96.357 35.432C95.909 35.0053 95.685 34.3813 95.685 33.56C95.685 32.728 95.909 32.0773 96.357 31.608C96.805 31.1493 97.4397 30.92 98.261 30.92H106.517Z" fill="#5347F5"/>
</g>
<ellipse cx="197.5" cy="481.499" rx="84.5" ry="44.5" fill="#BFEE49"/>
<path fill-rule="evenodd" clip-rule="evenodd" d="M179.357 331.093C101.63 347.418 108.837 434.584 145.85 465.289C174.731 489.243 213.26 483.384 213.26 483.384C213.26 483.384 209.184 514.718 219.843 516.555C230.496 518.392 241.209 480.266 241.209 480.266C241.209 480.266 240.854 512.989 253.981 509.959C267.107 506.922 257.99 472.06 257.99 472.06C257.99 472.06 269.708 506.975 280.368 500.613C291.027 494.258 280.542 458.27 280.542 458.27C280.542 458.27 293.689 487.185 302.86 478.449C312.031 469.714 288.755 434.061 288.755 434.061C288.755 434.061 316.054 302.386 179.357 331.093Z" fill="white"/>
<path fill-rule="evenodd" clip-rule="evenodd" d="M242.34 419.886C237.433 423.935 237.245 454.707 244.653 454.204C252.061 453.695 253.288 440.428 253.288 440.428C253.288 440.428 261.876 446.173 265.945 442.285C270.015 438.396 247.248 415.837 242.34 419.886Z" fill="#97BC3C"/>
<path fill-rule="evenodd" clip-rule="evenodd" d="M206.816 383.511C191.531 374.648 172.806 391.475 173.175 403.884C173.751 423.185 192.53 444.511 209.042 438.665C225.561 432.813 225.339 394.251 206.816 383.511Z" fill="#97BC3C"/>
<path fill-rule="evenodd" clip-rule="evenodd" d="M263.362 372.011C252.971 365.984 240.24 377.428 240.488 385.862C240.883 398.989 253.648 413.489 264.877 409.514C276.107 405.538 275.959 379.312 263.362 372.011Z" fill="#97BC3C"/>
<path d="M268.801 240.186L258.742 236.81L247.772 269.5L257.831 272.875L268.801 240.186Z" fill="#5347F5"/>
<path d="M260.504 226.208L273.791 230.667C275.677 231.3 276.693 233.342 276.06 235.228L274.976 238.456C274.343 240.342 272.302 241.358 270.415 240.725L257.129 236.266C255.243 235.633 254.227 233.592 254.86 231.705L255.943 228.477C256.576 226.591 258.618 225.575 260.504 226.208Z" fill="#1279F2"/>
<path d="M253.516 268.627L253.715 268.693C259.603 270.714 264.723 274.449 268.403 279.299C270.482 282.039 269.575 285.987 266.447 287.419C264.206 288.444 261.523 287.812 260.059 285.83C257.648 282.567 254.278 280.104 250.272 278.729C246.055 277.364 241.755 277.239 237.699 278.41C235.33 279.092 232.814 277.929 231.674 275.739L231.669 275.729C230.151 272.816 231.59 269.136 234.748 268.229C240.849 266.474 247.426 266.583 253.516 268.627Z" fill="#1279F2"/>
<path d="M250.271 278.729C246.601 277.543 242.876 277.353 239.298 278.08L215.741 348.277L218.183 374.346L235.857 355.027L259.353 285.014C257.004 282.175 253.921 279.982 250.271 278.729Z" fill="#C7CFE3"/>
<path d="M246.051 291.302C247.439 291.767 248.188 293.272 247.722 294.66L230.212 346.837C229.746 348.225 228.242 348.974 226.854 348.508C225.466 348.042 224.717 346.538 225.183 345.15L242.693 292.972C243.159 291.584 244.663 290.836 246.051 291.302Z" fill="#AFB5CB"/>
<ellipse cx="221.284" cy="359.847" rx="23" ry="15" transform="rotate(16.285 221.284 359.847)" fill="white"/>
<path d="M214 342.999L218.741 343.911C224.209 344.963 229.462 346.92 234.285 349.702L240 352.999" stroke="#EE82C7" stroke-width="3"/>
<path d="M176.418 522.369L174.68 522.288L175.083 513.717L176.821 513.799L176.418 522.369ZM176.118 522.355L171.983 522.161C170.912 522.11 170.089 521.807 169.515 521.252C168.94 520.696 168.676 519.919 168.723 518.92C168.771 517.913 169.107 517.16 169.731 516.661C170.355 516.162 171.202 515.937 172.273 515.988L176.289 516.177L176.224 517.555L172.208 517.366C171.689 517.342 171.283 517.467 170.989 517.741C170.705 518.008 170.549 518.429 170.521 519.005C170.495 519.572 170.611 520.006 170.869 520.306C171.135 520.599 171.528 520.758 172.048 520.782L176.183 520.977L176.118 522.355ZM180.9 522.64C179.829 522.59 179.006 522.287 178.432 521.731C177.858 521.168 177.595 520.371 177.643 519.34C177.692 518.301 178.029 517.532 178.653 517.033C179.277 516.525 180.125 516.297 181.196 516.347L184.193 516.488C184.896 516.522 185.423 516.715 185.775 517.068C186.135 517.413 186.301 517.893 186.272 518.508C186.213 519.763 185.46 520.356 184.014 520.288L179.483 520.075C179.616 520.826 180.11 521.222 180.965 521.262L185.819 521.49L185.754 522.869L180.9 522.64ZM181.131 517.726C180.308 517.687 179.784 518.011 179.56 518.697L183.995 518.906C184.155 518.913 184.281 518.871 184.373 518.779C184.473 518.688 184.528 518.559 184.536 518.391C184.551 518.055 184.387 517.879 184.044 517.863L181.131 517.726ZM188.792 522.952C188.144 522.921 187.657 522.734 187.328 522.39C187 522.047 186.85 521.571 186.879 520.964C186.907 520.364 187.101 519.909 187.46 519.598C187.819 519.286 188.322 519.146 188.969 519.176L193.572 519.393L193.586 519.105C193.609 518.617 193.381 518.362 192.901 518.34L187.819 518.101L187.884 516.722L193.421 516.983C194.149 517.017 194.656 517.209 194.944 517.559C195.232 517.901 195.362 518.372 195.334 518.971L195.133 523.25L188.792 522.952ZM189.168 521.588L193.459 521.79L193.507 520.771L189.216 520.569C189.064 520.562 188.942 520.604 188.85 520.696C188.766 520.78 188.72 520.898 188.713 521.05C188.706 521.202 188.74 521.328 188.815 521.427C188.899 521.527 189.016 521.581 189.168 521.588ZM199.668 523.464C198.973 523.431 198.469 523.235 198.158 522.876C197.847 522.509 197.705 522.042 197.731 521.474L197.868 518.574L196.082 518.49L196.147 517.111L197.933 517.195L198.022 515.301L199.76 515.383L199.671 517.277L202.236 517.398L202.171 518.776L199.606 518.655L199.48 521.34C199.457 521.828 199.685 522.083 200.164 522.106L202.346 522.208L202.281 523.587L199.668 523.464ZM203.175 523.629L203.578 515.058L205.316 515.14L205.203 517.537L208.847 517.709C209.551 517.742 210.054 517.942 210.357 518.308C210.668 518.668 210.811 519.131 210.784 519.698L210.583 523.977L208.844 523.896L209.036 519.82C209.059 519.341 208.83 519.09 208.351 519.067L205.138 518.916L204.913 523.711L203.175 523.629Z" fill="#97BC3C"/>
<rect width="418" height="753" rx="24" fill="#1279F2"/>
<path d="M207.479 74.3513C207.693 72.5496 210.307 72.5496 210.521 74.3513L212.315 89.4656C214.63 108.982 230.018 124.37 249.534 126.685L264.649 128.479C266.45 128.693 266.45 131.307 264.649 131.521L249.534 133.315C230.018 135.63 214.63 151.018 212.315 170.534L210.521 185.649C210.307 187.45 207.693 187.45 207.479 185.649L205.685 170.534C203.37 151.018 187.982 135.63 168.466 133.315L153.351 131.521C151.55 131.307 151.55 128.693 153.351 128.479L168.466 126.685C187.982 124.37 203.37 108.982 205.685 89.4656L207.479 74.3513Z" fill="#CCFD51"/>
<path d="M207.479 567.351C207.693 565.55 210.307 565.55 210.521 567.351L212.315 582.466C214.63 601.982 230.018 617.37 249.534 619.685L264.649 621.479C266.45 621.693 266.45 624.307 264.649 624.521L249.534 626.315C230.018 628.63 214.63 644.018 212.315 663.534L210.521 678.649C210.307 680.45 207.693 680.45 207.479 678.649L205.685 663.534C203.37 644.018 187.982 628.63 168.466 626.315L153.351 624.521C151.55 624.307 151.55 621.693 153.351 621.479L168.466 619.685C187.982 617.37 203.37 601.982 205.685 582.466L207.479 567.351Z" fill="#CCFD51"/>
<path d="M322.577 231L311.109 257.672L280.332 261.402L307.049 277.61L307.921 286.12C279.184 269.608 237.67 259.892 182.117 264.283L169.323 262.171L154.034 237.908L154.351 263.038L123.157 273.423L158.054 276.306L163.024 297.646L173.858 273.779L185.206 272.042C314.491 285.959 361.062 401.39 234.561 403.206L237.869 379.456L261.161 351.836L228.62 336.063L209.468 305.444L184.356 331.424L181.742 332.074C40.672 315.307 25.9001 404.639 108.64 449.896L101.074 457.912L71.2476 448.87L92.181 473.764L82.5959 500.632L105.649 480.95L135.455 492.381L116.205 464.664L119.178 455.169C158.744 473.267 216.684 481.803 290.612 468.256C137.847 489.344 59.8303 381.115 151.637 344.634L166.234 371.957L163.699 407.947L199.329 401.648L211.529 406.584C349.852 471.405 400.05 353.571 320.438 294.293L329.549 280.256L359 269.832L332.441 260.475L322.577 231.001V231ZM67.8798 262.211L70.9504 278.696L58.6109 292.594L75.8621 290.541L86.993 305.288L87.4284 286.671L103.133 275.359L82.0806 274.273L67.8798 262.211ZM295.127 450.784L304.158 483.418L284.273 509.358L315.703 501.343L337.054 523L335.45 490.525L357.77 471.336L325.072 472.323L295.126 450.784L295.127 450.784Z" fill="#5347F5"/>
<path d="M322.577 231L311.109 257.672L280.332 261.402L307.049 277.61L307.921 286.12C279.184 269.608 237.67 259.892 182.117 264.283L169.323 262.171L154.034 237.908L154.351 263.038L123.157 273.423L158.054 276.306L163.024 297.646L173.858 273.779L185.206 272.042C314.491 285.959 361.062 401.39 234.561 403.206L237.869 379.456L261.161 351.836L228.62 336.063L209.468 305.444L184.356 331.424L181.742 332.074C40.672 315.307 25.9001 404.639 108.64 449.896L101.074 457.912L71.2476 448.87L92.181 473.764L82.5959 500.632L105.649 480.95L135.455 492.381L116.205 464.664L119.178 455.169C158.744 473.267 216.684 481.803 290.612 468.256C137.847 489.344 59.8303 381.115 151.637 344.634L166.234 371.957L163.699 407.947L199.329 401.648L211.529 406.584C349.852 471.405 400.05 353.571 320.438 294.293L329.549 280.256L359 269.832L332.441 260.475L322.577 231.001V231ZM67.8798 262.211L70.9504 278.696L58.6109 292.594L75.8621 290.541L86.993 305.288L87.4284 286.671L103.133 275.359L82.0806 274.273L67.8798 262.211ZM295.127 450.784L304.158 483.418L284.273 509.358L315.703 501.343L337.054 523L335.45 490.525L357.77 471.336L325.072 472.323L295.126 450.784L295.127 450.784Z" fill="#EE82C7"/>
<path d="M295.491 213.409L288.829 241.667L259.167 250.685L288.293 262.007L290.629 270.236C259.462 258.966 216.891 256.606 162.944 270.577L149.979 270.719L130.708 249.479L135.384 274.173L106.467 289.816L141.335 286.596L149.936 306.748L156.46 281.363L167.335 277.681C297.072 268.937 362.979 374.527 238.716 398.282L237.85 374.319L255.991 343.074L221.206 333.191L197.028 306.363L176.808 336.309L174.347 337.404C32.5089 345.387 33.4737 435.927 122.815 466.129L116.756 475.337L85.8129 471.611L110.751 492.492L105.977 520.616L125.263 497.23L156.601 503.312L132.83 479.359L134.109 469.492C176.216 480.444 234.759 478.789 305.211 452.611C158.429 499.906 62.8035 406.869 146.881 355L166.001 379.372L169.754 415.256L203.748 402.866L216.62 405.608C364.098 445.425 393.071 320.664 304.375 276.112L310.91 260.706L338.104 245.326L310.323 240.723L295.491 213.41L295.491 213.409ZM50.0832 288.373L55.9698 304.075L46.2312 319.904L62.8638 314.887L76.3864 327.477L73.5823 309.067L87.0843 295.2L66.1628 297.786L50.0832 288.373ZM306.623 434.62L321.184 465.19L306.106 494.19L335.667 480.838L360.453 498.459L353.235 466.756L371.883 443.982L339.853 450.632L306.623 434.621L306.623 434.62Z" fill="#5347F5"/>
<line x1="208" y1="113" x2="208" stroke="#CCFD51" stroke-width="2"/>
<line x1="210" y1="113" x2="210" stroke="#CCFD51" stroke-width="2"/>
<line y1="-1" x2="113" y2="-1" transform="matrix(0 1 1 0 209 640)" stroke="#CCFD51" stroke-width="2"/>
<line y1="-1" x2="113" y2="-1" transform="matrix(0 1 1 0 211 640)" stroke="#CCFD51" stroke-width="2"/>
<line y1="-1" x2="113" y2="-1" transform="matrix(0 1 1 0 209 145)" stroke="#CCFD51" stroke-width="2"/>
<line y1="-1" x2="113" y2="-1" transform="matrix(0 1 1 0 211 145)" stroke="#CCFD51" stroke-width="2"/>
<line y1="-1" x2="113" y2="-1" transform="matrix(0 1 1 0 209 495)" stroke="#CCFD51" stroke-width="2"/>
<line y1="-1" x2="113" y2="-1" transform="matrix(0 1 1 0 211 495)" stroke="#CCFD51" stroke-width="2"/>
</svg>
