<svg width="418" height="753" viewBox="0 0 418 753" fill="none" xmlns="http://www.w3.org/2000/svg">
<rect width="418" height="753" rx="24" fill="#1279F2"/>
<path d="M207.479 74.3513C207.693 72.5496 210.307 72.5496 210.521 74.3513L212.315 89.4656C214.63 108.982 230.018 124.37 249.534 126.685L264.649 128.479C266.45 128.693 266.45 131.307 264.649 131.521L249.534 133.315C230.018 135.63 214.63 151.018 212.315 170.534L210.521 185.649C210.307 187.45 207.693 187.45 207.479 185.649L205.685 170.534C203.37 151.018 187.982 135.63 168.466 133.315L153.351 131.521C151.55 131.307 151.55 128.693 153.351 128.479L168.466 126.685C187.982 124.37 203.37 108.982 205.685 89.4656L207.479 74.3513Z" fill="#CCFD51"/>
<path d="M207.479 567.351C207.693 565.55 210.307 565.55 210.521 567.351L212.315 582.466C214.63 601.982 230.018 617.37 249.534 619.685L264.649 621.479C266.45 621.693 266.45 624.307 264.649 624.521L249.534 626.315C230.018 628.63 214.63 644.018 212.315 663.534L210.521 678.649C210.307 680.45 207.693 680.45 207.479 678.649L205.685 663.534C203.37 644.018 187.982 628.63 168.466 626.315L153.351 624.521C151.55 624.307 151.55 621.693 153.351 621.479L168.466 619.685C187.982 617.37 203.37 601.982 205.685 582.466L207.479 567.351Z" fill="#CCFD51"/>
<path d="M322.577 231L311.109 257.672L280.332 261.402L307.049 277.61L307.921 286.12C279.184 269.608 237.67 259.892 182.117 264.283L169.323 262.171L154.034 237.908L154.351 263.038L123.157 273.423L158.054 276.306L163.024 297.646L173.858 273.779L185.206 272.042C314.491 285.959 361.062 401.39 234.561 403.206L237.869 379.456L261.161 351.836L228.62 336.063L209.468 305.444L184.356 331.424L181.742 332.074C40.672 315.307 25.9001 404.639 108.64 449.896L101.074 457.912L71.2476 448.87L92.181 473.764L82.5959 500.632L105.649 480.95L135.455 492.381L116.205 464.664L119.178 455.169C158.744 473.267 216.684 481.803 290.612 468.256C137.847 489.344 59.8303 381.115 151.637 344.634L166.234 371.957L163.699 407.947L199.329 401.648L211.529 406.584C349.852 471.405 400.05 353.571 320.438 294.293L329.549 280.256L359 269.832L332.441 260.475L322.577 231.001V231ZM67.8798 262.211L70.9504 278.696L58.6109 292.594L75.8621 290.541L86.993 305.288L87.4284 286.671L103.133 275.359L82.0806 274.273L67.8798 262.211ZM295.127 450.784L304.158 483.418L284.273 509.358L315.703 501.343L337.054 523L335.45 490.525L357.77 471.336L325.072 472.323L295.126 450.784L295.127 450.784Z" fill="#5347F5"/>
<path d="M322.577 231L311.109 257.672L280.332 261.402L307.049 277.61L307.921 286.12C279.184 269.608 237.67 259.892 182.117 264.283L169.323 262.171L154.034 237.908L154.351 263.038L123.157 273.423L158.054 276.306L163.024 297.646L173.858 273.779L185.206 272.042C314.491 285.959 361.062 401.39 234.561 403.206L237.869 379.456L261.161 351.836L228.62 336.063L209.468 305.444L184.356 331.424L181.742 332.074C40.672 315.307 25.9001 404.639 108.64 449.896L101.074 457.912L71.2476 448.87L92.181 473.764L82.5959 500.632L105.649 480.95L135.455 492.381L116.205 464.664L119.178 455.169C158.744 473.267 216.684 481.803 290.612 468.256C137.847 489.344 59.8303 381.115 151.637 344.634L166.234 371.957L163.699 407.947L199.329 401.648L211.529 406.584C349.852 471.405 400.05 353.571 320.438 294.293L329.549 280.256L359 269.832L332.441 260.475L322.577 231.001V231ZM67.8798 262.211L70.9504 278.696L58.6109 292.594L75.8621 290.541L86.993 305.288L87.4284 286.671L103.133 275.359L82.0806 274.273L67.8798 262.211ZM295.127 450.784L304.158 483.418L284.273 509.358L315.703 501.343L337.054 523L335.45 490.525L357.77 471.336L325.072 472.323L295.126 450.784L295.127 450.784Z" fill="#EE82C7"/>
<path d="M295.491 213.409L288.829 241.667L259.167 250.685L288.293 262.007L290.629 270.236C259.462 258.966 216.891 256.606 162.944 270.577L149.979 270.719L130.708 249.479L135.384 274.173L106.467 289.816L141.335 286.596L149.936 306.748L156.46 281.363L167.335 277.681C297.072 268.937 362.979 374.527 238.716 398.282L237.85 374.319L255.991 343.074L221.206 333.191L197.028 306.363L176.808 336.309L174.347 337.404C32.5089 345.387 33.4737 435.927 122.815 466.129L116.756 475.337L85.8129 471.611L110.751 492.492L105.977 520.616L125.263 497.23L156.601 503.312L132.83 479.359L134.109 469.492C176.216 480.444 234.759 478.789 305.211 452.611C158.429 499.906 62.8035 406.869 146.881 355L166.001 379.372L169.754 415.256L203.748 402.866L216.62 405.608C364.098 445.425 393.071 320.664 304.375 276.112L310.91 260.706L338.104 245.326L310.323 240.723L295.491 213.41L295.491 213.409ZM50.0832 288.373L55.9698 304.075L46.2312 319.904L62.8638 314.887L76.3864 327.477L73.5823 309.067L87.0843 295.2L66.1628 297.786L50.0832 288.373ZM306.623 434.62L321.184 465.19L306.106 494.19L335.667 480.838L360.453 498.459L353.235 466.756L371.883 443.982L339.853 450.632L306.623 434.621L306.623 434.62Z" fill="#5347F5"/>
<line x1="208" y1="113" x2="208" stroke="#CCFD51" stroke-width="2"/>
<line x1="210" y1="113" x2="210" stroke="#CCFD51" stroke-width="2"/>
<line y1="-1" x2="113" y2="-1" transform="matrix(0 1 1 0 209 640)" stroke="#CCFD51" stroke-width="2"/>
<line y1="-1" x2="113" y2="-1" transform="matrix(0 1 1 0 211 640)" stroke="#CCFD51" stroke-width="2"/>
<line y1="-1" x2="113" y2="-1" transform="matrix(0 1 1 0 209 145)" stroke="#CCFD51" stroke-width="2"/>
<line y1="-1" x2="113" y2="-1" transform="matrix(0 1 1 0 211 145)" stroke="#CCFD51" stroke-width="2"/>
<line y1="-1" x2="113" y2="-1" transform="matrix(0 1 1 0 209 495)" stroke="#CCFD51" stroke-width="2"/>
<line y1="-1" x2="113" y2="-1" transform="matrix(0 1 1 0 211 495)" stroke="#CCFD51" stroke-width="2"/>
<path d="M67.625 359.094V356.156C67.625 355.302 67.9062 354.594 68.4688 354.031C69.0312 353.469 69.7396 353.188 70.5938 353.188H110.25C111.104 353.188 111.812 353.469 112.375 354.031C112.938 354.594 113.219 355.302 113.219 356.156V359.094C113.219 359.948 112.938 360.656 112.375 361.219C111.812 361.76 111.104 362.031 110.25 362.031H96.3125V395.125C96.3125 395.938 96.0208 396.625 95.4375 397.188C94.875 397.729 94.1875 398 93.375 398H87.4688C86.6562 398 85.9583 397.729 85.375 397.188C84.8125 396.625 84.5312 395.938 84.5312 395.125V362.031H70.5938C69.7396 362.031 69.0312 361.76 68.4688 361.219C67.9062 360.656 67.625 359.948 67.625 359.094ZM118.344 395V356.094C118.344 355.281 118.635 354.594 119.219 354.031C119.802 353.469 120.5 353.188 121.312 353.188H157.344C158.156 353.188 158.844 353.479 159.406 354.062C159.99 354.646 160.281 355.344 160.281 356.156V359.094C160.281 359.906 159.99 360.604 159.406 361.188C158.844 361.75 158.156 362.031 157.344 362.031H130.125V371.125H153.562C154.375 371.125 155.062 371.417 155.625 372C156.208 372.562 156.5 373.25 156.5 374.062V377C156.5 377.812 156.208 378.51 155.625 379.094C155.062 379.656 154.375 379.938 153.562 379.938H130.125V389.156H157.281C158.073 389.156 158.75 389.438 159.312 390C159.875 390.562 160.156 391.25 160.156 392.062V395.062C160.156 395.875 159.865 396.573 159.281 397.156C158.698 397.719 158 398 157.188 398H121.312C120.5 398 119.802 397.719 119.219 397.156C118.635 396.573 118.344 395.854 118.344 395ZM212.562 396.656C212.562 397.552 212.031 398 210.969 398H203.469C202.677 398 201.802 397.719 200.844 397.156C199.906 396.573 199.188 395.875 198.688 395.062L193.375 386.75C191.188 383.333 188.542 381.625 185.438 381.625H177.812V395.062C177.812 395.875 177.521 396.573 176.938 397.156C176.375 397.719 175.688 398 174.875 398H169C168.188 398 167.49 397.719 166.906 397.156C166.323 396.573 166.031 395.875 166.031 395.062V356.156C166.031 355.344 166.312 354.646 166.875 354.062C167.438 353.479 168.125 353.188 168.938 353.188H194.719C199.49 353.188 203.396 354.469 206.438 357.031C209.5 359.594 211.031 363.052 211.031 367.406C211.031 373.469 207.104 377.271 199.25 378.812C200.5 379.271 201.656 380.062 202.719 381.188C203.781 382.292 205 383.906 206.375 386.031L212.062 395.062C212.396 395.646 212.562 396.177 212.562 396.656ZM177.812 372.781H191.125C193.271 372.781 195.156 372.354 196.781 371.5C198.427 370.646 199.25 369.281 199.25 367.406C199.25 365.531 198.427 364.167 196.781 363.312C195.156 362.458 193.271 362.031 191.125 362.031H177.812V372.781ZM217.781 395V356.219C217.781 355.365 218.062 354.646 218.625 354.062C219.188 353.479 219.875 353.188 220.688 353.188H233.406C234.219 353.188 234.99 353.479 235.719 354.062C236.448 354.646 236.938 355.344 237.188 356.156L246.406 382.844L255.625 356.156C255.875 355.344 256.365 354.646 257.094 354.062C257.823 353.479 258.594 353.188 259.406 353.188H272.125C272.938 353.188 273.615 353.479 274.156 354.062C274.719 354.646 275 355.365 275 356.219V395C275 395.854 274.708 396.573 274.125 397.156C273.562 397.719 272.875 398 272.062 398H266.438C265.625 398 264.927 397.719 264.344 397.156C263.781 396.573 263.5 395.854 263.5 395V364.469L252.469 395.188C252.177 395.958 251.667 396.625 250.938 397.188C250.208 397.729 249.438 398 248.625 398H244.156C243.344 398 242.573 397.729 241.844 397.188C241.135 396.625 240.625 395.958 240.312 395.188L229.312 364.469V395C229.312 395.854 229.021 396.573 228.438 397.156C227.875 397.719 227.188 398 226.375 398H220.75C219.938 398 219.24 397.719 218.656 397.156C218.073 396.573 217.781 395.854 217.781 395ZM303.844 395.062V390.5C303.844 387.854 304.385 385.562 305.469 383.625C306.573 381.688 307.979 380.167 309.688 379.062C311.396 377.958 313.292 377.01 315.375 376.219C317.458 375.427 319.542 374.792 321.625 374.312C323.729 373.812 325.635 373.312 327.344 372.812C331.219 371.646 333.156 369.99 333.156 367.844C333.156 365.51 332.552 363.917 331.344 363.062C330.135 362.208 328.094 361.781 325.219 361.781H323C318.979 361.781 316.333 363.062 315.062 365.625C314.125 367.583 312.719 368.562 310.844 368.562H307.125C306.104 368.562 305.312 368.198 304.75 367.469C304.188 366.74 303.906 365.948 303.906 365.094C303.906 362.719 304.812 360.583 306.625 358.688C308.458 356.771 310.729 355.333 313.438 354.375C316.146 353.417 318.969 352.938 321.906 352.938H326.125C335.271 352.938 341.062 355.479 343.5 360.562C344.458 362.562 344.938 364.885 344.938 367.531C344.938 370.177 344.396 372.427 343.312 374.281C342.229 376.135 340.833 377.615 339.125 378.719C337.417 379.802 335.51 380.74 333.406 381.531C331.323 382.323 329.24 382.979 327.156 383.5C325.073 384 323.177 384.479 321.469 384.938C317.573 386.021 315.625 387.427 315.625 389.156H341.562C342.417 389.156 343.125 389.448 343.688 390.031C344.271 390.615 344.562 391.312 344.562 392.125V395.062C344.562 395.875 344.26 396.573 343.656 397.156C343.073 397.719 342.375 398 341.562 398H306.875C306.062 398 305.354 397.719 304.75 397.156C304.146 396.573 303.844 395.875 303.844 395.062Z" fill="#CCFD51"/>
<rect x="418" y="753" width="418" height="753" rx="24" transform="rotate(180 418 753)" fill="white"/>
<path d="M375.616 664.595C375.262 665.396 375.085 665.796 374.839 665.92C374.625 666.027 374.374 666.027 374.161 665.92C373.915 665.796 373.738 665.396 373.384 664.595L370.569 658.218C370.465 657.981 370.412 657.863 370.331 657.772C370.26 657.692 370.173 657.628 370.075 657.584C369.965 657.534 369.837 657.521 369.582 657.493L362.705 656.761C361.842 656.669 361.41 656.623 361.218 656.424C361.051 656.252 360.973 656.011 361.008 655.773C361.048 655.498 361.371 655.205 362.015 654.618L367.152 649.943C367.343 649.77 367.438 649.683 367.499 649.578C367.552 649.484 367.586 649.38 367.597 649.273C367.609 649.152 367.583 649.025 367.53 648.771L366.095 641.941C365.915 641.083 365.824 640.655 365.952 640.409C366.062 640.195 366.266 640.046 366.501 640.006C366.772 639.96 367.148 640.179 367.9 640.617L373.89 644.105C374.112 644.235 374.223 644.299 374.341 644.325C374.446 644.347 374.554 644.347 374.659 644.325C374.777 644.299 374.888 644.235 375.11 644.105L381.1 640.617C381.852 640.179 382.228 639.96 382.499 640.006C382.734 640.046 382.937 640.195 383.048 640.409C383.175 640.655 383.085 641.083 382.905 641.941L381.47 648.771C381.417 649.025 381.391 649.152 381.403 649.273C381.414 649.38 381.448 649.484 381.501 649.578C381.562 649.683 381.657 649.77 381.848 649.943L386.984 654.618C387.629 655.205 387.952 655.498 387.992 655.773C388.027 656.011 387.949 656.252 387.782 656.424C387.59 656.623 387.158 656.669 386.295 656.761L379.418 657.493C379.163 657.521 379.035 657.534 378.925 657.584C378.827 657.628 378.74 657.692 378.668 657.772C378.588 657.863 378.535 657.981 378.431 658.218L375.616 664.595Z" fill="#EE82C7"/>
<path d="M391.06 680V685.46H368.758C366.098 685.46 364.768 686.594 364.768 688.862C364.768 691.13 366.098 692.264 368.758 692.264H391.06V709.988H359.476V704.57H384.55V697.724H367.456C364.544 697.724 362.29 696.94 360.694 695.372C359.07 693.804 358.258 691.634 358.258 688.862C358.258 686.09 359.07 683.92 360.694 682.352C362.29 680.784 364.544 680 367.456 680H391.06Z" fill="#5347F5"/>
<path d="M42.3845 87.4046C42.7379 86.604 42.9147 86.2036 43.1608 86.0803C43.3745 85.9732 43.6255 85.9732 43.8392 86.0803C44.0854 86.2036 44.2621 86.604 44.6156 87.4046L47.4308 93.7822C47.5354 94.0189 47.5876 94.1372 47.6685 94.2279C47.74 94.3081 47.8275 94.3722 47.925 94.4161C48.0354 94.4658 48.163 94.4794 48.4183 94.5065L55.295 95.2394C56.1584 95.3314 56.59 95.3775 56.7822 95.5757C56.9491 95.7479 57.0266 95.989 56.9918 96.2274C56.9518 96.5018 56.6294 96.7951 55.9845 97.382L50.8476 102.057C50.6571 102.23 50.5616 102.317 50.5013 102.422C50.4479 102.516 50.4145 102.62 50.4033 102.727C50.3907 102.848 50.4172 102.975 50.4705 103.229L51.9053 110.059C52.0854 110.917 52.1755 111.345 52.0482 111.591C51.9375 111.805 51.7345 111.954 51.4992 111.994C51.2284 112.04 50.8523 111.821 50.1003 111.383L44.1102 107.895C43.888 107.765 43.7768 107.701 43.6586 107.675C43.5541 107.653 43.446 107.653 43.3414 107.675C43.2232 107.701 43.1121 107.765 42.8898 107.895L36.8998 111.383C36.1478 111.821 35.7718 112.04 35.5009 111.994C35.2656 111.954 35.0625 111.805 34.9519 111.591C34.8246 111.345 34.9147 110.917 35.0948 110.059L36.5295 103.229C36.5828 102.975 36.6094 102.848 36.5968 102.727C36.5856 102.62 36.5522 102.516 36.4988 102.422C36.4384 102.317 36.343 102.23 36.1524 102.057L31.0156 97.382C30.3707 96.7951 30.0483 96.5018 30.0082 96.2274C29.9734 95.989 30.0509 95.7479 30.2179 95.5757C30.41 95.3775 30.8417 95.3314 31.7051 95.2394L38.5818 94.5065C38.837 94.4794 38.9646 94.4658 39.075 94.4161C39.1726 94.3722 39.26 94.3081 39.3316 94.2279C39.4124 94.1372 39.4647 94.0189 39.5692 93.7822L42.3845 87.4046Z" fill="#EE82C7"/>
<path d="M26.94 72V66.54H49.242C51.902 66.54 53.232 65.406 53.232 63.138C53.232 60.87 51.902 59.736 49.242 59.736H26.94V42.012H58.524V47.43H33.45V54.276H50.544C53.456 54.276 55.71 55.06 57.306 56.628C58.93 58.196 59.742 60.366 59.742 63.138C59.742 65.91 58.93 68.08 57.306 69.648C55.71 71.216 53.456 72 50.544 72H26.94Z" fill="#5347F5"/>
<path fill-rule="evenodd" clip-rule="evenodd" d="M43.3028 732C30.048 732 19.3028 721.255 19.3028 708V375V163.091C19.3028 149.879 30.1768 139.556 42.9359 136.125C63.2801 130.654 77.4382 118.466 77.4382 104.308V42C77.4382 28.7452 88.1834 18 101.438 18H375C388.255 18 399 28.7451 399 42V375V586.909C399 600.121 388.126 610.444 375.367 613.875C355.023 619.346 340.865 631.534 340.865 645.692V708C340.865 721.255 330.119 732 316.865 732H43.3028Z" fill="#1279F2"/>
<mask id="mask0_60_363" style="mask-type:alpha" maskUnits="userSpaceOnUse" x="19" y="18" width="380" height="714">
<path fill-rule="evenodd" clip-rule="evenodd" d="M43.3028 732C30.048 732 19.3028 721.255 19.3028 708V375V163.091C19.3028 149.879 30.1768 139.556 42.9359 136.125C63.2801 130.654 77.4382 118.466 77.4382 104.308V42C77.4382 28.7452 88.1834 18 101.438 18H375C388.255 18 399 28.7451 399 42V375V586.909C399 600.121 388.126 610.444 375.367 613.875C355.023 619.346 340.865 631.534 340.865 645.692V708C340.865 721.255 330.119 732 316.865 732H43.3028Z" fill="#CCFD51"/>
</mask>
<g mask="url(#mask0_60_363)">
<path fill-rule="evenodd" clip-rule="evenodd" d="M55.0764 660.701C33.38 663.333 18.0104 660.961 1.59741 658.428C1.06613 658.346 0.533722 658.264 0 658.181V538H490V666H355.909C336.476 658.736 313.41 655.547 280.562 655.091C249.611 654.661 232.169 647.925 213.259 640.623C199.989 635.498 185.996 630.095 166.105 626.395C136.731 620.933 112.259 622.537 100.665 640.315C94.053 650.453 82.3871 653.194 71.109 655.843C65.4358 657.175 59.8607 658.485 55.0764 660.701Z" fill="#CCFD51"/>
<path d="M160.437 592.048C233.483 600.559 256.793 605.145 306.63 620.814C380.634 644.076 493.114 653.345 527.953 623.262C554.742 600.125 533.444 566.963 479.723 548.167C389.262 516.514 218.55 498.227 110.848 508.143C17.9967 516.689 -13.9389 545.118 41.4986 569.875C60.3009 578.272 90.4739 583.898 160.437 592.048Z" fill="#CCFD51"/>
<path d="M224.5 139L231.263 184.758L251.25 143.021L244.188 188.734L275.624 154.726L255.365 196.333L295.454 173.076L263.798 206.879L308.981 196.44L268.74 219.436L315 222.742L269.75 232.887L312.979 249.645L266.74 246.038L303.095 274.758L259.978 257.72L286.228 295.851L250.062 266.895L263.877 311.048L237.875 272.748L238.027 319L224.5 274.758L210.974 319L211.125 272.748L185.124 311.048L198.938 266.895L162.772 295.851L189.023 257.72L145.905 274.758L182.26 246.038L136.022 249.645L179.25 232.887L134 222.742L180.261 219.436L140.02 196.44L185.203 206.879L153.546 173.076L193.636 196.333L173.377 154.726L204.812 188.734L197.75 143.021L217.737 184.758L224.5 139Z" fill="#CCFD51"/>
<path d="M282.94 374.091L285.892 393.919L294.615 375.833L291.533 395.642L305.253 380.906L296.411 398.935L313.909 388.857L300.092 403.505L319.812 398.981L302.249 408.946L322.44 410.379L302.69 414.775L321.557 422.037L301.376 420.474L317.244 432.919L298.424 425.536L309.882 442.059L294.097 429.512L300.126 448.645L288.778 432.048L288.844 452.091L282.94 432.919L277.036 452.091L277.102 432.048L265.753 448.645L271.783 429.512L255.998 442.059L267.455 425.536L248.636 432.919L264.503 420.474L244.322 422.037L263.19 414.775L243.44 410.379L263.631 408.946L246.067 398.981L265.788 403.505L251.971 388.857L269.469 398.935L260.626 380.906L274.347 395.642L271.264 375.833L279.988 393.919L282.94 374.091Z" fill="white"/>
<path d="M84.5001 140L87.4518 159.829L96.1756 141.742L93.0933 161.551L106.814 146.815L97.9713 164.844L115.469 154.766L101.652 169.414L121.373 164.891L103.809 174.856L124 176.288L104.25 180.684L123.118 187.946L102.936 186.383L118.804 198.829L99.9847 191.446L111.442 207.969L95.6568 195.421L101.686 214.554L90.3378 197.957L90.4038 218L84.5001 198.829L78.5963 218L78.6623 197.957L67.3136 214.554L73.3433 195.421L57.5579 207.969L69.0156 191.446L50.1961 198.829L66.0637 186.383L45.8824 187.946L64.75 180.684L45 176.288L65.1912 174.856L47.6274 164.891L67.3481 169.414L53.5311 154.766L71.0289 164.844L62.1865 146.815L75.9069 161.551L72.8246 141.742L81.5483 159.829L84.5001 140Z" fill="white"/>
<path d="M346.5 268L349.452 287.829L358.176 269.742L355.093 289.551L368.814 274.815L359.971 292.844L377.469 282.766L363.652 297.414L383.373 292.891L365.809 302.856L386 304.288L366.25 308.684L385.118 315.946L364.936 314.383L380.804 326.829L361.985 319.446L373.442 335.969L357.657 323.421L363.686 342.554L352.338 325.957L352.404 346L346.5 326.829L340.596 346L340.662 325.957L329.314 342.554L335.343 323.421L319.558 335.969L331.016 319.446L312.196 326.829L328.064 314.383L307.882 315.946L326.75 308.684L307 304.288L327.191 302.856L309.627 292.891L329.348 297.414L315.531 282.766L333.029 292.844L324.186 274.815L337.907 289.551L334.825 269.742L343.548 287.829L346.5 268Z" fill="white"/>
<path d="M354.5 112L357.452 131.829L366.176 113.742L363.093 133.551L376.814 118.815L367.971 136.844L385.469 126.766L371.652 141.414L391.373 136.891L373.809 146.856L394 148.288L374.25 152.684L393.118 159.946L372.936 158.383L388.804 170.829L369.985 163.446L381.442 179.969L365.657 167.421L371.686 186.554L360.338 169.957L360.404 190L354.5 170.829L348.596 190L348.662 169.957L337.314 186.554L343.343 167.421L327.558 179.969L339.016 163.446L320.196 170.829L336.064 158.383L315.882 159.946L334.75 152.684L315 148.288L335.191 146.856L317.627 136.891L337.348 141.414L323.531 126.766L341.029 136.844L332.186 118.815L345.907 133.551L342.825 113.742L351.548 131.829L354.5 112Z" fill="white"/>
<path d="M82.5001 383L85.4518 402.829L94.1756 384.742L91.0933 404.551L104.814 389.815L95.9713 407.844L113.469 397.766L99.6522 412.414L119.373 407.891L101.809 417.856L122 419.288L102.25 423.684L121.118 430.946L100.936 429.383L116.804 441.829L97.9847 434.446L109.442 450.969L93.6568 438.421L99.6865 457.554L88.3378 440.957L88.4038 461L82.5001 441.829L76.5963 461L76.6623 440.957L65.3136 457.554L71.3433 438.421L55.5579 450.969L67.0156 434.446L48.1961 441.829L64.0637 429.383L43.8824 430.946L62.75 423.684L43 419.288L63.1912 417.856L45.6274 407.891L65.3481 412.414L51.5311 397.766L69.0289 407.844L60.1865 389.815L73.9069 404.551L70.8246 384.742L79.5483 402.829L82.5001 383Z" fill="white"/>
<path d="M148.5 308L151.452 327.829L160.176 309.742L157.093 329.551L170.814 314.815L161.971 332.844L179.469 322.766L165.652 337.414L185.373 332.891L167.809 342.856L188 344.288L168.25 348.684L187.118 355.946L166.936 354.383L182.804 366.829L163.985 359.446L175.442 375.969L159.657 363.421L165.686 382.554L154.338 365.957L154.404 386L148.5 366.829L142.596 386L142.662 365.957L131.314 382.554L137.343 363.421L121.558 375.969L133.016 359.446L114.196 366.829L130.064 354.383L109.882 355.946L128.75 348.684L109 344.288L129.191 342.856L111.627 332.891L131.348 337.414L117.531 322.766L135.029 332.844L126.186 314.815L139.907 329.551L136.825 309.742L145.548 327.829L148.5 308Z" fill="white"/>
<path d="M69.5001 237L72.4518 256.829L81.1756 238.742L78.0933 258.551L91.8136 243.815L82.9713 261.844L100.469 251.766L86.6522 266.414L106.373 261.891L88.809 271.856L109 273.288L89.25 277.684L108.118 284.946L87.9364 283.383L103.804 295.829L84.9847 288.446L96.4422 304.969L80.6568 292.421L86.6865 311.554L75.3378 294.957L75.4038 315L69.5001 295.829L63.5963 315L63.6623 294.957L52.3136 311.554L58.3433 292.421L42.5579 304.969L54.0156 288.446L35.1961 295.829L51.0637 283.383L30.8824 284.946L49.75 277.684L30 273.288L50.1912 271.856L32.6274 261.891L52.3481 266.414L38.5311 251.766L56.0289 261.844L47.1865 243.815L60.9069 258.551L57.8246 238.742L66.5483 256.829L69.5001 237Z" fill="white"/>
</g>
<path d="M335.751 514.698C335.066 514.577 334.591 514.318 334.328 513.922C334.067 513.518 333.986 513.037 334.085 512.478L334.591 509.618L332.83 509.306L333.071 507.948L334.831 508.259L335.162 506.392L336.875 506.696L336.545 508.563L339.073 509.01L338.833 510.369L336.304 509.921L335.836 512.568C335.751 513.049 335.944 513.331 336.417 513.415L338.567 513.795L338.327 515.154L335.751 514.698ZM339.208 515.31L340.704 506.862L342.417 507.165L341.999 509.528L345.591 510.164C346.284 510.287 346.757 510.549 347.011 510.952C347.274 511.348 347.356 511.825 347.257 512.385L346.51 516.603L344.797 516.3L345.508 512.282C345.592 511.809 345.397 511.531 344.925 511.448L341.758 510.887L340.921 515.613L339.208 515.31ZM350.856 517.433C349.8 517.246 349.023 516.841 348.524 516.216C348.027 515.584 347.868 514.76 348.048 513.743C348.229 512.719 348.662 512 349.344 511.584C350.029 511.161 350.899 511.043 351.954 511.23L354.908 511.753C355.601 511.875 356.1 512.134 356.404 512.529C356.717 512.918 356.82 513.415 356.712 514.022C356.493 515.259 355.671 515.751 354.245 515.499L349.779 514.708C349.814 515.47 350.254 515.925 351.096 516.074L355.882 516.922L355.641 518.281L350.856 517.433ZM351.714 512.589C350.902 512.445 350.341 512.699 350.031 513.351L354.403 514.125C354.56 514.153 354.691 514.127 354.794 514.048C354.906 513.97 354.976 513.849 355.005 513.683C355.064 513.352 354.924 513.157 354.585 513.097L351.714 512.589ZM360.944 519.219L361.185 517.86L366.975 518.886C367.306 518.944 367.504 518.788 367.569 518.418C367.633 518.056 367.5 517.845 367.169 517.787L363.424 517.123C362.722 516.999 362.219 516.748 361.912 516.368C361.607 515.981 361.507 515.488 361.613 514.89C361.721 514.283 361.984 513.85 362.404 513.592C362.832 513.326 363.393 513.255 364.087 513.378L369.475 514.332L369.234 515.691L363.929 514.751C363.59 514.691 363.391 514.827 363.333 515.158C363.304 515.323 363.328 515.461 363.406 515.573C363.483 515.684 363.597 515.753 363.747 515.779L367.717 516.482C368.332 516.591 368.772 516.835 369.037 517.216C369.313 517.589 369.396 518.079 369.289 518.686C369.18 519.3 368.93 519.752 368.537 520.04C368.147 520.32 367.648 520.406 367.041 520.299L360.944 519.219ZM373.127 521.315C372.441 521.194 371.967 520.935 371.704 520.539C371.443 520.136 371.361 519.654 371.46 519.095L371.967 516.235L370.206 515.924L370.447 514.565L372.207 514.876L372.538 513.009L374.251 513.313L373.921 515.18L376.449 515.627L376.209 516.986L373.68 516.539L373.211 519.185C373.126 519.666 373.32 519.948 373.793 520.032L375.943 520.412L375.703 521.771L373.127 521.315ZM378.202 522.214C377.564 522.101 377.105 521.853 376.823 521.47C376.541 521.087 376.454 520.596 376.56 519.998C376.664 519.407 376.914 518.98 377.31 518.717C377.706 518.454 378.223 518.379 378.861 518.492L383.399 519.295L383.449 519.011C383.534 518.531 383.34 518.249 382.868 518.165L377.858 517.278L378.098 515.919L383.557 516.886C384.274 517.013 384.753 517.268 384.994 517.652C385.236 518.028 385.305 518.511 385.2 519.102L384.453 523.321L378.202 522.214ZM378.75 520.909L382.98 521.658L383.158 520.654L378.928 519.905C378.778 519.879 378.652 519.905 378.548 519.984C378.454 520.057 378.394 520.168 378.368 520.318C378.341 520.467 378.359 520.596 378.421 520.705C378.491 520.815 378.601 520.883 378.75 520.909ZM385.757 523.551L386.835 517.466L391.49 518.29C392.176 518.412 392.649 518.674 392.911 519.078C393.174 519.474 393.256 519.951 393.157 520.511L392.933 521.775L391.196 521.468L391.382 520.416C391.466 519.943 391.271 519.665 390.799 519.581L388.329 519.144L387.494 523.859L385.757 523.551Z" fill="#5347F5"/>
</svg>
