<svg width="418" height="753" viewBox="0 0 418 753" fill="none" xmlns="http://www.w3.org/2000/svg">
<rect width="418" height="753" rx="24" fill="#1279F2"/>
<path d="M207.479 74.3513C207.693 72.5496 210.307 72.5496 210.521 74.3513L212.315 89.4656C214.63 108.982 230.018 124.37 249.534 126.685L264.649 128.479C266.45 128.693 266.45 131.307 264.649 131.521L249.534 133.315C230.018 135.63 214.63 151.018 212.315 170.534L210.521 185.649C210.307 187.45 207.693 187.45 207.479 185.649L205.685 170.534C203.37 151.018 187.982 135.63 168.466 133.315L153.351 131.521C151.55 131.307 151.55 128.693 153.351 128.479L168.466 126.685C187.982 124.37 203.37 108.982 205.685 89.4656L207.479 74.3513Z" fill="#CCFD51"/>
<path d="M207.479 567.351C207.693 565.55 210.307 565.55 210.521 567.351L212.315 582.466C214.63 601.982 230.018 617.37 249.534 619.685L264.649 621.479C266.45 621.693 266.45 624.307 264.649 624.521L249.534 626.315C230.018 628.63 214.63 644.018 212.315 663.534L210.521 678.649C210.307 680.45 207.693 680.45 207.479 678.649L205.685 663.534C203.37 644.018 187.982 628.63 168.466 626.315L153.351 624.521C151.55 624.307 151.55 621.693 153.351 621.479L168.466 619.685C187.982 617.37 203.37 601.982 205.685 582.466L207.479 567.351Z" fill="#CCFD51"/>
<path d="M322.577 231L311.109 257.672L280.332 261.402L307.049 277.61L307.921 286.12C279.184 269.608 237.67 259.892 182.117 264.283L169.323 262.171L154.034 237.908L154.351 263.038L123.157 273.423L158.054 276.306L163.024 297.646L173.858 273.779L185.206 272.042C314.491 285.959 361.062 401.39 234.561 403.206L237.869 379.456L261.161 351.836L228.62 336.063L209.468 305.444L184.356 331.424L181.742 332.074C40.672 315.307 25.9001 404.639 108.64 449.896L101.074 457.912L71.2476 448.87L92.181 473.764L82.5959 500.632L105.649 480.95L135.455 492.381L116.205 464.664L119.178 455.169C158.744 473.267 216.684 481.803 290.612 468.256C137.847 489.344 59.8303 381.115 151.637 344.634L166.234 371.957L163.699 407.947L199.329 401.648L211.529 406.584C349.852 471.405 400.05 353.571 320.438 294.293L329.549 280.256L359 269.832L332.441 260.475L322.577 231.001V231ZM67.8798 262.211L70.9504 278.696L58.6109 292.594L75.8621 290.541L86.993 305.288L87.4284 286.671L103.133 275.359L82.0806 274.273L67.8798 262.211ZM295.127 450.784L304.158 483.418L284.273 509.358L315.703 501.343L337.054 523L335.45 490.525L357.77 471.336L325.072 472.323L295.126 450.784L295.127 450.784Z" fill="#5347F5"/>
<path d="M322.577 231L311.109 257.672L280.332 261.402L307.049 277.61L307.921 286.12C279.184 269.608 237.67 259.892 182.117 264.283L169.323 262.171L154.034 237.908L154.351 263.038L123.157 273.423L158.054 276.306L163.024 297.646L173.858 273.779L185.206 272.042C314.491 285.959 361.062 401.39 234.561 403.206L237.869 379.456L261.161 351.836L228.62 336.063L209.468 305.444L184.356 331.424L181.742 332.074C40.672 315.307 25.9001 404.639 108.64 449.896L101.074 457.912L71.2476 448.87L92.181 473.764L82.5959 500.632L105.649 480.95L135.455 492.381L116.205 464.664L119.178 455.169C158.744 473.267 216.684 481.803 290.612 468.256C137.847 489.344 59.8303 381.115 151.637 344.634L166.234 371.957L163.699 407.947L199.329 401.648L211.529 406.584C349.852 471.405 400.05 353.571 320.438 294.293L329.549 280.256L359 269.832L332.441 260.475L322.577 231.001V231ZM67.8798 262.211L70.9504 278.696L58.6109 292.594L75.8621 290.541L86.993 305.288L87.4284 286.671L103.133 275.359L82.0806 274.273L67.8798 262.211ZM295.127 450.784L304.158 483.418L284.273 509.358L315.703 501.343L337.054 523L335.45 490.525L357.77 471.336L325.072 472.323L295.126 450.784L295.127 450.784Z" fill="#EE82C7"/>
<path d="M295.491 213.409L288.829 241.667L259.167 250.685L288.293 262.007L290.629 270.236C259.462 258.966 216.891 256.606 162.944 270.577L149.979 270.719L130.708 249.479L135.384 274.173L106.467 289.816L141.335 286.596L149.936 306.748L156.46 281.363L167.335 277.681C297.072 268.937 362.979 374.527 238.716 398.282L237.85 374.319L255.991 343.074L221.206 333.191L197.028 306.363L176.808 336.309L174.347 337.404C32.5089 345.387 33.4737 435.927 122.815 466.129L116.756 475.337L85.8129 471.611L110.751 492.492L105.977 520.616L125.263 497.23L156.601 503.312L132.83 479.359L134.109 469.492C176.216 480.444 234.759 478.789 305.211 452.611C158.429 499.906 62.8035 406.869 146.881 355L166.001 379.372L169.754 415.256L203.748 402.866L216.62 405.608C364.098 445.425 393.071 320.664 304.375 276.112L310.91 260.706L338.104 245.326L310.323 240.723L295.491 213.41L295.491 213.409ZM50.0832 288.373L55.9698 304.075L46.2312 319.904L62.8638 314.887L76.3864 327.477L73.5823 309.067L87.0843 295.2L66.1628 297.786L50.0832 288.373ZM306.623 434.62L321.184 465.19L306.106 494.19L335.667 480.838L360.453 498.459L353.235 466.756L371.883 443.982L339.853 450.632L306.623 434.621L306.623 434.62Z" fill="#5347F5"/>
<line x1="208" y1="113" x2="208" stroke="#CCFD51" stroke-width="2"/>
<line x1="210" y1="113" x2="210" stroke="#CCFD51" stroke-width="2"/>
<line y1="-1" x2="113" y2="-1" transform="matrix(0 1 1 0 209 640)" stroke="#CCFD51" stroke-width="2"/>
<line y1="-1" x2="113" y2="-1" transform="matrix(0 1 1 0 211 640)" stroke="#CCFD51" stroke-width="2"/>
<line y1="-1" x2="113" y2="-1" transform="matrix(0 1 1 0 209 145)" stroke="#CCFD51" stroke-width="2"/>
<line y1="-1" x2="113" y2="-1" transform="matrix(0 1 1 0 211 145)" stroke="#CCFD51" stroke-width="2"/>
<line y1="-1" x2="113" y2="-1" transform="matrix(0 1 1 0 209 495)" stroke="#CCFD51" stroke-width="2"/>
<line y1="-1" x2="113" y2="-1" transform="matrix(0 1 1 0 211 495)" stroke="#CCFD51" stroke-width="2"/>
<path d="M76.625 359.094V356.156C76.625 355.302 76.9062 354.594 77.4688 354.031C78.0312 353.469 78.7396 353.188 79.5938 353.188H119.25C120.104 353.188 120.812 353.469 121.375 354.031C121.938 354.594 122.219 355.302 122.219 356.156V359.094C122.219 359.948 121.938 360.656 121.375 361.219C120.812 361.76 120.104 362.031 119.25 362.031H105.312V395.125C105.312 395.938 105.021 396.625 104.438 397.188C103.875 397.729 103.188 398 102.375 398H96.4688C95.6562 398 94.9583 397.729 94.375 397.188C93.8125 396.625 93.5312 395.938 93.5312 395.125V362.031H79.5938C78.7396 362.031 78.0312 361.76 77.4688 361.219C76.9062 360.656 76.625 359.948 76.625 359.094ZM127.344 395V356.094C127.344 355.281 127.635 354.594 128.219 354.031C128.802 353.469 129.5 353.188 130.312 353.188H166.344C167.156 353.188 167.844 353.479 168.406 354.062C168.99 354.646 169.281 355.344 169.281 356.156V359.094C169.281 359.906 168.99 360.604 168.406 361.188C167.844 361.75 167.156 362.031 166.344 362.031H139.125V371.125H162.562C163.375 371.125 164.062 371.417 164.625 372C165.208 372.562 165.5 373.25 165.5 374.062V377C165.5 377.812 165.208 378.51 164.625 379.094C164.062 379.656 163.375 379.938 162.562 379.938H139.125V389.156H166.281C167.073 389.156 167.75 389.438 168.312 390C168.875 390.562 169.156 391.25 169.156 392.062V395.062C169.156 395.875 168.865 396.573 168.281 397.156C167.698 397.719 167 398 166.188 398H130.312C129.5 398 128.802 397.719 128.219 397.156C127.635 396.573 127.344 395.854 127.344 395ZM221.562 396.656C221.562 397.552 221.031 398 219.969 398H212.469C211.677 398 210.802 397.719 209.844 397.156C208.906 396.573 208.188 395.875 207.688 395.062L202.375 386.75C200.188 383.333 197.542 381.625 194.438 381.625H186.812V395.062C186.812 395.875 186.521 396.573 185.938 397.156C185.375 397.719 184.688 398 183.875 398H178C177.188 398 176.49 397.719 175.906 397.156C175.323 396.573 175.031 395.875 175.031 395.062V356.156C175.031 355.344 175.312 354.646 175.875 354.062C176.438 353.479 177.125 353.188 177.938 353.188H203.719C208.49 353.188 212.396 354.469 215.438 357.031C218.5 359.594 220.031 363.052 220.031 367.406C220.031 373.469 216.104 377.271 208.25 378.812C209.5 379.271 210.656 380.062 211.719 381.188C212.781 382.292 214 383.906 215.375 386.031L221.062 395.062C221.396 395.646 221.562 396.177 221.562 396.656ZM186.812 372.781H200.125C202.271 372.781 204.156 372.354 205.781 371.5C207.427 370.646 208.25 369.281 208.25 367.406C208.25 365.531 207.427 364.167 205.781 363.312C204.156 362.458 202.271 362.031 200.125 362.031H186.812V372.781ZM226.781 395V356.219C226.781 355.365 227.062 354.646 227.625 354.062C228.188 353.479 228.875 353.188 229.688 353.188H242.406C243.219 353.188 243.99 353.479 244.719 354.062C245.448 354.646 245.938 355.344 246.188 356.156L255.406 382.844L264.625 356.156C264.875 355.344 265.365 354.646 266.094 354.062C266.823 353.479 267.594 353.188 268.406 353.188H281.125C281.938 353.188 282.615 353.479 283.156 354.062C283.719 354.646 284 355.365 284 356.219V395C284 395.854 283.708 396.573 283.125 397.156C282.562 397.719 281.875 398 281.062 398H275.438C274.625 398 273.927 397.719 273.344 397.156C272.781 396.573 272.5 395.854 272.5 395V364.469L261.469 395.188C261.177 395.958 260.667 396.625 259.938 397.188C259.208 397.729 258.438 398 257.625 398H253.156C252.344 398 251.573 397.729 250.844 397.188C250.135 396.625 249.625 395.958 249.312 395.188L238.312 364.469V395C238.312 395.854 238.021 396.573 237.438 397.156C236.875 397.719 236.188 398 235.375 398H229.75C228.938 398 228.24 397.719 227.656 397.156C227.073 396.573 226.781 395.854 226.781 395ZM311.375 364.094C311.125 363.74 311 363.323 311 362.844C311 362.365 311.344 361.833 312.031 361.25L319.656 354.688C320.76 353.708 322.292 353.208 324.25 353.188H328.844C329.698 353.188 330.417 353.479 331 354.062C331.583 354.646 331.875 355.344 331.875 356.156V395.062C331.875 395.875 331.573 396.573 330.969 397.156C330.365 397.719 329.656 398 328.844 398H323.031C322.219 398 321.521 397.729 320.938 397.188C320.375 396.625 320.094 395.938 320.094 395.125V364.906L316.5 367.531C316.083 367.823 315.604 367.917 315.062 367.812C314.521 367.708 314.083 367.469 313.75 367.094L311.375 364.094Z" fill="#CCFD51"/>
<rect x="418" y="753" width="418" height="753" rx="24" transform="rotate(180 418 753)" fill="white"/>
<path d="M375.616 664.595C375.262 665.396 375.085 665.796 374.839 665.92C374.625 666.027 374.374 666.027 374.161 665.92C373.915 665.796 373.738 665.396 373.384 664.595L370.569 658.218C370.465 657.981 370.412 657.863 370.331 657.772C370.26 657.692 370.173 657.628 370.075 657.584C369.965 657.534 369.837 657.521 369.582 657.493L362.705 656.761C361.842 656.669 361.41 656.623 361.218 656.424C361.051 656.252 360.973 656.011 361.008 655.773C361.048 655.498 361.371 655.205 362.015 654.618L367.152 649.943C367.343 649.77 367.438 649.683 367.499 649.578C367.552 649.484 367.586 649.38 367.597 649.273C367.609 649.152 367.583 649.025 367.53 648.771L366.095 641.941C365.915 641.083 365.824 640.655 365.952 640.409C366.062 640.195 366.266 640.046 366.501 640.006C366.772 639.96 367.148 640.179 367.9 640.617L373.89 644.105C374.112 644.235 374.223 644.299 374.341 644.325C374.446 644.347 374.554 644.347 374.659 644.325C374.777 644.299 374.888 644.235 375.11 644.105L381.1 640.617C381.852 640.179 382.228 639.96 382.499 640.006C382.734 640.046 382.937 640.195 383.048 640.409C383.175 640.655 383.085 641.083 382.905 641.941L381.47 648.771C381.417 649.025 381.391 649.152 381.403 649.273C381.414 649.38 381.448 649.484 381.501 649.578C381.562 649.683 381.657 649.77 381.848 649.943L386.984 654.618C387.629 655.205 387.952 655.498 387.992 655.773C388.027 656.011 387.949 656.252 387.782 656.424C387.59 656.623 387.158 656.669 386.295 656.761L379.418 657.493C379.163 657.521 379.035 657.534 378.925 657.584C378.827 657.628 378.74 657.692 378.668 657.772C378.588 657.863 378.535 657.981 378.431 658.218L375.616 664.595Z" fill="#EE82C7"/>
<path d="M391.06 680V685.46H368.758C366.098 685.46 364.768 686.594 364.768 688.862C364.768 691.13 366.098 692.264 368.758 692.264H391.06V709.988H359.476V704.57H384.55V697.724H367.456C364.544 697.724 362.29 696.94 360.694 695.372C359.07 693.804 358.258 691.634 358.258 688.862C358.258 686.09 359.07 683.92 360.694 682.352C362.29 680.784 364.544 680 367.456 680H391.06Z" fill="#5347F5"/>
<path d="M42.3845 87.4046C42.7379 86.604 42.9147 86.2036 43.1608 86.0803C43.3745 85.9732 43.6255 85.9732 43.8392 86.0803C44.0854 86.2036 44.2621 86.604 44.6156 87.4046L47.4308 93.7822C47.5354 94.0189 47.5876 94.1372 47.6685 94.2279C47.74 94.3081 47.8275 94.3722 47.925 94.4161C48.0354 94.4658 48.163 94.4794 48.4183 94.5065L55.295 95.2394C56.1584 95.3314 56.59 95.3775 56.7822 95.5757C56.9491 95.7479 57.0266 95.989 56.9918 96.2274C56.9518 96.5018 56.6294 96.7951 55.9845 97.382L50.8476 102.057C50.6571 102.23 50.5616 102.317 50.5013 102.422C50.4479 102.516 50.4145 102.62 50.4033 102.727C50.3907 102.848 50.4172 102.975 50.4705 103.229L51.9053 110.059C52.0854 110.917 52.1755 111.345 52.0482 111.591C51.9375 111.805 51.7345 111.954 51.4992 111.994C51.2284 112.04 50.8523 111.821 50.1003 111.383L44.1102 107.895C43.888 107.765 43.7768 107.701 43.6586 107.675C43.5541 107.653 43.446 107.653 43.3414 107.675C43.2232 107.701 43.1121 107.765 42.8898 107.895L36.8998 111.383C36.1478 111.821 35.7718 112.04 35.5009 111.994C35.2656 111.954 35.0625 111.805 34.9519 111.591C34.8246 111.345 34.9147 110.917 35.0948 110.059L36.5295 103.229C36.5828 102.975 36.6094 102.848 36.5968 102.727C36.5856 102.62 36.5522 102.516 36.4988 102.422C36.4384 102.317 36.343 102.23 36.1524 102.057L31.0156 97.382C30.3707 96.7951 30.0483 96.5018 30.0082 96.2274C29.9734 95.989 30.0509 95.7479 30.2179 95.5757C30.41 95.3775 30.8417 95.3314 31.7051 95.2394L38.5818 94.5065C38.837 94.4794 38.9646 94.4658 39.075 94.4161C39.1726 94.3722 39.26 94.3081 39.3316 94.2279C39.4124 94.1372 39.4647 94.0189 39.5692 93.7822L42.3845 87.4046Z" fill="#EE82C7"/>
<path d="M26.94 72V66.54H49.242C51.902 66.54 53.232 65.406 53.232 63.138C53.232 60.87 51.902 59.736 49.242 59.736H26.94V42.012H58.524V47.43H33.45V54.276H50.544C53.456 54.276 55.71 55.06 57.306 56.628C58.93 58.196 59.742 60.366 59.742 63.138C59.742 65.91 58.93 68.08 57.306 69.648C55.71 71.216 53.456 72 50.544 72H26.94Z" fill="#5347F5"/>
<path fill-rule="evenodd" clip-rule="evenodd" d="M43.3028 732C30.048 732 19.3028 721.255 19.3028 708V375V163.091C19.3028 149.879 30.1768 139.556 42.9359 136.125C63.2801 130.654 77.4382 118.466 77.4382 104.308V42C77.4382 28.7452 88.1834 18 101.438 18H375C388.255 18 399 28.7451 399 42V375V586.909C399 600.121 388.126 610.444 375.367 613.875C355.023 619.346 340.865 631.534 340.865 645.692V708C340.865 721.255 330.119 732 316.865 732H43.3028Z" fill="#CCFD51"/>
<ellipse cx="197.5" cy="481.499" rx="84.5" ry="44.5" fill="#BFEE49"/>
<path fill-rule="evenodd" clip-rule="evenodd" d="M179.357 331.093C101.63 347.418 108.837 434.584 145.85 465.289C174.731 489.243 213.26 483.384 213.26 483.384C213.26 483.384 209.184 514.718 219.843 516.555C230.496 518.392 241.209 480.266 241.209 480.266C241.209 480.266 240.854 512.989 253.981 509.959C267.107 506.922 257.99 472.06 257.99 472.06C257.99 472.06 269.708 506.975 280.368 500.613C291.027 494.258 280.542 458.27 280.542 458.27C280.542 458.27 293.689 487.185 302.86 478.449C312.031 469.714 288.755 434.061 288.755 434.061C288.755 434.061 316.054 302.386 179.357 331.093Z" fill="white"/>
<path fill-rule="evenodd" clip-rule="evenodd" d="M242.34 419.886C237.433 423.935 237.245 454.707 244.653 454.204C252.061 453.695 253.288 440.428 253.288 440.428C253.288 440.428 261.876 446.173 265.945 442.285C270.015 438.396 247.248 415.837 242.34 419.886Z" fill="#97BC3C"/>
<path fill-rule="evenodd" clip-rule="evenodd" d="M206.816 383.511C191.531 374.648 172.806 391.475 173.175 403.884C173.751 423.185 192.53 444.511 209.042 438.665C225.561 432.813 225.339 394.251 206.816 383.511Z" fill="#97BC3C"/>
<path fill-rule="evenodd" clip-rule="evenodd" d="M263.362 372.011C252.971 365.984 240.24 377.428 240.488 385.862C240.883 398.989 253.648 413.489 264.877 409.514C276.107 405.538 275.959 379.312 263.362 372.011Z" fill="#97BC3C"/>
<path d="M268.801 240.186L258.742 236.81L247.772 269.5L257.831 272.875L268.801 240.186Z" fill="#5347F5"/>
<path d="M260.504 226.208L273.791 230.667C275.677 231.3 276.693 233.342 276.06 235.228L274.976 238.456C274.343 240.342 272.302 241.358 270.415 240.725L257.129 236.266C255.243 235.633 254.227 233.592 254.86 231.705L255.943 228.477C256.576 226.591 258.618 225.575 260.504 226.208Z" fill="#1279F2"/>
<path d="M253.516 268.627L253.715 268.693C259.603 270.714 264.723 274.449 268.403 279.299C270.482 282.039 269.575 285.987 266.447 287.419C264.206 288.444 261.523 287.812 260.059 285.83C257.648 282.567 254.278 280.104 250.272 278.729C246.055 277.364 241.755 277.239 237.699 278.41C235.33 279.092 232.814 277.929 231.674 275.739L231.669 275.729C230.151 272.816 231.59 269.136 234.748 268.229C240.849 266.474 247.426 266.583 253.516 268.627Z" fill="#1279F2"/>
<path d="M250.271 278.729C246.601 277.543 242.876 277.353 239.298 278.08L215.741 348.277L218.183 374.346L235.857 355.027L259.353 285.014C257.004 282.175 253.921 279.982 250.271 278.729Z" fill="#C7CFE3"/>
<path d="M246.051 291.302C247.439 291.767 248.188 293.272 247.722 294.66L230.212 346.837C229.746 348.225 228.242 348.974 226.854 348.508C225.466 348.042 224.717 346.538 225.183 345.15L242.693 292.972C243.159 291.584 244.663 290.836 246.051 291.302Z" fill="#AFB5CB"/>
<ellipse cx="221.284" cy="359.847" rx="23" ry="15" transform="rotate(16.285 221.284 359.847)" fill="white"/>
<path d="M214 342.999L218.741 343.911C224.209 344.963 229.462 346.92 234.285 349.702L240 352.999" stroke="#EE82C7" stroke-width="3"/>
<path d="M176.418 522.369L174.68 522.288L175.083 513.717L176.821 513.799L176.418 522.369ZM176.118 522.355L171.983 522.161C170.912 522.11 170.089 521.807 169.515 521.252C168.94 520.696 168.676 519.919 168.723 518.92C168.771 517.913 169.107 517.16 169.731 516.661C170.355 516.162 171.202 515.937 172.273 515.988L176.289 516.177L176.224 517.555L172.208 517.366C171.689 517.342 171.283 517.467 170.989 517.741C170.705 518.008 170.549 518.429 170.521 519.005C170.495 519.572 170.611 520.006 170.869 520.306C171.135 520.599 171.528 520.758 172.048 520.782L176.183 520.977L176.118 522.355ZM180.9 522.64C179.829 522.59 179.006 522.287 178.432 521.731C177.858 521.168 177.595 520.371 177.643 519.34C177.692 518.301 178.029 517.532 178.653 517.033C179.277 516.525 180.125 516.297 181.196 516.347L184.193 516.488C184.896 516.522 185.423 516.715 185.775 517.068C186.135 517.413 186.301 517.893 186.272 518.508C186.213 519.763 185.46 520.356 184.014 520.288L179.483 520.075C179.616 520.826 180.11 521.222 180.965 521.262L185.819 521.49L185.754 522.869L180.9 522.64ZM181.131 517.726C180.308 517.687 179.784 518.011 179.56 518.697L183.995 518.906C184.155 518.913 184.281 518.871 184.373 518.779C184.473 518.688 184.528 518.559 184.536 518.391C184.551 518.055 184.387 517.879 184.044 517.863L181.131 517.726ZM188.792 522.952C188.144 522.921 187.657 522.734 187.328 522.39C187 522.047 186.85 521.571 186.879 520.964C186.907 520.364 187.101 519.909 187.46 519.598C187.819 519.286 188.322 519.146 188.969 519.176L193.572 519.393L193.586 519.105C193.609 518.617 193.381 518.362 192.901 518.34L187.819 518.101L187.884 516.722L193.421 516.983C194.149 517.017 194.656 517.209 194.944 517.559C195.232 517.901 195.362 518.372 195.334 518.971L195.133 523.25L188.792 522.952ZM189.168 521.588L193.459 521.79L193.507 520.771L189.216 520.569C189.064 520.562 188.942 520.604 188.85 520.696C188.766 520.78 188.72 520.898 188.713 521.05C188.706 521.202 188.74 521.328 188.815 521.427C188.899 521.527 189.016 521.581 189.168 521.588ZM199.668 523.464C198.973 523.431 198.469 523.235 198.158 522.876C197.847 522.509 197.705 522.042 197.731 521.474L197.868 518.574L196.082 518.49L196.147 517.111L197.933 517.195L198.022 515.301L199.76 515.383L199.671 517.277L202.236 517.398L202.171 518.776L199.606 518.655L199.48 521.34C199.457 521.828 199.685 522.083 200.164 522.106L202.346 522.208L202.281 523.587L199.668 523.464ZM203.175 523.629L203.578 515.058L205.316 515.14L205.203 517.537L208.847 517.709C209.551 517.742 210.054 517.942 210.357 518.308C210.668 518.668 210.811 519.131 210.784 519.698L210.583 523.977L208.844 523.896L209.036 519.82C209.059 519.341 208.83 519.09 208.351 519.067L205.138 518.916L204.913 523.711L203.175 523.629Z" fill="#97BC3C"/>
</svg>
