<svg xmlns="http://www.w3.org/2000/svg" viewBox="0 0 2356 2404.22"><defs><style>.cls-1{opacity:0.74;}.cls-2{fill:#138af2;fill-rule:evenodd;}.cls-3{fill:#ccfd51;}.cls-4{fill:#5347f5;}</style></defs><g id="Layer_2" data-name="Layer 2"><g id="Layer_2-2" data-name="Layer 2"><g class="cls-1"><path class="cls-2" d="M2356,0H0V2404.22H2356ZM1278.85,1405.38c93-81.21,102.54-222.43,21.33-315.42s-222.43-102.55-315.42-21.34S882.21,1291.05,963.42,1384,1185.85,1486.59,1278.85,1405.38Z"/></g><rect class="cls-3" x="1374.13" y="1373.32" width="32.87" height="319.98" rx="5" transform="translate(-665.4 1293.08) rotate(-41.13)"/><path class="cls-3" d="M1327.88,1438.21c53.66,49.1,183.48,164.44,165.07,189Z"/><path class="cls-3" d="M1304.77,1458.39c41.44,59.78,138.24,203.95,165.07,189Z"/><path class="cls-4" d="M1257.9,1389.51a9,9,0,0,1,8.79-7.67l38.19-.5a9,9,0,0,1,6,15.78l-43.82,38.27a9,9,0,0,1-14.83-8.1Z"/><path class="cls-3" d="M1300.18,1090c81.21,93,71.66,234.21-21.33,315.42S1044.63,1477,963.42,1384s-71.65-234.21,21.34-315.42S1219,997,1300.18,1090ZM984.32,1365.8c71.13,81.45,194.83,89.81,276.28,18.68s89.82-194.82,18.69-276.27-194.83-89.82-276.28-18.69S913.19,1284.34,984.32,1365.8Z"/></g></g></svg>