<svg width="913" height="403" viewBox="0 0 913 403" fill="none" xmlns="http://www.w3.org/2000/svg">
<path d="M888.928 118.54C891.956 134.361 883.126 151.923 863.96 170.218C844.832 188.477 815.622 207.252 778.48 225.448C704.207 261.835 598.425 295.806 478.743 318.711C359.061 341.616 248.21 349.104 165.751 342.714C124.514 339.518 90.4366 332.855 65.9184 322.949C41.351 313.024 26.6605 299.963 23.6326 284.142C20.6047 268.321 29.4347 250.759 48.6012 232.464C67.7292 214.205 96.9387 195.43 134.081 177.234C208.354 140.847 314.136 106.876 433.818 83.9712C553.5 61.0662 664.351 53.5776 746.81 59.9684C788.047 63.1644 822.124 69.8273 846.643 79.7329C871.21 89.6584 885.901 102.719 888.928 118.54Z" stroke="#CCFD51" stroke-width="2"/>
<path d="M76.2594 269.192C76.4734 267.39 79.0877 267.39 79.3017 269.192L81.095 284.306C83.4108 303.823 98.7982 319.211 118.315 321.526L133.429 323.32C135.231 323.534 135.231 326.148 133.429 326.362L118.315 328.155C98.7982 330.471 83.4108 345.859 81.095 365.375L79.3017 380.489C79.0877 382.291 76.4734 382.291 76.2594 380.489L74.466 365.375C72.1503 345.859 56.7628 330.471 37.2461 328.155L22.1318 326.362C20.3301 326.148 20.3301 323.534 22.1318 323.32L37.2461 321.526C56.7628 319.211 72.1503 303.823 74.466 284.306L76.2594 269.192Z" fill="#CCFD51"/>
<path d="M756.9 28.6231C757.023 27.5801 758.537 27.5801 758.661 28.6231L759.699 37.3735C761.04 48.6727 769.948 57.5812 781.247 58.9219L789.998 59.9602C791.041 60.084 791.041 61.5976 789.998 61.7215L781.247 62.7598C769.948 64.1004 761.04 73.009 759.699 84.308L758.661 93.0584C758.537 94.1016 757.023 94.1016 756.9 93.0584L755.861 84.308C754.521 73.009 745.612 64.1004 734.313 62.7598L725.563 61.7215C724.52 61.5976 724.52 60.084 725.563 59.9602L734.313 58.9219C745.612 57.5812 754.521 48.6727 755.861 37.3735L756.9 28.6231Z" fill="#CCFD51"/>
<path d="M177.707 325.351C177.787 324.671 178.773 324.671 178.854 325.351L179.53 331.052C180.404 338.413 186.208 344.217 193.57 345.091L199.271 345.767C199.95 345.848 199.95 346.834 199.271 346.915L193.57 347.591C186.208 348.465 180.404 354.269 179.53 361.63L178.854 367.331C178.773 368.011 177.787 368.011 177.707 367.331L177.03 361.63C176.157 354.269 170.353 348.465 162.991 347.591L157.29 346.915C156.61 346.834 156.61 345.848 157.29 345.767L162.991 345.091C170.353 344.217 176.157 338.413 177.03 331.052L177.707 325.351Z" fill="#CCFD51"/>
</svg>