<svg width="414" height="53" viewBox="0 0 414 53" fill="none" xmlns="http://www.w3.org/2000/svg">
<g clip-path="url(#clip0_336_697)">
<path d="M76.5808 46.113C70.3561 46.113 67.2727 42.561 67.2727 36.6343V20.9877H61.6396V14.8805H67.2727V7.06135L74.6855 5.22266V14.8805H82.4545V20.9877H74.6853V35.9788C74.6853 38.3521 75.7526 39.3604 78.1221 39.3604C79.6643 39.3604 80.9114 39.3004 82.9284 39.0617V45.287C80.8519 45.8182 78.7772 46.113 76.5808 46.113Z" fill="black"/>
<path d="M105.1 45.7012V26.6763C105.1 23.122 103.916 20.9288 100.004 20.9288C95.5505 20.9288 93.6575 25.6691 93.6575 29.462V45.7012H86.2461V2.91455H93.6575V18.1417C95.4383 15.5339 98.8745 14.1114 102.074 14.1114C108.658 14.1114 112.514 18.7936 112.514 25.1383V45.7012H105.1Z" fill="black"/>
<path d="M144.349 32.6036H123.717C123.66 34.9725 124.487 37.2256 125.966 38.6466C127.032 39.6548 128.517 40.5465 130.534 40.5465C132.668 40.5465 133.971 40.1302 135.044 39.061C135.69 38.4099 136.227 37.5819 136.523 36.454H143.636C143.458 38.2942 142.215 40.7254 141.027 42.1458C138.424 45.2255 134.565 46.4698 130.656 46.4698C126.445 46.4698 123.357 44.9901 120.929 42.676C117.847 39.7146 116.186 35.3879 116.186 30.3537C116.186 25.43 117.667 21.0488 120.633 18.0217C122.945 15.6548 126.263 14.1123 130.473 14.1123C135.044 14.1123 139.191 15.9502 141.737 19.8006C143.993 23.1792 144.526 26.6762 144.409 30.5289C144.409 30.5289 144.349 31.9545 144.349 32.6036ZM135.101 21.8195C134.091 20.7506 132.549 20.0387 130.413 20.0387C128.16 20.0387 126.327 20.987 125.254 22.4115C124.193 23.7728 123.717 25.1966 123.66 27.209H136.997C136.941 24.9 136.285 23.1211 135.101 21.8195Z" fill="black"/>
<path d="M159.942 10.7924V45.7005H152.294V10.7924H139.844V3.68164H172.391V10.7924H159.942Z" fill="black"/>
<path d="M185.071 21.4598C179.858 21.4598 177.128 25.1949 177.128 30.1736V45.7006H169.662V14.8805H175.944L176.595 19.5055C178.017 15.9503 181.692 14.4697 185.312 14.4697C186.081 14.4697 186.854 14.5288 187.624 14.6461V21.7572C186.794 21.5789 185.905 21.4598 185.071 21.4598Z" fill="black"/>
<path d="M212.7 46.1738C209.5 46.1738 207.722 44.1582 207.483 41.8498C206.06 44.3366 202.503 46.4698 198.116 46.4698C190.767 46.4698 186.969 41.8499 186.969 36.8104C186.969 30.9435 191.535 27.5678 197.403 27.1536L206.479 26.4962V24.6028C206.479 21.697 205.466 19.7454 201.257 19.7454C197.818 19.7454 195.803 21.2834 195.625 24.1283H188.452C188.864 17.1894 194.379 14.1123 201.258 14.1123C206.537 14.1123 211.043 15.7728 212.819 20.3942C213.589 22.3514 213.711 24.5439 213.711 26.6172V38.0551C213.711 39.4769 214.184 40.0122 215.431 40.0122C215.902 40.0122 216.379 39.8919 216.379 39.8919V45.3426C215.132 45.8797 214.481 46.1738 212.7 46.1738ZM206.479 32.0088L198.649 32.6032C196.396 32.7807 194.204 34.1459 194.204 36.6338C194.204 39.0033 196.278 40.4843 198.589 40.4843C203.216 40.4843 206.479 37.9963 206.479 33.4324V32.0088Z" fill="black"/>
<path d="M239.856 45.7008L239.384 42.3237C237.542 45.1679 234.104 46.4116 230.726 46.4116C227.641 46.4116 225.093 45.3398 223.196 43.8067C219.517 40.7822 217.74 36.159 217.74 30.3532C217.74 24.3049 219.577 19.6258 223.253 16.5997C225.151 15.0617 227.641 14.1118 230.785 14.1118C234.7 14.1118 237.542 15.4162 238.849 17.0139V2.91309H246.257V45.7008H239.856ZM232.209 20.3374C229.899 20.3374 228.293 21.3999 227.229 22.7646C225.686 24.7807 225.273 27.5677 225.273 30.237C225.273 32.8987 225.686 35.7423 227.229 37.7579C228.293 39.1186 229.899 40.1874 232.209 40.1874C238.018 40.1874 239.205 34.6744 239.205 30.237C239.205 25.785 238.018 20.3374 232.209 20.3374Z" fill="black"/>
<path d="M278.572 32.6031H257.939C257.88 34.972 258.71 37.2251 260.193 38.6461C261.255 39.6543 262.74 40.546 264.755 40.546C266.891 40.546 268.193 40.1297 269.263 39.0605C269.913 38.4095 270.449 37.5814 270.742 36.4536H277.861C277.68 38.2937 276.434 40.7249 275.253 42.1453C272.644 45.2251 268.79 46.4693 264.874 46.4693C260.666 46.4693 257.583 44.9896 255.151 42.6756C252.067 39.7141 250.409 35.3874 250.409 30.3533C250.409 25.4296 251.888 21.0483 254.856 18.0212C257.168 15.6543 260.487 14.1118 264.696 14.1118C269.264 14.1118 273.414 15.9497 275.962 19.8001C278.216 23.1787 278.747 26.6757 278.63 30.5284C278.63 30.5284 278.572 31.9541 278.572 32.6031ZM269.324 21.819C268.314 20.7501 266.773 20.0382 264.635 20.0382C262.384 20.0382 260.547 20.9865 259.481 22.411C258.412 23.7723 257.939 25.1962 257.88 27.2085H271.218C271.158 24.8996 270.507 23.1206 269.324 21.819Z" fill="black"/>
<path d="M311.06 41.1959C308.273 44.1019 304.064 45.6989 299.26 45.6989H282.898V3.68311H299.26C304.064 3.68311 308.273 5.28004 311.06 8.18607C315.385 12.6311 315.982 18.8556 315.982 24.664C315.982 30.4715 315.386 36.749 311.06 41.1959ZM305.189 12.9263C303.769 11.5049 301.692 10.555 299.26 10.555H290.546V38.8244H299.26C301.692 38.8244 303.769 37.8779 305.189 36.4534C308.154 33.4901 308.213 28.5142 308.213 24.6638C308.213 20.8072 308.154 15.8878 305.189 12.9263Z" fill="black"/>
<path d="M346.216 32.6031H325.582C325.523 34.972 326.352 37.2251 327.838 38.6461C328.905 39.6543 330.383 40.546 332.402 40.546C334.537 40.546 335.84 40.1297 336.909 39.0605C337.562 38.4095 338.091 37.5814 338.391 36.4536H345.504C345.327 38.2937 344.081 40.7249 342.894 42.1453C340.287 45.2251 336.433 46.4693 332.518 46.4693C328.307 46.4693 325.227 44.9896 322.792 42.6756C319.711 39.7141 318.052 35.3874 318.052 30.3533C318.052 25.4296 319.535 21.0483 322.497 18.0212C324.81 15.6543 328.133 14.1118 332.34 14.1118C336.908 14.1118 341.056 15.9497 343.608 19.8001C345.858 23.1787 346.394 26.6757 346.275 30.5284C346.275 30.5284 346.216 31.9541 346.216 32.6031ZM336.969 21.819C335.959 20.7501 334.416 20.0382 332.285 20.0382C330.031 20.0382 328.19 20.9865 327.124 22.411C326.057 23.7723 325.582 25.1962 325.523 27.2085H338.863C338.806 24.8996 338.151 23.1206 336.969 21.819Z" fill="black"/>
<path d="M378.172 2.91455V45.7012H385.582V37.5833L390.503 32.2511L399.158 45.7012H407.755L395.543 26.7978L406.57 14.8805H397.264L385.582 27.3891V2.91455H378.172Z" fill="black"/>
<path d="M365.78 27.4463C362.754 26.9734 361.983 26.9151 359.197 26.5553C357.535 26.3199 355.64 25.669 355.64 23.4795C355.64 21.8744 356.709 20.7506 358.012 20.2135C359.141 19.7454 360.148 19.7454 361.211 19.7454C362.754 19.7454 364.359 20.2762 365.244 21.1669C365.958 21.9376 366.491 22.8865 366.491 24.07H373.543C373.543 21.8196 372.482 19.5063 370.818 17.7245C368.567 15.2977 364.83 14.1113 361.154 14.1113C357.301 14.1113 354.04 15.2404 351.788 17.1892C349.949 18.7953 348.648 20.9871 348.648 24.1302C348.648 28.0395 351.491 31.4776 355.703 32.3682C358.427 32.9602 361.508 33.1371 364.236 33.5519C366.139 33.8497 367.323 35.0369 367.323 36.8094C367.323 40.1865 363.527 40.7255 361.036 40.7255C358.904 40.7255 357.536 40.3035 356.354 39.3603C355.559 38.717 354.962 37.575 354.773 36.4239H347.797C348.01 39.0405 349.376 41.3309 351.016 42.9148C353.566 45.3401 357.064 46.4699 360.98 46.4699C365.189 46.4699 369.04 45.4076 371.531 42.9148C373.131 41.316 374.199 39.119 374.199 36.1595C374.199 31.2994 370.645 28.2177 365.78 27.4463Z" fill="black"/>
<path d="M12.1489 0.948242V8.91088H20.2964V29.6922H28.1381V8.78633V0.948242H12.1489Z" fill="#0099FA"/>
<path d="M7.845 27.8439C7.845 21.6451 11.2912 16.2512 16.373 13.474L4.73694 13.4731C1.76103 17.492 0 22.4603 0 27.8439C0 38.5256 6.92298 47.5888 16.5268 50.8023V42.295C11.3613 39.541 7.845 34.1046 7.845 27.8439Z" fill="#0099FA"/>
<path d="M32.0636 4.94141V13.4724C37.1464 16.251 40.5967 21.6442 40.5967 27.8451C40.5967 36.8819 33.2622 44.2111 24.2184 44.2111C22.8695 44.2111 21.559 44.047 20.3052 43.7403V51.7359C21.58 51.9412 22.8856 52.0519 24.2184 52.0519C37.5934 52.0519 48.4376 41.2138 48.4376 27.8454C48.4374 17.2191 41.5882 8.19948 32.0636 4.94141Z" fill="#0099FA"/>
<path d="M411.146 16.7385C409.51 16.7385 408.292 15.4586 408.292 13.8388C408.292 12.2191 409.51 10.9312 411.146 10.9312C412.782 10.9312 414 12.2113 414 13.8309C414 15.4508 412.782 16.7385 411.146 16.7385ZM411.146 11.4369C409.747 11.4369 408.822 12.4559 408.822 13.8388C408.822 15.2215 409.746 16.2328 411.146 16.2328C412.545 16.2328 413.47 15.2138 413.47 13.8309C413.47 12.4484 412.545 11.4369 411.146 11.4369ZM411.786 15.3006L411.28 14.1866H410.687V15.3006H410.158V12.2747H411.272C411.849 12.2747 412.347 12.6064 412.347 13.2228C412.347 13.6178 412.173 13.934 411.802 14.0997L412.363 15.3008L411.786 15.3006ZM411.272 12.7641H410.68V13.6967H411.272C411.589 13.6967 411.794 13.5544 411.794 13.2226C411.794 12.9144 411.557 12.7641 411.272 12.7641Z" fill="#231F20"/>
</g>
<defs>
<clipPath id="clip0_336_697">
<rect width="414" height="53" fill="white"/>
</clipPath>
</defs>
</svg>
