<svg width="200" height="201" viewBox="0 0 200 201" fill="none" xmlns="http://www.w3.org/2000/svg">
<path fill-rule="evenodd" clip-rule="evenodd" d="M12.132 129.789C-4.04401 113.613 -4.04401 87.3867 12.132 71.2107C13.9127 69.4301 15.8151 67.8454 17.8125 66.4568C17.382 64.0626 17.1573 61.5969 17.1573 59.0787C17.1573 36.2023 35.7023 17.6574 58.5786 17.6574C61.0968 17.6574 63.5625 17.8821 65.9567 18.3125C67.3454 16.3152 68.93 14.4127 70.7106 12.6321C86.8869 -3.54416 113.113 -3.54391 129.289 12.6321C131.07 14.4128 132.654 16.3152 134.043 18.3125C136.437 17.8821 138.903 17.6574 141.421 17.6574C164.298 17.6574 182.843 36.2023 182.843 59.0787C182.843 61.5969 182.618 64.0626 182.187 66.4569C184.185 67.8455 186.087 69.4301 187.868 71.2107C204.044 87.387 204.044 113.613 187.868 129.789C186.087 131.57 184.185 133.155 182.187 134.543C182.618 136.937 182.843 139.403 182.843 141.921C182.843 164.798 164.298 183.343 141.421 183.343C138.903 183.343 136.437 183.118 134.043 182.687C132.654 184.685 131.07 186.587 129.289 188.368C113.113 204.544 86.8869 204.544 70.7106 188.368C68.93 186.587 67.3454 184.685 65.9568 182.688C63.5625 183.118 61.0968 183.343 58.5786 183.343C35.7023 183.343 17.1573 164.798 17.1573 141.921C17.1573 139.403 17.382 136.937 17.8125 134.543C15.8151 133.155 13.9127 131.57 12.132 129.789Z" fill="#CCFD51"/>
<path d="M101.502 169.404V172.358H98.5625V169.404H101.502Z" fill="#121212"/>
<path d="M79.9929 163.641C78.1843 168.315 71.4908 163.617 70.3086 166.672C69.8186 167.938 71.0708 168.815 72.4544 169.351C74.0337 169.964 75.7705 170.247 76.3566 168.732L77.5574 169.198C76.7289 171.34 74.467 171.288 72.0915 170.367C69.977 169.547 68.4136 168.039 69.1057 166.25C70.5102 162.621 76.4681 166.854 78.078 163.469L71.0427 160.74L71.4317 159.735L80.1899 163.132L79.9929 163.641Z" fill="#121212"/>
<path d="M60.3087 164.233C57.3816 162.419 56.9313 159.553 58.3258 157.272C59.8472 154.838 62.6924 154.23 65.4411 155.934C68.3563 157.741 68.8112 160.626 67.4121 162.888C65.9983 165.174 63.224 166.041 60.3087 164.233ZM66.31 162.222C67.3483 160.543 67.1944 158.289 64.8741 156.851C62.5419 155.405 60.4588 156.272 59.4205 157.951C58.3896 159.617 58.5435 161.871 60.8757 163.317C63.196 164.755 65.2791 163.889 66.31 162.222Z" fill="#121212"/>
<path d="M58.5627 152.148C55.1884 155.854 50.645 149.053 48.4395 151.476C47.5252 152.48 48.3762 153.75 49.4723 154.75C50.7235 155.892 52.2404 156.784 53.3338 155.583L54.2851 156.451C52.7393 158.149 50.6492 157.284 48.7672 155.566C47.0921 154.037 46.179 152.066 47.4702 150.648C50.0905 147.77 54.1163 153.871 56.8396 151.296L51.2662 146.209L51.992 145.411L58.9303 151.744L58.5627 152.148Z" fill="#121212"/>
<path d="M48.7364 145.32L39.001 143.642L38.217 142.602L43.6331 138.507L42.3686 136.83L43.2284 136.18L44.493 137.857L45.5204 137.08L46.2875 138.097L45.2601 138.874L49.6186 144.653L48.7364 145.32ZM39.978 142.868L47.9662 144.252L44.4003 139.524L39.978 142.868Z" fill="#121212"/>
<path d="M34.2056 120.83L31.3646 121.64L30.561 118.812L33.4019 118.002L34.2056 120.83Z" fill="#121212"/>
<path d="M33.8585 98.5407C28.8679 98.0776 31.5511 90.3545 28.2891 90.0519C26.9369 89.9264 26.4377 91.3705 26.3009 92.8481C26.1448 94.5349 26.3486 96.2832 27.9656 96.4333L27.8469 97.7158C25.5607 97.5037 24.9901 95.3136 25.2249 92.7764C25.434 90.5181 26.4549 88.6022 28.3647 88.7794C32.24 89.1389 29.8028 96.0273 33.4991 96.6514L34.1945 89.1375L35.2679 89.2371L34.4021 98.5911L33.8585 98.5407Z" fill="#121212"/>
<path d="M27.8915 79.7508C28.8329 76.4379 31.4635 75.2221 34.039 75.9413C36.7953 76.741 38.1601 79.3134 37.2761 82.4242C36.3385 85.7236 33.6907 86.949 31.1325 86.2203C28.5474 85.4838 26.9539 83.0501 27.8915 79.7508ZM31.4711 84.9775C33.3696 85.5183 35.4931 84.7549 36.2394 82.1289C36.9895 79.4894 35.5854 77.721 33.6869 77.1802C31.8019 76.6432 29.6783 77.4066 28.9283 80.0461C28.182 82.6721 29.5861 84.4405 31.4711 84.9775Z" fill="#121212"/>
<path d="M39.0264 74.7618C34.541 72.5256 39.8298 66.2925 36.898 64.8309C35.6827 64.2249 34.6961 65.3913 34.0353 66.72C33.2809 68.2368 32.8399 69.9411 34.2933 70.6657L33.7197 71.8189C31.6649 70.7945 31.9234 68.5456 33.0581 66.2641C34.068 64.2334 35.7112 62.8156 37.4277 63.6714C40.9108 65.4079 36.1526 70.9513 39.3732 72.8698L42.7334 66.1132L43.6982 66.5942L39.5151 75.0054L39.0264 74.7618Z" fill="#121212"/>
<path d="M42.8911 63.4298L41.8389 53.5953L42.6229 52.5558L48.039 56.6509L49.3036 54.9743L50.1634 55.6244L48.8989 57.301L49.9263 58.0778L49.1591 59.095L48.1318 58.3182L43.7733 64.0968L42.8911 63.4298ZM42.8497 54.3244L43.7059 62.396L47.2719 57.668L42.8497 54.3244Z" fill="#121212"/>
<path d="M62.4347 42.7287L60.881 40.2163L63.3798 38.6672L64.9335 41.1796L62.4347 42.7287Z" fill="#121212"/>
<path d="M83.7494 36.2868C82.8295 31.3599 90.9918 31.8263 90.3905 28.6059C90.1413 27.271 88.6158 27.1862 87.1571 27.4592C85.4921 27.7709 83.8663 28.4455 84.1643 30.0419L82.8983 30.2788C82.4769 28.0218 84.4273 26.8734 86.9318 26.4047C89.1611 25.9874 91.2831 26.4449 91.6351 28.3303C92.3494 32.1562 85.0574 31.6978 85.4682 35.4239L92.8854 34.0356L93.0833 35.0953L83.8496 36.8235L83.7494 36.2868Z" fill="#121212"/>
<path d="M100.175 25.4081C103.619 25.4081 105.509 27.6061 105.523 30.2801C105.509 33.1501 103.409 35.1661 100.175 35.1661C96.7448 35.1661 94.8408 32.9541 94.8408 30.2941C94.8408 27.6061 96.7448 25.4081 100.175 25.4081ZM96.1288 30.2801C96.1288 32.2541 97.4448 34.0881 100.175 34.0881C102.919 34.0881 104.235 32.2541 104.235 30.2801C104.235 28.3201 102.919 26.4861 100.175 26.4861C97.4448 26.4861 96.1288 28.3201 96.1288 30.2801Z" fill="#121212"/>
<path d="M108.012 34.7574C108.932 29.8306 116.375 33.2176 116.976 29.9973C117.225 28.6623 115.834 28.0315 114.375 27.7585C112.71 27.4469 110.95 27.4879 110.652 29.0843L109.386 28.8473C109.808 26.5903 112.041 26.2249 114.545 26.6937C116.774 27.1109 118.588 28.3049 118.236 30.1904C117.522 34.0163 110.888 30.9515 109.926 34.5745L117.344 35.9627L117.146 37.0224L107.912 35.2942L108.012 34.7574Z" fill="#121212"/>
<path d="M119.957 35.3833L129.12 31.6843L130.333 32.1551L127.883 38.4876L129.841 39.247L129.452 40.2524L127.494 39.493L127.029 40.6942L125.842 40.2335L126.306 39.0323L119.558 36.4148L119.957 35.3833ZM128.696 32.8564L121.174 35.8853L126.695 38.0269L128.696 32.8564Z" fill="#121212"/>
<path d="M145.191 48.548L147.18 46.3638L149.352 48.3458L147.363 50.53L145.191 48.548Z" fill="#121212"/>
<path d="M157.206 67.3187C161.691 65.0824 163.472 73.0645 166.403 71.6028C167.619 70.9969 167.284 69.5057 166.623 68.177C165.869 66.6602 164.776 65.2807 163.323 66.0053L162.749 64.8521C164.804 63.8277 166.441 65.3895 167.575 67.6709C168.585 69.7016 168.725 71.869 167.008 72.7248C163.525 74.4613 161.975 67.3188 158.505 68.736L161.865 75.4925L160.9 75.9735L156.717 67.5623L157.206 67.3187Z" fill="#121212"/>
<path d="M172.156 80.1516C173.097 83.4644 171.5 85.8847 168.932 86.6307C166.168 87.4036 163.655 85.9359 162.771 82.8251C161.834 79.5257 163.44 77.0882 165.999 76.3594C168.584 75.6229 171.218 76.8522 172.156 80.1516ZM166.364 77.5945C164.466 78.1353 163.062 79.9037 163.808 82.5297C164.558 85.1692 166.682 85.9326 168.58 85.3918C170.465 84.8548 171.869 83.0864 171.119 80.4469C170.373 77.8209 168.249 77.0575 166.364 77.5945Z" fill="#121212"/>
<path d="M165.309 90.2633C170.3 89.8003 169.079 97.8856 172.341 97.5829C173.694 97.4575 173.919 95.9462 173.783 94.4685C173.626 92.7817 173.105 91.1006 171.488 91.2507L171.37 89.9682C173.656 89.756 174.619 91.8039 174.853 94.341C175.062 96.5994 174.41 98.6704 172.501 98.8476C168.625 99.2072 169.757 91.9878 166.009 92.0543L166.704 99.5682L165.631 99.6678L164.765 90.3137L165.309 90.2633Z" fill="#121212"/>
<path d="M167.979 101.935L174.048 109.739L173.928 111.036L167.167 110.409L166.974 112.5L165.9 112.4L166.094 110.309L164.811 110.19L164.929 108.922L166.211 109.041L166.878 101.833L167.979 101.935ZM172.805 109.652L167.83 103.243L167.285 109.14L172.805 109.652Z" fill="#121212"/>
<path d="M162.246 129.833L164.89 131.151L163.58 133.784L160.937 132.466L162.246 129.833Z" fill="#121212"/>
<path d="M147.511 146.544C150.885 150.25 143.703 154.152 145.908 156.574C146.822 157.578 148.164 156.847 149.26 155.847C150.511 154.705 151.538 153.275 150.444 152.074L151.396 151.205C152.941 152.903 151.888 154.907 150.006 156.625C148.331 158.154 146.287 158.882 144.996 157.464C142.375 154.586 148.814 151.136 146.504 148.183L140.931 153.27L140.205 152.473L147.143 146.14L147.511 146.544Z" fill="#121212"/>
<path d="M139.271 164.453C136.344 166.268 133.581 165.394 132.163 163.127C130.666 160.679 131.39 157.858 134.139 156.154C137.054 154.346 139.836 155.224 141.235 157.487C142.648 159.773 142.186 162.646 139.271 164.453ZM140.147 158.177C139.109 156.498 137.026 155.632 134.706 157.07C132.374 158.516 132.22 160.77 133.258 162.448C134.289 164.115 136.372 164.982 138.704 163.536C141.024 162.098 141.178 159.844 140.147 158.177Z" fill="#121212"/>
<path d="M127.691 160.634C129.5 165.309 121.392 166.351 122.574 169.407C123.064 170.673 124.579 170.476 125.962 169.939C127.542 169.327 129.016 168.365 128.43 166.85L129.631 166.384C130.459 168.526 128.753 170.013 126.377 170.935C124.263 171.755 122.093 171.695 121.401 169.907C119.997 166.277 127.248 165.386 126.16 161.799L119.125 164.528L118.736 163.522L127.494 160.125L127.691 160.634Z" fill="#121212"/>
<path d="M117.208 166.401L111.362 174.375L110.083 174.614L108.836 167.94L106.772 168.326L106.574 167.266L108.639 166.88L108.402 165.614L109.654 165.379L109.891 166.645L117.005 165.314L117.208 166.401ZM111.106 173.155L115.91 166.616L110.089 167.705L111.106 173.155Z" fill="#121212"/>
</svg>
