<svg width="1148" height="614" viewBox="0 0 1148 614" fill="none" xmlns="http://www.w3.org/2000/svg">
<path d="M374.442 364.991C316.442 249.288 182 -3.40973e-05 0 0L1147.94 0.00219727V479.041C1055.78 479.041 929.916 555.036 864.442 583.982C763.65 628.542 633.264 618.695 562.442 583.982C491.62 549.269 432.442 480.694 374.442 364.991Z" fill="url(#paint0_radial_473_57)"/>
<path d="M374.442 364.991C316.442 249.288 182 -3.40973e-05 0 0L1147.94 0.00219727V479.041C1055.78 479.041 929.916 555.036 864.442 583.982C763.65 628.542 633.264 618.695 562.442 583.982C491.62 549.269 432.442 480.694 374.442 364.991Z" fill="url(#paint1_radial_473_57)"/>
<path d="M374.442 364.991C316.442 249.288 182 -3.40973e-05 0 0L1147.94 0.00219727V479.041C1055.78 479.041 929.916 555.036 864.442 583.982C763.65 628.542 633.264 618.695 562.442 583.982C491.62 549.269 432.442 480.694 374.442 364.991Z" fill="url(#paint2_radial_473_57)"/>
<defs>
<radialGradient id="paint0_radial_473_57" cx="0" cy="0" r="1" gradientUnits="userSpaceOnUse" gradientTransform="translate(1148 69.4999) rotate(136.522) scale(791.073 1479.43)">
<stop stop-color="#80C9E2"/>
<stop offset="0.776042" stop-color="#83C0D6" stop-opacity="0"/>
</radialGradient>
<radialGradient id="paint1_radial_473_57" cx="0" cy="0" r="1" gradientUnits="userSpaceOnUse" gradientTransform="translate(95) rotate(28.2607) scale(1065.51 1992.66)">
<stop stop-color="#7A8CE3"/>
<stop offset="0.833333" stop-color="#8595E7" stop-opacity="0"/>
</radialGradient>
<radialGradient id="paint2_radial_473_57" cx="0" cy="0" r="1" gradientUnits="userSpaceOnUse" gradientTransform="translate(653 614) rotate(-84.1416) scale(617.224 1154.3)">
<stop stop-color="#9E64E9"/>
<stop offset="0.765625" stop-color="#B2A2EA" stop-opacity="0"/>
</radialGradient>
</defs>
</svg>
